<svg width="40" height="34" viewBox="0 0 40 34" fill="none" xmlns="http://www.w3.org/2000/svg">
<path d="M21.4502 0.829017C21.888 0.371162 22.5977 0.371163 23.0355 0.829019L37.1476 15.59C37.5853 16.0479 37.5853 16.7902 37.1476 17.2481L33.9553 20.5871C33.5176 21.0449 32.8079 21.0449 32.3702 20.5871L18.258 5.82612C17.8203 5.36826 17.8203 4.62593 18.258 4.16807L21.4502 0.829017Z" fill="url(#paint0_linear_5619_8812)"/>
<path d="M37.4919 15.9603C37.9297 16.4181 37.9297 17.1605 37.4919 17.6183L23.0725 32.7007C22.6348 33.1586 21.9252 33.1586 21.4873 32.7007L18.2951 29.3617C17.8574 28.9039 17.8574 28.1615 18.2951 27.7037L32.7145 12.6213C33.1522 12.1634 33.862 12.1634 34.2997 12.6213L37.4919 15.9603Z" fill="url(#paint1_linear_5619_8812)"/>
<path d="M3.98933 0.829017C4.42706 0.371162 5.13677 0.371163 5.57449 0.829019L19.6867 15.59C20.1244 16.0479 20.1244 16.7902 19.6867 17.2481L16.4944 20.5871C16.0567 21.0449 15.347 21.0449 14.9092 20.5871L0.797048 5.82612C0.359318 5.36826 0.359317 4.62593 0.797048 4.16807L3.98933 0.829017Z" fill="url(#paint2_linear_5619_8812)"/>
<path d="M20.031 15.9603C20.4687 16.4181 20.4687 17.1605 20.031 17.6183L5.61161 32.7007C5.17387 33.1586 4.46417 33.1586 4.02644 32.7007L0.834157 29.3617C0.396426 28.9039 0.396427 28.1615 0.834157 27.7037L15.2536 12.6213C15.6913 12.1634 16.4011 12.1634 16.8388 12.6213L20.031 15.9603Z" fill="url(#paint3_linear_5619_8812)"/>
<defs>
<linearGradient id="paint0_linear_5619_8812" x1="27.7028" y1="0.485626" x2="27.7028" y2="20.9305" gradientUnits="userSpaceOnUse">
<stop stop-color="#9D5FED"/>
<stop offset="1" stop-color="#6752C9"/>
</linearGradient>
<linearGradient id="paint1_linear_5619_8812" x1="27.8935" y1="12.2779" x2="27.8935" y2="33.0441" gradientUnits="userSpaceOnUse">
<stop stop-color="#9D5FED"/>
<stop offset="1" stop-color="#6752C9"/>
</linearGradient>
<linearGradient id="paint2_linear_5619_8812" x1="10.2418" y1="0.485626" x2="10.2418" y2="20.9305" gradientUnits="userSpaceOnUse">
<stop stop-color="#9D5FED"/>
<stop offset="1" stop-color="#6752C9"/>
</linearGradient>
<linearGradient id="paint3_linear_5619_8812" x1="10.4326" y1="12.2779" x2="10.4326" y2="33.0441" gradientUnits="userSpaceOnUse">
<stop stop-color="#9D5FED"/>
<stop offset="1" stop-color="#6752C9"/>
</linearGradient>
</defs>
</svg>
