<svg width="42" height="33" viewBox="0 0 42 33" fill="none" xmlns="http://www.w3.org/2000/svg">
<path d="M41.3896 2.06389L37.3989 0.109236C37.0252 -0.0729317 36.5809 -0.0255682 36.2559 0.234931L23.6474 9.72366L28.875 13.8388L35.5607 9.05729V23.9604L20.6181 12.1742L5.67548 0.387952C5.34864 0.131095 4.90623 0.0837321 4.53425 0.2659L0.610344 2.19141C0.238359 2.37357 0 2.75612 0 3.17511V29.9538C0 30.3726 0.236553 30.7552 0.610344 30.9374L4.60286 32.8903C4.97665 33.0724 5.42087 33.0251 5.7459 32.7646L17.325 22.7511L12.0974 18.636L6.44112 23.9404V9.16659L36.3101 32.7482C36.6369 33.0051 37.0793 33.0524 37.4513 32.8702L42 30.6369V3.04577C42 2.62678 41.7634 2.24423 41.3896 2.06207V2.06389Z" fill="url(#paint0_linear_5619_8827)"/>
<defs>
<linearGradient id="paint0_linear_5619_8827" x1="21" y1="-0.000244141" x2="21" y2="32.9998" gradientUnits="userSpaceOnUse">
<stop stop-color="#9D5FED"/>
<stop offset="1" stop-color="#6752C9"/>
</linearGradient>
</defs>
</svg>
