<svg width="138" height="32" viewBox="0 0 138 32" fill="none" xmlns="http://www.w3.org/2000/svg">
<g clip-path="url(#clip0_5627_7410)">
<path fill-rule="evenodd" clip-rule="evenodd" d="M34.0641 31.5767V0.42659H35.1509V31.5767H34.0641ZM34.0641 31.5767L32.923 0.42659H31.8362L32.9737 31.5767H34.0641ZM32.9773 31.5767L30.6951 0.42659H29.6083L31.8906 31.5767H32.9773ZM31.8616 31.5767L28.4273 0.42659H27.3405L30.7603 31.5767H31.8616ZM30.7386 31.5767L26.1813 0.42659H25.0945L29.6482 31.5767H30.7386ZM29.6264 31.5767L23.9208 0.42659H22.8159L28.5215 31.5767H29.6264ZM28.5107 31.5767L21.6277 0.42659H20.5119L27.3949 31.5767H28.5107ZM27.384 31.5767L19.2983 0.42659H18.1753L26.2284 31.5767H27.384ZM26.2501 31.5767L17.0089 0.42659H15.875L25.1163 31.5767H26.2501ZM25.1018 31.5767L14.6614 0.42659H13.513L23.9172 31.5767H25.1018ZM0.533203 0.42659V31.5767H1.61999V0.42659H0.533203ZM1.61999 0.42659L2.83719 31.5767H3.92397L2.70677 0.42659H1.61999ZM2.70677 0.42659L5.15204 31.5767H6.23882L3.79356 0.42659H2.70677ZM3.81167 0.42659L7.41255 31.5767H8.49933L4.88034 0.42659H3.81167ZM4.92744 0.42659L9.8071 31.5767H10.8939L6.01059 0.42659H4.92744ZM6.01422 0.42659L12.064 31.5767H13.1725L7.12274 0.42659H6.01422ZM7.101 0.42659L14.4766 31.5767H15.596L8.22039 0.42659H7.101ZM8.21677 0.42659L17.0197 31.5767H18.15L9.34702 0.42659H8.21677ZM9.33616 0.42659L19.4288 31.5767H20.5735L10.4954 0.42659H9.33616ZM10.4881 0.42659L15.0671 12.0647L22.6746 31.4041L22.7398 31.5767H23.9099L23.8194 31.3487L16.2119 12.0061L11.6619 0.42659H10.4881Z" fill="url(#paint0_linear_5627_7410)"/>
<path fill-rule="evenodd" clip-rule="evenodd" d="M106.44 22.8139C105.194 25.5001 103.102 27.8005 100.421 29.4325C97.7402 31.0646 94.5873 31.957 91.3499 32.0003C88.1125 32.0435 84.9316 31.2356 82.198 29.6759C79.4644 28.1162 77.2973 25.8727 75.9629 23.2209C73.9089 19.1863 73.9053 12.843 75.9629 8.80513C77.2929 6.14863 79.458 3.89969 82.1918 2.33517C84.9255 0.770648 88.1085 -0.041168 91.349 -0.00033237C94.5895 0.0405033 97.7459 0.932202 100.43 2.565C103.114 4.19779 105.208 6.5004 106.454 9.18937L106.545 9.37825H102.973L102.93 9.30661C101.837 7.4538 100.225 5.89016 98.2522 4.77108C96.2795 3.652 94.0153 3.01643 91.6847 2.92754C89.3541 2.83864 87.0382 3.29951 84.9671 4.26436C82.896 5.2292 81.1419 6.66441 79.879 8.42739C76.9265 12.5141 76.9265 19.4989 79.879 23.5726C81.1416 25.3357 82.8955 26.7712 84.9664 27.7363C87.0372 28.7014 89.3531 29.1626 91.6837 29.074C94.0142 28.9855 96.2785 28.3502 98.2514 27.2314C100.224 26.1126 101.837 24.5493 102.93 22.6967L102.973 22.625H106.545L106.44 22.8139ZM66.8557 28.0729V0.426585H70.116V31.5767H65.6747L43.5768 4.1616V31.5767H40.3164V0.426585H44.5585L66.8557 28.0729ZM122.155 13.7222L133.421 0.423325H137.5L124.194 16.1319L137.279 31.5767H133.204L122.155 18.5513L111.11 31.5767H107.125L120.104 16.1286L106.802 0.426585H110.881L122.155 13.7222Z" fill="black"/>
</g>
<defs>
<linearGradient id="paint0_linear_5627_7410" x1="17.8276" y1="31.7232" x2="17.8276" y2="-4.2202" gradientUnits="userSpaceOnUse">
<stop stop-color="#6C54CD"/>
<stop offset="1" stop-color="#9D5FED"/>
</linearGradient>
<clipPath id="clip0_5627_7410">
<rect width="137" height="32" fill="white" transform="translate(0.5)"/>
</clipPath>
</defs>
</svg>
