<svg width="185" height="25" viewBox="0 0 185 25" fill="none" xmlns="http://www.w3.org/2000/svg">
<path d="M8.66214 24.1235C6.87768 24.1235 5.1354 24.1254 3.39311 24.1226C2.56401 24.1213 2.60302 24.1969 2.60298 23.258C2.60272 16.7913 2.59868 10.3245 2.61079 3.85787C2.61174 3.34874 2.49626 2.94756 2.17981 2.55626C1.64911 1.90003 1.17192 1.19459 0.675337 0.50729C0.618283 0.428325 0.58115 0.333028 0.5 0.179502C0.738155 0.160842 0.926426 0.133355 1.11471 0.133221C4.72574 0.130646 8.33677 0.131271 11.9478 0.131263C12.9032 0.131263 13.859 0.114665 14.8141 0.13551C16.0708 0.16294 17.2702 0.455562 18.3365 1.19296C19.9833 2.33176 20.8674 3.93542 20.91 6.05387C20.9299 7.04243 20.8252 7.99557 20.4266 8.8963C19.8833 10.124 19.0377 11.0218 17.8562 11.5499C17.7458 11.5992 17.6412 11.663 17.4786 11.7494C17.6006 11.8153 17.6572 11.8562 17.7197 11.8781C19.3392 12.4458 20.4269 13.6329 21.0281 15.2873C21.8466 17.5397 21.6043 19.6995 20.2706 21.6735C19.6478 22.5953 18.7876 23.2149 17.7914 23.6119C16.9284 23.9558 16.0353 24.1271 15.1114 24.125C12.9757 24.1201 10.84 24.1235 8.66214 24.1235ZM14.6863 19.4503C15.2484 19.2917 15.72 18.9857 16.0578 18.4733C16.3505 18.0293 16.4643 17.5153 16.475 16.9882C16.4887 16.3147 16.3349 15.6868 15.8947 15.1642C15.3769 14.5493 14.7301 14.2225 13.9634 14.2169C11.968 14.2026 9.97245 14.2118 7.97694 14.2119C7.92075 14.2119 7.86428 14.2112 7.80841 14.2165C7.53426 14.2424 7.49797 14.2785 7.47421 14.565C7.46557 14.6691 7.46838 14.7744 7.46835 14.8792C7.46801 16.2267 7.46715 17.5741 7.46847 18.9215C7.46913 19.5976 7.47101 19.6003 8.09564 19.6007C9.92252 19.6021 11.7494 19.608 13.5762 19.5951C13.9241 19.5927 14.2714 19.5126 14.6863 19.4503ZM11.1502 4.62468C10.0826 4.62503 9.01492 4.62186 7.94732 4.62746C7.51367 4.62974 7.47278 4.66876 7.47105 5.10288C7.46569 6.44979 7.46591 7.79676 7.47082 9.14368C7.47238 9.57143 7.51486 9.62264 7.89953 9.62365C9.83809 9.62875 11.7769 9.64236 13.7151 9.61664C14.44 9.60702 15.0904 9.32815 15.5723 8.70969C16.4451 7.58969 16.2594 5.35385 14.4204 4.80617C14.0331 4.69084 13.6189 4.64977 13.215 4.6327C12.5558 4.60485 11.8948 4.62487 11.1502 4.62468Z" fill="white"/>
<path d="M26.5 4.42519C26.5001 3.19695 26.4998 2.01365 26.5005 0.830348C26.5005 0.695626 26.5015 0.560599 26.5099 0.42627C26.5207 0.252629 26.6109 0.149289 26.7748 0.136664C26.9145 0.125896 27.0552 0.125469 27.1954 0.125455C32.0654 0.124953 36.9354 0.124819 41.8054 0.125296C42.4976 0.125364 42.4985 0.126919 42.4991 0.867339C42.4998 1.91584 42.5011 2.96433 42.4982 4.01282C42.4966 4.60715 42.4879 4.61801 41.9331 4.61835C38.7333 4.62029 35.5334 4.61947 32.3335 4.61973C32.1511 4.61975 31.9684 4.61445 31.7863 4.62317C31.4573 4.63891 31.392 4.69952 31.3882 5.0539C31.3795 5.86264 31.384 6.67154 31.3839 7.48038C31.3838 8.04956 31.3785 8.61886 31.388 9.18787C31.3939 9.54258 31.4575 9.60248 31.7853 9.61991C31.9253 9.62734 32.0659 9.62302 32.2063 9.62302C34.7746 9.6232 37.3429 9.62261 39.9112 9.6237C40.5596 9.62397 40.5612 9.62639 40.562 10.3189C40.5633 11.4273 40.5645 12.5357 40.561 13.6441C40.5593 14.1798 40.5372 14.2054 40.0379 14.2059C37.3994 14.2086 34.7609 14.2073 32.1224 14.2081C31.9681 14.2082 31.8138 14.2133 31.6595 14.2177C31.4896 14.2226 31.4049 14.3225 31.3938 14.4983C31.3881 14.5878 31.3847 14.6778 31.3847 14.7676C31.3841 16.1905 31.3823 17.6135 31.3853 19.0364C31.3864 19.5548 31.4264 19.5973 31.9185 19.5976C35.1886 19.5997 38.4586 19.598 41.7286 19.5998C42.475 19.6002 42.4745 19.5353 42.4734 20.378C42.4721 21.4115 42.4736 22.4451 42.4722 23.4786C42.472 23.6131 42.4881 23.7577 42.4474 23.8788C42.4164 23.9708 42.3173 24.0755 42.2306 24.0989C42.0846 24.1382 41.9244 24.1214 41.7701 24.1215C36.9142 24.1222 32.0582 24.1222 27.2023 24.1218C26.502 24.1217 26.5004 24.1203 26.5003 23.3879C26.4999 17.082 26.5 10.7761 26.5 4.42519Z" fill="white"/>
<path d="M65.4756 14.8808C65.4795 14.6274 65.4867 14.3739 65.4868 14.1205C65.4875 9.70637 65.4871 5.29222 65.4876 0.878067C65.4876 0.133199 65.4889 0.132008 66.1917 0.131456C67.4011 0.130503 68.6105 0.131066 69.8199 0.131423C69.9351 0.131456 70.0502 0.133541 70.1654 0.136464C70.3717 0.141704 70.4867 0.247096 70.4939 0.465364C70.4978 0.584556 70.4997 0.703879 70.4997 0.823142C70.5 8.32421 70.5002 15.8253 70.4997 23.3264C70.4996 24.0331 70.4976 24.0344 69.8015 24.0349C68.5777 24.0357 67.3538 24.0259 66.1302 24.0406C65.8078 24.0444 65.6057 23.929 65.4156 23.6575C63.9036 21.4978 62.377 19.3492 60.8544 17.1976C58.9066 14.4451 56.9585 11.6928 55.01 8.94084C54.959 8.86877 54.9022 8.80107 54.8144 8.70529C54.7499 8.67526 54.7296 8.68866 54.7198 8.71942C54.7165 9.59921 54.7107 10.479 54.7105 11.3588C54.7094 15.3703 54.7103 19.3818 54.7096 23.3934C54.7095 24.1228 54.7078 24.1239 53.9927 24.1245C52.8121 24.1254 51.6315 24.125 50.4509 24.1243C50.3214 24.1243 50.1919 24.1184 50.0624 24.1165C49.8714 24.1138 49.7684 24.0186 49.7654 23.8166C49.7625 23.6228 49.7572 23.429 49.7571 23.2352C49.7567 16.8078 49.7534 10.3804 49.7635 3.95305C49.7643 3.46857 49.6775 3.07249 49.3557 2.69083C48.798 2.02951 48.2978 1.31613 47.7763 0.622253C47.6912 0.508943 47.6209 0.383634 47.5 0.19593C47.7067 0.168224 47.8421 0.134483 47.9774 0.134276C50.1371 0.13097 52.2967 0.138273 54.4563 0.125019C54.7739 0.123069 54.9585 0.26765 55.1294 0.509156C55.9798 1.71148 56.8374 2.90835 57.6908 4.10841C59.2099 6.24446 60.7266 8.38233 62.2466 10.5177C63.2797 11.9691 64.3167 13.4176 65.3855 14.8921C65.4475 14.9211 65.4663 14.9091 65.4756 14.8808Z" fill="white"/>
<path d="M92.4726 2.98668C92.4726 3.09127 92.4732 3.15119 92.4725 3.21109C92.4584 4.46377 92.5914 4.07344 91.8905 5.08711C90.4801 7.12669 89.0558 9.15508 87.6358 11.1869C85.7896 13.8285 83.9419 16.4687 82.0961 19.1105C82.0161 19.225 81.9485 19.3494 81.8274 19.5471C82.0798 19.5697 82.2511 19.5984 82.4225 19.5985C85.5186 19.6012 88.6147 19.5993 91.7109 19.6014C92.5601 19.602 92.4952 19.5408 92.4978 20.4571C92.5007 21.5056 92.5013 22.5541 92.4961 23.6026C92.4937 24.0881 92.4668 24.1177 92.0251 24.1212C91.206 24.1276 90.3868 24.124 89.5677 24.124C85.1109 24.1241 80.6542 24.1243 76.1974 24.1238C75.5055 24.1237 75.5045 24.1223 75.5039 23.3889C75.503 22.4003 75.5108 21.4116 75.5001 20.4232C75.4967 20.1067 75.5808 19.8458 75.754 19.593C77.9325 16.4153 80.1067 13.2343 82.2802 10.0526C83.4327 8.36557 84.5819 6.67592 85.7313 4.98642C85.779 4.91629 85.8134 4.83567 85.875 4.72098C85.7645 4.68261 85.6821 4.63651 85.5967 4.62822C85.4451 4.61354 85.2916 4.62066 85.1388 4.62065C82.1399 4.62037 79.141 4.62087 76.1421 4.61993C75.5061 4.61973 75.5048 4.61741 75.504 3.9154C75.5027 2.92681 75.5034 1.93822 75.5037 0.949625C75.5039 0.126256 75.5042 0.125592 76.248 0.125493C78.7193 0.125161 81.1906 0.125342 83.662 0.12534C86.2999 0.125334 88.9379 0.125334 91.5758 0.125362C91.7008 0.125364 91.8257 0.124171 91.9507 0.126105C92.4316 0.133544 92.4689 0.170589 92.4714 0.695287C92.4749 1.44418 92.4725 2.1931 92.4726 2.98668Z" fill="white"/>
<path d="M101.499 20.886C101.499 21.8257 101.502 22.7207 101.497 23.6156C101.495 24.0859 101.468 24.1203 101.096 24.1218C100.033 24.1261 98.9706 24.126 97.9081 24.1219C97.5275 24.1204 97.5022 24.0864 97.5017 23.5762C97.4992 21.3687 97.5002 19.1611 97.5002 16.9535C97.5001 11.5987 97.5001 6.24379 97.5003 0.888934C97.5004 0.126688 97.5012 0.12598 98.0945 0.125646C99.0646 0.125105 100.035 0.124286 101.005 0.126201C101.486 0.127152 101.498 0.142097 101.499 0.749286C101.5 2.77787 101.499 4.80645 101.499 6.83503C101.499 11.5038 101.499 16.1725 101.499 20.886Z" fill="white"/>
<path d="M113.731 22.051C113.731 22.6178 113.736 23.14 113.728 23.6619C113.721 24.0749 113.679 24.1194 113.269 24.121C111.914 24.1263 110.56 24.1263 109.205 24.121C108.794 24.1195 108.758 24.0747 108.744 23.6628C108.738 23.484 108.742 23.3048 108.742 23.1258C108.742 16.7267 108.736 10.3276 108.752 3.92849C108.753 3.41531 108.618 3.01843 108.306 2.63216C107.761 1.95782 107.252 1.25251 106.73 0.558354C106.662 0.467896 106.607 0.366634 106.5 0.196552C106.723 0.171229 106.883 0.137513 107.043 0.137152C108.773 0.13326 110.502 0.134604 112.232 0.134563C112.607 0.134554 112.983 0.157055 113.356 0.128411C113.713 0.100999 113.949 0.239069 114.153 0.533198C114.817 1.4899 115.495 2.43571 116.17 3.38394C117.793 5.66429 119.417 7.94375 121.042 10.2233C122.085 11.6873 123.128 13.1509 124.172 14.614C124.231 14.6959 124.298 14.7709 124.404 14.9023C124.44 14.7557 124.474 14.6676 124.479 14.5776C124.49 14.4142 124.484 14.2496 124.484 14.0855C124.484 9.68522 124.484 5.28489 124.484 0.884563C124.484 0.136256 124.485 0.135281 125.195 0.13483C126.406 0.13406 127.617 0.134355 128.827 0.13509C128.957 0.135169 129.087 0.138056 129.216 0.145153C129.385 0.154375 129.484 0.241719 129.49 0.423455C129.494 0.557564 129.5 0.691745 129.5 0.825895C129.5 8.32883 129.5 15.8318 129.5 23.3347C129.5 24.0315 129.497 24.0335 128.838 24.0343C127.613 24.0358 126.388 24.0245 125.163 24.0409C124.823 24.0455 124.601 23.9246 124.404 23.6428C122.856 21.4345 121.299 19.233 119.742 17.0319C118.329 15.0355 116.912 13.0425 115.497 11.0476C115.02 10.3745 114.544 9.70007 114.066 9.02731C113.999 8.93347 113.925 8.8458 113.811 8.70095C113.776 8.84978 113.742 8.93849 113.736 9.02926C113.725 9.17765 113.731 9.32737 113.731 9.47653C113.731 13.6531 113.731 17.8297 113.731 22.051Z" fill="white"/>
<path d="M139.629 22.2151C137.482 20.7968 136.003 18.8472 135.17 16.3445C134.686 14.8909 134.46 13.3864 134.506 11.8538C134.589 9.03836 135.366 6.47227 137.133 4.315C138.684 2.42084 140.626 1.18817 142.915 0.572981C144.997 0.0132253 147.09 -0.0415029 149.177 0.519652C151.739 1.20873 153.682 2.82575 155.143 5.13241C155.181 5.19121 155.197 5.26521 155.245 5.38931C153.984 6.12996 152.735 6.8634 151.458 7.6132C151.219 7.30851 151.014 7.02836 150.79 6.76657C149.767 5.57059 148.507 4.8219 146.991 4.65055C145.248 4.45367 143.636 4.86573 142.208 5.98563C140.932 6.98664 140.14 8.33749 139.743 9.94414C139.283 11.8036 139.365 13.6507 140.053 15.4387C141.468 19.1127 145.119 20.4799 148.236 19.4832C149.064 19.2188 149.84 18.8445 150.54 18.2958C150.753 18.129 150.862 17.951 150.856 17.664C150.842 17.0065 150.857 16.3484 150.849 15.6907C150.844 15.2789 150.798 15.2332 150.402 15.2273C149.853 15.2191 149.304 15.2155 148.755 15.2265C148.483 15.2319 148.278 15.1521 148.101 14.9134C147.186 13.6823 146.258 12.4626 145.336 11.2372C145.285 11.169 145.252 11.0855 145.204 10.9977C145.337 10.8465 145.499 10.8913 145.644 10.8906C146.685 10.886 147.727 10.888 148.768 10.8879C150.752 10.8879 152.736 10.8879 154.721 10.888C154.819 10.888 154.918 10.8867 155.016 10.8892C155.459 10.9005 155.494 10.93 155.495 11.4093C155.498 14.0705 155.494 16.7316 155.5 19.3927C155.501 19.6691 155.408 19.8681 155.231 20.0651C153.312 22.2107 150.98 23.5318 148.225 23.9602C145.571 24.3728 143.007 24.0219 140.574 22.7805C140.258 22.6192 139.961 22.4153 139.629 22.2151Z" fill="white"/>
<path d="M167.151 6.15683C167.474 5.28962 167.768 4.4477 168.099 3.62135C168.228 3.29916 168.179 3.07085 167.973 2.81105C167.414 2.10831 166.876 1.38812 166.334 0.672004C166.231 0.536709 166.145 0.388299 166.007 0.179729C166.211 0.154869 166.333 0.127169 166.454 0.127068C169.342 0.124707 172.23 0.124119 175.118 0.126617C175.559 0.127 175.562 0.133791 175.734 0.593551C176.761 3.33289 177.785 6.07328 178.812 8.81223C180.345 12.8999 181.881 16.9867 183.416 21.0739C183.724 21.8942 184.032 22.7143 184.336 23.5361C184.396 23.6977 184.436 23.8671 184.5 24.0827C184.305 24.0998 184.165 24.1225 184.025 24.1227C182.48 24.1252 180.935 24.126 179.39 24.1232C178.911 24.1224 178.907 24.1183 178.737 23.6507C178.36 22.6183 177.99 21.5833 177.612 20.5513C177.448 20.1038 177.44 20.0975 176.986 20.0972C173.997 20.0948 171.008 20.0949 168.019 20.0971C167.562 20.0974 167.553 20.1057 167.392 20.5474C167.027 21.5523 166.667 22.5594 166.304 23.5655C166.274 23.6493 166.239 23.7313 166.21 23.8155C166.139 24.0207 166.01 24.1366 165.788 24.1222C165.702 24.1167 165.615 24.1245 165.528 24.1245C164.055 24.1247 162.583 24.1263 161.11 24.1225C160.93 24.1221 160.75 24.0926 160.5 24.0704C160.901 22.8054 161.385 21.6461 161.817 20.4671C162.256 19.2676 162.711 18.0743 163.157 16.8773C163.597 15.6942 164.033 14.5091 164.474 13.3263C164.92 12.1297 165.372 10.9354 165.819 9.73884C166.26 8.55611 166.698 7.3719 167.151 6.15683ZM171.869 6.87083C171.618 7.58591 171.368 8.30136 171.116 9.01596C170.864 9.7306 170.609 10.4438 170.357 11.1587C170.106 11.8736 169.85 12.5867 169.612 13.3064C169.377 14.0176 169.054 14.7009 168.902 15.4424C169.333 15.559 175.483 15.5561 175.892 15.4394C175.849 15.2728 175.816 15.1007 175.76 14.9377C175.346 13.7445 174.928 12.5527 174.51 11.3613C173.864 9.52498 173.218 7.68903 172.568 5.85434C172.534 5.75697 172.465 5.67268 172.364 5.50024C172.184 6.00034 172.038 6.40301 171.869 6.87083Z" fill="white"/>
</svg>
