<svg width="12" height="13" viewBox="0 0 12 13" fill="none" xmlns="http://www.w3.org/2000/svg">
<g clip-path="url(#clip0_3530_10063)">
<path d="M4.30664 12.1608L4.26695 11.6624C4.22073 11.6661 4.20821 11.667 4.19888 11.6675C4.19267 11.6678 4.18797 11.6679 4.15699 11.6682C3.89176 11.6676 3.63782 11.5619 3.45308 11.3762L3.45214 11.3753L0.794029 8.71717L0.793575 8.71672C0.402342 8.32649 0.40212 7.69298 0.79304 7.30206C1.18335 6.91175 1.81686 6.91175 2.20717 7.30206L3.60604 8.70093L4.02615 9.12103L4.36833 8.63535L9.68151 1.09413L9.68213 1.09325C9.99957 0.640613 10.6243 0.53213 11.0764 0.851075L11.0764 0.851107C11.5277 1.16938 11.6358 1.79328 11.318 2.244L11.3178 2.24415L4.97777 11.243L4.97737 11.2435C4.80442 11.4897 4.53354 11.6408 4.26626 11.6624L4.30664 12.1608ZM4.30664 12.1608C4.72684 12.1268 5.13089 11.8948 5.38651 11.5309M4.30664 12.1608C4.22107 12.1676 4.22107 12.1676 4.15921 12.1682C3.76129 12.1682 3.37851 12.0103 3.09859 11.7288L5.38651 11.5309M5.38651 11.5309L11.7266 2.53213C12.2038 1.85531 12.041 0.919638 11.3646 0.442521L5.38651 11.5309Z" fill="white" stroke="#1F1F1F"/>
</g>
<defs>
<clipPath id="clip0_3530_10063">
<rect width="12" height="12" fill="white" transform="translate(0 0.167969)"/>
</clipPath>
</defs>
</svg>
