<svg width="12" height="13" viewBox="0 0 12 13" fill="none" xmlns="http://www.w3.org/2000/svg">
<g clip-path="url(#clip0_3530_9940)">
<path d="M4.30664 12.6608L4.26695 12.1624C4.22073 12.1661 4.20821 12.167 4.19888 12.1675C4.19267 12.1678 4.18797 12.1679 4.15699 12.1682C3.89176 12.1676 3.63782 12.0619 3.45308 11.8762L3.45214 11.8753L0.794029 9.21717L0.793575 9.21672C0.402342 8.82649 0.40212 8.19298 0.79304 7.80205C1.18335 7.41174 1.81686 7.41174 2.20717 7.80205L3.60604 9.20092L4.02615 9.62103L4.36833 9.13535L9.68151 1.59413L9.68213 1.59325C9.99957 1.14061 10.6243 1.03213 11.0764 1.35108L11.0764 1.35111C11.5277 1.66938 11.6358 2.29328 11.318 2.744L11.3178 2.74415L4.97777 11.743L4.97737 11.7435C4.80442 11.9897 4.53354 12.1408 4.26626 12.1624L4.30664 12.6608ZM4.30664 12.6608C4.72684 12.6268 5.13089 12.3948 5.38651 12.0309L3.09859 12.2288C3.37851 12.5103 3.76129 12.6682 4.15921 12.6682C4.22107 12.6676 4.22107 12.6676 4.30664 12.6608Z" fill="white" stroke="#008AEF"/>
</g>
<defs>
<clipPath id="clip0_3530_9940">
<rect width="12" height="12" fill="white" transform="translate(0 0.667969)"/>
</clipPath>
</defs>
</svg>
