<svg width="142" height="34" viewBox="0 0 142 34" fill="none" xmlns="http://www.w3.org/2000/svg">
<path d="M13.9185 0.624767C13.862 0.711239 13.7679 1.03983 13.7114 1.36842C13.636 1.69701 13.5042 2.12936 13.41 2.3196C13.3347 2.50984 13.2028 2.78654 13.1652 2.95948C13.0898 3.13243 12.7508 3.28807 12.2423 3.35725C11.3383 3.49561 9.64319 3.94525 9.36068 4.13549C9.26651 4.20467 8.96517 4.32573 8.72032 4.3949C8.45665 4.46408 7.81629 4.77538 7.30777 5.06938C2.91943 7.54245 0.0189755 12.1773 0.000141374 16.7603C-0.0186927 20.2883 1.84588 24.3005 4.65216 26.7736L5.91404 27.8804L5.4997 29.4542C5.25485 30.3189 4.91584 31.4776 4.7275 32.0483C4.52032 32.6017 4.36965 33.086 4.36965 33.1206C4.36965 33.1551 5.33019 33.1897 6.51674 33.1897H8.66382L8.871 32.4634C9.62436 29.5753 9.53019 29.6963 10.4907 30.0076C10.9051 30.1287 11.4324 30.2497 11.6584 30.2497C12.4683 30.2497 12.4871 30.6475 11.7903 32.8093L11.6584 33.207L13.8809 33.1551L16.1033 33.1033L16.3293 32.1521C16.6306 30.7513 16.8566 30.4745 17.7795 30.3362C20.341 29.9557 22.8271 28.7797 25.4262 26.7217C26.5939 25.7878 28.4208 23.0726 29.0988 21.2567C30.1347 18.5243 30.1347 15.0654 29.1176 12.454C28.1006 9.84258 26.2549 7.3868 24.3715 6.1935C24.0136 5.95138 23.9948 5.84762 24.1643 5.32879C24.5221 4.20467 25.4638 0.866886 25.4638 0.676651C25.4638 0.555592 24.7858 0.503708 23.3544 0.5383C22.0925 0.572887 21.2262 0.659359 21.2262 0.763123C21.2262 0.849594 21.1697 1.00524 21.1132 1.109C21.0378 1.19548 20.9248 1.64513 20.8683 2.09478C20.793 2.54442 20.6611 2.95948 20.5481 3.01137C20.454 3.08054 20.3786 3.30537 20.3786 3.54749C20.3786 3.92796 20.3221 3.96255 19.8701 3.85878C19.5688 3.78961 19.1921 3.66855 19.0226 3.59937C18.8531 3.5129 18.4575 3.44372 18.1374 3.44372C17.6288 3.44372 17.5535 3.39184 17.5535 2.95948C17.5535 2.70007 17.6854 2.18125 17.836 1.80077C18.3445 0.486416 18.3634 0.503708 16.0656 0.503708C14.9167 0.503708 13.9562 0.555592 13.9185 0.624767ZM16.6118 13.7338C17.836 14.3045 18.6836 15.567 18.6836 16.8294C18.6836 19.2333 15.9526 20.8936 13.5419 19.9597C12.6943 19.6311 11.5643 18.4205 11.4136 17.6768C11.2629 16.9332 11.4136 15.3767 11.6584 15.2211C11.7526 15.1692 11.8845 14.979 11.9598 14.8233C12.1105 14.4255 13.4288 13.6473 14.201 13.4744C14.9356 13.3187 15.9526 13.4225 16.6118 13.7338Z" fill="url(#paint0_linear_1829_3984)"/>
<path d="M70.6289 8.80419C68.3689 9.46137 66.7303 10.7411 65.7509 12.6781C65.0352 14.0962 64.7715 15.497 64.8846 17.2783C65.2047 21.8613 68.5195 24.7148 73.5294 24.7148C76.75 24.7148 79.1608 23.5907 80.4792 21.4981C81.0442 20.5815 81.6469 18.7656 81.4397 18.5754C81.3832 18.5235 80.3662 18.4889 79.1608 18.4889H76.976L76.7312 18.9905C75.6388 21.256 72.1168 21.5846 70.3276 19.5958C69.9886 19.2326 69.7249 18.7483 69.7249 18.5408C69.7249 18.3333 69.6496 18.1085 69.5366 18.0566C69.4424 18.0047 69.3482 17.3302 69.3482 16.5866C69.3482 15.8429 69.4424 15.1685 69.5366 15.1166C69.6496 15.0647 69.7249 14.8744 69.7249 14.7015C69.7249 14.5286 69.9886 14.0616 70.3088 13.6639C71.7213 11.848 74.6971 11.8134 76.2792 13.5774C76.6182 13.9406 76.8819 14.3383 76.8819 14.4594C76.8819 14.6323 77.4281 14.6842 79.1043 14.6842C80.3285 14.6842 81.3832 14.6496 81.4397 14.5977C81.6092 14.4421 81.1195 12.7473 80.6675 11.969C79.7635 10.3261 78.4263 9.3749 76.185 8.80419C74.5464 8.37183 72.1168 8.37183 70.6289 8.80419Z" fill="white"/>
<path d="M37.2344 16.587V24.3867L42.0371 24.3348C46.6326 24.283 46.8774 24.2657 47.5931 23.8852C49.3635 22.9513 50.3617 21.0316 49.9285 19.3887C49.5142 17.8841 48.7985 17.0886 47.5555 16.7773C46.7833 16.587 46.8586 16.3622 47.8003 15.8953C48.3088 15.6532 48.8738 15.2035 49.1564 14.7884C49.5707 14.1831 49.646 13.8891 49.646 12.7823C49.646 11.7965 49.5707 11.3642 49.2882 10.9664C48.6855 10.0671 48.1958 9.66936 47.3106 9.27159C46.5384 8.943 46.1052 8.90842 41.8487 8.83924L37.2344 8.78736V16.587ZM44.8057 12.177C45.4272 12.8169 45.4084 13.9583 44.768 14.5809C44.3348 15.0133 44.203 15.0479 42.9411 14.996L41.5662 14.9441L41.5097 13.5087C41.4344 11.6236 41.5474 11.5025 43.1483 11.6236C44.1842 11.6928 44.4478 11.7793 44.8057 12.177ZM44.8622 18.23C45.333 18.645 45.4272 18.8699 45.4272 19.5271C45.4272 20.1842 45.333 20.4091 44.881 20.8068C44.3913 21.2392 44.2407 21.2738 43.0541 21.2219L41.7546 21.17L41.6981 19.6308C41.6604 18.7834 41.6981 17.9706 41.7546 17.8322C41.8299 17.642 42.1312 17.6074 43.0729 17.6593C44.1088 17.7112 44.3725 17.7976 44.8622 18.23Z" fill="white"/>
<path d="M51.2676 10.7048V12.6071H53.2452H55.2227V18.4872V24.3672H57.4828H59.7429V18.4872V12.6244L61.777 12.5725L63.7922 12.5207V10.7048V8.88889L57.5393 8.837L51.2676 8.80241V10.7048Z" fill="white"/>
<path d="M84.9809 16.2888C84.9809 20.4221 84.9244 23.9501 84.8491 24.1057C84.7361 24.3824 84.9809 24.3997 88.1074 24.3133C91.8177 24.2095 92.4392 24.0884 94.1155 23.0681C95.7917 22.0477 96.8841 20.3356 97.3172 18.0701C97.5621 16.7384 97.5621 16.4098 97.2984 15.0782C96.7522 12.2073 95.1325 10.3223 92.232 9.21542C91.667 9.00789 90.6688 8.90413 88.2392 8.83495L84.9809 8.74848V16.2888ZM91.1773 10.2012C92.4016 10.426 93.2868 10.9103 94.3603 11.9825C95.7352 13.3487 95.98 14.0751 95.98 16.5828C95.98 18.8829 95.9235 19.0904 94.8877 20.5777C94.398 21.2868 93.3998 22.0996 92.3639 22.5838C91.4598 23.0162 89.2374 23.241 86.45 23.1718C86.1298 23.1545 86.111 22.7222 86.111 16.6173C86.111 13.0201 86.1486 10.0283 86.1863 9.99366C86.337 9.85531 90.1603 10.011 91.1773 10.2012Z" fill="white"/>
<path d="M100.313 9.70446C99.6918 9.96388 99.4093 10.6556 99.6918 11.2609C100.068 12.1084 101.594 12.1429 101.933 11.2955C102.385 10.2233 101.368 9.23752 100.313 9.70446Z" fill="white"/>
<path d="M137.527 12.6094V14.3388H136.491C135.474 14.3388 135.455 14.3388 135.455 14.8577C135.455 15.3765 135.474 15.3765 136.472 15.3765H137.489L137.564 18.8699C137.621 21.7408 137.696 22.519 137.979 23.0897C138.431 24.0755 139.165 24.4041 140.729 24.3349C141.896 24.283 141.953 24.2657 141.991 23.8161C142.028 23.3491 142.009 23.3318 141.011 23.3837C140.182 23.4183 139.919 23.3491 139.542 23.0205C138.808 22.3806 138.638 21.4641 138.695 18.3165L138.751 15.463L140.22 15.4111L141.67 15.3592V14.8577V14.3561L140.22 14.3043L138.751 14.2524V12.5575V10.88H138.148H137.527V12.6094Z" fill="white"/>
<path d="M109.198 14.2696C108.237 14.5809 107.917 14.8576 107.39 15.8088C107.145 16.2412 106.881 16.587 106.787 16.587C106.712 16.587 106.636 16.0855 106.636 15.4629V14.3388H106.034H105.412L105.469 19.3714L105.525 24.3867L106.034 24.3348L106.542 24.283L106.636 21.3429C106.712 19.0082 106.806 18.2127 107.088 17.5036C107.616 16.2066 108.444 15.5321 109.782 15.29C110.742 15.117 110.874 15.0479 110.874 14.6674C110.874 13.9929 110.347 13.8719 109.198 14.2696Z" fill="white"/>
<path d="M115.884 14.2905C114.754 14.6536 113.323 15.9853 113.003 16.9538C112.871 17.3688 112.758 18.493 112.758 19.4441C112.758 20.9487 112.833 21.2946 113.247 22.1247C113.869 23.3526 114.867 24.079 116.393 24.4422C117.466 24.7016 117.636 24.7016 118.804 24.4422C120.16 24.1136 121.177 23.4045 121.761 22.315L122.043 21.7789H121.497C121.12 21.7789 120.725 21.9864 120.122 22.5398C119.199 23.4045 118.465 23.612 116.977 23.4564C115.941 23.3353 115.074 22.8338 114.509 21.9691C114.02 21.2427 113.756 20.0494 114.02 19.7381C114.17 19.5825 115.263 19.5306 118.257 19.5306H122.307L122.156 18.3719C121.987 16.9192 121.553 15.9853 120.63 15.1725C119.387 14.0656 117.598 13.7371 115.884 14.2905ZM118.37 15.0514C119.463 15.3281 120.517 16.2966 120.856 17.3342C121.007 17.8185 121.139 18.2681 121.139 18.3546C121.139 18.4238 119.538 18.493 117.561 18.493H113.982V17.9741C113.982 17.3342 114.528 16.2966 115.169 15.7605C115.564 15.4146 116.882 14.9131 117.466 14.8785C117.579 14.8612 117.975 14.9476 118.37 15.0514Z" fill="white"/>
<path d="M128.184 14.2312C126.922 14.5079 125.999 15.044 125.434 15.8395C124.605 16.9982 124.436 17.6035 124.454 19.4367C124.473 21.1489 124.775 22.1346 125.509 22.982C126.037 23.57 127.129 24.1753 128.184 24.452C129.144 24.7115 129.408 24.7115 130.425 24.5212C131.875 24.2272 132.967 23.5009 133.514 22.4632C134.079 21.4083 134.06 21.2526 133.325 21.2526C132.798 21.2526 132.685 21.3218 132.534 21.806C132.252 22.6189 131.141 23.3625 130.011 23.4663C128.504 23.5873 127.788 23.3971 126.903 22.567C124.21 20.1112 125.735 15.1996 129.163 15.1996C129.596 15.1996 130.218 15.2515 130.557 15.3207C131.291 15.4418 132.628 16.6005 132.628 17.102C132.628 17.3787 132.76 17.4479 133.288 17.4479C134.06 17.4479 134.098 17.2922 133.514 16.2546C132.911 15.1651 131.95 14.5252 130.519 14.2312C129.879 14.1101 129.295 14.0063 129.238 14.0063C129.182 14.0063 128.711 14.1101 128.184 14.2312Z" fill="white"/>
<path d="M100.422 19.3519V24.3672H100.987H101.552V19.3519V14.3366H100.987H100.422V19.3519Z" fill="white"/>
<path d="M24.7296 29.993C23.7126 31.0653 24.0328 32.3277 25.5018 33.0195C26.6507 33.5383 28.2893 32.5007 28.2893 31.2555C28.2893 30.1487 27.4417 29.405 26.1987 29.3877C25.4265 29.3877 25.2381 29.4569 24.7296 29.993ZM27.4041 30.0449C27.9691 30.4946 28.1386 31.0826 27.9126 31.7397C27.6677 32.4315 27.0085 32.8466 26.161 32.8466C24.2588 32.8466 23.8632 30.3216 25.6525 29.6817C26.0857 29.5261 27.0085 29.699 27.4041 30.0449Z" fill="white"/>
<path d="M25.6526 30.7555C25.6526 31.0322 25.5961 31.3781 25.5396 31.5337C25.4831 31.6894 25.5208 31.8104 25.6338 31.8104C25.7468 31.8104 25.841 31.5164 25.841 31.1187C25.841 30.5307 25.8975 30.4269 26.2177 30.4269C26.7262 30.4269 26.9334 30.9284 26.5378 31.2051C26.2365 31.3954 26.2365 31.43 26.5567 31.6894C26.858 31.9315 26.8769 31.9142 26.8769 31.3262C26.8769 30.5134 26.6885 30.254 26.1047 30.254C25.728 30.254 25.6526 30.3404 25.6526 30.7555Z" fill="white"/>
<defs>
<linearGradient id="paint0_linear_1829_3984" x1="30" y1="33" x2="2.41214e-06" y2="1" gradientUnits="userSpaceOnUse">
<stop stop-color="#67A1FD"/>
<stop offset="1" stop-color="#0063FF"/>
</linearGradient>
</defs>
</svg>
