<svg width="32" height="33" viewBox="0 0 32 33" fill="none" xmlns="http://www.w3.org/2000/svg">
<g clip-path="url(#clip0_7308_8320)">
<path d="M16 0.582031C7.16344 0.582031 0 7.74548 0 16.582C0 25.4186 7.16344 32.582 16 32.582C24.8366 32.582 32 25.4186 32 16.582C32 7.74548 24.8366 0.582031 16 0.582031Z" fill="#DCDCD9"/>
<path d="M18 10.582L12 16.582L18 22.582" stroke="#1D1D1B" stroke-width="2" stroke-linecap="round" stroke-linejoin="round"/>
<path d="M4 32.582H28C30.2091 32.582 32 30.7912 32 28.582L32 4.58203C32 2.37289 30.2091 0.582031 28 0.582031L4 0.582031C1.79086 0.582031 0 2.37289 0 4.58203V28.582C0 30.7912 1.79086 32.582 4 32.582Z" fill="#DCDCD9"/>
<path fill-rule="evenodd" clip-rule="evenodd" d="M11.8089 17.3156L15.7785 21.2852L14.7179 22.3459L8.9375 16.5656L14.7179 10.7852L15.7785 11.8459L11.8089 15.8156H21.9982V17.3156H11.8089Z" fill="#1D1D1B"/>
</g>
<defs>
<clipPath id="clip0_7308_8320">
<rect width="32" height="32" fill="white" transform="translate(0 0.582031)"/>
</clipPath>
</defs>
</svg>
