<svg width="15" height="15" viewBox="0 0 15 15" fill="none" xmlns="http://www.w3.org/2000/svg">
<g clip-path="url(#clip0_5126_9868)">
<g clip-path="url(#clip1_5126_9868)">
<path d="M5.3833 14.991L5.34361 14.4926C5.28669 14.4971 5.26883 14.4985 5.25488 14.4992C5.24413 14.4998 5.23562 14.4999 5.19675 14.5003C4.83205 14.4997 4.48243 14.3545 4.22773 14.0985L4.22679 14.0975L0.904147 10.7749L0.903694 10.7744C0.365677 10.2378 0.365455 9.36668 0.902911 8.82922C1.43962 8.29252 2.31065 8.29252 2.84735 8.82922L4.59594 10.5778L5.01604 10.9979L5.35823 10.5122L11.9997 1.08571L12.0003 1.08483C12.4369 0.462304 13.296 0.313254 13.9175 0.751744L13.9176 0.751776C14.5379 1.18933 14.6867 2.04714 14.2496 2.66707L14.2495 2.66723L6.3244 13.9157L6.324 13.9163C6.08714 14.2535 5.71525 14.4625 5.34293 14.4927L5.3833 14.991ZM5.3833 14.991C5.90855 14.9485 6.41361 14.6586 6.73314 14.2037L3.87324 14.4511C4.22314 14.8029 4.70162 15.0003 5.19901 15.0003C5.27632 14.9996 5.27633 14.9996 5.38325 14.991L5.3833 14.991Z" fill="white" stroke="#1F1F1F"/>
</g>
</g>
<defs>
<clipPath id="clip0_5126_9868">
<rect width="15" height="15" fill="white"/>
</clipPath>
<clipPath id="clip1_5126_9868">
<rect width="15" height="15" fill="white"/>
</clipPath>
</defs>
</svg>
