<svg width="18" height="13" viewBox="0 0 18 13" fill="none" xmlns="http://www.w3.org/2000/svg">
<path d="M16.0133 0.440743C15.8451 0.519912 14.6576 1.67776 10.9812 5.35416L6.16671 10.1637L3.80648 7.8084C1.17412 5.18593 1.20381 5.20572 0.73374 5.33437C0.169661 5.48281 -0.13217 6.00731 0.055856 6.51696C0.130077 6.71488 0.530869 7.13546 2.84656 9.46105C4.63776 11.2572 5.61747 12.2023 5.75107 12.2666C6.00837 12.3903 6.32999 12.3903 6.58234 12.2666C6.72089 12.2023 8.45271 10.5001 11.9609 6.98702C17.6858 1.25717 17.3889 1.58374 17.2553 1.09389C17.097 0.505068 16.5279 0.203237 16.0133 0.440743Z" fill="white"/>
</svg>
