<svg width="31" height="31" viewBox="0 0 31 31" fill="none" xmlns="http://www.w3.org/2000/svg">
<path d="M1.67582 0.763205C0.542136 1.10431 -0.220341 2.32829 0.0605713 3.35161C0.120767 3.58236 0.261223 3.92347 0.361549 4.09403C0.471908 4.27461 3.10045 6.95331 6.19048 10.0534L11.8288 15.6817L6.18045 21.3601C3.08038 24.4803 0.431777 27.1991 0.301354 27.4098C-0.310635 28.4431 0.0304735 29.6972 1.13406 30.3895C1.79621 30.8008 2.62891 30.8008 3.28103 30.3995C3.52182 30.249 6.26071 27.5904 9.36078 24.5003L15.0091 18.862L20.6474 24.5003C23.7576 27.5904 26.4964 30.249 26.7372 30.3995C27.3893 30.8008 28.2221 30.8008 28.8842 30.3895C29.9677 29.7072 30.3189 28.4632 29.7269 27.4399C29.6166 27.2492 26.968 24.5304 23.8478 21.3902L18.1694 15.7017L23.7977 10.0534C26.8978 6.95331 29.5263 4.27461 29.6366 4.10406C30.8406 2.32829 28.8441 -0.00930458 26.8978 0.903661C26.6269 1.02405 24.6204 2.96034 20.7478 6.81286L15.0091 12.5415L9.31062 6.86302C6.18045 3.73285 3.46162 1.09428 3.271 0.973889C2.8396 0.723075 2.12729 0.632781 1.67582 0.763205Z" fill="white"/>
</svg>
