<svg width="251" height="47" viewBox="0 0 251 47" fill="none" xmlns="http://www.w3.org/2000/svg">
<g clip-path="url(#clip0_1_1806)">
<path d="M3.09321 28.4866C0.374549 16.218 7.99088 4.16096 19.7095 2.03186C31.2273 -0.0607761 42.2633 8.06247 43.9259 19.9942C44.2296 22.1734 44.2516 24.5005 43.8484 26.6497C43.332 29.4028 41.4839 31.3317 38.7369 31.9802C35.3769 32.7735 32.2883 30.5614 31.6798 26.8983C31.3645 25 31.3943 23.0414 31.2504 20.8392C29.7965 23.2498 28.4562 25.4998 27.0863 27.7306C26.4801 28.7178 25.8845 29.727 25.1567 30.6168C24.2656 31.7063 23.109 32.5194 21.6548 31.9819C20.245 31.4609 19.7268 30.1512 19.6433 28.717C19.5499 27.1109 19.5698 25.4976 19.5498 23.8873C19.539 23.0154 19.5479 22.1433 19.2942 21.131C16.4281 25.8278 13.5619 30.5246 10.6283 35.3319C14.1397 39.2854 18.3839 41.4131 23.5987 41.2256C27.7681 41.0757 31.4925 39.6667 34.6348 36.7637C35.8193 35.6694 36.9272 35.6909 37.7357 36.7117C38.5071 37.6855 38.3217 38.6802 37.1699 39.7474C25.8439 50.2419 7.68959 44.7869 3.37974 29.5937C3.28681 29.2662 3.20088 28.9365 3.09321 28.4866ZM17.0157 6.89639C6.11585 11.8097 4.16245 24.286 8.37677 31.6172C8.72917 31.0516 9.06044 30.5292 9.38288 30.0011C12.204 25.3805 15.0208 20.757 17.8455 16.1387C18.6652 14.7985 19.504 13.394 21.3647 13.7375C22.7402 13.9915 23.3697 15.3583 23.3797 17.8079C23.3908 20.5159 23.3822 23.2239 23.3822 26.3006C23.84 25.6097 24.1025 25.2339 24.3445 24.8448C25.8245 22.465 27.2519 20.0489 28.7944 17.7127C29.73 16.2958 30.9876 15.164 32.8225 15.5194C34.305 15.8065 35.1893 17.4239 35.2811 19.7174C35.3357 21.0813 35.2938 22.4491 35.3042 23.815C35.3086 24.4002 35.284 24.9925 35.3628 25.5686C35.5212 26.7259 35.8687 27.8312 37.2022 28.008C38.4749 28.1767 39.422 27.5305 39.9346 26.3562C40.2194 25.7035 40.4363 24.9698 40.4739 24.2609C41.1523 11.4545 28.9694 2.33584 17.0157 6.89639Z" fill="white"/>
<path d="M129.593 27.0931C129.593 25.9489 129.593 24.9489 129.593 23.5739C128.154 25.1612 126.965 26.4589 125.792 27.7717C124.37 29.3631 123.967 29.3626 122.519 27.7359C121.367 26.4412 120.209 25.1513 118.794 23.568C118.794 25.6184 118.966 27.3631 118.747 29.0544C118.508 30.9003 120.025 34.1382 116.952 34.1447C113.746 34.1516 115.189 30.8496 115.104 28.9864C114.906 24.6507 115.029 20.299 115.058 15.954C115.061 15.5254 115.312 15.0986 115.447 14.6709C115.885 14.8839 116.437 14.9885 116.741 15.3273C118.868 17.6975 120.984 20.0806 123.016 22.5359C123.877 23.5756 124.44 23.6445 125.33 22.5646C127.327 20.1428 129.414 17.7979 131.508 15.4632C131.85 15.0821 132.417 14.9132 132.88 14.6462C133.039 15.155 133.333 15.6628 133.336 16.1726C133.37 21.494 133.368 26.8157 133.348 32.1373C133.343 33.4152 132.547 34.3051 131.509 34.3349C130.434 34.3656 129.645 33.4344 129.595 32.0706C129.586 31.8268 129.593 31.5824 129.593 31.3383C129.593 29.9713 129.593 28.6043 129.593 27.0931Z" fill="white"/>
<path d="M248.251 23.5717C250.168 27.7271 248.856 32.3083 245.324 33.9769C243.296 34.9351 241.344 34.3976 239.26 33.4431C239.26 34.9764 239.278 36.3718 239.255 37.7666C239.231 39.3032 238.535 40.2127 237.407 40.2493C236.225 40.2875 235.438 39.3293 235.433 37.737C235.416 32.7118 235.385 27.6857 235.472 22.6621C235.484 21.9254 235.954 20.7792 236.481 20.5842C237.035 20.379 237.911 21.0886 238.938 21.5211C242.834 19.255 245.906 19.7927 248.251 23.5717ZM239.558 25.819C239.496 26.6789 239.266 27.5687 239.405 28.3928C239.747 30.4117 241.87 31.5681 243.501 30.7465C244.722 30.1312 245.5 28.5052 245.336 26.9114C245.182 25.4112 244.306 24.2475 242.975 23.9517C241.482 23.6199 240.402 24.3017 239.558 25.819Z" fill="white"/>
<path d="M64.2517 15.0563C67.3999 13.8585 70.3093 14.1594 73.0957 15.8483C74.1312 16.476 74.6183 17.3504 74.0661 18.5365C73.5797 19.5811 72.534 19.7058 71.2639 18.9649C68.0785 17.1066 64.4752 18.0094 62.8788 21.0658C61.1091 24.4538 62.186 28.7458 65.2718 30.3439C67.3991 31.4456 69.4961 31.2072 71.48 29.8832C71.7565 29.6987 71.9789 29.4301 72.2519 29.2388C73.1196 28.6308 73.9939 28.6461 74.6706 29.4859C75.3712 30.3555 75.1223 31.2079 74.3422 31.9262C70.7511 35.233 65.1142 35.2636 61.5609 31.9966C57.8449 28.58 57.0719 22.5552 60.0705 18.6254C61.145 17.2171 62.7704 16.2507 64.2517 15.0563Z" fill="white"/>
<path d="M213.078 33.8701C209.213 35.1407 205.874 34.316 203.17 31.4509C200.306 28.4162 199.59 24.7202 201.037 20.7727C202.378 17.114 205.058 14.9031 208.872 14.4125C211.128 14.1224 213.322 14.5451 215.264 15.8956C216.382 16.6726 216.751 17.6936 216.134 18.5881C215.405 19.6458 214.526 19.6834 213.419 19.0293C210.1 17.0669 206.594 17.9692 204.953 21.1201C203.199 24.4893 204.315 28.8064 207.419 30.3726C209.553 31.4495 211.653 31.1985 213.624 29.8495C213.938 29.6344 214.197 29.3292 214.52 29.1328C215.378 28.6117 216.205 28.7182 216.797 29.5378C217.389 30.3587 217.291 31.2702 216.478 31.8523C215.438 32.5971 214.289 33.1817 213.078 33.8701Z" fill="white"/>
<path d="M145.104 33.5531C141.105 35.4533 137.667 34.1499 136.115 30.239C134.559 26.3174 136.319 21.7862 139.935 20.5183C142.325 19.6803 144.396 20.4539 145.889 21.7879C146.778 21.2398 147.493 20.4325 148.176 20.4612C149.259 20.5066 149.368 21.6089 149.36 22.6051C149.335 25.7296 149.347 28.8544 149.353 31.9791C149.355 32.9375 149.362 34.0485 148.173 34.0917C147.477 34.1169 146.759 33.497 146.051 33.1674C146.089 33.0163 146.127 32.8651 146.165 32.714C145.845 32.9754 145.525 33.2368 145.104 33.5531ZM145.395 27.996C145.379 27.4623 145.434 26.9147 145.335 26.3977C145.081 25.0611 144.187 24.0994 142.961 24.0135C142.05 23.9496 140.852 24.3505 140.205 24.9929C139.048 26.1416 139.102 27.7351 139.778 29.2081C140.328 30.4049 141.256 31.1252 142.615 30.9757C144.203 30.801 145.005 29.7425 145.395 27.996Z" fill="white"/>
<path d="M170.858 21.5695C171.416 21.1198 171.899 20.4565 172.392 20.4487C172.99 20.4392 173.839 20.8329 174.132 21.3297C174.413 21.8069 174.366 22.8214 174.038 23.2796C173.115 24.5694 171.973 25.6944 170.823 26.9912C171.859 28.2959 172.909 29.5964 173.936 30.9165C174.825 32.0596 174.804 33.1167 173.847 33.8446C172.767 34.6674 171.895 34.1911 171.13 33.2772C169.746 31.6239 168.36 29.9733 166.718 28.0154C166.718 29.5589 166.745 30.7469 166.711 31.9331C166.669 33.3783 165.971 34.1909 164.825 34.2102C163.675 34.2297 162.904 33.4307 162.895 31.9835C162.861 26.9072 162.865 21.8305 162.894 16.7542C162.902 15.3439 163.693 14.4861 164.806 14.4917C165.91 14.4974 166.69 15.3666 166.706 16.7784C166.742 19.7961 166.717 22.8147 166.717 26.2641C168.236 24.5415 169.512 23.094 170.858 21.5695Z" fill="white"/>
<path d="M228.703 32.8139C226.503 34.645 223.846 34.9785 221.721 33.7598C219.379 32.4167 217.919 29.2842 218.305 26.3915C218.651 23.8051 219.822 21.7367 222.212 20.683C224.7 19.5858 226.946 20.2981 228.956 22.1283C229.084 21.7838 229.112 21.3679 229.325 21.2051C229.783 20.8543 230.385 20.3548 230.836 20.4386C231.28 20.5211 231.927 21.2406 231.939 21.6951C232.033 25.4025 232.042 29.1145 231.948 32.8216C231.936 33.2878 231.234 33.978 230.736 34.1129C230.327 34.2237 229.726 33.6946 229.249 33.3854C229.041 33.2507 228.931 32.9567 228.703 32.8139ZM227.957 26.1097C226.942 23.9243 224.999 23.2221 223.371 24.4525C222.082 25.427 221.689 27.3832 222.441 29.089C223.105 30.5954 224.332 31.2654 225.767 30.9053C227.23 30.5385 228.236 28.9998 228.174 27.1936C228.165 26.9058 228.073 26.6209 227.957 26.1097Z" fill="white"/>
<path d="M175.193 27.3751C175.271 26.5726 175.286 25.8811 175.43 25.2187C176.172 21.7807 178.915 19.8379 182.412 20.2358C185.821 20.6237 188.162 23.2631 188.148 26.7257C188.142 28.007 187.44 28.5527 186.238 28.5488C183.87 28.5412 181.502 28.5466 179.127 28.5466C179.259 30.2089 180.004 31.1259 181.503 31.1582C182.564 31.1809 183.653 30.927 184.69 30.6439C185.621 30.3898 186.431 30.3668 186.907 31.313C187.444 32.3828 186.805 33.0443 185.957 33.5644C181.218 36.4709 175.686 33.356 175.193 27.3751ZM179.085 25.815C180.856 25.9381 182.626 26.0611 184.529 26.1934C184.211 24.4754 183.165 23.9952 182.031 23.8852C180.754 23.7614 179.591 24.1519 179.085 25.815Z" fill="white"/>
<path d="M83.5824 20.1938C86.6169 20.6106 88.6108 22.2503 89.518 25.101C90.3891 27.8384 89.7322 30.3197 87.8012 32.3841C85.6979 34.6327 82.7459 35.1022 80.0798 33.7152C77.3138 32.2762 75.7305 29.0898 76.2665 26.0408C76.7734 23.1578 79.2455 20.7088 82.0455 20.3267C82.5166 20.2624 82.9925 20.2352 83.5824 20.1938ZM80.926 30.0213C82.0058 31.0875 83.2258 31.3331 84.5445 30.5657C85.7222 29.8804 86.2829 28.1379 85.9519 26.4382C85.6693 24.987 84.5085 23.9472 83.0892 23.8738C81.7819 23.8062 80.5748 24.7443 80.146 26.1365C79.7283 27.4926 80.0042 28.7133 80.926 30.0213Z" fill="white"/>
<path d="M108.725 20.6341C110.944 21.7292 111.815 23.6041 111.907 25.8851C111.992 27.981 111.95 30.0835 111.923 32.1825C111.907 33.4246 111.077 34.3321 110.044 34.3359C109.023 34.3396 108.209 33.4359 108.185 32.171C108.152 30.3651 108.199 28.5577 108.167 26.7519C108.13 24.703 107.43 23.8816 105.763 23.83C104.155 23.7803 103.319 24.6237 103.209 26.6375C103.114 28.3899 103.189 30.1515 103.161 31.9085C103.136 33.4305 102.398 34.3482 101.267 34.3279C100.14 34.3077 99.3971 33.3687 99.3885 31.862C99.3708 28.7862 99.3904 25.7102 99.3785 22.6344C99.3749 21.7211 99.3765 20.6628 100.426 20.5312C101.09 20.448 101.832 21.0212 102.79 21.3991C104.323 20.2007 106.374 19.7727 108.725 20.6341Z" fill="white"/>
<path d="M196.656 23.8134C196.199 23.8138 195.866 23.8138 195.419 23.8138C195.419 25.7918 195.391 27.7269 195.431 29.6605C195.45 30.5959 196.001 31.028 196.924 31.0362C198.085 31.0464 198.902 31.5617 198.805 32.8727C198.717 34.0817 197.87 34.4268 196.797 34.4635C193.355 34.5813 191.756 33.108 191.645 29.5804C191.586 27.7296 191.634 25.8752 191.634 23.9164C190.386 23.75 188.95 23.7313 188.97 21.9831C188.989 20.3214 190.289 20.1874 191.615 20.138C191.615 18.9288 191.59 17.8151 191.621 16.703C191.656 15.4396 192.452 14.5494 193.486 14.55C194.51 14.5507 195.321 15.456 195.359 16.7122C195.393 17.8284 195.366 18.9465 195.366 20.0903C196.676 20.3277 198.356 19.8002 198.556 21.8164C198.68 23.0552 197.964 23.6975 196.656 23.8134Z" fill="white"/>
<path d="M159.788 20.2078C161.022 20.4704 161.53 21.222 161.36 22.3486C161.192 23.4553 160.377 23.7652 159.377 23.8246C157.272 23.9494 156.529 24.773 156.504 26.9639C156.484 28.6728 156.521 30.3825 156.491 32.091C156.467 33.445 155.63 34.4285 154.55 34.3092C153.323 34.1738 152.731 33.3845 152.734 32.1106C152.741 28.9366 152.743 25.7625 152.731 22.5885C152.728 21.6795 152.703 20.6064 153.787 20.5162C154.469 20.4595 155.203 21.0675 155.787 21.3221C157.009 20.9681 158.343 20.5819 159.788 20.2078Z" fill="white"/>
<path d="M92.1841 31.9484C92.1839 28.7974 92.1739 25.7799 92.1887 22.7625C92.1956 21.3595 92.9097 20.464 93.9938 20.4212C95.1155 20.3768 95.9257 21.3332 95.9339 22.7921C95.9512 25.8581 95.9505 28.9244 95.934 31.9905C95.9266 33.3728 95.1734 34.3695 94.1057 34.3059C92.807 34.2285 92.1669 33.4215 92.1841 31.9484Z" fill="white"/>
<path d="M92.5273 18.2573C91.721 17.2745 91.6417 16.2332 92.2863 15.3558C92.6558 14.8529 93.5209 14.3138 94.0226 14.4297C94.7913 14.6073 95.7984 15.2011 96.0368 15.8688C96.2747 16.5355 95.9147 17.7062 95.416 18.3046C94.6596 19.2122 93.5595 19.1187 92.5273 18.2573Z" fill="white"/>
</g>
<defs>
<clipPath id="clip0_1_1806">
<rect width="250" height="46" fill="white" transform="translate(0.5 0.125)"/>
</clipPath>
</defs>
</svg>
