<svg width="219" height="60" viewBox="0 0 219 60" fill="none" xmlns="http://www.w3.org/2000/svg">
<g clip-path="url(#clip0_1_1911)">
<path d="M36.9576 10.5776C41.6039 10.6001 46.2503 10.6283 50.8966 10.6431C54.1135 10.6533 57.3305 10.6451 60.7015 10.6451C59.6932 14.7384 58.7137 18.7151 57.7247 22.7305C53.7296 22.7305 49.8203 22.7305 45.8494 22.7305C45.0441 24.8527 44.2519 26.9405 43.3519 29.3124C47.7971 27.4933 51.9393 25.7982 56.0814 24.1032C56.13 24.1675 56.1787 24.2318 56.2273 24.2961C48.6554 35.084 41.0835 45.8719 33.5117 56.6598C33.4292 56.6303 33.3467 56.6008 33.2642 56.5713C34.2812 52.3007 35.2981 48.03 36.3556 43.6439C36.3961 43.5285 36.3788 43.4753 36.3954 43.4257C36.3361 43.3591 36.2601 43.3421 36.1098 43.3286C35.921 43.4108 35.8066 43.4895 35.6921 43.5682C35.6921 43.5682 35.7219 43.5837 35.6187 43.5708C35.2116 43.6722 34.9032 43.7758 34.6047 43.9025C32.2862 44.8861 29.9707 45.8766 27.6513 46.8583C27.282 47.0146 26.7691 47.4197 26.9035 46.418C27.3184 44.7444 27.7008 43.1622 28.0694 41.514C28.0111 41.4564 27.9666 41.4647 28.003 41.4904C28.0955 41.4017 28.1072 41.2957 28.1627 41.1075C28.3414 40.4282 28.4762 39.831 28.6517 39.1472C29.1276 37.2585 29.5629 35.4566 30.0352 33.5749C30.1844 32.8974 30.2967 32.2996 30.4591 31.6268C30.9386 29.7356 31.368 27.9194 31.8403 26.02C32.0393 25.1866 32.1954 24.4364 32.4081 23.607C32.6465 23.0233 32.6484 22.6662 31.9282 22.7154C31.3196 22.7571 30.7058 22.7237 30.0944 22.7237C27.1715 22.7237 24.2486 22.7237 21.2321 22.7237C22.1851 18.826 23.0857 15.0593 24.062 11.312C24.138 11.0202 24.7398 10.6817 25.104 10.6739C28.3217 10.6054 31.5409 10.6069 34.8669 10.6123C35.6353 10.6171 36.2964 10.5974 36.9576 10.5776ZM40.1186 32.4233C40.1186 32.4233 40.1326 32.4333 40.1071 32.2506C41.424 29.211 42.8415 26.2089 44.0171 23.1163C44.6405 21.4763 45.4682 20.8707 47.2798 20.982C50.3177 21.1687 53.3757 21.0331 56.4333 21.0331C57.1441 18.1006 57.8265 15.2853 58.5294 12.3856C47.461 12.3856 36.513 12.3856 25.4846 12.3856C24.7939 15.2405 24.1067 18.0812 23.3914 21.0383C27.2729 21.0383 30.975 21.0383 34.8237 21.0383C32.9903 28.7862 31.1826 36.4257 29.3257 44.2728C32.6255 42.8816 35.7276 41.5737 39.0631 40.1673C38.5111 42.8523 38.0164 45.2588 37.5216 47.6652C37.6104 47.7097 37.6993 47.7541 37.7881 47.7986C42.1917 41.2647 46.5954 34.7308 50.9991 28.1969C50.4558 28.1477 50.0875 28.2735 49.7318 28.4277C46.9366 29.6402 44.1467 30.8648 41.347 32.0669C40.9553 32.2351 40.5192 32.3013 40.1186 32.4233Z" fill="white"/>
<path d="M28.611 39.2339C28.4762 39.831 28.3414 40.4282 28.1199 41.1473C27.978 41.3274 27.9409 41.3953 27.9221 41.473C27.9666 41.4647 28.0111 41.4564 27.9537 41.4676C27.4883 41.481 27.1231 41.4503 26.7613 41.4727C24.5746 41.608 22.3864 41.9015 20.2031 41.8667C16.3618 41.8055 12.6825 40.9285 9.43259 38.809C7.93593 37.8329 6.606 36.6051 5.18422 35.4786C4.94693 37.5037 5.33966 39.3941 6.61519 41.121C8.03652 43.0452 9.94304 44.3282 12.079 45.2692C16.8521 47.3719 21.8002 47.741 26.8711 46.5094C26.7691 47.4197 27.282 47.0146 27.6513 46.8583C29.9707 45.8767 32.2862 44.8861 34.6047 43.9025C34.9032 43.7758 35.2116 43.6722 35.6064 43.5594C35.2796 44.0685 34.9475 44.6942 34.4299 45.0641C31.5938 47.0906 28.3766 48.1959 24.938 48.6692C20.1462 49.3288 15.4962 48.7712 11.1064 46.7245C7.52811 45.0563 4.59201 42.7057 3.60756 38.6375C3.46693 38.0564 3.43346 37.4382 3.43237 36.8371C3.42044 30.2853 3.55617 23.7299 3.3792 17.1828C3.25889 12.7314 5.27695 9.55178 8.88654 7.45973C16.8582 2.83952 25.0477 2.66234 33.1549 7.18431C34.5645 7.97058 35.6462 9.33576 36.9184 10.5056C36.2964 10.5974 35.6353 10.6172 34.8252 10.541C34.4463 10.2167 34.2358 9.96452 33.9837 9.76366C27.3174 4.45253 15.5014 4.35745 8.79236 9.55549C4.8755 12.5902 4.01535 16.8206 6.70097 20.3804C7.47012 21.3999 8.43388 22.3588 9.49917 23.0602C14.536 26.3765 20.0711 27.4369 25.9527 26.0264C28.1475 25.5 30.2222 24.4807 32.3516 23.6862C32.1954 24.4364 32.0393 25.1866 31.7476 26.0268C31.2666 26.2324 30.9168 26.337 30.5761 26.4654C26.0733 28.1628 21.4773 28.8105 16.6978 27.8213C12.3003 26.9112 8.37566 25.1619 5.10315 21.4677C5.16636 22.5942 5.10796 23.3988 5.27213 24.1558C5.93869 27.2296 7.9737 29.2645 10.6601 30.6797C16.4294 33.7192 22.4759 33.8799 28.6655 32.2085C29.2498 32.0508 29.828 31.8712 30.409 31.7018C30.2967 32.2996 30.1844 32.8974 29.9345 33.5894C26.5609 34.8842 23.193 34.9966 19.7983 34.862C14.4903 34.6516 9.71134 33.1492 5.9225 29.2389C5.74493 29.0556 5.50806 28.9289 5.06366 28.6039C5.1594 29.701 5.11326 30.565 5.32532 31.3613C6.2469 34.8218 8.79103 36.8543 11.8909 38.2476C17.3178 40.6868 22.928 40.7293 28.611 39.2339Z" fill="white"/>
<path d="M106.454 30.4828C106.454 28.8333 106.454 27.304 106.454 25.7068C107.262 25.7068 107.979 25.7068 108.787 25.7068C108.787 29.8239 108.787 33.9645 108.787 38.1065C106.618 38.5241 106.618 38.5241 105.573 36.6615C104.432 34.6298 103.292 32.5981 102.151 30.5664C102.072 30.5873 101.993 30.6081 101.913 30.629C101.913 33.1108 101.913 35.5926 101.913 38.1641C101.052 38.1641 100.309 38.1641 99.4984 38.1641C99.4984 34.0314 99.4984 29.921 99.4984 25.816C101.572 25.3387 101.706 25.3932 102.676 27.1175C103.826 29.1622 104.974 31.2084 106.125 33.2527C106.16 33.3154 106.222 33.3635 106.454 33.6212C106.454 32.4783 106.454 31.5406 106.454 30.4828Z" fill="white"/>
<path d="M176.8 33.7762C177.524 35.2622 178.201 36.6727 178.873 38.071C178.737 38.1602 178.679 38.2307 178.618 38.2331C176.37 38.3232 176.372 38.3217 175.416 36.304C175.002 35.431 174.582 34.5614 174.159 33.6793C173.559 33.6793 172.993 33.6793 172.311 33.6793C172.311 35.1635 172.311 36.6389 172.311 38.1829C171.484 38.1829 170.769 38.1829 169.96 38.1829C169.96 34.0674 169.96 29.9357 169.96 25.7226C171.765 25.7226 173.589 25.5914 175.383 25.7638C176.841 25.9039 178.005 26.7872 178.322 28.2952C178.658 29.8934 178.531 31.4767 177.064 32.5707C176.596 32.9205 176.388 33.1943 176.8 33.7762ZM175.97 29.026C175.319 27.6952 174.615 27.4793 172.33 27.9247C172.33 29.0749 172.33 30.2302 172.33 31.3768C175.223 31.7908 176.039 31.3057 175.97 29.026Z" fill="white"/>
<path d="M210.439 32.8801C209.575 32.7579 209.547 33.2178 209.553 33.7588C209.568 35.209 209.558 36.6594 209.558 38.181C208.758 38.181 208.046 38.181 207.264 38.181C207.264 34.04 207.264 29.8947 207.264 25.6938C207.999 25.6938 208.718 25.6938 209.558 25.6938C209.558 27.3541 209.558 28.9934 209.558 30.6836C211.13 30.6836 212.58 30.6836 214.167 30.6836C214.167 29.0176 214.167 27.3842 214.167 25.6976C215.015 25.6976 215.727 25.6976 216.507 25.6976C216.507 29.8675 216.507 34.0053 216.507 38.1983C215.746 38.1983 215.032 38.1983 214.192 38.1983C214.192 36.4431 214.192 34.7254 214.192 32.8799C212.901 32.8799 211.731 32.8799 210.439 32.8801Z" fill="white"/>
<path d="M156.674 31.7257C156.962 30.4079 157.078 29.1265 157.573 28.0108C158.373 26.208 160.499 25.3262 162.498 25.7142C164.705 26.1426 165.85 27.4082 166.091 29.8212C165.61 29.8212 165.118 29.9096 164.68 29.7943C164.303 29.6949 163.84 29.4392 163.673 29.1199C163.236 28.2847 162.665 27.7988 161.686 27.7803C160.652 27.7607 159.949 28.2456 159.598 29.1493C158.9 30.9465 158.859 32.7929 159.569 34.5889C160.112 35.9609 161.515 36.502 162.914 36.0093C164.233 35.5453 163.577 34.5059 163.697 33.6154C162.975 33.573 162.34 33.5357 161.639 33.4945C161.639 32.8837 161.639 32.3373 161.639 31.7155C163.098 31.7155 164.548 31.7155 166.147 31.7155C166.147 33.1883 166.264 34.6784 166.085 36.1324C166.02 36.6542 165.325 37.2482 164.773 37.5378C161.006 39.5141 157.33 37.5927 156.779 33.4066C156.71 32.8875 156.706 32.3601 156.674 31.7257Z" fill="white"/>
<path d="M89.3248 32.1745C88.9668 33.5955 88.8741 35.0588 88.2009 36.1784C86.3866 39.1959 81.8775 38.9056 80.2999 35.7131C79.0669 33.218 79.1081 30.6087 80.3399 28.1114C81.1613 26.4461 82.6438 25.6176 84.5173 25.6576C86.3382 25.6966 87.8114 26.5372 88.4954 28.2018C88.9879 29.4005 89.0637 30.7679 89.3248 32.1745ZM84.3239 36.0848C85.2879 36.1114 86.0028 35.6596 86.3613 34.8151C87.1704 32.9093 87.2006 30.9508 86.3472 29.0601C85.7854 27.8156 84.3417 27.4562 83.2558 28.1548C81.3368 29.3895 81.3843 34.5876 83.3348 35.7856C83.5694 35.9296 83.8623 35.9802 84.3239 36.0848Z" fill="white"/>
<path d="M146.035 30.9746C146.035 29.1579 146.035 27.4626 146.035 25.7026C148.617 25.7026 151.121 25.7026 153.675 25.7026C153.675 26.3896 153.675 27.0589 153.675 27.7996C151.942 27.7996 150.28 27.7996 148.53 27.7996C148.53 28.7722 148.53 29.678 148.53 30.6947C149.951 30.6947 151.401 30.6947 152.909 30.6947C152.909 31.4299 152.909 32.0571 152.909 32.7836C151.451 32.7836 150.039 32.7836 148.534 32.7836C148.534 33.9067 148.534 34.9331 148.534 36.0767C150.213 36.0767 151.906 36.0767 153.684 36.0767C153.684 36.8191 153.684 37.4472 153.684 38.167C151.196 38.167 148.695 38.167 146.035 38.167C146.035 35.8316 146.035 33.4638 146.035 30.9746Z" fill="white"/>
<path d="M127.005 25.6357C128.751 25.6357 130.376 25.6357 132.078 25.6357C132.078 26.3653 132.078 27.0221 132.078 27.7811C130.342 27.7811 128.643 27.7811 126.873 27.7811C126.873 28.7884 126.873 29.698 126.873 30.7019C128.317 30.7019 129.771 30.7019 131.31 30.7019C131.31 31.4137 131.31 32.0369 131.31 32.7911C129.876 32.7911 128.424 32.7911 126.887 32.7911C126.887 33.942 126.887 34.9667 126.887 36.098C128.584 36.098 130.284 36.098 132.069 36.098C132.069 36.8242 132.069 37.4509 132.069 38.1687C129.612 38.1687 127.105 38.1687 124.493 38.1687C124.493 34.066 124.493 29.9303 124.493 25.6357C125.285 25.6357 126.084 25.6357 127.005 25.6357Z" fill="white"/>
<path d="M194.952 25.783C196.61 25.6807 198.199 25.5921 199.781 25.6684C202.203 25.7853 203.73 27.4694 203.737 29.8818C203.744 32.0828 202.189 33.6572 199.793 33.8222C198.99 33.8775 198.181 33.8309 197.244 33.8309C197.244 34.6571 197.244 35.3723 197.244 36.0875C197.244 36.7662 197.244 37.445 197.244 38.1886C196.438 38.1886 195.724 38.1886 194.88 38.1886C194.88 34.0813 194.88 29.9759 194.952 25.783ZM199.65 27.8032C198.888 27.8032 198.125 27.8032 197.303 27.8032C197.303 29.1308 197.303 30.3588 197.303 31.7017C197.91 31.7017 198.469 31.6883 199.027 31.7045C200.095 31.7356 200.976 31.49 201.253 30.2981C201.505 29.2146 201.032 28.3781 199.65 27.8032Z" fill="white"/>
<path d="M184.755 27.5626C185.477 25.5397 185.477 25.5397 187.655 25.7049C189.07 29.8161 190.495 33.9574 191.952 38.1933C191.062 38.1933 190.305 38.1933 189.449 38.1933C189.166 37.3846 188.868 36.5286 188.555 35.632C187.574 35.632 186.635 35.6978 185.71 35.6135C184.783 35.5291 184.254 35.7923 184.11 36.7535C184.039 37.2257 183.835 37.6782 183.674 38.1942C182.876 38.1942 182.075 38.1942 181.135 38.1942C182.347 34.6436 183.539 31.1499 184.755 27.5626ZM187.486 31.994C187.2 31.0644 186.914 30.1349 186.524 28.8684C185.998 30.6118 185.574 32.0152 185.125 33.505C186.148 33.505 186.985 33.505 187.927 33.505C187.787 33.0089 187.67 32.5926 187.486 31.994Z" fill="white"/>
<path d="M75.3254 30.1044C74.9047 30.1044 74.5805 30.1044 74.3522 30.1044C73.9507 29.4193 73.7109 28.6777 73.208 28.2217C72.1747 27.2844 70.278 27.747 69.9183 29.1305C69.5514 30.5415 69.4947 32.0681 69.5365 33.5376C69.5801 35.0757 70.399 35.9549 71.5077 36.0789C72.9165 36.2365 73.565 35.7274 74.164 33.9403C74.849 33.9403 75.5622 33.9403 76.2794 33.9403C76.4814 35.5975 75.5112 37.1521 73.8091 37.874C71.8889 38.6885 69.7214 38.2438 68.4505 36.7746C66.5079 34.5291 66.4664 29.5266 68.3711 27.2278C69.5584 25.7949 71.595 25.272 73.477 25.9167C75.2651 26.5293 76.3065 27.9929 76.3527 30.0329C76.0455 30.0565 75.7337 30.0804 75.3254 30.1044Z" fill="white"/>
<path d="M117.701 37.0102C117.681 37.4788 117.661 37.8297 117.64 38.1985C116.846 38.1985 116.132 38.1985 115.295 38.1985C115.295 34.7337 115.295 31.322 115.295 27.8004C114.097 27.8004 113.017 27.8004 111.877 27.8004C111.877 27.0605 111.877 26.4297 111.877 25.7178C114.937 25.7178 118.012 25.7178 121.17 25.7178C121.17 26.3597 121.17 27.0215 121.17 27.7687C120.028 27.7687 118.942 27.7687 117.701 27.7687C117.701 30.8645 117.701 33.8785 117.701 37.0102Z" fill="white"/>
<path d="M135.351 26.6626C135.267 25.9118 135.447 25.5458 136.195 25.6274C136.669 25.6793 137.154 25.6371 137.739 25.6371C137.739 29.1262 137.739 32.5368 137.739 36.0708C139.442 36.0708 141.045 36.0708 142.749 36.0708C142.749 36.8124 142.749 37.4342 142.749 38.1564C140.359 38.1564 137.914 38.1564 135.351 38.1564C135.351 34.3424 135.351 30.56 135.351 26.6626Z" fill="white"/>
<path d="M93.0083 37.4642C93.008 33.4854 93.008 29.6224 93.008 25.6997C93.8383 25.6997 94.5542 25.6997 95.3518 25.6997C95.3518 29.8261 95.3518 33.9601 95.3518 38.2718C94.5909 37.881 93.5096 39.0399 93.0083 37.4642Z" fill="white"/>
<path d="M40.1111 32.4189C40.1053 32.4614 40.1071 32.5082 40.1088 32.555C40.0887 32.5222 40.0686 32.4895 40.0905 32.445C40.1326 32.4333 40.1186 32.4233 40.1111 32.4189Z" fill="white"/>
</g>
<defs>
<clipPath id="clip0_1_1911">
<rect width="219" height="59" fill="white" transform="translate(0 0.625)"/>
</clipPath>
</defs>
</svg>
