<svg width="231" height="46" viewBox="0 0 231 46" fill="none" xmlns="http://www.w3.org/2000/svg">
<g clip-path="url(#clip0_1_1890)">
<path d="M16.9825 42.0354C15.3514 43.3883 13.5263 43.727 11.5873 43.027C9.69354 42.3433 8.50591 40.9396 8.12674 38.9533C7.74421 36.9493 8.41462 35.2717 9.84454 33.8362C11.685 31.9885 11.8287 29.1868 10.2278 27.1301C10.0031 26.8415 9.72089 26.5982 9.47559 26.3248C7.44246 24.0585 7.54359 20.8504 9.73793 18.6661C11.0993 17.311 11.5819 15.705 11.2019 13.8399C10.9872 12.7867 10.411 11.9398 9.66022 11.1771C8.21656 9.71056 7.73147 7.94371 8.20722 5.94815C8.78229 3.53595 11.1455 1.74555 13.6302 1.88293C15.0861 1.96343 16.3398 2.56717 17.3906 3.61372C19.0539 5.2703 21.538 5.59915 23.5758 4.44049C24.1073 4.13827 24.5874 3.73452 25.0562 3.33641C26.2143 2.3528 27.5308 1.79287 29.0599 1.89266C30.3936 1.97971 31.5663 2.50662 32.5309 3.4437C34.7356 5.58545 37.5348 5.70808 39.9176 3.72851C40.783 3.00956 41.6549 2.34344 42.7756 2.04754C44.4943 1.59372 46.026 2.00749 47.3906 3.03837C50.1776 5.14379 50.1951 9.41681 47.4605 11.5781C45.313 13.2754 42.1763 13.1188 40.2658 11.111C38.4484 9.20104 35.7559 8.95018 33.7851 10.175C33.3896 10.4208 33.0284 10.7366 32.6955 11.0646C30.4211 13.3052 27.104 13.301 24.8378 11.0414C22.6551 8.86504 19.6189 8.90215 17.3924 11.007C15.5168 12.78 14.6816 16.0177 17.3607 18.9052C19.2039 20.8918 19.3615 23.6082 17.8398 25.7837C17.6555 26.0472 17.4437 26.296 17.2179 26.5254C15.3544 28.4183 15.1115 31.127 16.6194 33.2866C18.1276 35.4467 20.4961 36.2684 22.8333 35.444C23.7427 35.1232 24.461 34.5187 25.1776 33.9032C27.2261 32.1438 30.0743 32.0759 32.1535 33.724C33.9935 35.1825 34.6749 37.7423 33.8049 39.9279C32.9118 42.1719 30.7048 43.5414 28.3244 43.3409C26.8924 43.2204 25.7274 42.5914 24.7282 41.5788C22.9721 39.7992 20.3358 39.5279 18.2684 40.9168C17.809 41.2255 17.4252 41.6462 16.9825 42.0354Z" fill="white"/>
<path d="M158.407 17.2132C158.407 22.7708 158.407 28.2843 158.407 33.7978C158.407 34.4216 158.406 34.4222 157.769 34.4225C156.856 34.4229 155.942 34.4127 155.028 34.4275C154.698 34.4329 154.586 34.3082 154.595 33.9871C154.611 33.3553 154.601 32.7228 154.598 32.0906C154.597 31.9503 154.581 31.8101 154.567 31.6056C154.441 31.6879 154.356 31.7174 154.31 31.7767C152.924 33.5567 151.051 34.5172 148.866 34.8382C145.934 35.2689 143.224 34.6331 140.898 32.7604C139.185 31.3824 138.07 29.5672 137.552 27.4353C136.769 24.2111 137.038 21.0918 138.803 18.2161C140.373 15.6561 142.711 14.208 145.68 13.7683C147.287 13.5304 148.873 13.5929 150.427 14.1046C151.977 14.6147 153.302 15.4457 154.287 16.7675C154.347 16.8482 154.392 16.9399 154.444 17.0266C154.496 17.0037 154.547 16.9809 154.599 16.958C154.599 16.7774 154.599 16.5967 154.599 16.4161C154.599 11.8289 154.599 7.24167 154.599 2.65446C154.599 2.03938 154.6 2.03849 155.2 2.03802C156.069 2.03734 156.939 2.03747 157.809 2.03846C158.406 2.03914 158.407 2.04005 158.407 2.6577C158.407 7.49484 158.407 12.332 158.407 17.2132ZM142.966 29.3009C143.269 29.5788 143.546 29.8914 143.878 30.1288C145.675 31.4145 147.68 31.6244 149.771 31.1361C151.437 30.7473 152.742 29.8039 153.58 28.2936C154.656 26.3538 154.871 24.2891 154.327 22.1565C153.777 19.9972 152.495 18.4284 150.375 17.6365C149.259 17.2196 148.094 17.126 146.9 17.2928C144.792 17.5872 143.164 18.5936 142.144 20.4675C141.201 22.2007 141.053 24.0694 141.389 25.9875C141.603 27.2124 142.097 28.3132 142.966 29.3009Z" fill="white"/>
<path d="M208.851 24.5984C208.662 24.3785 208.493 24.1818 208.325 23.9851C208.286 23.996 208.247 24.0069 208.208 24.0177C208.208 24.1686 208.208 24.3196 208.208 24.4705C208.208 27.5878 208.208 30.7051 208.207 33.8224C208.207 34.4143 208.206 34.4156 207.63 34.4162C206.686 34.4173 205.742 34.4041 204.799 34.4227C204.44 34.4297 204.301 34.3181 204.311 33.9464C204.333 33.1677 204.318 32.3879 204.318 31.6086C204.318 21.992 204.318 12.3754 204.318 2.7588C204.318 2.03685 204.318 2.03659 205.056 2.0364C205.911 2.03618 206.766 2.03577 207.621 2.03681C208.205 2.03753 208.207 2.03858 208.207 2.62215C208.208 9.16555 208.208 15.709 208.208 22.2524C208.208 22.4207 208.208 22.589 208.208 22.8835C208.428 22.6742 208.554 22.5598 208.674 22.4398C211.332 19.7882 213.992 17.1385 216.643 14.4795C216.889 14.2318 217.14 14.116 217.495 14.1202C218.91 14.1371 220.325 14.1272 221.74 14.1272C221.884 14.1272 222.028 14.1272 222.263 14.1272C222.15 14.2707 222.101 14.3487 222.037 14.4115C220.166 16.2459 218.297 18.0805 216.423 19.9111C215.35 20.9598 214.275 22.0076 213.188 23.042C212.935 23.2826 212.898 23.4335 213.163 23.7122C214.916 25.5539 216.65 27.4139 218.389 29.2697C219.594 30.5569 220.799 31.8449 221.999 33.1371C222.353 33.5181 222.69 33.9145 223.105 34.3827C222.846 34.3981 222.692 34.4151 222.538 34.4153C221.167 34.4174 219.795 34.3838 218.425 34.4318C217.836 34.4525 217.467 34.2208 217.11 33.8066C216.248 32.8051 215.359 31.8261 214.48 30.8397C213.307 29.5245 212.135 28.2078 210.956 26.8977C210.268 26.133 209.567 25.3799 208.851 24.5984Z" fill="white"/>
<path d="M174.006 31.564C175.343 31.3546 176.428 30.7396 177.366 29.8443C177.715 29.5106 178.038 29.1481 178.399 28.8291C178.496 28.744 178.748 28.6952 178.833 28.7582C179.719 29.4122 180.585 30.0925 181.487 30.7898C180.944 31.5848 180.269 32.2126 179.536 32.7725C177.902 34.0208 176.036 34.6659 173.994 34.8714C172.394 35.0323 170.82 34.9703 169.271 34.5242C166.23 33.6485 164.03 31.7704 162.887 28.8346C161.41 25.0393 161.632 21.3199 163.979 17.9024C165.694 15.4062 168.144 14.0237 171.17 13.6763C172.829 13.4858 174.473 13.5421 176.055 14.1037C179.13 15.1955 181.049 17.3753 181.937 20.4851C182.377 22.0248 182.498 23.5986 182.478 25.1938C182.473 25.6407 182.283 25.6902 181.917 25.6896C177.347 25.6817 172.776 25.6844 168.206 25.6844C167.645 25.6844 167.085 25.6976 166.525 25.6801C166.152 25.6684 166.082 25.8249 166.127 26.1659C166.47 28.7347 168.018 30.2785 170.353 31.172C171.525 31.6205 172.74 31.648 174.006 31.564ZM167.295 22.5959C170.774 22.5959 174.253 22.5962 177.732 22.5956C178.315 22.5955 178.348 22.591 178.3 22.0022C178.185 20.5752 177.758 19.258 176.706 18.2299C175.521 17.0722 174.05 16.6718 172.424 16.6804C169.435 16.6963 166.907 18.6678 166.259 21.5751C166.002 22.7277 165.929 22.5858 167.075 22.5959C167.119 22.5963 167.163 22.596 167.295 22.5959Z" fill="white"/>
<path d="M100.352 31.4848C98.4455 33.5076 96.1199 34.6709 93.396 34.9217C90.4641 35.1917 87.7916 34.4271 85.4698 32.571C83.3774 30.8983 82.1121 28.7183 81.6705 26.1029C81.1506 23.0243 81.8331 20.2045 83.7923 17.7372C85.4063 15.7046 87.4928 14.3791 90.035 13.8482C93.5058 13.1234 96.6456 13.887 99.3665 16.1719C101.355 17.842 102.591 19.98 102.985 22.5489C103.463 25.6673 102.736 28.4963 100.766 30.9869C100.639 31.1481 100.505 31.3042 100.352 31.4848ZM87.6389 18.9369C86.2478 20.3604 85.6761 22.1152 85.6094 24.0538C85.5707 25.1774 85.7827 26.2639 86.1781 27.3282C86.7569 28.8864 87.795 29.9902 89.2746 30.7163C90.4333 31.2849 91.6602 31.4237 92.9276 31.3319C95.1901 31.1681 96.9482 30.1582 98.0567 28.1653C98.8618 26.718 99.1225 25.1455 98.9717 23.4884C98.8602 22.2631 98.5402 21.1082 97.8823 20.0822C96.2002 17.459 93.2901 16.7991 90.5488 17.3858C89.4634 17.6182 88.5281 18.1805 87.6389 18.9369Z" fill="white"/>
<path d="M119.838 14.5845C119.838 15.4581 119.838 16.2897 119.838 17.21C119.962 17.1142 120.017 17.0917 120.039 17.051C121.012 15.2588 122.584 14.2719 124.514 13.8283C126.523 13.3667 128.494 13.5005 130.368 14.4352C132.345 15.4218 133.371 17.1144 133.791 19.1969C133.955 20.0089 133.979 20.8587 133.982 21.6916C134.001 25.7349 133.991 29.7783 133.99 33.8216C133.99 34.4145 133.989 34.4158 133.413 34.4165C132.528 34.4176 131.644 34.4176 130.759 34.4165C130.184 34.4157 130.183 34.4144 130.183 33.8205C130.183 29.983 130.192 26.1455 130.176 22.308C130.172 21.2884 130.001 20.2901 129.499 19.3759C128.786 18.0756 127.668 17.3872 126.211 17.2147C124.773 17.0445 123.425 17.2906 122.23 18.1402C120.924 19.068 120.313 20.4171 120.036 21.9332C119.915 22.5934 119.85 23.2727 119.847 23.9438C119.828 27.2372 119.838 30.5307 119.838 33.8242C119.838 34.4145 119.836 34.4158 119.257 34.4165C118.387 34.4176 117.518 34.4173 116.648 34.4166C116.031 34.4162 116.03 34.4155 116.03 33.7742C116.03 28.4958 116.03 23.2174 116.03 17.939C116.03 16.8363 116.043 15.7333 116.023 14.6309C116.017 14.2568 116.118 14.1049 116.519 14.1152C117.476 14.1398 118.435 14.1313 119.393 14.1186C119.706 14.1144 119.876 14.2058 119.838 14.5845Z" fill="white"/>
<path d="M189.925 18.4929C189.355 19.6535 189.736 20.7494 190.922 21.4738C191.925 22.0865 193.048 22.3043 194.182 22.5108C195.491 22.7495 196.76 23.1271 197.946 23.7425C199.549 24.574 200.483 25.8636 200.703 27.6777C200.914 29.4094 200.588 30.9826 199.452 32.3368C198.377 33.6191 196.953 34.3299 195.341 34.6646C193.13 35.1236 190.925 35.1009 188.754 34.4189C187.173 33.9222 185.905 32.982 184.919 31.6541C184.767 31.4489 184.768 31.3154 184.98 31.1436C185.767 30.5049 186.541 29.8501 187.315 29.1966C187.588 28.9669 187.775 29.0861 187.994 29.2962C188.815 30.0867 189.694 30.8191 190.821 31.1145C192.423 31.5341 194.004 31.4761 195.488 30.6537C196.973 29.8308 197.035 27.917 195.642 26.9407C194.67 26.2596 193.542 26.0427 192.427 25.7748C190.91 25.4103 189.372 25.1016 188.006 24.2962C186.456 23.3817 185.656 22.0181 185.556 20.2172C185.386 17.1762 187.214 15.0511 189.951 14.1352C192.647 13.2332 195.318 13.3683 197.879 14.6709C198.762 15.1198 199.436 15.825 200.007 16.619C200.078 16.7172 200.04 17.0151 199.947 17.0902C199.134 17.7442 198.293 18.3624 197.471 19.0053C197.212 19.2076 197.078 19.0492 196.921 18.8828C196.134 18.0472 195.216 17.416 194.055 17.2686C192.795 17.1085 191.547 17.1391 190.459 17.9352C190.263 18.0789 190.114 18.2864 189.925 18.4929Z" fill="white"/>
<path d="M79.6825 31.6623C79.399 32.0453 79.1453 32.4604 78.7899 32.7521C77.3509 33.9333 75.6604 34.5505 73.8273 34.7697C71.9376 34.9958 70.0638 34.9271 68.2465 34.283C64.6853 33.0207 62.5092 30.5239 61.7352 26.8552C61.1707 24.1795 61.4191 21.5619 62.6769 19.0963C64.105 16.297 66.4065 14.5818 69.4657 13.9464C72.6483 13.2853 75.6821 13.6768 78.4167 15.5631C78.8495 15.8616 79.221 16.2478 79.6258 16.5876C79.8428 16.7697 79.8548 16.9258 79.6329 17.1243C78.8773 17.8007 78.1298 18.4861 77.3849 19.1743C77.086 19.4504 76.8636 19.408 76.5725 19.12C75.1909 17.7533 73.5087 17.1162 71.5686 17.227C68.3136 17.4128 66.3758 19.6675 65.8008 22.4611C65.4076 24.3718 65.503 26.2386 66.4588 27.986C67.4864 29.8647 69.0723 30.9531 71.2089 31.2498C72.7378 31.4622 74.177 31.2397 75.4866 30.4096C75.955 30.1126 76.3929 29.753 76.7917 29.3673C77.0324 29.1346 77.1607 29.1163 77.3907 29.3529C78.1398 30.1233 78.906 30.8773 79.6825 31.6623Z" fill="white"/>
<path d="M109.482 34.4168C108.717 34.4167 107.995 34.4003 107.273 34.4231C106.869 34.4358 106.732 34.2878 106.736 33.8855C106.752 32.1813 106.743 30.4768 106.743 28.7725C106.743 24.0855 106.743 19.3985 106.743 14.7115C106.743 14.041 106.744 14.04 107.397 14.0395C108.325 14.0386 109.253 14.0509 110.181 14.0334C110.529 14.0269 110.639 14.1512 110.639 14.494C110.632 20.9735 110.632 27.453 110.638 33.9325C110.639 34.2963 110.505 34.4458 110.145 34.4192C109.94 34.4041 109.732 34.4167 109.482 34.4168Z" fill="white"/>
<path d="M105.907 6.33911C106.186 4.7554 107.647 3.70594 109.186 4.0001C110.55 4.26072 111.591 5.53709 111.485 6.91951C111.336 8.87062 109.661 9.74109 108.473 9.60229C106.78 9.40443 105.673 7.98663 105.907 6.33911Z" fill="white"/>
<path d="M27.2094 24.0946C26.6216 23.1092 26.8798 21.9876 27.8004 21.4225C28.6659 20.8913 29.8059 21.1349 30.3751 21.9728C30.9624 22.8373 30.7331 24.0395 29.8703 24.6201C28.9881 25.2136 27.8727 25.0031 27.2094 24.0946Z" fill="white"/>
<path d="M43.3919 36.3277C44.4676 35.9521 45.5288 36.4161 45.8924 37.3922C46.2628 38.3865 45.8167 39.4354 44.8495 39.8441C43.9013 40.2448 42.8095 39.8043 42.3756 38.8459C41.9429 37.8901 42.3526 36.8492 43.3919 36.3277Z" fill="white"/>
<path d="M42.3575 23.7106C41.988 22.6019 42.4495 21.5669 43.4542 21.1934C44.3971 20.843 45.4927 21.3124 45.8713 22.2292C46.2705 23.1959 45.8532 24.2823 44.9174 24.7125C43.9497 25.1574 42.9053 24.7599 42.3575 23.7106Z" fill="white"/>
</g>
<defs>
<clipPath id="clip0_1_1890">
<rect width="230" height="45" fill="white" transform="translate(0.5 0.625)"/>
</clipPath>
</defs>
</svg>
