<svg width="261" height="72" viewBox="0 0 261 72" fill="none" xmlns="http://www.w3.org/2000/svg">
<g clip-path="url(#clip0_1_1859)">
<path d="M35.9008 2.10103C36.8001 2.10008 37.6994 2.09913 38.633 2.11553C38.742 2.12226 38.8167 2.11164 38.8914 2.10103C38.9438 2.11789 38.9961 2.13474 39.0822 2.15628C39.116 2.16097 39.1407 2.1511 39.1407 2.1511C42.9302 2.39647 46.5968 3.19879 50.105 4.6877C53.7273 6.225 57.0009 8.32302 59.9006 11.0189C62.1089 13.0719 64.0193 15.3764 65.6247 17.9403C67.3909 20.761 68.7124 23.7838 69.6008 27.0033C70.0585 28.6624 70.3886 30.3471 70.5863 32.0558C70.6845 32.9055 70.7131 33.7643 70.7524 34.62C70.7896 35.4303 70.8361 36.2428 70.8151 37.0527C70.7327 40.2408 70.239 43.3635 69.2916 46.4078C68.2796 49.6599 66.825 52.696 64.9121 55.4983C62.6063 58.8763 59.7962 61.7494 56.4731 64.1061C54.8772 65.238 53.2032 66.2296 51.4396 67.059C48.2452 68.5616 44.899 69.5318 41.4015 69.9782C39.6507 70.2017 37.8954 70.2666 36.1382 70.2136C33.1256 70.1227 30.1772 69.6109 27.2955 68.7049C25.1768 68.0388 23.1454 67.1612 21.2017 66.0848C18.6241 64.6574 16.2695 62.9111 14.1412 60.8537C11.8047 58.5951 9.8306 56.0486 8.21012 53.2161C6.60794 50.4156 5.39903 47.4492 4.68458 44.2965C4.32141 42.6939 4.11928 41.0525 3.87382 39.424C3.64073 37.8776 3.63399 36.3131 3.70786 34.7584C3.79907 32.8387 4.04528 30.9313 4.44288 29.0477C5.06987 26.0775 6.06138 23.2365 7.4381 20.5422C8.84226 17.7942 10.582 15.2796 12.6639 13.0107C14.4652 11.0476 16.4559 9.31325 18.655 7.82649C22.4696 5.24764 26.6236 3.51034 31.1389 2.69444C32.1807 2.5062 33.2393 2.41382 34.2907 2.2809C34.7098 2.22791 35.1301 2.18457 35.5946 2.14185C35.7265 2.13158 35.8136 2.1163 35.9008 2.10103ZM60.2954 37.4378C60.2127 37.4502 60.1152 37.4384 60.0503 37.4796C59.8789 37.5882 59.7239 37.723 59.5583 37.8417C58.2697 38.7655 56.8577 39.4551 55.4147 40.0852C52.8969 41.1846 50.2924 41.9875 47.5727 42.3565C45.6348 42.6194 43.687 42.6953 41.7387 42.4383C40.4397 42.2669 39.207 41.8909 38.0753 41.2048C37.9617 41.1359 37.837 41.0859 37.7174 41.0271C37.7247 41.1506 37.7707 41.21 37.8218 41.2647C38.6249 42.1246 39.609 42.6881 40.7043 43.0633C42.8836 43.8098 45.099 43.7862 47.3295 43.3617C49.2267 43.0006 51.0752 42.4632 52.8766 41.7582C54.6921 41.0477 56.446 40.2077 58.0739 39.1218C58.8436 38.6084 59.5695 38.0273 60.3223 37.5282C60.2637 37.6253 60.2192 37.7357 60.1444 37.8176C59.0617 39.0024 57.9961 40.2046 56.8832 41.3597C55.6493 42.6404 54.3556 43.8617 53.1161 45.137C51.0469 47.2659 49.1528 49.5465 47.4639 51.9999C46.1715 53.8774 45.0423 55.8492 44.1685 57.9631C43.3403 59.9667 42.7799 62.0475 42.659 64.2227C42.6053 65.188 42.6911 66.1613 42.7139 67.1423C52.9736 65.5694 65.0603 56.8701 67.79 41.8887C70.5632 26.6686 62.1211 11.6988 47.6283 6.47699C33.4044 1.35214 17.2325 7.2322 9.77299 21.5706C6.15951 28.5163 5.34747 35.8942 7.09151 43.5407C7.95769 47.3383 9.51906 50.8368 11.7432 54.0799C12.633 52.0603 13.3003 50.0401 13.7988 47.9622C14.7018 44.1987 15.0061 40.3526 15.3429 36.5096C15.497 34.7502 15.653 32.9868 15.9207 31.243C16.2217 29.283 16.9348 27.4603 18.0694 25.8261C19.4464 23.8428 21.2972 22.4245 23.4027 21.3503C24.5306 20.7749 25.7116 20.295 26.8975 19.8514C28.4055 19.2874 29.9473 18.8332 31.5735 18.7575C33.3702 18.6739 35.14 18.8505 36.8926 19.2482C37.0964 19.2944 37.3297 19.3409 37.5212 19.2862C38.9746 18.8712 40.4407 18.6905 41.9396 18.9652C43.8454 19.3146 45.2844 20.2808 46.0324 22.1635C46.0771 22.276 46.1892 22.3985 46.2984 22.4413C47.8064 23.0322 49.3089 23.6401 50.8337 24.183C52.636 24.8247 54.4779 25.3549 56.267 26.0307C57.9764 26.6765 59.5374 27.6088 60.7647 29.0229C61.7311 30.1364 62.2235 31.4242 62.1561 32.9296C62.0941 34.316 61.5933 35.5413 60.8979 36.7015C60.7331 36.9765 60.5136 37.2177 60.2954 37.4378ZM38.8082 28.9609C38.8316 28.8277 38.8738 28.6946 38.8755 28.5611C38.8944 27.023 38.432 25.6503 37.4555 24.4727C35.4389 22.0404 31.8901 21.6698 29.4356 23.4143C27.9202 24.4914 27.0839 26.0051 26.8689 27.831C26.7084 29.1933 27.0571 30.4929 27.7898 31.6618C29.1446 33.8233 31.5374 34.8481 33.9499 34.4116C35.4335 34.1431 36.6727 33.3879 37.5996 32.1675C38.3 31.2452 38.7667 30.2155 38.8082 28.9609ZM55.6316 34.2438C55.6207 34.1993 55.6121 34.1541 55.5983 34.1104C55.3981 33.4746 54.8058 33.098 54.1494 33.1886C53.5839 33.2666 53.1056 33.7616 53.0704 34.3053C53.02 35.0833 53.3626 35.601 54.0442 35.7769C54.937 36.0073 55.6646 35.3372 55.6316 34.2438Z" fill="white"/>
<path d="M183.185 36.0904C183.185 38.9537 183.186 41.7826 183.185 44.6114C183.185 45.0684 183.184 45.0693 182.743 45.0698C182.108 45.0706 181.474 45.0589 180.84 45.0754C180.597 45.0817 180.511 44.9928 180.463 44.7576C180.303 43.9729 180.117 43.1935 179.925 42.3427C179.774 42.4861 179.655 42.5814 179.556 42.6941C177.607 44.9099 175.154 45.8101 172.261 45.6328C170.214 45.5074 168.315 44.9599 166.617 43.7762C164.585 42.3599 163.219 40.423 162.445 38.0683C162.126 37.0989 161.822 36.0946 161.726 35.0851C161.35 31.1272 162.053 27.4388 164.682 24.3223C166.348 22.3479 168.493 21.2327 171.007 20.85C172.979 20.5496 174.931 20.7004 176.828 21.3343C179.298 22.1595 181.147 23.7269 182.222 26.1623C182.588 26.9907 182.807 27.8658 182.904 28.8026C182.806 28.8198 182.722 28.847 182.639 28.8472C181.484 28.8502 180.329 28.8444 179.174 28.854C178.957 28.8558 178.872 28.7647 178.838 28.5655C178.526 26.7253 177.464 25.4588 175.814 24.7471C173.869 23.9078 171.87 23.8594 169.922 24.7589C168.44 25.4433 167.405 26.6282 166.782 28.1339C165.33 31.6452 165.322 35.172 166.985 38.6067C168.321 41.366 170.802 42.4284 173.679 42.2037C174.708 42.1233 175.698 41.896 176.591 41.3566C178.206 40.3817 179.029 38.8808 179.302 37.0354C179.356 36.6751 179.368 36.3084 179.397 35.9445C179.402 35.8899 179.398 35.8345 179.398 35.7346C179.247 35.7346 179.114 35.7346 178.982 35.7346C177.181 35.7346 175.38 35.7282 173.579 35.7407C173.273 35.7428 173.164 35.6602 173.173 35.3363C173.194 34.5204 173.187 33.7035 173.175 32.8872C173.172 32.6333 173.255 32.5462 173.506 32.5467C176.621 32.5527 179.736 32.5537 182.851 32.5454C183.135 32.5447 183.191 32.6639 183.189 32.9168C183.18 33.9631 183.185 35.0095 183.185 36.0904Z" fill="white"/>
<path d="M95.7174 34.3356C95.8363 35.4277 96.0177 36.474 96.3863 37.4781C97.038 39.2535 98.0572 40.7526 99.7883 41.5631C101.877 42.5411 103.992 42.5745 105.991 41.2786C107.142 40.5328 107.885 39.4283 108.296 38.1149C108.475 37.5438 108.565 36.9432 108.684 36.3538C108.732 36.1154 108.837 36.0126 109.095 36.0158C110.182 36.0293 111.27 36.0349 112.357 36.0134C112.693 36.0068 112.8 36.1146 112.762 36.4421C112.583 38.0027 112.204 39.5004 111.41 40.8654C110.029 43.2411 107.997 44.7154 105.364 45.3609C104.35 45.6094 103.32 45.7375 102.283 45.6732C99.9449 45.5283 97.7841 44.8598 95.9345 43.3282C94.2877 41.9645 93.1044 40.2683 92.424 38.2299C92.1296 37.3479 91.8635 36.4425 91.7182 35.5259C91.5235 34.2972 91.4961 33.051 91.6124 31.7995C91.7207 30.6335 91.9198 29.4899 92.3065 28.3937C93.6515 24.5813 96.1492 21.9643 100.101 21.0299C103.058 20.3308 105.936 20.678 108.613 22.21C110.999 23.5751 112.535 26.0521 112.738 28.8136C112.612 28.8258 112.484 28.8486 112.357 28.8488C111.259 28.8514 110.16 28.8367 109.062 28.8577C108.745 28.8638 108.61 28.7679 108.522 28.4556C108.266 27.541 107.861 26.6971 107.236 25.9738C106.335 24.9302 105.188 24.3551 103.846 24.1979C101.534 23.927 99.4797 24.4594 97.8756 26.2878C96.9213 27.3755 96.3821 28.6715 96.0343 30.0679C95.6868 31.4632 95.6683 32.8799 95.7174 34.3356Z" fill="white"/>
<path d="M202.551 35.7461C202.552 36.1945 202.554 36.6084 202.553 37.0223C202.552 37.4384 202.526 37.4657 202.106 37.4658C198.618 37.4665 195.129 37.4662 191.641 37.4662C191.123 37.4662 190.606 37.4662 190.092 37.4662C190.009 39.2053 190.767 41.3819 192.678 42.124C194.394 42.7907 196.101 42.7561 197.563 41.475C198.013 41.0806 198.26 40.4499 198.614 39.9373C198.692 39.8237 198.828 39.6753 198.94 39.6733C199.993 39.6541 201.046 39.6629 202.099 39.6657C202.141 39.6658 202.184 39.6863 202.298 39.7157C202.173 40.1157 202.079 40.5136 201.927 40.8876C200.963 43.2671 199.198 44.7178 196.762 45.2955C194.617 45.8041 192.503 45.6518 190.509 44.6256C188.448 43.5646 187.238 41.7926 186.658 39.5769C186.019 37.1317 186.092 34.6997 187.089 32.3496C188.544 28.9181 191.641 27.136 195.102 27.3777C199.061 27.6542 201.85 30.7415 202.468 34.5453C202.531 34.9284 202.525 35.3227 202.551 35.7461Z" fill="white"/>
<path d="M238.711 27.9511C236.588 30.0176 234.466 32.0841 232.317 34.1763C234.676 37.7876 237.029 41.388 239.417 45.043C239.237 45.0552 239.129 45.0687 239.022 45.0688C237.742 45.0703 236.462 45.0637 235.183 45.075C234.938 45.0771 234.796 44.9948 234.666 44.7834C233.082 42.2123 231.489 39.6471 229.897 37.0808C229.833 36.9772 229.762 36.8779 229.665 36.7327C229.206 37.1842 228.81 37.6483 228.342 38.0169C227.617 38.5872 227.363 39.2686 227.417 40.2074C227.501 41.6846 227.429 43.1704 227.445 44.6524C227.449 44.9895 227.345 45.0831 227.021 45.0767C226.047 45.0574 225.073 45.0553 224.099 45.0776C223.758 45.0854 223.687 44.9602 223.69 44.6408C223.704 43.089 223.696 41.5369 223.696 39.9849C223.696 33.9265 223.696 27.868 223.696 21.8095C223.696 21.6511 223.696 21.4926 223.696 21.3033C223.931 21.3033 224.13 21.3033 224.328 21.3033C225.212 21.3034 226.095 21.3029 226.978 21.3037C227.438 21.3042 227.439 21.3053 227.439 21.7854C227.44 26.0479 227.441 30.3104 227.443 34.6215C227.449 34.6936 227.463 34.7099 227.485 34.7189C228.571 33.6142 229.661 32.5127 230.743 31.4038C231.842 30.2784 232.928 29.1408 234.035 28.0238C234.144 27.9139 234.357 27.8672 234.523 27.8654C235.903 27.8495 237.284 27.8511 238.691 27.8708C238.715 27.9131 238.713 27.9321 238.711 27.9511Z" fill="white"/>
<path d="M250.345 27.4534C252.868 27.7897 254.885 28.9149 256.218 31.1342C256.847 32.1804 257.3 33.3066 257.397 34.5434C257.469 35.4661 257.546 36.3941 257.523 37.3171C257.496 38.355 257.274 39.3732 256.9 40.3459C256.334 41.8169 255.489 43.0808 254.202 44.0053C253.097 44.7986 251.862 45.259 250.529 45.4394C248.822 45.6706 247.137 45.5627 245.515 44.9347C243.373 44.1058 241.944 42.5475 241.1 40.407C240.539 38.9821 240.327 37.4918 240.416 35.974C240.571 33.3017 241.355 30.895 243.505 29.1462C244.898 28.0136 246.521 27.4904 248.282 27.4019C248.957 27.368 249.637 27.4308 250.345 27.4534ZM244.41 38.4171C244.676 39.6736 245.244 40.7697 246.218 41.5939C247.252 42.4687 248.488 42.6738 249.788 42.4601C251.608 42.1607 252.692 40.9737 253.329 39.3018C253.818 38.0207 253.886 36.6848 253.734 35.3341C253.582 33.9794 253.124 32.7413 252.195 31.7387C251.311 30.785 250.199 30.4046 248.898 30.4174C247.256 30.4337 246.034 31.1563 245.213 32.5369C244.137 34.3453 243.917 36.3128 244.41 38.4171Z" fill="white"/>
<path d="M126.002 27.6043C128.388 28.1666 130.187 29.4772 131.304 31.6827C132.227 33.5058 132.459 35.462 132.304 37.4786C132.166 39.2652 131.672 40.9353 130.597 42.3829C129.175 44.2997 127.221 45.2409 124.908 45.4812C123.322 45.646 121.762 45.516 120.268 44.9172C117.882 43.9606 116.37 42.1759 115.659 39.7044C114.975 37.3231 115.002 34.9336 115.861 32.5961C116.91 29.7462 118.975 28.0989 121.892 27.541C123.25 27.2812 124.617 27.311 126.002 27.6043ZM120.157 32.2511C119.143 33.7886 118.826 35.4882 119.005 37.3073C119.116 38.433 119.429 39.4877 120.016 40.4554C121.657 43.1584 125.724 43.2766 127.414 40.6097C128.95 38.1875 129.009 35.5887 127.827 33.0135C126.777 30.7259 124.764 30.0181 122.405 30.5967C121.473 30.8254 120.752 31.4273 120.157 32.2511Z" fill="white"/>
<path d="M158.252 34.3653C158.252 37.9385 158.252 41.4772 158.252 45.0495C158.117 45.0568 157.997 45.0689 157.877 45.0691C156.903 45.0706 155.929 45.0703 154.955 45.0698C154.505 45.0696 154.504 45.0688 154.504 44.6204C154.503 41.1254 154.508 37.6304 154.5 34.1354C154.499 33.3863 154.382 32.6544 154.06 31.9666C153.602 30.9889 152.809 30.5088 151.78 30.432C150.82 30.3604 149.875 30.4398 149.039 31.008C147.771 31.8703 147.162 33.13 147.139 34.6278C147.087 37.9723 147.108 41.3181 147.111 44.6633C147.111 44.9746 147.026 45.0826 146.709 45.0767C145.713 45.0582 144.716 45.0611 143.719 45.0755C143.438 45.0795 143.351 44.9887 143.352 44.7028C143.359 39.196 143.359 33.6891 143.352 28.1822C143.351 27.9075 143.438 27.8262 143.702 27.8296C144.664 27.8422 145.627 27.8421 146.589 27.83C146.86 27.8266 146.942 27.9281 146.937 28.1931C146.923 28.8919 146.932 29.5912 147.007 30.3271C147.076 30.2361 147.147 30.1468 147.213 30.0539C148.544 28.1891 150.342 27.3006 152.61 27.3799C153.465 27.4098 154.298 27.5444 155.095 27.8715C156.93 28.6238 157.907 30.0494 158.161 31.9943C158.261 32.7637 158.226 33.5514 158.252 34.3653Z" fill="white"/>
<path d="M214.01 30.51C212.997 30.3724 212.024 30.3445 211.083 30.7527C209.824 31.2993 209.086 32.3139 208.712 33.5959C208.11 35.6611 208.045 37.7364 208.862 39.7693C209.423 41.1657 210.374 42.1382 211.884 42.4483C213.96 42.8748 215.806 41.8164 216.508 39.7831C216.613 39.4809 216.66 39.1584 216.762 38.8551C216.797 38.7507 216.918 38.6002 217 38.5992C218.144 38.585 219.287 38.5929 220.431 38.5976C220.461 38.5977 220.492 38.6224 220.599 38.6692C220.416 39.3429 220.277 40.0421 220.036 40.7027C218.99 43.5689 216.934 45.1397 213.955 45.477C212.313 45.6629 210.705 45.5249 209.175 44.8444C207.246 43.9859 205.951 42.5158 205.192 40.5337C204.628 39.0623 204.442 37.528 204.532 35.9714C204.657 33.7984 205.198 31.7538 206.63 30.0484C207.903 28.5322 209.548 27.7225 211.472 27.4715C212.99 27.2732 214.494 27.3675 215.962 27.8319C217.43 28.2963 218.637 29.141 219.514 30.4374C220.15 31.3762 220.431 32.4373 220.555 33.5873C219.291 33.5873 218.052 33.5873 216.804 33.5873C216.509 31.9751 215.631 30.9109 214.01 30.51Z" fill="white"/>
<path d="M139.317 33.3997C139.318 37.1431 139.317 40.8521 139.317 44.5611C139.317 45.0693 139.317 45.0697 138.817 45.0699C137.855 45.0703 136.892 45.0609 135.93 45.0756C135.646 45.0799 135.534 45.0135 135.534 44.6962C135.543 39.214 135.543 33.7317 135.535 28.2495C135.535 27.9521 135.615 27.8473 135.918 27.8525C136.903 27.8693 137.888 27.8722 138.873 27.8514C139.215 27.8442 139.326 27.9552 139.323 28.3012C139.309 29.9891 139.316 31.6772 139.317 33.3997Z" fill="white"/>
<path d="M135.545 24.8387C135.543 23.7588 135.546 22.6788 135.537 21.5989C135.536 21.3738 135.584 21.27 135.838 21.2751C136.879 21.296 137.92 21.306 138.961 21.2972C139.253 21.2947 139.324 21.4011 139.321 21.6775C139.307 22.6416 139.307 23.606 139.321 24.5701C139.325 24.829 139.243 24.9083 138.992 24.9058C137.883 24.8947 136.774 24.8999 135.625 24.8877C135.572 24.8626 135.559 24.8502 135.545 24.8387Z" fill="white"/>
<path d="M38.8081 28.993C38.7667 30.2156 38.3 31.2454 37.5996 32.1676C36.6727 33.3881 35.4335 34.1432 33.9499 34.4117C31.5374 34.8483 29.1447 33.8234 27.7898 31.6619C27.0571 30.493 26.7084 29.1934 26.8689 27.8311C27.0839 26.0053 27.9202 24.4915 29.4356 23.4145C31.8901 21.6699 35.4389 22.0406 37.4555 24.4728C38.432 25.6505 38.8945 27.0232 38.8755 28.5612C38.8738 28.6947 38.8316 28.8278 38.8081 28.993ZM36.9827 27.6273C36.9732 27.525 36.9806 27.4175 36.952 27.3211C36.1959 24.7728 33.7557 23.6816 31.528 24.3945C29.3479 25.0923 27.9934 27.6854 28.9371 30.0501C29.8538 32.3469 32.5887 33.5236 34.9013 32.2375C36.2554 31.4845 37.4078 29.7677 36.9827 27.6273Z" fill="#FFFFFC"/>
<path d="M55.6415 34.2704C55.6647 35.3373 54.937 36.0074 54.0442 35.777C53.3626 35.6011 53.02 35.0833 53.0704 34.3053C53.1056 33.7617 53.5839 33.2667 54.1494 33.1887C54.8058 33.0981 55.3981 33.4747 55.5983 34.1105C55.6121 34.1541 55.6207 34.1994 55.6415 34.2704Z" fill="#FFFFFD"/>
<path d="M65.7849 36.0371C65.5131 34.8172 65.2691 33.6205 64.9732 32.4371C64.4546 30.3635 63.8137 28.3275 63.0001 26.3521C62.4918 25.118 62.0239 23.859 61.411 22.6791C60.6241 21.1642 59.7282 19.7061 58.8455 18.2444C57.9907 16.8291 56.9814 15.5328 55.8122 14.3651C54.4292 12.9839 52.8476 11.9036 51.0571 11.1597C49.0463 10.3243 47.0422 9.45713 44.9842 8.75849C43.23 8.16297 41.4049 7.78135 39.6082 7.31691C39.0868 7.18212 38.5543 7.09193 38.0291 6.97099C37.9498 6.95272 37.883 6.87801 37.8105 6.8294C37.8162 6.79927 37.822 6.76914 37.8278 6.739C38.1419 6.68051 38.4539 6.60219 38.7706 6.56675C40.7415 6.3461 42.692 6.46455 44.6352 6.87858C46.2333 7.2191 47.7624 7.73625 49.2135 8.49287C50.4416 9.13323 51.5477 9.96066 52.6255 10.826C53.6048 11.6122 54.5771 12.4086 55.5286 13.2289C57.2087 14.6772 58.8956 16.122 60.3701 17.7932C61.5155 19.0913 62.4739 20.5287 63.3312 22.0387C64.2067 23.5808 64.9434 25.1825 65.4753 26.8808C66.0085 28.5834 66.3543 30.3227 66.5485 32.0981C66.7382 33.8322 66.7083 35.5622 66.5386 37.2935C66.5131 37.5541 66.483 37.8153 66.4325 38.0716C66.4165 38.1525 66.3268 38.2185 66.2709 38.2913C66.2272 38.2234 66.1575 38.1604 66.1439 38.0868C66.0201 37.4144 65.9061 36.7401 65.7849 36.0371Z" fill="#FFFFFE"/>
</g>
<defs>
<clipPath id="clip0_1_1859">
<rect width="261" height="71" fill="white" transform="translate(0 0.625)"/>
</clipPath>
</defs>
</svg>
