<svg width="205" height="48" viewBox="0 0 205 48" fill="none" xmlns="http://www.w3.org/2000/svg">
<g clip-path="url(#clip0_1_1755)">
<path fill-rule="evenodd" clip-rule="evenodd" d="M60.3847 28.443C61.0219 28.443 61.496 28.2668 61.8088 27.9143C62.1177 27.5618 62.2712 27.0448 62.2712 26.3613H66.6232L66.6523 26.4475C66.6912 28.1277 66.1142 29.5005 64.929 30.56C63.7381 31.6175 62.2246 32.1482 60.3827 32.1482C58.0746 32.1482 56.2911 31.4217 55.0399 29.9666C53.7848 28.5135 53.1573 26.6277 53.1573 24.307V23.98C53.1573 21.6711 53.7829 19.7892 55.0321 18.3302C56.2794 16.8712 58.0513 16.1408 60.3419 16.1408C62.277 16.1408 63.8197 16.6891 64.9776 17.7799C66.1317 18.8727 66.6912 20.361 66.6523 22.241L66.6251 22.3272H62.2712C62.2712 21.5947 62.1119 20.9994 61.7933 20.5392C61.4727 20.077 60.9909 19.8479 60.3419 19.8479C59.4405 19.8479 58.809 20.2239 58.4477 20.974C58.0863 21.724 57.9037 22.7267 57.9037 23.98V24.309C57.9037 25.6015 58.0863 26.612 58.4477 27.3444C58.809 28.0768 59.456 28.443 60.3847 28.443ZM77.2176 20.6743L75.4846 20.6606C74.9406 20.6606 74.4937 20.7527 74.1459 20.9387C73.8101 21.1119 73.5384 21.3892 73.3707 21.7299V31.8486H68.6107V16.4287H73.091L73.26 18.6945C73.5786 17.8876 74.0002 17.261 74.5267 16.8145C75.0407 16.3724 75.6969 16.1343 76.3725 16.1447C76.8142 16.1476 77.254 16.2048 77.6819 16.3151L77.2176 20.6763V20.6743ZM86.2577 25.0492L86.2733 25.1648H86.3587L88.8786 16.4267H93.9514L87.88 34.1437C87.4098 35.2835 86.8037 36.2235 86.0634 36.9637C85.3193 37.7079 84.14 38.078 82.5274 38.078C82.1117 38.078 81.7755 38.0506 81.5113 37.9997C81.0966 37.9121 80.6839 37.8148 80.2737 37.7079L80.8507 34.2867L81.1461 34.3494C81.2292 34.3659 81.3139 34.3738 81.3986 34.3729C82.1505 34.3729 82.7003 34.2593 83.0481 34.0341C83.3939 33.8108 83.6543 33.474 83.8214 33.0236L84.2022 32.0209L78.9351 16.4267H83.9923L86.2577 25.0492ZM104.557 24.166C104.557 22.8637 104.369 21.82 103.994 21.0327C103.619 20.2415 103.017 19.8479 102.191 19.8479C101.655 19.8479 101.202 19.9458 100.831 20.1475C100.462 20.3473 100.167 20.6371 99.951 21.017V27.46C100.178 27.7929 100.476 28.0377 100.845 28.2002C101.216 28.3627 101.676 28.443 102.218 28.443C103.054 28.443 103.654 28.0925 104.015 27.3953C104.377 26.6962 104.557 25.719 104.557 24.4657V24.166ZM109.304 24.4657C109.304 26.7843 108.787 28.6447 107.755 30.0469C106.722 31.4471 105.267 32.1482 103.388 32.1482C102.714 32.1616 102.045 32.0154 101.437 31.7213C100.856 31.4256 100.348 31.002 99.951 30.4817V37.7784H95.191V16.4267H99.6421L99.8111 18.1226C100.242 17.4862 100.749 16.9966 101.332 16.6539C101.915 16.3131 102.591 16.1408 103.361 16.1408C105.249 16.1408 106.71 16.8771 107.75 18.3517C108.785 19.8244 109.304 21.7632 109.304 24.168V24.4657ZM117.038 12.5923V16.4287H119.617V19.7637H117.038V26.8333C117.038 27.3855 117.149 27.7811 117.369 28.024C117.483 28.1461 117.622 28.2419 117.776 28.3048C117.93 28.3677 118.096 28.3962 118.262 28.3882C118.564 28.3882 118.801 28.3784 118.975 28.3588C119.148 28.3392 119.372 28.3001 119.644 28.2452L119.982 31.8094C119.513 31.9224 119.038 32.01 118.56 32.0718C118.136 32.1247 117.639 32.1502 117.066 32.1502C115.498 32.1502 114.311 31.7291 113.502 30.8812C112.694 30.0371 112.29 28.6976 112.29 26.8627V19.7617H110.149V16.4287H112.29V12.5903L117.038 12.5923ZM125.562 24.2953C125.562 25.5878 125.76 26.6022 126.16 27.3385C126.558 28.0729 127.236 28.443 128.194 28.443C129.125 28.443 129.791 28.071 130.195 27.3307C130.598 26.5905 130.802 25.578 130.802 24.2953V23.9957C130.802 22.7423 130.598 21.7357 130.195 20.9798C129.791 20.2259 129.115 19.8479 128.167 19.8479C127.229 19.8479 126.558 20.2278 126.16 20.9877C125.76 21.7495 125.56 22.7502 125.56 23.9957L125.562 24.2953ZM120.8 23.9957C120.8 21.677 121.447 19.7892 122.743 18.3302C124.039 16.8712 125.847 16.1408 128.167 16.1408C130.497 16.1408 132.309 16.8712 133.605 18.3302C134.899 19.7892 135.548 21.677 135.548 23.9957V24.2953C135.548 26.6218 134.899 28.5135 133.605 29.9686C132.309 31.4217 130.504 32.1482 128.194 32.1482C125.857 32.1482 124.039 31.4217 122.743 29.9686C121.447 28.5135 120.8 26.6218 120.8 24.2953V23.9957ZM142.027 16.4267L142.212 18.5926C142.707 17.823 143.323 17.2218 144.058 16.791C144.8 16.3547 145.646 16.13 146.506 16.1408C148 16.1408 149.167 16.6304 150.007 17.6095C150.848 18.5887 151.27 20.1475 151.27 22.286V31.8486H146.506V22.2723C146.506 21.3872 146.327 20.7625 145.966 20.3962C145.602 20.03 145.07 19.8479 144.367 19.8479C143.978 19.8353 143.591 19.9107 143.235 20.0687C142.879 20.2266 142.563 20.463 142.309 20.7605V31.8486H137.563V16.4267H142.027ZM160.481 19.8479C159.795 19.8479 159.282 20.0947 158.938 20.5882C158.594 21.0836 158.386 21.7436 158.311 22.57L158.353 22.6405H162.453V22.2704C162.453 21.491 162.293 20.8937 161.975 20.4746C161.654 20.0575 161.159 19.8479 160.481 19.8479ZM160.819 32.1462C158.575 32.1462 156.783 31.4354 155.445 30.0117C154.106 28.586 153.438 26.8 153.438 24.6517V24.1092C153.438 21.7612 154.044 19.846 155.262 18.3576C156.478 16.8712 158.217 16.133 160.481 16.1427C162.546 16.1427 164.166 16.7694 165.34 18.0227C166.515 19.278 167.102 20.9798 167.102 23.1262V25.6485H158.398L158.369 25.7347C158.472 26.5239 158.79 27.1721 159.325 27.6812C159.861 28.1885 160.574 28.4411 161.466 28.4411C162.367 28.4411 163.088 28.3706 163.628 28.2276C164.168 28.0866 164.852 27.8399 165.678 27.4874L166.805 30.4229C166.14 30.9184 165.278 31.3296 164.221 31.6567C163.118 31.9903 161.97 32.1554 160.819 32.1462ZM182.202 25.3645H182.287L183.935 16.4267H188.33L184.753 31.8505H180.723L178.242 23.6686H178.159L175.666 31.8505H171.652L168.058 16.4267H172.454L174.129 25.435H174.215L176.694 16.4267H179.696L182.202 25.3645ZM197.98 27.5167C197.98 27.1368 197.766 26.7961 197.339 26.4984C196.911 26.1968 196.134 25.9305 195.007 25.6916C193.231 25.3391 191.895 24.7927 190.991 24.0525C190.09 23.3102 189.641 22.2997 189.641 21.017C189.641 19.658 190.204 18.5065 191.331 17.5606C192.458 16.6147 193.983 16.1427 195.909 16.1427C197.937 16.1427 199.552 16.601 200.754 17.5175C201.957 18.434 202.528 19.6207 202.474 21.0738L202.444 21.16H197.824C197.824 20.5529 197.671 20.0907 197.366 19.7755C197.061 19.4621 196.569 19.3055 195.895 19.3055C195.441 19.2905 194.997 19.4375 194.64 19.7206C194.479 19.8436 194.349 20.0031 194.261 20.1862C194.173 20.3693 194.129 20.5708 194.133 20.7742C194.133 21.1835 194.327 21.5301 194.718 21.8141C195.106 22.1 195.895 22.3565 197.078 22.5837C198.938 22.9558 200.315 23.508 201.213 24.2444C202.108 24.9807 202.557 26.0245 202.557 27.3738C202.557 28.7622 201.949 29.904 200.733 30.8009C199.517 31.7017 197.908 32.1482 195.909 32.1482C193.834 32.1482 192.192 31.6175 190.985 30.5522C189.779 29.4868 189.204 28.3001 189.258 26.988L189.287 26.9038H193.601C193.618 27.6362 193.836 28.163 194.253 28.4861C194.671 28.8092 195.264 28.9698 196.035 28.9698C196.672 28.9698 197.156 28.8445 197.486 28.5919C197.815 28.3412 197.98 27.9809 197.98 27.5148" fill="white"/>
<mask id="mask0_1_1755" style="mask-type:alpha" maskUnits="userSpaceOnUse" x="23" y="24" width="24" height="12">
<path d="M23.7249 35.875H46.9498L35.3374 24.125L23.7249 35.875Z" fill="white"/>
</mask>
<g mask="url(#mask0_1_1755)">
<path fill-rule="evenodd" clip-rule="evenodd" d="M23.7249 35.875H46.9498L35.3374 24.125L23.7249 35.875Z" fill="url(#paint0_linear_1_1755)"/>
</g>
<mask id="mask1_1_1755" style="mask-type:alpha" maskUnits="userSpaceOnUse" x="0" y="12" width="13" height="24">
<path d="M0.5 35.875L12.1125 24.125L0.5 12.375V35.875Z" fill="white"/>
</mask>
<g mask="url(#mask1_1_1755)">
<path fill-rule="evenodd" clip-rule="evenodd" d="M0.5 35.875L12.1125 24.125L0.5 12.375V35.875Z" fill="url(#paint1_linear_1_1755)"/>
</g>
<mask id="mask2_1_1755" style="mask-type:alpha" maskUnits="userSpaceOnUse" x="23" y="12" width="24" height="13">
<path d="M23.7249 12.375L35.3374 24.125L46.9498 12.375H23.7249Z" fill="white"/>
</mask>
<g mask="url(#mask2_1_1755)">
<path fill-rule="evenodd" clip-rule="evenodd" d="M23.7249 12.375L35.3374 24.125L46.9498 12.375H23.7249Z" fill="url(#paint2_linear_1_1755)"/>
</g>
<mask id="mask3_1_1755" style="mask-type:alpha" maskUnits="userSpaceOnUse" x="12" y="0" width="24" height="13">
<path d="M12.1125 0.625L23.7249 12.375L35.3374 0.625H12.1125Z" fill="white"/>
</mask>
<g mask="url(#mask3_1_1755)">
<path fill-rule="evenodd" clip-rule="evenodd" d="M12.1125 0.625L23.7249 12.375L35.3374 0.625H12.1125Z" fill="url(#paint3_linear_1_1755)"/>
</g>
<mask id="mask4_1_1755" style="mask-type:alpha" maskUnits="userSpaceOnUse" x="23" y="35" width="24" height="13">
<path d="M23.7249 35.875L35.3374 47.625L46.9498 35.875H23.7249Z" fill="white"/>
</mask>
<g mask="url(#mask4_1_1755)">
<path fill-rule="evenodd" clip-rule="evenodd" d="M23.7249 35.875L35.3374 47.625L46.9498 35.875H23.7249Z" fill="url(#paint4_linear_1_1755)"/>
</g>
<mask id="mask5_1_1755" style="mask-type:alpha" maskUnits="userSpaceOnUse" x="0" y="35" width="24" height="13">
<path d="M0.5 35.875L12.1125 47.625L23.7249 35.875H0.5Z" fill="white"/>
</mask>
<g mask="url(#mask5_1_1755)">
<path fill-rule="evenodd" clip-rule="evenodd" d="M0.5 35.875L12.1125 47.625L23.7249 35.875H0.5Z" fill="url(#paint5_linear_1_1755)"/>
</g>
<mask id="mask6_1_1755" style="mask-type:alpha" maskUnits="userSpaceOnUse" x="23" y="0" width="24" height="13">
<path d="M35.3374 0.625L23.7249 12.375H46.9498L35.3374 0.625Z" fill="white"/>
</mask>
<g mask="url(#mask6_1_1755)">
<path fill-rule="evenodd" clip-rule="evenodd" d="M35.3374 0.625L23.7249 12.375H46.9498L35.3374 0.625Z" fill="url(#paint6_linear_1_1755)"/>
</g>
<mask id="mask7_1_1755" style="mask-type:alpha" maskUnits="userSpaceOnUse" x="0" y="0" width="24" height="13">
<path d="M12.1125 0.625L0.5 12.375H23.7249L12.1125 0.625Z" fill="white"/>
</mask>
<g mask="url(#mask7_1_1755)">
<path fill-rule="evenodd" clip-rule="evenodd" d="M12.1125 0.625L0.5 12.375H23.7249L12.1125 0.625Z" fill="url(#paint7_linear_1_1755)"/>
</g>
<mask id="mask8_1_1755" style="mask-type:alpha" maskUnits="userSpaceOnUse" x="12" y="35" width="24" height="13">
<path d="M12.1125 47.625H35.3374L23.7249 35.875L12.1125 47.625Z" fill="white"/>
</mask>
<g mask="url(#mask8_1_1755)">
<path fill-rule="evenodd" clip-rule="evenodd" d="M12.1125 47.625H35.3374L23.7249 35.875L12.1125 47.625Z" fill="url(#paint8_linear_1_1755)"/>
</g>
<mask id="mask9_1_1755" style="mask-type:alpha" maskUnits="userSpaceOnUse" x="0" y="24" width="24" height="12">
<path d="M0.5 35.875H23.7249L12.1125 24.125L0.5 35.875Z" fill="white"/>
</mask>
<g mask="url(#mask9_1_1755)">
<path fill-rule="evenodd" clip-rule="evenodd" d="M0.5 35.875H23.7249L12.1125 24.125L0.5 35.875Z" fill="url(#paint9_linear_1_1755)"/>
</g>
<mask id="mask10_1_1755" style="mask-type:alpha" maskUnits="userSpaceOnUse" x="0" y="12" width="24" height="13">
<path d="M0.5 12.375L12.1125 24.125L23.7249 12.375H0.5Z" fill="white"/>
</mask>
<g mask="url(#mask10_1_1755)">
<path fill-rule="evenodd" clip-rule="evenodd" d="M0.5 12.375L12.1125 24.125L23.7249 12.375H0.5Z" fill="url(#paint10_linear_1_1755)"/>
</g>
</g>
<defs>
<linearGradient id="paint0_linear_1_1755" x1="23.7249" y1="30" x2="46.9498" y2="30" gradientUnits="userSpaceOnUse">
<stop stop-color="#120812"/>
<stop offset="1" stop-color="#0D051A"/>
</linearGradient>
<linearGradient id="paint1_linear_1_1755" x1="0.5" y1="24.125" x2="12.1125" y2="24.125" gradientUnits="userSpaceOnUse">
<stop stop-color="#EF4B95"/>
<stop offset="1" stop-color="#F64B7E"/>
</linearGradient>
<linearGradient id="paint2_linear_1_1755" x1="23.7249" y1="18.25" x2="46.9498" y2="18.25" gradientUnits="userSpaceOnUse">
<stop stop-color="#120812"/>
<stop offset="1" stop-color="#0D051A"/>
</linearGradient>
<linearGradient id="paint3_linear_1_1755" x1="12.1125" y1="6.5" x2="35.3374" y2="6.5" gradientUnits="userSpaceOnUse">
<stop stop-color="#87002D"/>
<stop offset="1" stop-color="#3B016E"/>
</linearGradient>
<linearGradient id="paint4_linear_1_1755" x1="23.7249" y1="41.75" x2="46.9498" y2="41.75" gradientUnits="userSpaceOnUse">
<stop stop-color="#2B002D"/>
<stop offset="1" stop-color="#14004F"/>
</linearGradient>
<linearGradient id="paint5_linear_1_1755" x1="0.5" y1="41.7499" x2="23.7249" y2="41.7499" gradientUnits="userSpaceOnUse">
<stop stop-color="#E60015"/>
<stop offset="1" stop-color="#8E0162"/>
</linearGradient>
<linearGradient id="paint6_linear_1_1755" x1="23.7249" y1="6.50012" x2="46.9498" y2="6.50012" gradientUnits="userSpaceOnUse">
<stop stop-color="#2B002D"/>
<stop offset="1" stop-color="#14004F"/>
</linearGradient>
<linearGradient id="paint7_linear_1_1755" x1="0.5" y1="6.5" x2="23.7249" y2="6.5" gradientUnits="userSpaceOnUse">
<stop stop-color="#E60015"/>
<stop offset="1" stop-color="#8E0162"/>
</linearGradient>
<linearGradient id="paint8_linear_1_1755" x1="12.1125" y1="41.75" x2="35.3374" y2="41.75" gradientUnits="userSpaceOnUse">
<stop stop-color="#87002D"/>
<stop offset="1" stop-color="#3B016E"/>
</linearGradient>
<linearGradient id="paint9_linear_1_1755" x1="0.5" y1="30" x2="23.7249" y2="30" gradientUnits="userSpaceOnUse">
<stop stop-color="#F61749"/>
<stop offset="1" stop-color="#B81789"/>
</linearGradient>
<linearGradient id="paint10_linear_1_1755" x1="0.5" y1="18.25" x2="23.7249" y2="18.25" gradientUnits="userSpaceOnUse">
<stop stop-color="#F61749"/>
<stop offset="1" stop-color="#B81789"/>
</linearGradient>
<clipPath id="clip0_1_1755">
<rect width="204" height="47" fill="white" transform="translate(0.5 0.625)"/>
</clipPath>
</defs>
</svg>
