<svg width="46" height="47" viewBox="0 0 46 47" fill="none" xmlns="http://www.w3.org/2000/svg">
<g clip-path="url(#clip0_6070_7517)">
<path d="M32.2 0.898438H13.8C6.17847 0.898438 0 7.07691 0 14.6984V33.0984C0 40.72 6.17847 46.8984 13.8 46.8984H32.2C39.8215 46.8984 46 40.72 46 33.0984V14.6984C46 7.07691 39.8215 0.898438 32.2 0.898438Z" fill="black"/>
<path d="M32.1995 1.28125H13.7995C6.38966 1.28125 0.382812 7.2881 0.382812 14.6979V33.0979C0.382812 40.5077 6.38966 46.5146 13.7995 46.5146H32.1995C39.6093 46.5146 45.6161 40.5077 45.6161 33.0979V14.6979C45.6161 7.2881 39.6093 1.28125 32.1995 1.28125Z" stroke="white" stroke-opacity="0.2" stroke-width="0.75"/>
<path d="M29.05 16.9818L29.0202 16.9168C29.0201 16.9166 29.02 16.9164 29.0199 16.9162C28.5899 15.9484 27.8683 15.1209 26.9451 14.5346C26.0218 13.9482 24.9366 13.6285 23.8232 13.6138C22.7098 13.5992 21.6156 13.8903 20.6753 14.4521C19.7349 15.0138 18.989 15.822 18.5303 16.7781C18.1737 17.5087 17.9987 18.4402 17.9988 19.3655C17.999 20.2909 18.1744 21.2221 18.5303 21.9521C18.9905 22.9065 19.7372 23.7129 20.6775 24.2729C21.6178 24.8329 22.7113 25.1226 23.8236 25.1071C24.936 25.0916 26.0199 24.7716 26.9422 24.1855C27.8632 23.6002 28.5834 22.7748 29.0135 21.8094L29.0467 21.747L29.1447 21.5632H28.9364H27.7342H27.6622L27.6261 21.6254L27.6114 21.6505L27.6107 21.6519C27.2541 22.2831 26.7271 22.8167 26.0812 23.1991C25.4353 23.5814 24.6934 23.7988 23.9293 23.8291C23.1651 23.8594 22.4062 23.7016 21.7279 23.3716C21.0497 23.0417 20.4763 22.5514 20.064 21.9504L20.0636 21.9498C19.5846 21.26 19.3406 20.3153 19.3406 19.3622C19.3406 18.4091 19.5846 17.4632 20.0637 16.771L20.064 16.7706C20.4764 16.1696 21.0499 15.6794 21.7282 15.3496C22.4065 15.0197 23.1655 14.862 23.9296 14.8924C24.6937 14.9228 25.4356 15.1403 26.0814 15.5228C26.7272 15.9052 27.2542 16.4389 27.6107 17.0702L27.6115 17.0716L27.6261 17.0968L27.6622 17.1589H27.7342H28.9364H29.1314L29.05 16.9818ZM15.5774 13.7638H15.4524V13.8888V23.236L8.17129 13.8124L8.13376 13.7638H8.07237H6.64453H6.51953V13.8888V24.8333V24.9583H6.64453H7.74193H7.86693V24.8333V15.5675L15.0809 24.9097L15.1185 24.9583H15.1799H16.6748H16.7998V24.8333V13.8888V13.7638H16.6748H15.5774ZM34.1906 20.4551L37.8125 24.9122L37.85 24.9583H37.9095H39.2813H39.5437L39.3783 24.7545L35.038 19.4068L39.4527 13.9664L39.6181 13.7626H39.3556H37.9827H37.9231L37.8856 13.8089L34.1905 18.3619L30.493 13.81L30.4555 13.7638H30.396H29.023H28.7606L28.9259 13.9676L33.3397 19.406L29.0341 24.7549L28.8704 24.9583H29.1315H30.4728H30.5323L30.5698 24.9121L34.1906 20.4551Z" fill="white" stroke="white" stroke-width="0.25"/>
<path d="M11.7815 34.8913L12.5255 35.2953C12.3441 35.5487 12.1135 35.7513 11.8335 35.9033C11.5561 36.0553 11.2548 36.1313 10.9295 36.1313C10.5615 36.1313 10.2255 36.0367 9.92145 35.8473C9.62012 35.658 9.37879 35.4047 9.19745 35.0873C9.01879 34.7673 8.92945 34.414 8.92945 34.0273C8.92945 33.734 8.98145 33.4607 9.08545 33.2073C9.18945 32.9513 9.33212 32.7273 9.51345 32.5353C9.69745 32.3407 9.91079 32.1887 10.1535 32.0793C10.3961 31.97 10.6548 31.9153 10.9295 31.9153C11.2548 31.9153 11.5561 31.9913 11.8335 32.1433C12.1135 32.2953 12.3441 32.4993 12.5255 32.7553L11.7815 33.1593C11.6695 33.026 11.5388 32.9247 11.3895 32.8553C11.2401 32.7833 11.0868 32.7473 10.9295 32.7473C10.7108 32.7473 10.5121 32.8073 10.3335 32.9273C10.1575 33.0447 10.0175 33.2007 9.91345 33.3953C9.81212 33.5873 9.76145 33.798 9.76145 34.0273C9.76145 34.254 9.81345 34.4647 9.91745 34.6593C10.0215 34.8513 10.1615 35.006 10.3375 35.1233C10.5161 35.2407 10.7135 35.2993 10.9295 35.2993C11.0948 35.2993 11.2521 35.262 11.4015 35.1873C11.5508 35.1127 11.6775 35.014 11.7815 34.8913ZM17.4836 30.4273V31.2593H15.6996V36.0273H14.8676V31.2593H13.0876V30.4273H17.4836ZM17.7085 36.0273V32.0273H18.5405V32.4513C18.6792 32.286 18.8498 32.1553 19.0525 32.0593C19.2552 31.9633 19.4738 31.9153 19.7085 31.9153C19.8578 31.9153 20.0058 31.9353 20.1525 31.9753L19.8205 32.8153C19.7165 32.7753 19.6125 32.7553 19.5085 32.7553C19.3325 32.7553 19.1712 32.7993 19.0245 32.8873C18.8778 32.9727 18.7605 33.0887 18.6725 33.2353C18.5845 33.382 18.5405 33.5447 18.5405 33.7233V36.0273H17.7085ZM23.5393 32.0273H24.3713V36.0273H23.5353L23.5033 35.4473C23.3859 35.6527 23.2273 35.818 23.0273 35.9433C22.8273 36.0687 22.5913 36.1313 22.3193 36.1313C22.0259 36.1313 21.7499 36.0767 21.4913 35.9673C21.2326 35.8553 21.0046 35.7007 20.8073 35.5033C20.6126 35.306 20.4606 35.0793 20.3513 34.8233C20.2419 34.5647 20.1873 34.2873 20.1873 33.9913C20.1873 33.706 20.2406 33.438 20.3473 33.1873C20.4539 32.934 20.6019 32.7127 20.7913 32.5233C20.9806 32.334 21.1993 32.186 21.4473 32.0793C21.6979 31.97 21.9659 31.9153 22.2513 31.9153C22.5419 31.9153 22.7979 31.982 23.0193 32.1153C23.2433 32.246 23.4286 32.414 23.5753 32.6193L23.5393 32.0273ZM22.2993 35.3273C22.5339 35.3273 22.7393 35.27 22.9153 35.1553C23.0913 35.038 23.2273 34.8807 23.3233 34.6833C23.4219 34.486 23.4713 34.2673 23.4713 34.0273C23.4713 33.7847 23.4219 33.5647 23.3233 33.3673C23.2246 33.17 23.0873 33.014 22.9113 32.8993C22.7379 32.782 22.5339 32.7233 22.2993 32.7233C22.0673 32.7233 21.8553 32.782 21.6633 32.8993C21.4713 33.0167 21.3193 33.174 21.2073 33.3713C21.0953 33.5687 21.0393 33.7873 21.0393 34.0273C21.0393 34.27 21.0966 34.49 21.2113 34.6873C21.3286 34.882 21.4819 35.038 21.6713 35.1553C21.8633 35.27 22.0726 35.3273 22.2993 35.3273ZM28.2073 30.0273H29.0393V36.0273H28.2073V35.4393C28.0767 35.6473 27.906 35.8153 27.6953 35.9433C27.4847 36.0687 27.238 36.1313 26.9553 36.1313C26.6647 36.1313 26.3927 36.0767 26.1393 35.9673C25.886 35.858 25.662 35.7073 25.4673 35.5153C25.2753 35.3207 25.1247 35.0967 25.0153 34.8433C24.906 34.59 24.8513 34.318 24.8513 34.0273C24.8513 33.7367 24.906 33.4647 25.0153 33.2113C25.1247 32.9553 25.2753 32.7313 25.4673 32.5393C25.662 32.3447 25.886 32.1927 26.1393 32.0833C26.3927 31.974 26.6647 31.9193 26.9553 31.9193C27.238 31.9193 27.4847 31.9833 27.6953 32.1113C27.906 32.2367 28.0767 32.402 28.2073 32.6073V30.0273ZM26.9633 35.3273C27.198 35.3273 27.4033 35.27 27.5793 35.1553C27.7553 35.038 27.8913 34.8807 27.9873 34.6833C28.086 34.486 28.1353 34.2673 28.1353 34.0273C28.1353 33.7847 28.086 33.5647 27.9873 33.3673C27.8887 33.17 27.7513 33.014 27.5753 32.8993C27.402 32.782 27.198 32.7233 26.9633 32.7233C26.7313 32.7233 26.5193 32.782 26.3273 32.8993C26.138 33.0167 25.986 33.174 25.8713 33.3713C25.7593 33.5687 25.7033 33.7873 25.7033 34.0273C25.7033 34.27 25.7607 34.49 25.8753 34.6873C25.9927 34.882 26.146 35.038 26.3353 35.1553C26.5273 35.27 26.7367 35.3273 26.9633 35.3273ZM31.7029 36.1313C31.3349 36.1313 30.9989 36.0367 30.6949 35.8473C30.3936 35.658 30.1522 35.4047 29.9709 35.0873C29.7922 34.7673 29.7029 34.414 29.7029 34.0273C29.7029 33.734 29.7549 33.4607 29.8589 33.2073C29.9629 32.9513 30.1056 32.7273 30.2869 32.5353C30.4709 32.3407 30.6842 32.1887 30.9269 32.0793C31.1696 31.97 31.4282 31.9153 31.7029 31.9153C32.0096 31.9153 32.2909 31.9793 32.5469 32.1073C32.8029 32.2327 33.0216 32.4073 33.2029 32.6313C33.3842 32.8527 33.5176 33.1087 33.6029 33.3993C33.6882 33.6873 33.7136 33.994 33.6789 34.3193H30.5949C30.6296 34.5033 30.6962 34.67 30.7949 34.8193C30.8962 34.966 31.0242 35.082 31.1789 35.1673C31.3362 35.2527 31.5109 35.2967 31.7029 35.2993C31.9056 35.2993 32.0896 35.2487 32.2549 35.1473C32.4229 35.046 32.5602 34.906 32.6669 34.7273L33.5109 34.9233C33.3509 35.278 33.1096 35.5687 32.7869 35.7953C32.4642 36.0193 32.1029 36.1313 31.7029 36.1313ZM30.5669 33.6833H32.8389C32.8122 33.4913 32.7442 33.318 32.6349 33.1633C32.5282 33.006 32.3936 32.882 32.2309 32.7913C32.0709 32.698 31.8949 32.6513 31.7029 32.6513C31.5136 32.6513 31.3376 32.6967 31.1749 32.7873C31.0149 32.878 30.8816 33.002 30.7749 33.1593C30.6709 33.314 30.6016 33.4887 30.5669 33.6833ZM34.3413 36.0273V32.0273H35.1733V32.4513C35.312 32.286 35.4827 32.1553 35.6853 32.0593C35.888 31.9633 36.1067 31.9153 36.3413 31.9153C36.4907 31.9153 36.6387 31.9353 36.7853 31.9753L36.4533 32.8153C36.3493 32.7753 36.2453 32.7553 36.1413 32.7553C35.9653 32.7553 35.804 32.7993 35.6573 32.8873C35.5107 32.9727 35.3933 33.0887 35.3053 33.2353C35.2173 33.382 35.1733 33.5447 35.1733 33.7233V36.0273H34.3413Z" fill="#5ED3F0"/>
</g>
<defs>
<clipPath id="clip0_6070_7517">
<rect width="46" height="46" fill="white" transform="translate(0 0.898438)"/>
</clipPath>
</defs>
</svg>
