<?xml version="1.0" encoding="UTF-8"?>
<svg width="150px" height="150px" viewBox="0 0 150 150" version="1.1" xmlns="http://www.w3.org/2000/svg" xmlns:xlink="http://www.w3.org/1999/xlink">
    <title>13_F7F7F7_2C2C2C</title>
    <defs>
        <rect id="path-1" x="38" y="25" width="66" height="51" rx="2"></rect>
        <filter x="-12.1%" y="-15.7%" width="130.3%" height="139.2%" filterUnits="objectBoundingBox" id="filter-2">
            <feOffset dx="2" dy="2" in="SourceAlpha" result="shadowOffsetOuter1"></feOffset>
            <feGaussianBlur stdDeviation="3" in="shadowOffsetOuter1" result="shadowBlurOuter1"></feGaussianBlur>
            <feColorMatrix values="0 0 0 0 0   0 0 0 0 0   0 0 0 0 0  0 0 0 0.246232893 0" type="matrix" in="shadowBlurOuter1"></feColorMatrix>
        </filter>
        <rect id="path-3" x="0" y="0" width="62" height="47" rx="2"></rect>
    </defs>
    <g id="13_F7F7F7_2C2C2C" stroke="none" stroke-width="1" fill="none" fill-rule="evenodd">
        <g id="Group-2" transform="translate(25.000000, 39.000000)">
            <g id="Group-4" fill-rule="nonzero">
                <g id="Clipped">
                    <path d="M60,0 L2,0 C0.8954305,2.02906125e-16 -1.3527075e-16,0.8954305 0,2 L0,45 C1.3527075e-16,46.1045695 0.8954305,47 2,47 L60,47 C61.1045695,47 62,46.1045695 62,45 L62,2 C62,0.8954305 61.1045695,-2.02906125e-16 60,0 Z" id="Path" fill="#0059B7"></path>
                    <g id="Group" transform="translate(14.000000, 6.000000)" fill="#FFDE59">
                        <polygon id="Path" points="16.8115632 0 17.655174 2.70016384 20.3846714 2.70016384 18.1763119 4.36901511 19.0199227 7.06917896 16.8115632 5.40032769 14.6032037 7.06917896 15.4467252 4.36901511 13.2384551 2.70016384 15.9680417 2.70016384"></polygon>
                        <polygon id="Path" points="4.96009942 5.15920262 7.42268556 6.46413617 9.37681841 4.43173129 8.944383 7.27070817 11.4069691 8.57573275 8.67729316 9.02548698 8.24494707 11.8646459 6.99025014 9.30338613 4.26075282 9.75314036 6.21488567 7.72064446"></polygon>
                        <polygon id="Path" points="0 17.6772256 2.72958665 16.7546878 2.72958665 13.7695248 4.41645101 16.1846896 7.14621631 15.2621518 5.45908397 17.6772256 7.14621631 20.0922993 4.41645101 19.1698525 2.72958665 21.5849263 2.72958665 18.5997633"></polygon>
                        <polygon id="Path" points="4.96009942 29.9115238 6.21479635 27.3500819 4.26075282 25.317495 6.9904288 25.7674313 8.24494707 23.2059894 8.67738249 26.0451484 11.4069691 26.4949026 8.94465098 27.7999272 9.37690774 30.6389951 7.42277489 28.6064082"></polygon>
                        <polygon id="Path" points="16.8115632 35 15.9679524 32.2998362 13.2384551 32.2998362 15.4468145 30.6310759 14.6032037 27.9310941 16.8115632 29.5997633 19.0199227 27.9310941 18.1763119 30.6310759 20.3846714 32.2998362 17.6550847 32.2998362"></polygon>
                        <polygon id="Path" points="28.7579823 29.9116148 26.2953069 28.6065902 24.3409954 30.6392682 24.7735201 27.7999272 22.3111126 26.4949026 25.0406993 26.0452394 25.4730454 23.2059894 26.7277423 25.7674313 29.4573289 25.317495 27.5031068 27.350355"></polygon>
                        <polygon id="Path" points="34 17.6773166 31.270324 18.5999454 31.270324 21.5851993 29.583281 19.1699436 26.8537837 20.0924813 28.5408267 17.6773166 26.8537837 15.2622429 29.5834597 16.1847806 31.270324 13.7695248 31.270324 16.7548698"></polygon>
                        <polygon id="Path" points="28.757893 5.1591116 27.5031068 7.72055343 29.4573289 9.75314036 26.7275636 9.30320408 25.4730454 11.8645549 25.0406993 9.02539596 22.3111126 8.5755507 24.7734308 7.27061715 24.3409954 4.43173129 26.2953962 6.46413617"></polygon>
                    </g>
                </g>
            </g>
            <g id="Rectangle-Copy" fill-rule="nonzero">
                <use fill="black" fill-opacity="1" filter="url(#filter-2)" xlink:href="#path-1"></use>
                <use fill="#FFFFFF" xlink:href="#path-1"></use>
            </g>
            <g id="Group-6" transform="translate(40.000000, 27.000000)">
                <g id="CA">
                    <mask id="mask-4" fill="white">
                        <use xlink:href="#path-3"></use>
                    </mask>
                    <use id="Mask" fill="#FFFFFF" xlink:href="#path-3"></use>
                    <rect id="Mask" fill="#F44247" mask="url(#mask-4)" x="44.2857143" y="0" width="17.7142857" height="47"></rect>
                    <rect id="Rectangle-2" fill="#F44247" mask="url(#mask-4)" x="0" y="0" width="17.7142857" height="47"></rect>
                </g>
                <polygon id="Path" fill="#F44247" fill-rule="nonzero" points="35.6747864 27.4164659 40.3492063 24.6748049 38.0123222 23.3040175 38.0123222 20.5623566 33.3374136 23.3040175 35.6747864 17.8207817 33.3374136 17.8207817 31.0000407 13.7083333 28.6627493 17.8207817 26.3253765 17.8207817 28.6627493 23.3040175 23.9880036 20.5623566 23.9880036 23.3040175 21.6507937 24.6748049 26.3253765 27.4164659 25.1567715 30.1581268 29.8314358 30.1581268 29.8314358 34.2708333 32.1687272 34.2708333 32.1687272 30.1581268 36.8434729 30.1581268"></polygon>
            </g>
        </g>
    </g>
</svg>