<svg width="38" height="38" viewBox="0 0 38 38" fill="none" xmlns="http://www.w3.org/2000/svg">
<path d="M22.0508 30.99L27.3868 35.8838L34.9084 28.9857C35.1717 28.7443 35.3805 28.4577 35.5231 28.1423C35.6656 27.8268 35.739 27.4888 35.739 27.1473V10.8533C35.739 10.5118 35.6656 10.1738 35.5231 9.85831C35.3805 9.54289 35.1717 9.25629 34.9084 9.0149L27.3915 2.12109L22.0554 7.01484L33.1196 17.162C33.3831 17.4036 33.592 17.6904 33.7345 18.0061C33.8769 18.3218 33.9502 18.6601 33.95 19.0018C33.9497 19.3435 33.8761 19.6817 33.7332 19.9973C33.5904 20.3128 33.3811 20.5995 33.1173 20.8408L22.0508 30.99Z" fill="#5ED3F0" stroke="#5ED3F0" stroke-width="2.27" stroke-miterlimit="10"/>
<path d="M2.16504 30.99L7.50112 35.8838L15.0227 28.9857C15.2859 28.7443 15.4949 28.4577 15.6374 28.1423C15.7799 27.8268 15.8533 27.4888 15.8533 27.1473V10.8533C15.8533 10.5118 15.7799 10.1738 15.6374 9.85831C15.4949 9.54289 15.2859 9.25629 15.0227 9.0149L7.50576 2.12109L2.16967 7.01484L13.2339 17.162C13.4974 17.4036 13.7063 17.6904 13.8488 18.0061C13.9912 18.3218 14.0645 18.6601 14.0643 19.0018C14.064 19.3435 13.9903 19.6817 13.8475 19.9973C13.7047 20.3128 13.4954 20.5995 13.2316 20.8408L2.16504 30.99Z" fill="#5ED3F0" stroke="#5ED3F0" stroke-width="2.27" stroke-miterlimit="10"/>
</svg>
