<svg width="38" height="38" viewBox="0 0 38 38" fill="none" xmlns="http://www.w3.org/2000/svg">
<path d="M13.334 29.4385V35.9752H22.548C22.8705 35.9753 23.1899 35.9118 23.4878 35.7885C23.7858 35.6651 24.0565 35.4841 24.2846 35.2561L35.1669 24.3738C35.6282 23.9136 35.8878 23.2889 35.8888 22.6373V13.4375H29.352V26.9801C29.3525 27.3052 29.2883 27.6271 29.1632 27.9272C29.0382 28.2273 28.8549 28.4996 28.6238 28.7284C28.3927 28.957 28.1185 29.1375 27.8172 29.2594C27.5157 29.3813 27.1931 29.4422 26.868 29.4385H13.334Z" fill="#5ED3F0" stroke="#5ED3F0" stroke-width="2.27" stroke-miterlimit="10"/>
<path d="M24.6633 8.75165V2.21484H15.4492C15.1267 2.2148 14.8074 2.27828 14.5095 2.40166C14.2115 2.52503 13.9408 2.70589 13.7127 2.9339L2.83037 13.8162C2.60236 14.0443 2.42151 14.3151 2.29813 14.613C2.17476 14.9109 2.11129 15.2303 2.11133 15.5528V24.7612H8.64813V11.2072C8.64813 10.8845 8.71174 10.565 8.83532 10.2669C8.9589 9.96874 9.14003 9.69792 9.36835 9.46987C9.59667 9.2418 9.8677 9.06099 10.166 8.93775C10.4642 8.81452 10.7838 8.75128 11.1066 8.75165H24.6633Z" fill="#5ED3F0" stroke="#5ED3F0" stroke-width="2.27" stroke-miterlimit="10"/>
</svg>
