<svg width="48" height="49" viewBox="0 0 48 49" fill="none" xmlns="http://www.w3.org/2000/svg">
<path d="M41.7177 31.1169C42.7224 28.6889 43.2469 26.0755 43.2469 23.4223C43.2478 20.78 42.7282 18.1634 41.7177 15.7219C40.7072 13.2805 39.2256 11.062 37.3575 9.19329C35.4895 7.32457 33.2716 5.84217 30.8305 4.83079C28.3894 3.8194 25.773 3.29883 23.1307 3.29883C19.1503 3.29741 15.2589 4.47643 11.9487 6.68675C8.63848 8.89708 6.05809 12.0394 4.53389 15.7164C3.00969 19.3933 2.61014 23.4397 3.3858 27.3438C4.16145 31.2478 6.07746 34.8341 8.89149 37.6492C11.7055 40.4642 15.2912 42.3815 19.1949 43.1585C23.0987 43.9356 27.1452 43.5375 30.8227 42.0146C31.2216 41.8494 31.6142 41.6718 32 41.4822" stroke="white" stroke-width="2" stroke-linecap="round" stroke-linejoin="round"/>
<path d="M32.8506 23.4223C32.8506 34.5323 28.5276 43.5385 23.1311 43.5385C17.7346 43.5385 13.4116 34.5323 13.4116 23.4223C13.4116 12.3123 17.7346 3.29883 23.1311 3.29883C28.5276 3.29883 32.8506 12.3123 32.8506 23.4223Z" stroke="white" stroke-linecap="round" stroke-linejoin="round"/>
<path d="M3.00732 23.416H43.247" stroke="white" stroke-linecap="round" stroke-linejoin="round"/>
<path d="M7.12842 11.4277C8.9945 12.8687 13.6129 15.4265 23.1306 15.4265C32.6484 15.4265 37.2668 12.8831 39.1328 11.4277" stroke="white" stroke-linecap="round" stroke-linejoin="round"/>
<path d="M7.12842 35.4109C8.9945 33.9699 13.6129 31.4121 23.1306 31.4121C26.7596 31.4121 29.6763 31.7829 31.9998 32.322" stroke="white" stroke-linecap="round" stroke-linejoin="round"/>
<path d="M23.1235 3.29883V43.4665" stroke="white" stroke-linecap="round" stroke-linejoin="round"/>
<path fill-rule="evenodd" clip-rule="evenodd" d="M38.2471 29.5391C38.3635 29.5391 38.4732 29.5942 38.5427 29.6876C38.5916 29.7534 38.6923 29.8495 38.8594 29.9703C39.0219 30.0878 39.2294 30.216 39.4738 30.35C39.9625 30.6178 40.58 30.8986 41.24 31.154C42.5745 31.6707 44.0149 32.0581 44.8786 32.0581C45.0821 32.0581 45.2471 32.223 45.2471 32.4265V39.2637C45.2471 40.0153 44.7756 40.785 44.1721 41.4777C43.5552 42.1858 42.7381 42.8831 41.9225 43.4967C41.1047 44.112 40.2767 44.6518 39.6296 45.044C39.306 45.2402 39.0259 45.4005 38.8131 45.5156C38.707 45.573 38.6155 45.6203 38.5427 45.6555C38.4827 45.6846 38.4031 45.7217 38.3378 45.7383C38.2782 45.7534 38.2159 45.7534 38.1564 45.7383C38.091 45.7217 38.0114 45.6846 37.9514 45.6555C37.8786 45.6203 37.7872 45.573 37.681 45.5156C37.4683 45.4005 37.1881 45.2402 36.8645 45.044C36.2174 44.6518 35.3894 44.112 34.5716 43.4967C33.7561 42.8831 32.939 42.1858 32.3221 41.4777C31.7186 40.785 31.2471 40.0153 31.2471 39.2637V32.4265C31.2471 32.223 31.412 32.0581 31.6155 32.0581C32.4792 32.0581 33.9196 31.6707 35.2542 31.154C35.9141 30.8986 36.5317 30.6178 37.0203 30.35C37.2648 30.216 37.4722 30.0878 37.6348 29.9703C37.8018 29.8495 37.9025 29.7534 37.9515 29.6876C38.021 29.5942 38.1306 29.5391 38.2471 29.5391Z" stroke="white" stroke-width="2" stroke-linecap="round" stroke-linejoin="round"/>
<path fill-rule="evenodd" clip-rule="evenodd" d="M38.2471 40.2898C38.3576 40.2899 38.4671 40.2678 38.5689 40.2248C38.6708 40.1819 38.763 40.1189 38.8401 40.0397L42.5424 36.039C42.596 35.9867 42.6385 35.9242 42.6675 35.8551C42.6966 35.7861 42.7115 35.712 42.7115 35.6371C42.7115 35.5622 42.6966 35.4881 42.6675 35.4191C42.6385 35.3501 42.596 35.2876 42.5424 35.2352C42.4902 35.1829 42.4282 35.1415 42.36 35.1132C42.2918 35.0849 42.2186 35.0703 42.1447 35.0703C42.0709 35.0703 41.9977 35.0849 41.9295 35.1132C41.8613 35.1415 41.7993 35.1829 41.7471 35.2352L38.2471 39.0391L36.2029 37.2084C36.0976 37.1037 35.9551 37.0449 35.8066 37.0449C35.6581 37.0449 35.5156 37.1037 35.4103 37.2084C35.3568 37.2608 35.3143 37.3233 35.2852 37.3923C35.2562 37.4613 35.2412 37.5354 35.2412 37.6103C35.2412 37.6852 35.2562 37.7593 35.2852 37.8283C35.3143 37.8974 35.3568 37.9599 35.4103 38.0122L37.6513 40.0425C37.8092 40.2006 38.0235 40.2896 38.2471 40.2898Z" fill="white"/>
</svg>
