<svg width="104" height="105" viewBox="0 0 104 105" fill="none" xmlns="http://www.w3.org/2000/svg">
<g filter="url(#filter0_d_6072_8070)">
<rect x="12" y="12.1172" width="80" height="80" rx="40" fill="black" fill-opacity="0.15" shape-rendering="crispEdges"/>
<path d="M47.9829 48.5289C48.1687 48.5263 48.3133 48.5232 48.4261 48.5198C48.4296 48.4069 48.4326 48.2621 48.4352 48.076C48.4462 47.2735 48.4474 45.7969 48.4474 43.0186V37.0937V36.1937H49.3474H52H54.6526H55.5526V37.0937V43.0186C55.5526 45.7969 55.5538 47.2735 55.5648 48.076C55.5674 48.2621 55.5704 48.4069 55.5739 48.5198C55.6868 48.5232 55.8316 48.5263 56.0177 48.5289C56.8202 48.5399 58.2968 48.5411 61.0751 48.5411H67H67.9V49.4411V52.1172V54.7932V55.6932H67H61.0751C58.2968 55.6932 56.8202 55.6944 56.0177 55.7054C55.8316 55.708 55.6868 55.7111 55.5738 55.7145C55.5704 55.8273 55.5674 55.9719 55.5648 56.1577C55.5538 56.9597 55.5526 58.4351 55.5526 61.211V67.1406V68.0406H54.6526H52H49.3474H48.4474V67.1406V61.211C48.4474 58.4351 48.4462 56.9597 48.4352 56.1577C48.4326 55.9719 48.4296 55.8273 48.4262 55.7145C48.3133 55.7111 48.1687 55.708 47.9829 55.7054C47.1809 55.6944 45.7056 55.6932 42.9296 55.6932H37H36.1V54.7932V52.1172V49.4411V48.5411H37H42.9296C45.7056 48.5411 47.1809 48.5399 47.9829 48.5289Z" fill="black" fill-opacity="0.15" stroke="#5ED3F0" stroke-width="1.8"/>
<rect x="13.5" y="13.6172" width="77" height="77" rx="38.5" stroke="#5ED3F0" stroke-width="3" shape-rendering="crispEdges"/>
</g>
<defs>
<filter id="filter0_d_6072_8070" x="0" y="0.117188" width="104" height="104" filterUnits="userSpaceOnUse" color-interpolation-filters="sRGB">
<feFlood flood-opacity="0" result="BackgroundImageFix"/>
<feColorMatrix in="SourceAlpha" type="matrix" values="0 0 0 0 0 0 0 0 0 0 0 0 0 0 0 0 0 0 127 0" result="hardAlpha"/>
<feOffset/>
<feGaussianBlur stdDeviation="6"/>
<feComposite in2="hardAlpha" operator="out"/>
<feColorMatrix type="matrix" values="0 0 0 0 0.368627 0 0 0 0 0.827451 0 0 0 0 0.941176 0 0 0 1 0"/>
<feBlend mode="normal" in2="BackgroundImageFix" result="effect1_dropShadow_6072_8070"/>
<feBlend mode="normal" in="SourceGraphic" in2="effect1_dropShadow_6072_8070" result="shape"/>
</filter>
</defs>
</svg>
