<svg width="104" height="105" viewBox="0 0 104 105" fill="none" xmlns="http://www.w3.org/2000/svg">
<g filter="url(#filter0_d_6072_8049)">
<rect x="12" y="12.1172" width="80" height="80" rx="40" fill="black" fill-opacity="0.15" shape-rendering="crispEdges"/>
<path d="M48.7678 36.879L48.7653 36.8791C48.7518 36.88 48.7308 36.881 48.7018 36.8822C48.6442 36.8847 48.5601 36.8877 48.4518 36.8911C48.2354 36.8981 47.9253 36.9068 47.5445 36.9168C46.7829 36.9367 45.7398 36.9614 44.6005 36.9861C44.6005 36.9861 44.6005 36.9861 44.6004 36.9861L44.6059 37.236C39.9925 37.3349 39.8827 37.3459 39.1248 37.7028L48.7678 36.879ZM48.7678 36.879C48.7756 36.8775 48.7813 36.8768 48.7836 36.8765C48.7942 36.875 48.8051 36.8739 48.8149 36.873C48.8347 36.8713 48.8588 36.8698 48.8854 36.8684C48.9391 36.8657 49.0109 36.8632 49.0949 36.8611C49.2633 36.857 49.4863 36.8542 49.7239 36.8542C49.7237 36.8542 49.7236 36.8542 49.7234 36.8542L48.7678 36.879ZM54.8413 67.2196L54.8419 67.2194C54.8583 67.2142 54.8745 67.2091 54.8906 67.204C55.069 67.1478 55.2313 67.0967 55.4329 66.9769C55.6466 66.8498 55.8989 66.6497 56.2886 66.2939C57.0518 65.597 58.3913 64.2561 61.0808 61.564L61.2588 61.3858L61.259 61.3857L54.8413 67.2196ZM54.8413 67.2196C53.7755 67.5553 52.418 67.3476 51.5542 66.7162M54.8413 67.2196L51.5542 66.7162M36.8625 51.4164C36.7839 51.1301 36.7507 50.7744 36.75 49.8433C36.7493 48.9058 36.7824 47.3589 36.8483 44.6718L36.8625 51.4164ZM36.8625 51.4164C37.0025 51.9355 37.1824 52.3033 37.5148 52.7069C37.5765 52.7824 37.838 53.0533 38.2283 53.4515C38.6294 53.8606 39.1811 54.4185 39.8328 55.0747C41.1363 56.3873 42.8412 58.0946 44.5446 59.7946C46.248 61.4945 47.9501 63.1874 49.2482 64.4712C49.8971 65.113 50.4454 65.6529 50.8424 66.0404C51.0408 66.2341 51.2019 66.3901 51.3191 66.502C51.3777 66.5579 51.426 66.6034 51.4628 66.6373C51.4947 66.6667 51.5295 66.6982 51.5542 66.7162M36.8625 51.4164L51.5542 66.7162M59.6058 44.6163C61.4952 46.503 63.2131 48.2264 64.4587 49.4816C65.0815 50.1092 65.5864 50.62 65.9358 50.9757C66.1104 51.1535 66.2466 51.293 66.3393 51.3891C66.3855 51.437 66.4217 51.475 66.4468 51.5019C66.4591 51.515 66.4702 51.5271 66.4788 51.537C66.4828 51.5415 66.4887 51.5485 66.4947 51.5561C66.4973 51.5594 66.5033 51.5673 66.5099 51.5776C66.513 51.5825 66.5194 51.5929 66.5259 51.6068L66.5262 51.6075C66.5285 51.6123 66.5375 51.6312 66.5436 51.6591C66.5463 51.6643 66.5502 51.6716 66.5556 51.681C66.574 51.7126 66.6018 51.7541 66.6342 51.7958L66.6354 51.7973C66.9381 52.1927 67.1294 52.7357 67.2082 53.2935C67.2874 53.8531 67.2569 54.4519 67.0925 54.9688L59.6058 44.6163ZM50.8588 38.8387L50.8588 38.8387L50.8551 38.8373C50.7074 38.7813 50.6196 38.7558 50.4845 38.7417C50.3372 38.7263 50.1342 38.7244 49.7547 38.7272C49.525 38.7299 49.3083 38.734 49.1441 38.7388C49.0617 38.7412 48.9938 38.7437 48.9445 38.7462C48.9197 38.7475 48.9012 38.7487 48.8886 38.7497C48.8867 38.7499 48.8851 38.75 48.8837 38.7501L48.8808 38.7509L48.8658 38.7528C48.8462 38.7552 48.7971 38.7568 48.7494 38.7584L48.7434 38.7586C48.6829 38.7606 48.5967 38.7632 48.4878 38.7663C48.27 38.7724 47.9604 38.7807 47.5821 38.7903C46.8252 38.8095 45.7924 38.8343 44.6663 38.859C43.5411 38.8837 42.489 38.9125 41.6992 38.9385C41.3042 38.9516 40.9754 38.9639 40.7362 38.9746C40.6165 38.98 40.5202 38.985 40.4495 38.9894C40.4141 38.9916 40.3862 38.9936 40.3656 38.9953C40.3472 38.9969 40.3393 38.9979 40.3381 38.998C39.5787 39.1445 39.0166 39.7072 38.8708 40.4669C38.8708 40.4669 38.8708 40.467 38.8708 40.4672C38.8706 40.4686 38.8697 40.4749 38.8683 40.4884C38.8667 40.5036 38.8649 40.5237 38.863 40.549C38.8592 40.5997 38.855 40.6672 38.8505 40.7503C38.8416 40.9162 38.8319 41.1399 38.8219 41.4056C38.8021 41.9369 38.7815 42.6331 38.7651 43.3653C38.7321 44.8317 38.6772 47.0673 38.6387 48.3371C38.6387 48.3373 38.6387 48.3374 38.6387 48.3376L38.5795 50.5999L38.6868 50.9267L38.687 50.9275C38.7167 51.0191 38.7557 51.1172 38.7939 51.2005C38.835 51.2902 38.866 51.3422 38.8765 51.3555L38.8765 51.3555L38.8781 51.3575C38.911 51.4003 38.9433 51.4476 38.9686 51.4911C38.9811 51.5125 38.9943 51.537 39.0051 51.5621L39.0054 51.5627C39.0061 51.5643 39.0069 51.5662 39.0079 51.5685C39.0316 51.5942 39.0678 51.6323 39.1163 51.6828C39.2144 51.7847 39.359 51.9327 39.5439 52.1206C39.9136 52.4963 40.4423 53.0292 41.0778 53.6675C42.3489 54.9439 44.0462 56.6404 45.751 58.3394C47.4558 60.0384 49.1679 61.7396 50.4684 63.0257C51.1188 63.6688 51.6659 64.2077 52.0577 64.5906C52.2537 64.7821 52.4103 64.9341 52.5213 65.0404C52.577 65.0936 52.6204 65.1346 52.6513 65.1631C52.6668 65.1774 52.6781 65.1877 52.6858 65.1943C52.6865 65.195 52.6871 65.1955 52.6877 65.1961C53.2937 65.589 54.0565 65.6099 54.6542 65.2596C54.6555 65.2584 54.6646 65.2514 54.6847 65.234C54.711 65.2113 54.7469 65.179 54.7926 65.1368C54.8838 65.0527 55.0089 64.9341 55.1636 64.7853C55.4728 64.4878 55.8969 64.073 56.3973 63.5793C57.3979 62.5921 58.7019 61.2917 59.9995 59.989C61.297 58.6863 62.5876 57.3819 63.5615 56.3865C64.0485 55.8886 64.4558 55.4687 64.7449 55.1652C64.8896 55.0133 65.0037 54.8916 65.0831 54.8043C65.123 54.7605 65.1527 54.7269 65.1727 54.7032C65.1789 54.6958 65.1837 54.69 65.1871 54.6858C65.4247 54.1864 65.4458 53.6656 65.2482 53.1546C65.1658 52.942 65.0439 52.7777 64.2513 51.946L64.2508 51.9455C63.6581 51.32 60.5312 48.1848 57.5046 45.1672C55.9924 43.6594 54.5067 42.1824 53.3775 41.0654C52.8129 40.5068 52.3377 40.0385 51.9929 39.7013C51.8205 39.5327 51.6811 39.3973 51.5797 39.3C51.5289 39.2513 51.4882 39.2126 51.4579 39.1843C51.4427 39.1702 51.4306 39.1591 51.4215 39.151C51.4114 39.1419 51.4081 39.1392 51.4089 39.1399L51.4072 39.1385C51.2889 39.0429 51.034 38.9019 50.8588 38.8387ZM52.6783 65.1899L52.6791 65.1904L52.6783 65.1899Z" fill="#5ED3F0" stroke="#5ED3F0" stroke-width="0.5"/>
<path d="M45.2804 42.5674L45.2806 42.5674C45.4989 42.5217 45.8342 42.5183 46.1482 42.5393C46.462 42.5603 46.7979 42.6085 47.0176 42.6858C48.1265 43.0675 48.9142 43.8483 49.2967 44.937L49.2973 44.9388C49.3645 45.1347 49.4099 45.2854 49.4367 45.4518C49.4633 45.617 49.4701 45.7884 49.4701 46.0249L49.4701 46.027C49.4673 46.3707 49.4537 46.6235 49.3989 46.8689C49.3438 47.1157 49.2501 47.3422 49.1046 47.6388C48.7725 48.332 48.2044 48.9 47.5113 49.2321C47.2146 49.3776 46.9881 49.4713 46.7414 49.5264C46.4959 49.5812 46.2432 49.5949 45.8994 49.5976V49.5977H45.8974C45.6608 49.5977 45.4894 49.5909 45.3242 49.5643C45.1579 49.5375 45.0072 49.492 44.8113 49.4249L44.8106 49.4246C43.7187 49.0469 42.9627 48.2745 42.5488 47.1493L42.5488 47.1493C42.4456 46.8689 42.4029 46.459 42.4043 46.0707C42.4057 45.6812 42.4518 45.2689 42.553 44.9809L42.553 44.9809L42.5534 44.9799C42.7631 44.3916 43.0188 43.9861 43.4359 43.569L43.4369 43.568C43.9752 43.0356 44.5507 42.7204 45.2804 42.5674ZM46.6611 44.5691L46.6611 44.5691L46.6588 44.568C46.427 44.4521 46.2846 44.4164 46.0382 44.4018C45.5033 44.3778 45.1277 44.523 44.7616 44.8891C44.5808 45.0699 44.4669 45.2338 44.3954 45.4089C44.3236 45.5847 44.2881 45.7875 44.2856 46.0548L44.2856 46.0558C44.2828 46.2581 44.2877 46.3635 44.3045 46.4509C44.3206 46.5349 44.3498 46.6141 44.4166 46.761C44.5931 47.142 44.9667 47.4897 45.3426 47.6307L45.3426 47.6307L45.3442 47.6313C45.5262 47.701 45.7713 47.7333 46.0237 47.7208C46.2766 47.7083 46.5121 47.652 46.6773 47.5661L46.6773 47.5661L46.6795 47.565C47.0001 47.4023 47.2747 47.1277 47.4374 46.807L47.4374 46.807L47.4386 46.8048C47.5245 46.6396 47.5808 46.4042 47.5933 46.1513C47.6058 45.8988 47.5734 45.6537 47.5038 45.4717L47.5038 45.4717L47.5029 45.4695C47.3676 45.1056 47.047 44.7572 46.6611 44.5691Z" fill="#5ED3F0" stroke="#5ED3F0" stroke-width="0.5"/>
<rect x="13.5" y="13.6172" width="77" height="77" rx="38.5" stroke="#5ED3F0" stroke-width="3" shape-rendering="crispEdges"/>
</g>
<defs>
<filter id="filter0_d_6072_8049" x="0" y="0.117188" width="104" height="104" filterUnits="userSpaceOnUse" color-interpolation-filters="sRGB">
<feFlood flood-opacity="0" result="BackgroundImageFix"/>
<feColorMatrix in="SourceAlpha" type="matrix" values="0 0 0 0 0 0 0 0 0 0 0 0 0 0 0 0 0 0 127 0" result="hardAlpha"/>
<feOffset/>
<feGaussianBlur stdDeviation="6"/>
<feComposite in2="hardAlpha" operator="out"/>
<feColorMatrix type="matrix" values="0 0 0 0 0.368627 0 0 0 0 0.827451 0 0 0 0 0.941176 0 0 0 1 0"/>
<feBlend mode="normal" in2="BackgroundImageFix" result="effect1_dropShadow_6072_8049"/>
<feBlend mode="normal" in="SourceGraphic" in2="effect1_dropShadow_6072_8049" result="shape"/>
</filter>
</defs>
</svg>
