<svg width="110" height="111" viewBox="0 0 110 111" fill="none" xmlns="http://www.w3.org/2000/svg">
<g filter="url(#filter0_d_6072_8132)">
<rect x="15" y="15.1172" width="80" height="80" rx="40" fill="black" fill-opacity="0.15" shape-rendering="crispEdges"/>
<path d="M53.8256 38.0643C52.742 38.1657 51.1673 38.4914 50.1957 38.8223C45.0498 40.5786 41.2331 44.9878 40.2456 50.3099C40.1014 51.0999 40 52.0394 40 52.648V53.043L40.1762 52.9309C40.6886 52.6052 41.4466 52.2689 41.8043 52.1996C42.0231 52.1568 42.0498 52.0928 42.1299 51.3775C42.3434 49.5198 43.1228 47.4326 44.2064 45.8312C45.2206 44.3312 46.6246 42.97 48.1512 41.9985C49.2295 41.3205 50.6548 40.728 51.984 40.4077C53.0943 40.1408 53.5961 40.0875 55 40.0875C56.4039 40.0875 56.9057 40.1408 58.016 40.4077C61.1868 41.1711 63.9413 43.0928 65.7936 45.8312C66.8772 47.4326 67.6566 49.5198 67.8701 51.3775C67.9502 52.1088 67.9715 52.1568 68.2171 52.2049C68.5 52.2529 69.0658 52.4878 69.4128 52.696C69.573 52.7867 69.7705 52.9042 69.8559 52.9522L70 53.0376V52.648C70 50.6889 69.4075 48.3134 68.4306 46.3597C66.4609 42.4202 62.9057 39.5643 58.6299 38.486C57.4235 38.1818 56.5694 38.075 55.2402 38.059C54.5943 38.0483 53.9591 38.0536 53.8256 38.0643Z" fill="#5ED3F0"/>
<path d="M46.2359 52.153C45.3284 52.3719 44.5384 53.0925 44.1647 54.0427L44.0312 54.3897V59.1139V63.8381L44.1647 64.1851C44.6451 65.4182 45.7127 66.1602 46.9939 66.1602C48.275 66.1602 49.3426 65.4182 49.8231 64.1851L49.9565 63.8381V59.1139V54.3897L49.8231 54.0427C49.4441 53.0819 48.6594 52.3666 47.7305 52.1477C47.3142 52.0516 46.6416 52.0516 46.2359 52.153Z" fill="#5ED3F0"/>
<path d="M62.2483 52.1515C61.3409 52.3704 60.5508 53.091 60.1772 54.0412L60.0437 54.3882V59.1124V63.8366L60.1772 64.1836C60.5615 65.1551 61.3409 65.8597 62.2964 66.0839C62.6594 66.1693 63.4654 66.164 63.7377 66.0786C63.8604 66.0412 63.8604 66.0412 63.7857 66.2441C63.5135 67.0181 62.8302 67.6907 61.9921 68.0056L61.5917 68.1551L59.7127 68.1764L57.8391 68.1925L57.6362 67.8028C57.1131 66.8152 56.1256 66.212 55.0206 66.212C54.2252 66.212 53.5686 66.4576 53.0188 66.954C51.4974 68.3152 51.7483 70.7601 53.5099 71.7796C54.8818 72.5804 56.6327 72.1426 57.5135 70.7921C57.6202 70.6213 57.7216 70.4291 57.743 70.3544L57.775 70.2263L59.654 70.1996C61.6985 70.1729 62.0989 70.1302 62.7875 69.8526C64.2821 69.2601 65.3284 68.1124 65.8195 66.5483L65.969 66.0786V60.2334V54.3882L65.8355 54.0412C65.4565 53.0804 64.6718 52.3651 63.743 52.1462C63.3266 52.0501 62.654 52.0501 62.2483 52.1515Z" fill="#5ED3F0"/>
<path d="M41.7088 54.3516C41.143 54.6399 40.7373 55.0135 40.4117 55.5527C40.022 56.1879 40.0273 56.1559 40.0273 59.1132C40.0273 62.0705 40.022 62.0384 40.4117 62.6737C40.6572 63.0847 41.0042 63.4477 41.3672 63.6772C41.6394 63.8534 42.0078 64.0082 42.0505 63.9655C42.0612 63.9548 42.0505 63.8 42.0238 63.6292C41.9597 63.2342 41.9864 54.4797 42.0505 54.3463C42.1092 54.2235 41.9597 54.2288 41.7088 54.3516Z" fill="#5ED3F0"/>
<path d="M67.9502 54.3463C68.0143 54.4797 68.0409 63.2342 67.9769 63.6292C67.9502 63.8 67.9395 63.9548 67.9502 63.9655C67.9929 64.0082 68.3612 63.8534 68.6335 63.6772C68.9965 63.4477 69.3434 63.0847 69.589 62.6737C69.9787 62.0384 69.9733 62.0705 69.9733 59.1132C69.9733 56.7751 69.9627 56.4388 69.8826 56.1772C69.7651 55.7982 69.4502 55.2804 69.1459 54.9708C68.6975 54.5064 67.8007 54.042 67.9502 54.3463Z" fill="#5ED3F0"/>
<rect x="16.5" y="16.6172" width="77" height="77" rx="38.5" stroke="#5ED3F0" stroke-width="3" shape-rendering="crispEdges"/>
</g>
<defs>
<filter id="filter0_d_6072_8132" x="0" y="0.117188" width="110" height="110" filterUnits="userSpaceOnUse" color-interpolation-filters="sRGB">
<feFlood flood-opacity="0" result="BackgroundImageFix"/>
<feColorMatrix in="SourceAlpha" type="matrix" values="0 0 0 0 0 0 0 0 0 0 0 0 0 0 0 0 0 0 127 0" result="hardAlpha"/>
<feOffset/>
<feGaussianBlur stdDeviation="7.5"/>
<feComposite in2="hardAlpha" operator="out"/>
<feColorMatrix type="matrix" values="0 0 0 0 0.368627 0 0 0 0 0.827451 0 0 0 0 0.941176 0 0 0 0.5 0"/>
<feBlend mode="normal" in2="BackgroundImageFix" result="effect1_dropShadow_6072_8132"/>
<feBlend mode="normal" in="SourceGraphic" in2="effect1_dropShadow_6072_8132" result="shape"/>
</filter>
</defs>
</svg>
