<svg width="31" height="32" viewBox="0 0 31 32" fill="none" xmlns="http://www.w3.org/2000/svg">
<g clip-path="url(#clip0_699_1432)">
<path d="M1.63086 13.3868V18.1384H8.32849C8.56287 18.1385 8.79504 18.0923 9.01164 18.0026C9.22815 17.9129 9.425 17.7815 9.59076 17.6157L17.5011 9.7054C17.8364 9.37084 18.0251 8.91686 18.0258 8.44313V1.75586H13.2742V11.5998C13.2745 11.8362 13.2279 12.0702 13.137 12.2884C13.0461 12.5065 12.9129 12.7044 12.7449 12.8707C12.577 13.0369 12.3776 13.1682 12.1585 13.2568C11.9394 13.3454 11.705 13.3896 11.4686 13.3868H1.63086Z" fill="#37ABFF" stroke="#37ABFF" stroke-width="2.27" stroke-miterlimit="10"/>
<path d="M29.348 17.857V13.1055H22.6503C22.416 13.1055 22.1838 13.1516 21.9673 13.2413C21.7507 13.331 21.5538 13.4624 21.3881 13.6281L13.4778 21.5384C13.3121 21.7042 13.1806 21.901 13.0909 22.1176C13.0013 22.3342 12.9551 22.5663 12.9551 22.8007V29.4942H17.7066V19.642C17.7066 19.4074 17.7529 19.1751 17.8427 18.9584C17.9325 18.7418 18.0642 18.5448 18.2302 18.3791C18.3961 18.2133 18.5932 18.0819 18.81 17.9923C19.0268 17.9027 19.2591 17.8568 19.4936 17.857H29.348Z" fill="#37ABFF" stroke="#37ABFF" stroke-width="2.27" stroke-miterlimit="10"/>
</g>
<defs>
<clipPath id="clip0_699_1432">
<rect width="31" height="31" fill="white" transform="translate(0 0.125)"/>
</clipPath>
</defs>
</svg>
