<svg width="31" height="32" viewBox="0 0 31 32" fill="none" xmlns="http://www.w3.org/2000/svg">
<g clip-path="url(#clip0_699_1422)">
<path d="M10.877 24.1413V29.4739H18.3937C18.6567 29.474 18.9173 29.4222 19.1603 29.3216C19.4034 29.2209 19.6243 29.0733 19.8104 28.8873L28.688 20.0096C29.0643 19.6342 29.2761 19.1246 29.2769 18.593V11.0879H23.9443V22.1358C23.9447 22.401 23.8923 22.6636 23.7903 22.9084C23.6883 23.1533 23.5387 23.3754 23.3502 23.562C23.1617 23.7485 22.938 23.8958 22.6922 23.9953C22.4462 24.0947 22.1831 24.1443 21.9179 24.1413H10.877Z" fill="#37ABFF" stroke="#37ABFF" stroke-width="2.27" stroke-miterlimit="10"/>
<path d="M20.1203 7.26429V1.93164H12.6036C12.3405 1.93161 12.08 1.98339 11.8369 2.08404C11.5938 2.18469 11.373 2.33223 11.187 2.51824L2.30925 11.3959C2.12324 11.582 1.9757 11.8029 1.87505 12.046C1.7744 12.289 1.72262 12.5495 1.72266 12.8126V20.3247H7.05531V9.2675C7.05531 9.00425 7.1072 8.7436 7.20802 8.50038C7.30883 8.25719 7.4566 8.03625 7.64286 7.85021C7.82912 7.66416 8.05022 7.51665 8.29354 7.41612C8.53685 7.31558 8.79755 7.26399 9.06087 7.26429H20.1203Z" fill="#37ABFF" stroke="#37ABFF" stroke-width="2.27" stroke-miterlimit="10"/>
</g>
<defs>
<clipPath id="clip0_699_1422">
<rect width="31" height="31" fill="white" transform="translate(0 0.125)"/>
</clipPath>
</defs>
</svg>
