<svg width="29" height="33" viewBox="0 0 29 33" fill="none" xmlns="http://www.w3.org/2000/svg">
<g clip-path="url(#clip0_699_1410)">
<path d="M17.248 26.4321L21.4221 30.6062L27.3058 24.7225C27.5117 24.5166 27.6751 24.2722 27.7866 24.0031C27.898 23.734 27.9554 23.4457 27.9554 23.1545V9.25664C27.9554 8.96536 27.898 8.67706 27.7866 8.40799C27.6751 8.13895 27.5117 7.8945 27.3058 7.68861L21.4258 1.80859L17.2516 5.98267L25.9065 14.6376C26.1126 14.8437 26.276 15.0883 26.3875 15.3576C26.4989 15.6268 26.5562 15.9154 26.556 16.2068C26.5559 16.4983 26.4983 16.7867 26.3865 17.0559C26.2747 17.325 26.111 17.5696 25.9047 17.7754L17.248 26.4321Z" fill="#37ABFF" stroke="#37ABFF" stroke-width="2.27" stroke-miterlimit="10"/>
<path d="M1.69336 26.4321L5.86744 30.6062L11.7511 24.7225C11.957 24.5166 12.1204 24.2722 12.2319 24.0031C12.3434 23.734 12.4008 23.4457 12.4008 23.1545V9.25664C12.4008 8.96536 12.3434 8.67706 12.2319 8.40799C12.1204 8.13895 11.957 7.8945 11.7511 7.68861L5.87107 1.80859L1.69698 5.98267L10.3519 14.6376C10.5579 14.8437 10.7213 15.0883 10.8328 15.3576C10.9442 15.6268 11.0015 15.9154 11.0014 16.2068C11.0012 16.4983 10.9435 16.7867 10.8318 17.0559C10.7201 17.325 10.5564 17.5696 10.3501 17.7754L1.69336 26.4321Z" fill="#37ABFF" stroke="#37ABFF" stroke-width="2.27" stroke-miterlimit="10"/>
</g>
<defs>
<clipPath id="clip0_699_1410">
<rect width="29" height="32.4118" fill="white"/>
</clipPath>
</defs>
</svg>
