<svg width="35" height="28" viewBox="0 0 35 28" fill="none" xmlns="http://www.w3.org/2000/svg">
<g clip-path="url(#clip0_699_1401)">
<path d="M34.4914 1.69667L31.1658 0.0899903C30.8543 -0.0597477 30.4841 -0.0208158 30.2132 0.193309L19.7061 7.99285L24.0625 11.3754L29.6339 7.44511V19.6952L17.1818 10.0072L4.72957 0.319089C4.4572 0.107958 4.08852 0.0690268 3.77854 0.218765L0.50862 1.8015C0.198633 1.95123 0 2.26568 0 2.61008V24.6216C0 24.9659 0.197128 25.2804 0.50862 25.4301L3.83572 27.0354C4.14721 27.1851 4.51739 27.1461 4.78825 26.932L14.4375 18.7012L10.0811 15.3186L5.3676 19.6787V7.53495L30.2584 26.9185C30.5308 27.1297 30.8994 27.1686 31.2094 27.0188L35 25.1831V2.50376C35 2.15936 34.8029 1.84491 34.4914 1.69518V1.69667Z" fill="#37ABFF"/>
</g>
<defs>
<clipPath id="clip0_699_1401">
<rect width="35" height="27.125" fill="white"/>
</clipPath>
</defs>
</svg>
