<svg width="20" height="11" viewBox="0 0 20 11" fill="none" xmlns="http://www.w3.org/2000/svg">
<path d="M0.247678 0.461301C0.0309598 0.671827 0 0.739938 0 0.975232V1.24149L4.78638 6.04025C7.41176 8.67802 9.60991 10.8762 9.65944 10.9195C9.70898 10.9628 9.86378 11 10 11C10.2415 11 10.2786 10.969 15.1207 6.12074L20 1.24768V0.987616C20 0.770898 19.9628 0.684211 19.7647 0.473685C19.5542 0.263158 19.4861 0.226006 19.257 0.226006C19.0031 0.226006 18.9659 0.256966 18.1176 1.0743C17.6409 1.54489 15.6099 3.55108 13.6161 5.5387L9.98762 9.1548L7.17647 6.32508C5.62848 4.76471 3.60991 2.75851 2.68111 1.86068C1.04644 0.275542 0.990712 0.226006 0.749226 0.226006C0.544892 0.226006 0.458204 0.26935 0.247678 0.461301Z" fill="#5ED3F0"/>
</svg>
