<svg width="16" height="18" viewBox="0 0 16 18" fill="none" xmlns="http://www.w3.org/2000/svg">
<path fill-rule="evenodd" clip-rule="evenodd" d="M2.04861 10.3825L2.0488 10.3834C2.57633 13.109 4.8316 15.2856 7.57735 15.7263L7.58007 15.7267C9.6158 16.0569 11.507 15.4921 12.9372 14.3623C8.18006 12.6633 5.3022 7.60984 6.3987 2.61695C3.36409 3.70998 1.37154 6.8947 2.04861 10.3825ZM7.03355 0.677754C2.57037 1.56557 -0.551991 5.92155 0.376995 10.707C1.0411 14.1382 3.85928 16.8542 7.30754 17.4077C10.3054 17.8938 13.0677 16.8123 14.9159 14.8522C14.9246 14.8429 14.9332 14.8337 14.9419 14.8245C15.0626 14.6954 15.1794 14.5625 15.2919 14.426C15.2941 14.4234 15.2963 14.4207 15.2985 14.418C15.443 14.2425 15.5806 14.0611 15.711 13.8743C15.8898 13.6104 15.745 13.2357 15.43 13.2017C15.1246 13.1672 14.8256 13.1172 14.5334 13.0528C14.5159 13.0488 14.4983 13.0449 14.4808 13.0409C14.4062 13.024 14.332 13.006 14.2582 12.9871L14.2535 12.9859C9.60065 11.7922 6.79248 6.86712 8.26461 2.23042C8.26521 2.22869 8.26572 2.22697 8.26631 2.22525C8.29296 2.14133 8.32106 2.05751 8.3506 1.97381C8.35171 1.97068 8.35282 1.96755 8.35392 1.96442C8.45414 1.68129 8.57061 1.39954 8.70386 1.12007C8.84008 0.830591 8.60169 0.507054 8.27815 0.524082C8.04427 0.53578 7.81319 0.556802 7.5851 0.586772C7.58135 0.587274 7.57752 0.587776 7.57377 0.588279C7.40221 0.611062 7.23236 0.638912 7.06446 0.671674C7.05416 0.673684 7.04385 0.67571 7.03355 0.677754Z" fill="white"/>
</svg>
