<svg width="24" height="23" viewBox="0 0 24 23" fill="none" xmlns="http://www.w3.org/2000/svg">
<g clip-path="url(#clip0_8009_5112)">
<path d="M1.26318 9.84036V13.3657H6.44845C6.6299 13.3658 6.80965 13.3315 6.97733 13.265C7.14495 13.1984 7.29735 13.1009 7.42569 12.9779L13.5498 7.10899C13.8094 6.86077 13.9555 6.52394 13.956 6.17246V1.21094H10.2774V8.51453C10.2776 8.68987 10.2415 8.86352 10.1712 9.02537C10.1008 9.18722 9.99767 9.33405 9.86763 9.45741C9.73758 9.58076 9.58323 9.67815 9.41365 9.74388C9.244 9.80961 9.06249 9.84241 8.87952 9.84036H1.26318Z" fill="#5ED3F0" stroke="#5ED3F0" stroke-width="2.27" stroke-miterlimit="10"/>
<path d="M22.7215 13.1543V9.62891H17.5363C17.3548 9.62891 17.1751 9.6631 17.0075 9.72968C16.8398 9.7962 16.6874 9.89371 16.559 10.0167L10.4349 15.8856C10.3067 16.0086 10.2048 16.1546 10.1354 16.3153C10.066 16.476 10.0303 16.6482 10.0303 16.8222V21.7883H13.7089V14.4786C13.7089 14.3045 13.7447 14.1322 13.8143 13.9714C13.8838 13.8107 13.9857 13.6646 14.1143 13.5416C14.2427 13.4186 14.3952 13.3211 14.5631 13.2546C14.7309 13.1882 14.9108 13.1541 15.0924 13.1543H22.7215Z" fill="#5ED3F0" stroke="#5ED3F0" stroke-width="2.27" stroke-miterlimit="10"/>
</g>
<defs>
<clipPath id="clip0_8009_5112">
<rect width="24" height="23" fill="white"/>
</clipPath>
</defs>
</svg>
