<svg width="209" height="32" viewBox="0 0 209 32" fill="none" xmlns="http://www.w3.org/2000/svg">
<g clip-path="url(#clip0_1_1691)">
<path d="M133.189 28.844C132.669 29.3922 132.251 30.1902 131.718 30.2752C130.531 30.4644 129.284 30.34 128.073 30.2218C127.918 30.2067 127.736 29.4687 127.733 29.0642C127.705 25.7714 127.717 22.4783 127.717 19.1854C127.717 18.7901 127.717 18.3948 127.717 17.9995C127.63 17.9634 127.543 17.9273 127.456 17.8912C126.561 19.2174 125.663 20.5412 124.773 21.8703C123.12 24.3384 121.436 26.7868 119.842 29.2924C119.312 30.1267 118.701 30.3951 117.744 30.3819C114.645 30.3393 114.645 30.3722 114.645 27.3387C114.645 21.1999 114.685 15.0606 114.612 8.92274C114.597 7.63307 115.012 7.2702 116.21 7.39916C116.977 7.48168 117.763 7.46514 118.533 7.40195C119.482 7.32409 119.815 7.65179 119.8 8.63242C119.747 12.0872 119.78 15.5433 119.78 18.9989C119.78 19.2807 119.78 19.5626 119.78 20.1453C120.159 19.6699 120.387 19.4225 120.572 19.1468C122.908 15.6671 125.276 12.2074 127.546 8.68523C128.179 7.70331 128.876 7.35378 130.029 7.38777C132.788 7.4691 132.789 7.41289 132.789 10.1584C132.789 13.4037 132.789 16.6491 132.789 19.8944C132.883 19.9383 132.976 19.9823 133.07 20.0263C135.809 15.9407 138.547 11.8551 141.425 7.56219C140.565 7.50836 139.909 7.46728 138.858 7.40152C142.223 5.36262 145.307 3.49424 148.545 1.53223C149.061 3.54645 149.529 5.37218 149.982 7.13709C149.828 7.28559 149.762 7.39386 149.717 7.38614C147.832 7.06718 147.045 8.32642 146.158 9.65543C141.889 16.0518 137.552 22.403 133.189 28.844Z" fill="white"/>
<path d="M26.0604 21.4653C24.2454 24.1739 22.4589 26.796 20.7349 29.4582C20.3069 30.1191 19.8552 30.4121 19.0572 30.3545C18.0485 30.2817 17.0306 30.3369 15.8369 30.3369C15.8369 28.152 15.8369 26.0566 15.8369 23.9613C15.8369 21.8687 15.8369 19.7761 15.8369 17.6834C15.7582 17.6576 15.6795 17.6319 15.6008 17.6061C15.2953 18.0615 14.9895 18.5167 14.6845 18.9724C12.3548 22.4537 10.0003 25.9189 7.71643 29.4298C7.25088 30.1455 6.752 30.3835 5.93548 30.3533C4.39716 30.2964 2.85519 30.3369 1.10277 30.3369C1.39195 29.8604 1.57432 29.5279 1.78639 29.2153C6.49017 22.282 11.2109 15.3601 15.8836 8.40617C16.3804 7.66692 16.8884 7.36865 17.7611 7.43731C18.7264 7.51326 19.7023 7.45467 20.7984 7.45467C20.7984 11.7457 20.7984 15.9408 20.7984 20.136C20.8712 20.1571 20.944 20.1783 21.0168 20.1995C21.6216 19.3083 22.2296 18.4194 22.8305 17.5257C24.8957 14.4543 26.9726 11.3906 29.0099 8.30107C29.4062 7.70014 29.8149 7.38515 30.576 7.43684C31.6251 7.50808 32.6827 7.45469 33.8109 7.45469C33.8109 15.0832 33.8109 22.6236 33.8109 30.2506C32.2016 30.2506 30.5996 30.2506 28.9281 30.2506C28.9281 26.0241 28.9281 21.8484 28.9281 17.6728C28.8478 17.6314 28.7674 17.59 28.6871 17.5486C27.8288 18.8303 26.9705 20.1119 26.0604 21.4653Z" fill="white"/>
<path d="M153.075 30.1841C153.048 29.7959 153.065 29.4836 153.09 29.0037C150.778 31.0069 148.215 31.3216 145.525 30.5956C142.977 29.9078 141.644 28.0539 141.17 25.5348C139.995 19.2798 145.222 13.1493 151.593 13.2819C153.149 13.3142 154.44 13.8864 155.641 15.1671C155.765 13.4774 156.921 13.83 157.887 13.8188C158.859 13.8076 159.832 13.8163 161.028 13.8163C160.75 15.4183 160.514 16.8744 160.242 18.3236C159.552 21.9926 158.823 25.6547 158.162 29.3289C158.02 30.1215 157.718 30.4346 156.895 30.3762C155.64 30.2871 154.378 30.2938 153.075 30.1841ZM146.794 24.8296C147.728 26.1958 149.075 26.5022 150.569 26.1335C152.779 25.5883 153.999 24.0549 154.466 21.8897C154.796 20.3563 153.942 18.811 152.487 18.2503C150.856 17.6219 149.034 18.1345 147.619 19.6203C146.21 21.0993 145.89 22.8691 146.794 24.8296Z" fill="white"/>
<path d="M50.9614 14.2117C52.5735 13.9964 54.1634 13.8766 55.9757 13.7401C54.9156 19.3931 53.9012 24.8027 52.8759 30.2701C51.2548 30.2701 49.6773 30.2701 48.0283 30.2701C48.0283 29.8661 48.0283 29.4785 48.0283 28.9038C46.3855 30.3719 44.5905 30.9427 42.5558 30.8952C38.9781 30.8115 36.4665 28.5674 36.0587 25.0193C35.4467 19.6952 39.1864 14.5354 44.4625 13.4853C46.8299 13.0141 49.024 13.2576 50.6515 15.4752C50.7676 15.0037 50.8534 14.6555 50.9614 14.2117ZM44.745 18.1441C42.9525 18.6876 41.86 19.9345 41.3063 21.6581C40.4567 24.3026 42.1718 26.4738 44.9306 26.2658C46.7094 26.1316 47.9614 25.164 48.8174 23.6575C49.6342 22.2203 49.8861 20.7148 48.8896 19.2851C47.9244 17.9002 46.4751 17.7698 44.745 18.1441Z" fill="white"/>
<path d="M199.367 18.0773C197.732 18.42 197.041 19.5319 196.759 20.9226C196.228 23.5486 195.721 26.1815 195.3 28.8267C195.112 30.0058 194.639 30.5092 193.394 30.3856C192.287 30.2757 191.159 30.3625 189.903 30.3625C190.777 25.6705 191.599 21.25 192.424 16.8299C192.945 14.0366 193.501 11.2492 193.971 8.44745C194.108 7.626 194.449 7.36648 195.25 7.40063C196.504 7.45416 197.763 7.41483 199.216 7.41483C198.763 9.98054 198.338 12.3873 197.913 14.794C199.386 13.7236 200.893 13.2112 202.651 13.2719C205.892 13.3838 207.83 15.3327 207.446 18.5286C207.093 21.4645 206.485 24.3724 205.924 27.2802C205.329 30.3704 205.295 30.364 202.177 30.3626C201.653 30.3624 201.129 30.3626 200.355 30.3626C200.594 28.9154 200.79 27.6207 201.026 26.3332C201.354 24.5367 201.742 22.7507 202.05 20.9508C202.4 18.9009 201.47 17.8859 199.367 18.0773Z" fill="white"/>
<path d="M72.286 27.2601C72.089 28.3181 71.9057 29.272 71.7132 30.2742C70.062 30.2742 68.4488 30.2742 66.7117 30.2742C68.1423 22.6262 69.5571 15.0628 70.9731 7.49268C72.6758 7.49268 74.2584 7.49268 75.9814 7.49268C75.2232 11.547 74.4765 15.5402 73.83 18.9973C75.2915 17.6884 77.0237 16.0926 78.8151 14.5657C79.231 14.2113 79.8391 13.9269 80.3754 13.8957C81.9069 13.8066 83.4469 13.8644 84.9835 13.8644C85.066 13.9776 85.1485 14.0908 85.2309 14.204C84.8648 14.4821 84.4706 14.7304 84.1373 15.0433C82.2378 16.8265 80.373 18.6471 78.4506 20.4052C77.867 20.9389 77.8178 21.3672 78.1644 22.0621C79.3238 24.3866 80.4114 26.7467 81.5204 29.0961C81.6884 29.4519 81.824 29.823 82.0365 30.3367C80.2459 30.3367 78.588 30.3708 76.9344 30.3029C76.661 30.2916 76.2928 29.8823 76.161 29.5749C75.3297 27.6354 74.555 25.6718 73.7556 23.7187C73.6263 23.4028 73.4668 23.0992 73.1841 22.4983C72.8501 24.2575 72.5749 25.7068 72.286 27.2601Z" fill="white"/>
<path d="M91.6678 30.7131C85.7038 31.6461 81.5943 27.1457 83.0709 21.4315C84.4622 16.0476 90.2248 12.3133 95.2798 13.5427C99.819 14.6466 101.267 19.0493 100.135 23.0889C100.065 23.3395 99.457 23.584 99.0967 23.5881C95.7523 23.6261 92.4074 23.6106 89.0626 23.6107C88.6183 23.6107 88.174 23.6107 87.7398 23.6107C87.5766 25.0458 88.188 26.0403 89.4836 26.4669C90.8523 26.9175 92.2009 26.785 93.2981 25.8599C94.0266 25.2455 94.7599 25.1062 95.6406 25.1393C96.7671 25.1815 97.8965 25.1495 99.2746 25.1495C97.336 28.0599 95.0221 29.9995 91.6678 30.7131ZM90.3106 20.2449C92.0788 20.2449 93.8469 20.2449 95.6264 20.2449C95.454 18.5308 94.5563 17.6469 92.9748 17.4942C90.9338 17.2971 88.9885 18.4578 88.4824 20.2449C89.0282 20.2449 89.5507 20.2449 90.3106 20.2449Z" fill="white"/>
<path d="M177.838 20.906C177.669 21.9024 177.348 22.8368 177.455 23.7196C177.713 25.8529 180.079 26.8178 182.355 25.8255C182.578 25.7285 182.801 25.6138 182.991 25.4662C183.593 25.0009 184.136 24.1907 184.781 24.1039C186.298 23.9002 187.86 24.0387 189.616 24.0387C189.345 24.6098 189.191 25.0611 188.937 25.4481C186.671 28.911 183.587 30.9433 179.308 30.8923C175.199 30.8432 172.295 28.0186 172.19 23.9397C172.017 17.2223 179.045 11.6945 185.348 13.623C188.197 14.4949 189.811 16.4603 190.262 19.4031C190.362 20.0563 190.164 20.3302 189.528 20.3313C188.305 20.3334 187.08 20.3654 185.859 20.3092C185.558 20.2954 185.169 20.0608 184.993 19.8083C183.395 17.5062 180.562 17.3396 178.735 19.4922C178.397 19.8903 178.162 20.3755 177.838 20.906Z" fill="white"/>
<path d="M166.583 10.1152C166.627 9.19682 167.053 8.89902 167.866 8.9373C168.947 8.98826 170.033 8.94988 171.227 8.94988C170.953 10.6454 170.712 12.1393 170.444 13.8025C171.517 13.8025 172.394 13.8025 173.465 13.8025C173.251 15.0322 173.152 16.1165 172.828 17.1286C172.735 17.418 171.992 17.6296 171.535 17.6522C169.331 17.7615 169.746 17.29 169.305 19.5714C168.689 22.7566 168.093 25.9458 167.532 29.1408C167.369 30.0687 166.954 30.4445 165.983 30.3817C164.777 30.3035 163.561 30.3629 162.193 30.3629C162.979 26.088 163.73 22.0021 164.503 17.7983C163.674 17.7142 163.004 17.6463 162.182 17.5629C162.375 16.4385 162.532 15.371 162.763 14.32C162.809 14.1156 163.127 13.865 163.355 13.8231C165.381 13.4498 166.335 12.1571 166.583 10.1152Z" fill="white"/>
<path d="M110.04 17.6563C109.002 17.445 108.974 18.1288 108.863 18.7195C108.197 22.2699 107.503 25.8155 106.894 29.3757C106.76 30.1611 106.474 30.3852 105.719 30.3538C104.428 30.3003 103.133 30.3391 101.728 30.3391C102.523 26.0498 103.29 21.9163 104.077 17.667C103.254 17.667 102.532 17.667 101.661 17.667C101.875 16.4864 102.043 15.4223 102.279 14.3733C102.327 14.1609 102.611 13.87 102.816 13.8442C105.124 13.5534 105.917 12.0163 106.131 9.96438C106.16 9.68824 106.265 9.42001 106.346 9.10547C107.782 9.10547 109.179 9.10547 110.668 9.10547C110.383 10.6993 110.114 12.2042 109.822 13.8414C110.849 13.8414 111.807 13.8414 112.911 13.8414C112.665 15.1967 112.445 16.4052 112.217 17.6563C111.453 17.6563 110.803 17.6563 110.04 17.6563Z" fill="white"/>
<path d="M63.0453 13.9004C63.1478 14.3544 63.1478 14.7806 63.1478 15.4131C64.3512 14.0501 65.7366 13.2565 67.67 13.3288C67.3922 14.8925 67.156 16.3941 66.8272 17.8753C66.781 18.0834 66.2952 18.2853 65.9889 18.3313C63.2817 18.7375 62.7024 19.2827 62.2025 21.9518C61.732 24.4633 61.2236 26.9682 60.7892 29.4858C60.6755 30.1451 60.4262 30.3721 59.7643 30.3513C58.4261 30.3093 57.0856 30.3388 55.5943 30.3388C56.6299 24.8197 57.6432 19.4191 58.6839 13.8727C60.117 13.8727 61.5299 13.8727 63.0453 13.9004Z" fill="white"/>
</g>
<defs>
<clipPath id="clip0_1_1691">
<rect width="209" height="31" fill="white" transform="translate(0 0.625)"/>
</clipPath>
</defs>
</svg>
