<svg width="161" height="30" viewBox="0 0 161 30" fill="none" xmlns="http://www.w3.org/2000/svg">
<path d="M12.1653 0.490559C7.83214 1.18572 3.86973 3.94319 1.76107 7.78974C0.46344 10.1069 0 12.007 0 14.8804C0 18.7501 1.13543 21.7856 3.61483 24.5894C4.75026 25.8639 7.83214 28.0884 8.43461 28.0884C8.61999 28.0884 8.85171 28.1811 8.92122 28.3201C8.99074 28.436 9.33832 28.5519 9.66273 28.5519H10.2652L9.66273 28.0884C9.33832 27.8335 8.92122 27.6713 8.75902 27.7408C8.57364 27.8104 8.31875 27.6482 8.17972 27.3469C5.76983 22.2954 5.14419 18.3098 5.90886 13.2352C6.48816 9.31909 7.29918 7.69705 8.61999 7.69705C9.61638 7.69705 10.3579 8.57759 10.5433 9.92157C10.6823 11.1033 11.6787 15.3902 12.5129 18.3562C13.3471 21.3685 13.6483 23.1296 13.7873 25.9334C13.9495 29.1775 13.8337 29.5483 12.7446 28.7604C12.2116 28.3665 11.9568 28.297 11.8872 28.4823C11.8177 28.6446 11.447 28.8068 11.053 28.8068C10.4969 28.8299 10.6128 28.8994 11.586 29.0848C13.1617 29.4092 15.6874 29.4092 17.379 29.0848C18.5376 28.8531 18.584 28.8299 17.7961 28.8068C17.1241 28.7836 16.9156 28.6909 16.8924 28.3665C16.8924 28.1348 16.8229 28.0884 16.7534 28.2506C16.707 28.4128 16.5216 28.5519 16.3363 28.5519C16.1741 28.5519 15.9192 28.7141 15.757 28.8994C15.224 29.5251 15.0618 28.9921 15.0618 26.7444C15.0618 24.1955 15.4326 21.9478 16.4521 18.1245C17.7266 13.351 17.8424 12.8644 18.19 10.8021C18.4681 9.11055 18.6303 8.64711 19.1169 8.20684C21.156 6.44576 22.6159 8.87883 23.1488 14.9962C23.4732 18.8196 22.9866 21.832 21.3878 25.7712C20.6231 27.6482 20.4377 27.903 19.9048 27.7408C19.6499 27.6482 19.4645 27.6945 19.4645 27.8104C19.4645 27.9262 19.2328 28.1348 18.9547 28.2738C18.4217 28.5055 18.4217 28.5287 19.0474 28.5287C20.4377 28.575 23.9367 26.1883 25.8136 23.9175C29.4748 19.4916 29.9614 12.5632 26.949 7.51168C25.2111 4.56883 22.0598 2.04308 18.8157 1.00034C17.1705 0.467386 13.9264 0.235666 12.1653 0.490559ZM14.7837 6.19087C14.9228 6.51528 15.363 6.95555 15.7338 7.18727L16.4058 7.60437L15.5021 8.34587C15.0155 8.76297 14.5984 9.27275 14.5984 9.45813C14.5984 10.0143 14.274 9.82888 13.9495 9.08737C13.7642 8.69345 13.3239 8.20684 12.93 8.02146L12.2348 7.65071L12.9532 7.21044C13.3471 6.97872 13.8105 6.51528 13.9495 6.19087C14.0886 5.86646 14.274 5.61157 14.3666 5.61157C14.4593 5.61157 14.6447 5.86646 14.7837 6.19087Z" fill="white"/>
<path d="M7.64821 9.20832C7.48601 9.41687 7.39332 9.60225 7.43966 9.67176C7.50918 9.71811 7.67138 9.5559 7.83359 9.32418C8.158 8.76805 8.06531 8.72171 7.64821 9.20832Z" fill="white"/>
<path d="M19.5834 9.08859C19.5139 9.20445 19.5603 9.32031 19.6761 9.32031C19.8152 9.32031 19.931 9.20445 19.931 9.08859C19.931 8.94956 19.8847 8.85687 19.8383 8.85687C19.7688 8.85687 19.653 8.94956 19.5834 9.08859Z" fill="white"/>
<path d="M21.1061 9.45545C21.1061 9.71035 21.1756 9.77986 21.2451 9.59449C21.3147 9.43228 21.2915 9.22373 21.222 9.15422C21.1525 9.06153 21.0829 9.20056 21.1061 9.45545Z" fill="white"/>
<path d="M9.54492 10.7116C9.54492 11.0361 9.59127 11.1519 9.66078 10.9897C9.70713 10.8507 9.70713 10.5726 9.66078 10.4104C9.59127 10.2714 9.54492 10.3872 9.54492 10.7116Z" fill="white"/>
<path d="M42.5203 10.7262C42.0337 10.958 41.3385 11.4446 40.9909 11.769L40.3421 12.3714L40.2726 11.6068L40.2031 10.8189H38.581H36.959V11.6299C36.959 12.3714 37.0285 12.441 37.77 12.5568L38.581 12.6727L38.6505 17.4693L38.6969 22.2891H39.5079H40.3189V18.512V14.735L41.0141 13.6227C42.1263 11.8848 43.9338 11.375 45.4399 12.3946C46.8534 13.3215 47.0388 14.0398 47.0388 18.3962V22.2891H47.8498H48.6608V18.6974C48.6608 14.6886 48.8231 13.9935 50.0512 12.8117C51.4878 11.4677 53.805 11.6531 54.8478 13.2288C55.3576 13.9703 55.3807 14.2252 55.3807 18.1413V22.2891H57.0955C58.5785 22.2891 58.8334 22.2195 58.9724 21.8488C59.1809 21.1536 58.8565 20.6902 58.0919 20.6207L57.3503 20.5512L57.2345 17.1912C57.0723 13.4605 56.8637 12.6727 55.5893 11.4677C53.805 9.79935 51.2793 9.93838 49.4024 11.8153L48.3828 12.8349L47.6645 11.9775C46.3205 10.3323 44.2813 9.8457 42.5203 10.7262Z" fill="white"/>
<path d="M65.2978 10.5448C62.2159 11.5644 60.339 14.739 61.0573 17.7745C61.7757 20.9027 63.977 22.6406 67.1979 22.6406C69.2139 22.6406 70.2566 22.2235 71.6238 20.8796C72.6665 19.86 72.736 19.4661 71.9713 18.9794C71.4616 18.6319 71.392 18.655 70.6505 19.4197C69.5383 20.5783 68.6809 20.9259 67.0357 20.9259C65.8076 20.9259 65.4368 20.8332 64.5795 20.2307C63.6062 19.5819 62.4708 17.7977 62.7257 17.3574C62.7721 17.2647 65.0429 17.1952 67.754 17.1952C73.5239 17.1952 73.4312 17.2184 72.9909 15.3183C72.8287 14.6463 72.5506 13.8353 72.3884 13.5109C71.9018 12.6071 70.5347 11.2632 69.5846 10.8229C68.5419 10.3131 66.4101 10.1741 65.2978 10.5448ZM69.2602 12.584C70.2798 13.1633 70.9286 13.9975 70.9749 14.8317L71.0213 15.4573L67.0125 15.5268C62.5172 15.5963 62.355 15.5268 63.2587 14.067C64.5331 12.0047 67.1052 11.3559 69.2602 12.584Z" fill="white"/>
<path d="M82.5846 10.5872C82.1907 10.7726 81.5882 11.236 81.2406 11.6299C80.6382 12.3714 80.5223 12.3251 80.3601 11.2824C80.2906 10.8421 80.1052 10.8189 77.8575 10.8189H75.4245V11.6299V12.441L77.0465 12.5568L78.6685 12.6727V16.6119V20.5512L77.0002 20.6207L75.3086 20.6902V21.478V22.2891H80.082H84.8323L84.7628 21.5244L84.6933 20.7829L82.6078 20.667L80.5223 20.5512L80.4528 17.9096C80.3833 14.9667 80.7308 13.4605 81.6577 12.58C82.3065 11.9775 83.5347 11.7458 84.4152 12.0702C84.925 12.2788 85.0408 12.4641 85.0408 13.1129C85.0408 14.5728 86.5007 15.2216 87.2653 14.063C87.9837 12.9739 87.0568 11.3055 85.3421 10.5872C84.3457 10.1701 83.5347 10.1701 82.5846 10.5872Z" fill="white"/>
<path d="M93.9631 10.5238C91.8081 11.2421 90.4873 12.4239 89.6994 14.2545C88.425 17.2436 89.908 20.9048 92.9898 22.2951C95.1912 23.3147 98.3426 22.6659 100.057 20.8353C100.891 19.9779 100.961 19.3755 100.289 18.9584C99.9646 18.7498 99.7097 18.8657 99.0146 19.5145C97.8791 20.5572 97.4157 20.8121 96.2339 20.9975C94.9595 21.2292 93.546 20.8121 92.5264 19.9084C89.514 17.2668 91.391 12.0995 95.3766 12.0995C97.3694 12.0995 98.8987 12.98 98.5975 13.9532C98.1109 15.5057 100.266 16.4326 101.031 14.996C101.401 14.2776 101.17 13.6288 100.034 12.4007C98.4353 10.6628 95.8863 9.87494 93.9631 10.5238Z" fill="white"/>
<path d="M126.563 10.7262C126.007 11.0043 125.428 11.4214 125.289 11.6531C124.918 12.2556 124.663 12.2092 124.663 11.5373C124.663 10.8189 124.316 10.7031 121.883 10.7031C119.635 10.7031 119.172 10.9348 119.426 11.9775C119.565 12.5336 119.658 12.5568 121.187 12.5568H122.81L122.763 16.5424L122.694 20.5512L121.072 20.667L119.45 20.7829L119.38 21.5244L119.311 22.2891H124.061H128.834V21.478V20.667H126.749H124.663V17.6778C124.663 14.4569 124.895 13.5532 125.891 12.6032C126.656 11.8848 127.954 11.6995 128.718 12.1861C129.159 12.4873 129.275 12.719 129.182 13.0434C128.95 13.7618 129.645 14.6423 130.456 14.6423C130.989 14.6423 131.221 14.4801 131.499 13.9471C131.8 13.3447 131.823 13.1593 131.522 12.5105C131.128 11.5604 130.34 10.8421 129.321 10.4945C128.209 10.1238 127.699 10.1701 126.563 10.7262Z" fill="white"/>
<path d="M152.331 10.5314C150.964 10.879 149.226 12.2693 148.485 13.6133C147.952 14.5633 147.836 15.0731 147.836 16.4634C147.836 18.5026 148.369 19.8234 149.736 21.0283C152.818 23.8089 157.267 23.137 159.376 19.5685C159.932 18.6184 160.001 18.2477 160.001 16.5098C160.001 14.7719 159.932 14.4243 159.352 13.4279C158.588 12.1534 157.082 10.9948 155.645 10.5546C154.533 10.207 153.675 10.207 152.331 10.5314ZM156.155 12.5937C159.121 14.4011 159.283 18.3172 156.479 20.2405C155.622 20.8429 155.205 20.9588 154.069 20.982C152.494 20.982 151.729 20.6807 150.686 19.5685C149.736 18.5721 149.365 17.4366 149.527 16C149.829 13.5901 151.52 12.1071 153.977 12.1071C154.973 12.1071 155.599 12.2461 156.155 12.5937Z" fill="white"/>
<path d="M21.5977 11.054C21.5977 11.4247 21.644 11.5637 21.7135 11.332C21.7599 11.1235 21.7599 10.7991 21.7135 10.6369C21.644 10.4978 21.5977 10.66 21.5977 11.054Z" fill="white"/>
<path d="M103.207 11.0328C103.138 11.2182 103.114 11.6121 103.161 11.9133C103.207 12.3304 103.416 12.4694 104.041 12.5621L104.852 12.678L104.968 16.2697C105.084 19.7223 105.107 19.9077 105.733 20.8114C106.521 21.9931 107.934 22.7578 109.255 22.7578C110.483 22.7578 111.294 22.4334 112.383 21.5065L113.194 20.8114L113.264 21.5529L113.333 22.2944H115.071H116.786V21.5065C116.786 20.7418 116.74 20.6955 115.929 20.626L115.048 20.5565L114.932 15.6904L114.816 10.8242H114.121H113.426L113.31 14.8098L113.194 18.7722L112.476 19.6759C111.734 20.6028 110.506 21.3443 109.719 21.3443C108.884 21.3443 107.656 20.5796 107.17 19.7455C106.776 19.0271 106.683 18.4246 106.59 14.8793L106.474 10.8242L104.899 10.7547C103.694 10.7084 103.3 10.7547 103.207 11.0328Z" fill="white"/>
<path d="M133.33 11.033C133.261 11.2184 133.238 11.6123 133.284 11.9135C133.33 12.3306 133.516 12.4697 134.188 12.516C135.114 12.5855 135.161 12.6782 136.945 17.0809C137.362 18.1005 137.895 19.3517 138.104 19.8615C138.335 20.3713 138.683 21.2055 138.892 21.7153L139.285 22.6653L138.22 25.3996C137.617 26.9058 137.2 28.273 137.269 28.4583C137.432 28.8523 138.428 28.8754 138.729 28.4815C138.868 28.3425 139.563 26.6278 140.282 24.7276C145.31 11.5891 144.824 12.7014 145.75 12.6087C146.631 12.516 146.909 12.2611 146.909 11.4733C146.909 10.8013 146.376 10.6622 143.897 10.7549L141.927 10.8244V11.6355C141.927 12.3075 142.02 12.4697 142.46 12.516C142.738 12.5623 142.97 12.7245 142.97 12.8636C142.97 13.1416 141.881 16.015 141.116 17.776C140.907 18.2858 140.653 18.981 140.56 19.3286C140.305 20.3713 139.888 19.8615 138.845 17.2431C138.289 15.8759 137.64 14.3466 137.408 13.8368C136.945 12.8172 136.991 12.5623 137.64 12.5623C138.127 12.5623 138.498 11.6586 138.243 11.0562C138.057 10.5696 133.516 10.5464 133.33 11.033Z" fill="white"/>
<path d="M6.99805 11.4031C6.99805 11.7275 7.04439 11.8433 7.11391 11.6811C7.16025 11.5421 7.16025 11.264 7.11391 11.1018C7.04439 10.9628 6.99805 11.0786 6.99805 11.4031Z" fill="white"/>
<path d="M22.1035 16.6161C22.1035 18.5162 22.1499 19.2809 22.173 18.2845C22.2194 17.2881 22.2194 15.7356 22.173 14.8087C22.1499 13.8818 22.1035 14.6928 22.1035 16.6161Z" fill="white"/>
<path d="M6.58398 16.7363C6.58398 18.1961 6.60716 18.7986 6.6535 18.0571C6.69984 17.3388 6.69984 16.1338 6.6535 15.3923C6.60716 14.674 6.58398 15.2765 6.58398 16.7363Z" fill="white"/>
<path d="M10.0352 17.6666C10.0352 18.2459 10.0815 18.4776 10.1278 18.1764C10.1742 17.8983 10.1742 17.4349 10.1278 17.1336C10.0815 16.8556 10.0352 17.0873 10.0352 17.6666Z" fill="white"/>
<path d="M6.99805 21.3718C6.99805 21.6962 7.04439 21.8121 7.11391 21.6499C7.16025 21.5108 7.16025 21.2328 7.11391 21.0706C7.04439 20.9315 6.99805 21.0474 6.99805 21.3718Z" fill="white"/>
<path d="M21.5977 21.7102C21.5977 22.081 21.644 22.22 21.7135 21.9883C21.7599 21.7797 21.7599 21.4553 21.7135 21.2931C21.644 21.1541 21.5977 21.3163 21.5977 21.7102Z" fill="white"/>
<path d="M21.1328 23.2234C21.1328 23.5478 21.1792 23.6636 21.2487 23.5014C21.295 23.3624 21.295 23.0843 21.2487 22.9221C21.1792 22.7831 21.1328 22.899 21.1328 23.2234Z" fill="white"/>
<path d="M10.4727 24.8456C10.4727 25.2858 10.519 25.4712 10.5885 25.2395C10.6349 25.031 10.6349 24.6602 10.5885 24.4285C10.519 24.2199 10.4727 24.4053 10.4727 24.8456Z" fill="white"/>
<path d="M20.6491 24.5219C20.6491 24.7768 20.7186 24.8463 20.7881 24.6609C20.8576 24.4987 20.8345 24.2901 20.7649 24.2206C20.6954 24.1279 20.6259 24.267 20.6491 24.5219Z" fill="white"/>
<path d="M18.0983 25.2133C18.0983 25.4682 18.1678 25.5377 18.2373 25.3523C18.3068 25.1901 18.2837 24.9815 18.2142 24.912C18.1446 24.8193 18.0751 24.9584 18.0983 25.2133Z" fill="white"/>
<path d="M8.4604 25.7722C8.39088 25.888 8.43722 26.0039 8.55308 26.0039C8.69212 26.0039 8.80798 25.888 8.80798 25.7722C8.80798 25.6332 8.76163 25.5405 8.71529 25.5405C8.64577 25.5405 8.52991 25.6332 8.4604 25.7722Z" fill="white"/>
<path d="M20.1823 25.9125C20.1823 26.1674 20.2518 26.2369 20.3213 26.0515C20.3908 25.8893 20.3677 25.6808 20.2981 25.6112C20.2286 25.5186 20.1591 25.6576 20.1823 25.9125Z" fill="white"/>
<path d="M10.9375 26.4656C10.9375 26.79 10.9838 26.9058 11.0534 26.7436C11.0997 26.6046 11.0997 26.3265 11.0534 26.1643C10.9838 26.0253 10.9375 26.1411 10.9375 26.4656Z" fill="white"/>
<path d="M11.3776 27.5297C11.3776 27.7846 11.4471 27.8541 11.5166 27.6687C11.5861 27.5065 11.563 27.298 11.4935 27.2284C11.4239 27.1357 11.3544 27.2748 11.3776 27.5297Z" fill="white"/>
</svg>
