<svg width="145" height="43" viewBox="0 0 145 43" fill="none" xmlns="http://www.w3.org/2000/svg">
<g clip-path="url(#clip0_1829_3905)">
<mask id="mask0_1829_3905" style="mask-type:luminance" maskUnits="userSpaceOnUse" x="0" y="0" width="145" height="43">
<path d="M145 0.597656H0V42.6216H145V0.597656Z" fill="white"/>
</mask>
<g mask="url(#mask0_1829_3905)">
<path d="M0.000400543 24.0665C0.000400543 34.314 8.30753 42.6213 18.5549 42.6213C28.8022 42.6213 37.1094 34.314 37.1094 24.0665C37.1094 13.819 28.8022 5.51172 18.5549 5.51172C8.30753 5.51172 0.000400543 13.819 0.000400543 24.0665Z" fill="white"/>
<path d="M34.4072 5.63525C34.4072 8.41743 36.6626 10.6728 39.4448 10.6728C42.227 10.6728 44.4824 8.41743 44.4824 5.63525C44.4824 2.85306 42.227 0.597656 39.4448 0.597656C36.6626 0.597656 34.4072 2.85306 34.4072 5.63525Z" fill="white"/>
<path d="M45.6875 33.2987H48.7186L50.5456 23.8116C50.8002 22.4695 51.0777 20.3406 51.0777 20.3406H51.1241C51.1241 20.3406 51.1473 22.3074 51.2401 23.5338L52.0275 33.2987H55.1743L59.7328 23.5112C60.3806 22.123 61.0981 20.3412 61.0981 20.3412H61.1445C61.1445 20.3412 60.6123 22.3776 60.3345 23.8122L58.5075 33.2993H61.5853L64.777 16.7542H60.0103L56.0306 25.3382C55.082 27.3972 54.3414 29.6189 54.3414 29.6189H54.3182C54.3182 29.6189 54.295 27.2357 54.11 24.9209L53.4853 16.7542H48.8807L45.6875 33.2987ZM69.4049 33.6467C73.4541 33.6467 75.9995 30.3146 75.9995 26.5199C75.9995 23.0028 73.5466 21.1054 70.5156 21.1054C66.4663 21.1054 63.8284 24.3679 63.8284 28.1164C63.8284 31.7472 66.3042 33.6458 69.4049 33.6458V33.6467ZM66.9288 28.3005C66.9288 26.0095 67.9699 23.4413 70.3534 23.4413C72.1804 23.4413 72.8988 24.8759 72.8988 26.4263C72.8988 28.6938 71.8806 31.3087 69.4742 31.3087C67.6463 31.3087 66.9288 29.9202 66.9288 28.3005ZM81.6913 33.6458C85.7406 33.6458 88.2859 30.3137 88.2859 26.5191C88.2859 23.002 85.8331 21.1045 82.802 21.1045C78.7533 21.1042 76.1143 24.367 76.1143 28.1155C76.1143 31.7472 78.5909 33.6458 81.6916 33.6458H81.6913ZM79.2156 28.3005C79.2156 26.0095 80.2567 23.4413 82.6402 23.4413C84.4672 23.4413 85.1855 24.8759 85.1855 26.4263C85.1855 28.6938 84.1673 31.3087 81.7609 31.3087C79.933 31.3087 79.2156 29.9202 79.2156 28.3005ZM93.1683 21.4275H90.1372L87.8462 33.2978H90.9469L92.1965 26.8189C92.5205 25.0836 93.5619 23.7415 95.0194 23.7415C96.3383 23.7415 96.9401 24.5975 96.639 26.1711L95.2508 33.2987H98.3515L99.7861 25.8022C100.318 23.0254 98.9532 21.1042 96.5929 21.1042C94.9037 21.1042 93.9087 21.8446 92.8908 23.3024H92.8215L93.1683 21.4275ZM99.8093 33.2978H103.234L104.389 27.3056H108.415C112.118 27.3056 114.64 25.1767 114.64 21.6363C114.64 18.5357 112.534 16.7539 109.364 16.7539H103.002L99.8093 33.2978ZM105.87 19.6458H108.925C110.429 19.6458 111.216 20.4558 111.216 21.7976C111.216 23.7644 109.804 24.5975 108.254 24.5975H104.923L105.87 19.6458ZM120.588 33.2987H123.526V33.1827C123.341 32.9052 123.272 32.3498 123.434 31.5398L124.544 25.848C125.192 22.4002 122.971 21.1277 120.032 21.1277C116.978 21.1277 115.102 22.6087 114.71 25.0383H117.487C117.765 23.8583 118.621 23.3491 119.917 23.3491C121.097 23.3491 121.768 23.8131 121.768 24.668C121.768 25.848 120.912 25.9405 118.69 26.1258C115.798 26.3578 113.299 26.9358 113.299 30.0826C113.299 32.5354 115.242 33.5765 117.071 33.5765C118.782 33.5765 119.662 32.7665 120.38 32.003H120.426C120.38 32.4416 120.436 32.8848 120.588 33.2987ZM116.284 29.8042C116.284 28.1845 117.927 28.2539 119.061 28.0456C119.839 27.9421 120.601 27.7399 121.328 27.4439L120.958 29.3182C120.726 30.4057 119.685 31.4238 118.065 31.4238C117.025 31.4244 116.284 30.8691 116.284 29.8042ZM123.55 37.1861H125.493C127.784 37.1861 128.801 36.2605 129.982 33.8772L136.115 21.4284H132.967L130.514 26.8198C130.005 27.9305 129.427 29.504 129.427 29.504H129.38C129.38 29.504 129.195 27.9073 129.032 26.8198L128.222 21.4284H124.983L126.694 29.8741C126.907 30.7471 127.039 31.6379 127.087 32.5351C127.087 34.0162 126.347 34.7333 125.028 34.7333H124.033L123.55 37.1861Z" fill="white"/>
<path d="M137.455 17.1376H138.647L137.981 20.5735H138.809L139.474 17.1376H140.671L140.805 16.4375H137.588L137.455 17.1376ZM140.226 20.5735H140.984L141.441 18.2019C141.504 17.8663 141.574 17.3342 141.574 17.3342H141.586C141.586 17.3342 141.591 17.8272 141.615 18.1326L141.811 20.5738H142.598L143.738 18.1267C143.9 17.7787 144.079 17.3342 144.079 17.3342H144.091C144.091 17.3342 143.957 17.8431 143.888 18.2019L143.431 20.5735H144.2L144.998 16.4375H143.806L142.811 18.5835C142.574 19.0982 142.389 19.6536 142.389 19.6536H142.385C142.385 19.6536 142.379 19.0576 142.333 18.4794L142.177 16.4375H141.025L140.226 20.5735Z" fill="white"/>
</g>
</g>
<defs>
<clipPath id="clip0_1829_3905">
<rect width="145" height="42.0239" fill="white" transform="translate(0 0.597656)"/>
</clipPath>
</defs>
</svg>
