<svg width="26" height="27" viewBox="0 0 26 27" fill="none" xmlns="http://www.w3.org/2000/svg">
<rect width="26" height="25.8829" rx="12.9414" transform="matrix(1 0 0 -1 0 26.6484)" fill="#A4A4A4" fill-opacity="0.09"/>
<path d="M17.0817 8.78126C16.8922 8.83986 16.7985 8.92581 16.5348 9.28329C16.4332 9.42198 16.0777 9.90447 15.7436 10.3557C15.4096 10.807 15.0072 11.352 14.8529 11.5668C13.462 13.4792 12.6533 14.9443 12.1787 16.4132L12.1142 16.6086L11.4676 15.964C10.3229 14.8193 9.30519 13.909 9.02976 13.7781C8.75823 13.6492 8.4242 13.7156 8.1976 13.9422C8.06868 14.0691 8.01203 14.1922 8.00226 14.3543C7.98663 14.6024 8.04328 14.6845 8.45155 15.0263C9.21533 15.6651 9.90293 16.3175 11.114 17.5482C11.6083 18.0502 12.0419 18.4858 12.0771 18.5151C12.2978 18.6929 12.7373 18.6929 12.96 18.5151C13.0909 18.4096 13.1319 18.3139 13.1944 17.9682C13.4796 16.425 14.2063 14.8564 15.5053 12.9831C15.7554 12.6217 16.4469 11.6743 16.8649 11.1175C17.531 10.2287 17.91 9.70718 17.9529 9.61342C18.0096 9.49426 18.0155 9.29696 17.9686 9.18171C17.8631 8.92777 17.5877 8.76173 17.279 8.76563C17.197 8.76563 17.1091 8.77345 17.0817 8.78126Z" fill="url(#paint0_linear_2442_6643)"/>
<defs>
<linearGradient id="paint0_linear_2442_6643" x1="13" y1="18.6484" x2="13" y2="8.76557" gradientUnits="userSpaceOnUse">
<stop stop-color="#2E8CFF"/>
<stop offset="1" stop-color="#38BEFF"/>
</linearGradient>
</defs>
</svg>
