<svg width="150" height="150" viewBox="0 0 150 150" fill="none" xmlns="http://www.w3.org/2000/svg">
<rect width="150" height="150" fill="#F7F7F7"/>
<mask id="mask0_3406_6207" style="mask-type:alpha" maskUnits="userSpaceOnUse" x="19" y="42" width="70" height="44">
<path d="M19 46C19 43.7909 20.7909 42 23 42H85C87.2091 42 89 43.7909 89 46V82C89 84.2091 87.2091 86 85 86H23C20.7909 86 19 84.2091 19 82V46Z" fill="white"/>
</mask>
<g mask="url(#mask0_3406_6207)">
<path d="M14 42L14 86H94V42L14 42Z" fill="#F0F0F0"/>
<path d="M53.9988 73.564C59.2815 73.564 63.564 69.2815 63.564 63.9988C63.564 58.7161 59.2815 54.4336 53.9988 54.4336C48.7161 54.4336 44.4336 58.7161 44.4336 63.9988C44.4336 69.2815 48.7161 73.564 53.9988 73.564Z" fill="#F44247"/>
</g>
<g filter="url(#filter0_d_3406_6207)">
<path d="M130 75H61C59.3431 75 58 76.3431 58 78V109C58 110.657 59.3431 112 61 112H130C131.657 112 133 110.657 133 109V78C133 76.3431 131.657 75 130 75Z" fill="#2C2C2C"/>
<path d="M130 76H61C59.8954 76 59 76.8954 59 78V109C59 110.105 59.8954 111 61 111H130C131.105 111 132 110.105 132 109V78C132 76.8954 131.105 76 130 76Z" stroke="#F7F7F7" stroke-width="2"/>
</g>
<path d="M72.5938 108.039C71.7734 108.039 71.0586 107.953 70.4492 107.781V104.758C71.0742 104.914 71.6445 104.992 72.1602 104.992C72.957 104.992 73.5273 104.742 73.8711 104.242C74.2148 103.75 74.3867 102.977 74.3867 101.922V85.8672H78.0195V101.898C78.0195 103.898 77.5625 105.422 76.6484 106.469C75.7344 107.516 74.3828 108.039 72.5938 108.039ZM87.9648 93.9297H89.1602C90.2773 93.9297 91.1133 93.7109 91.668 93.2734C92.2227 92.8281 92.5 92.1836 92.5 91.3398C92.5 90.4883 92.2656 89.8594 91.7969 89.4531C91.3359 89.0469 90.6094 88.8438 89.6172 88.8438H87.9648V93.9297ZM96.168 91.2109C96.168 93.0547 95.5898 94.4648 94.4336 95.4414C93.2852 96.418 91.6484 96.9062 89.5234 96.9062H87.9648V103H84.332V85.8672H89.8047C91.8828 85.8672 93.4609 86.3164 94.5391 87.2148C95.625 88.1055 96.168 89.4375 96.168 91.2109ZM116.602 103H111.984L104.531 90.0391H104.426C104.574 92.3281 104.648 93.9609 104.648 94.9375V103H101.402V85.8672H105.984L113.426 98.6992H113.508C113.391 96.4727 113.332 94.8984 113.332 93.9766V85.8672H116.602V103Z" fill="white"/>
<defs>
<filter id="filter0_d_3406_6207" x="46" y="67" width="91" height="53" filterUnits="userSpaceOnUse" color-interpolation-filters="sRGB">
<feFlood flood-opacity="0" result="BackgroundImageFix"/>
<feColorMatrix in="SourceAlpha" type="matrix" values="0 0 0 0 0 0 0 0 0 0 0 0 0 0 0 0 0 0 127 0" result="hardAlpha"/>
<feOffset dx="-4"/>
<feGaussianBlur stdDeviation="4"/>
<feColorMatrix type="matrix" values="0 0 0 0 0 0 0 0 0 0 0 0 0 0 0 0 0 0 0.15 0"/>
<feBlend mode="normal" in2="BackgroundImageFix" result="effect1_dropShadow_3406_6207"/>
<feBlend mode="normal" in="SourceGraphic" in2="effect1_dropShadow_3406_6207" result="shape"/>
</filter>
</defs>
</svg>
