<svg width="41" height="41" viewBox="0 0 41 41" fill="none" xmlns="http://www.w3.org/2000/svg">
<rect x="0.5" y="0.5" width="40" height="40" rx="5" fill="#003B70"/>
<path d="M15.2878 25.8451L15.2401 25.8912C14.4712 26.6746 13.5814 27.0897 12.6644 27.0897C10.7504 27.0897 9.36109 25.6538 9.36109 23.6727C9.36109 21.6951 10.7504 20.2572 12.6644 20.2572C13.5814 20.2572 14.4712 20.6741 15.2401 21.4595L15.2878 21.507L16.5187 20.0186L16.4858 19.9782C15.4621 18.7686 14.2339 18.1797 12.7239 18.1797C11.2086 18.1797 9.82352 18.6896 8.82525 19.6093C7.74064 20.6052 7.16797 22.0096 7.16797 23.6727C7.16797 25.3349 7.74064 26.7429 8.82525 27.7391C9.82352 28.6629 11.2086 29.1701 12.7239 29.1701C14.2339 29.1701 15.4621 28.5815 16.4858 27.3714L16.5187 27.3338L15.2878 25.8451Z" fill="#F9F9F9"/>
<path d="M17.7617 28.9668H19.9363V18.3516H17.7617V28.9668Z" fill="#F9F9F9"/>
<path d="M28.4544 26.659C27.8741 27.0123 27.3344 27.1898 26.8495 27.1898C26.1469 27.1898 25.8294 26.819 25.8294 25.9931V20.3606H28.044V18.3616H25.8294V15.0586L23.6981 16.1992V18.3616H21.8594V20.3606H23.6981V26.3524C23.6981 27.985 24.6651 29.1002 26.1085 29.129C27.0887 29.1482 27.6797 28.8565 28.0384 28.6429L28.0594 28.6271L28.5829 26.5805L28.4544 26.659Z" fill="#F9F9F9"/>
<path d="M30.2539 28.9668H32.4299V18.3516H30.2539V28.9668Z" fill="#F9F9F9"/>
<path fill-rule="evenodd" clip-rule="evenodd" d="M33.7337 16.4685C31.7433 13.649 28.4374 11.9668 25.074 11.9668C21.712 11.9668 18.4056 13.649 16.4184 16.4685L16.3164 16.6136H18.8228L18.8506 16.5835C20.5565 14.8228 22.7834 13.8917 25.074 13.8917C27.3649 13.8917 29.5913 14.8228 31.3006 16.5835L31.3284 16.6136H33.834L33.7337 16.4685Z" fill="#DA431D"/>
</svg>
