<svg width="37" height="36" viewBox="0 0 37 36" fill="none" xmlns="http://www.w3.org/2000/svg">
<path d="M13.1328 27.8893V34.082H21.8619C22.1674 34.0821 22.47 34.0219 22.7522 33.9051C23.0345 33.7882 23.291 33.6168 23.5071 33.4008L33.8166 23.0912C34.2536 22.6552 34.4996 22.0634 34.5005 21.4461V12.7305H28.3078V25.5603C28.3082 25.8683 28.2474 26.1733 28.1289 26.4576C28.0105 26.7419 27.8368 26.9999 27.6179 27.2166C27.399 27.4332 27.1392 27.6042 26.8537 27.7197C26.5681 27.8352 26.2625 27.8928 25.9545 27.8893H13.1328Z" fill="#37ABFF" stroke="#37ABFF" stroke-width="2.27" stroke-miterlimit="10"/>
<path d="M23.865 8.29042V2.09766H15.1359C14.8304 2.09762 14.5279 2.15776 14.2456 2.27464C13.9633 2.39152 13.7069 2.56286 13.4908 2.77887L3.1812 13.0884C2.96519 13.3045 2.79386 13.561 2.67697 13.8433C2.56009 14.1255 2.49996 14.4281 2.5 14.7336V23.4573H8.69276V10.6167C8.69276 10.311 8.75302 10.0083 8.8701 9.72588C8.98717 9.44346 9.15877 9.18689 9.37507 8.97084C9.59138 8.75478 9.84814 8.58348 10.1307 8.46673C10.4132 8.34998 10.716 8.29007 11.0218 8.29042H23.865Z" fill="#37ABFF" stroke="#37ABFF" stroke-width="2.27" stroke-miterlimit="10"/>
</svg>
