<svg width="150" height="150" viewBox="0 0 150 150" fill="none" xmlns="http://www.w3.org/2000/svg">
<rect width="150" height="150" fill="#429B54"/>
<path d="M150 99H0V150H150V99Z" fill="black" fill-opacity="0.4"/>
<path d="M56.9102 134H47.043V116.867H56.9102V119.844H50.6758V123.605H56.4766V126.582H50.6758V131H56.9102V134ZM82.1836 134H78.0469L75.7266 125C75.6406 124.68 75.4922 124.02 75.2812 123.02C75.0781 122.012 74.9609 121.336 74.9297 120.992C74.8828 121.414 74.7656 122.094 74.5781 123.031C74.3906 123.961 74.2461 124.625 74.1445 125.023L71.8359 134H67.7109L63.3398 116.867H66.9141L69.1055 126.219C69.4883 127.945 69.7656 129.441 69.9375 130.707C69.9844 130.262 70.0898 129.574 70.2539 128.645C70.4258 127.707 70.5859 126.98 70.7344 126.465L73.2305 116.867H76.6641L79.1602 126.465C79.2695 126.895 79.4062 127.551 79.5703 128.434C79.7344 129.316 79.8594 130.074 79.9453 130.707C80.0234 130.098 80.1484 129.34 80.3203 128.434C80.4922 127.52 80.6484 126.781 80.7891 126.219L82.9688 116.867H86.543L82.1836 134ZM93.6992 134V116.867H97.332V131H104.281V134H93.6992Z" fill="white"/>
<path d="M116.101 35.2483C116.063 35.265 116.019 35.265 115.981 35.2483L99.5107 18.7083C99.4496 18.64 99.4496 18.5366 99.5107 18.4683C99.5411 18.4338 99.5848 18.4141 99.6307 18.4141C99.6767 18.4141 99.7204 18.4338 99.7507 18.4683L116.251 34.9583C116.285 34.9887 116.305 35.0324 116.305 35.0783C116.305 35.1242 116.285 35.1679 116.251 35.1983C116.209 35.2339 116.156 35.2518 116.101 35.2483Z" fill="white"/>
<path d="M99.6508 35.2612C99.6121 35.2758 99.5695 35.2758 99.5308 35.2612C99.4964 35.2309 99.4766 35.1872 99.4766 35.1412C99.4766 35.0953 99.4964 35.0516 99.5308 35.0212L116.021 18.5312C116.088 18.4714 116.19 18.4745 116.254 18.5381C116.318 18.6017 116.321 18.704 116.261 18.7712L99.7808 35.2212C99.7435 35.2493 99.6975 35.2635 99.6508 35.2612Z" fill="white"/>
<path d="M107.918 38.67C107.822 38.6701 107.743 38.5955 107.738 38.5V15.17C107.743 15.0745 107.822 14.9999 107.918 15C108.01 15.005 108.083 15.0782 108.088 15.17V38.5C108.083 38.5918 108.01 38.665 107.918 38.67Z" fill="white"/>
<path d="M119.58 27.008H96.2403C96.1465 27.008 96.0703 26.9319 96.0703 26.838C96.0703 26.7442 96.1465 26.668 96.2403 26.668H119.57C119.662 26.673 119.735 26.7463 119.74 26.838C119.74 26.9282 119.67 27.0027 119.58 27.008Z" fill="white"/>
<path d="M117.999 21.1781H97.7286C97.6332 21.1728 97.5585 21.0937 97.5586 20.9981C97.5636 20.9063 97.6369 20.8331 97.7286 20.8281H117.999C118.091 20.8331 118.164 20.9063 118.169 20.9981C118.169 21.0937 118.094 21.1728 117.999 21.1781Z" fill="white"/>
<path d="M117.969 32.84H97.7286C97.6347 32.84 97.5586 32.7639 97.5586 32.67C97.5586 32.5762 97.6347 32.5 97.7286 32.5H117.969C118.061 32.505 118.134 32.5783 118.139 32.67C118.142 32.716 118.125 32.761 118.092 32.7935C118.06 32.8261 118.015 32.843 117.969 32.84Z" fill="white"/>
<path d="M107.918 38.67C107.822 38.6701 107.743 38.5955 107.738 38.5V15.17C107.743 15.0745 107.822 14.9999 107.918 15C108.01 15.005 108.083 15.0782 108.088 15.17V38.5C108.083 38.5918 108.01 38.665 107.918 38.67Z" fill="white"/>
<path d="M102.1 37.0791C102.008 37.0742 101.935 37.0009 101.93 36.9091V16.7091C101.93 16.6153 102.006 16.5391 102.1 16.5391C102.194 16.5391 102.27 16.6153 102.27 16.7091V36.9091C102.27 37.003 102.194 37.0791 102.1 37.0791Z" fill="white"/>
<path d="M113.748 37.0794C113.656 37.0744 113.583 37.0011 113.578 36.9094V16.7794C113.578 16.6855 113.654 16.6094 113.748 16.6094C113.842 16.6094 113.918 16.6855 113.918 16.7794V36.9094C113.918 37.0033 113.842 37.0794 113.748 37.0794Z" fill="white"/>
<path d="M119.579 27.0108C119.533 27.0132 119.489 26.9948 119.459 26.9608L107.789 15.2908C107.729 15.2235 107.732 15.1213 107.796 15.0576C107.86 14.994 107.962 14.991 108.029 15.0508L119.699 26.7108C119.76 26.7791 119.76 26.8824 119.699 26.9508C119.67 26.9874 119.626 27.0093 119.579 27.0108Z" fill="white"/>
<path d="M107.921 38.6683C107.879 38.6845 107.833 38.6845 107.791 38.6683L96.1005 26.9583C96.0394 26.89 96.0394 26.7866 96.1005 26.7183C96.1309 26.6838 96.1746 26.6641 96.2205 26.6641C96.2664 26.6641 96.3101 26.6838 96.3405 26.7183L108.011 38.3883C108.045 38.4187 108.065 38.4624 108.065 38.5083C108.065 38.5542 108.045 38.5979 108.011 38.6283C107.986 38.6502 107.954 38.6641 107.921 38.6683Z" fill="white"/>
<path d="M107.918 38.6711C107.876 38.6873 107.83 38.6873 107.788 38.6711C107.754 38.6408 107.734 38.597 107.734 38.5511C107.734 38.5052 107.754 38.4615 107.788 38.4311L119.458 26.7611C119.488 26.7267 119.532 26.707 119.578 26.707C119.624 26.707 119.668 26.7267 119.698 26.7611C119.759 26.8295 119.759 26.9328 119.698 27.0011L108.028 38.6311C107.997 38.6571 107.958 38.6712 107.918 38.6711Z" fill="white"/>
<path d="M96.2389 27.0108C96.1904 27.0134 96.1431 26.9952 96.1089 26.9608C96.0744 26.9304 96.0547 26.8867 96.0547 26.8408C96.0547 26.7948 96.0744 26.7511 96.1089 26.7208L107.789 15.0508C107.856 14.991 107.958 14.994 108.022 15.0576C108.086 15.1213 108.089 15.2235 108.029 15.2908L96.3589 26.9608C96.3265 26.9918 96.2837 27.0096 96.2389 27.0108Z" fill="white"/>
<path fill-rule="evenodd" clip-rule="evenodd" d="M96.0586 26.82C96.0531 33.3535 101.345 38.6545 107.879 38.66C114.41 38.66 119.708 33.3712 119.719 26.84C119.724 20.3065 114.432 15.0055 107.899 15C101.365 14.9945 96.0642 20.2865 96.0586 26.82ZM96.3986 26.8367C96.395 20.4922 101.534 15.3455 107.879 15.34C114.224 15.3455 119.368 20.4849 119.379 26.83C119.379 33.1744 114.237 38.3182 107.892 38.32C101.548 38.3218 96.4023 33.1811 96.3986 26.8367Z" fill="white"/>
<path d="M108.891 26.832C108.891 27.3843 108.443 27.832 107.891 27.832C107.339 27.832 106.891 27.3843 106.891 26.832C106.891 26.2797 107.339 25.832 107.891 25.832C108.443 25.832 108.891 26.2797 108.891 26.832Z" fill="white"/>
<path d="M108.651 32.6714C108.651 33.0746 108.324 33.4014 107.921 33.4014C107.518 33.4014 107.191 33.0746 107.191 32.6714C107.191 32.2683 107.518 31.9414 107.921 31.9414C108.324 31.9414 108.651 32.2683 108.651 32.6714Z" fill="white"/>
<path d="M102.812 20.9995C102.812 21.4027 102.485 21.7295 102.082 21.7295C101.679 21.7295 101.352 21.4027 101.352 20.9995C101.352 20.5964 101.679 20.2695 102.082 20.2695C102.485 20.2695 102.812 20.5964 102.812 20.9995Z" fill="white"/>
<path d="M103.102 32.668C103.102 33.2203 102.654 33.668 102.102 33.668C101.55 33.668 101.102 33.2203 101.102 32.668C101.102 32.1157 101.55 31.668 102.102 31.668C102.654 31.668 103.102 32.1157 103.102 32.668Z" fill="white"/>
<path d="M120.312 26.8394C120.312 27.2425 119.985 27.5694 119.582 27.5694C119.179 27.5694 118.852 27.2425 118.852 26.8394C118.852 26.4362 119.179 26.1094 119.582 26.1094C119.985 26.1094 120.312 26.4362 120.312 26.8394Z" fill="white"/>
<path d="M98.46 32.6714C98.46 33.0746 98.1332 33.4014 97.73 33.4014C97.3268 33.4014 97 33.0746 97 32.6714C97 32.2683 97.3268 31.9414 97.73 31.9414C98.1332 31.9414 98.46 32.2683 98.46 32.6714Z" fill="white"/>
<path d="M114.73 16.7812C114.73 17.3335 114.282 17.7812 113.73 17.7812C113.178 17.7812 112.73 17.3335 112.73 16.7812C112.73 16.229 113.178 15.7812 113.73 15.7812C114.282 15.7812 114.73 16.229 114.73 16.7812Z" fill="white"/>
<path d="M98.7188 21.0195C98.7188 21.5718 98.271 22.0195 97.7188 22.0195C97.1665 22.0195 96.7188 21.5718 96.7188 21.0195C96.7188 20.4672 97.1665 20.0195 97.7188 20.0195C98.271 20.0195 98.7188 20.4672 98.7188 21.0195Z" fill="white"/>
<path d="M118.73 20.9995C118.73 21.4027 118.403 21.7295 118 21.7295C117.597 21.7295 117.27 21.4027 117.27 20.9995C117.27 20.5964 117.597 20.2695 118 20.2695C118.403 20.2695 118.73 20.5964 118.73 20.9995Z" fill="white"/>
<path d="M114.48 26.8511C114.48 27.2543 114.153 27.5811 113.75 27.5811C113.347 27.5811 113.02 27.2543 113.02 26.8511C113.02 26.4479 113.347 26.1211 113.75 26.1211C114.153 26.1211 114.48 26.4479 114.48 26.8511Z" fill="white"/>
<path d="M100.37 18.5816C100.37 18.8424 100.231 19.0834 100.005 19.2138C99.7793 19.3442 99.5011 19.3442 99.2752 19.2138C99.0493 19.0834 98.9102 18.8424 98.9102 18.5816C98.9102 18.3208 99.0493 18.0798 99.2752 17.9494C99.5011 17.819 99.7793 17.819 100.005 17.9494C100.231 18.0798 100.37 18.3208 100.37 18.5816Z" fill="white"/>
<path d="M45.0314 18.6214H42.2214C42.1601 18.6174 42.1033 18.6539 42.0814 18.7114L37.3414 27.5014L32.5614 18.7114C32.529 18.6588 32.4731 18.6253 32.4114 18.6214H29.6114C29.5197 18.6264 29.4464 18.6997 29.4414 18.7914V35.3314C29.4464 35.4232 29.5197 35.4965 29.6114 35.5014H32.2914C32.3832 35.4965 32.4565 35.4232 32.4614 35.3314V24.5314L36.6814 31.8814C36.7076 31.9352 36.7616 31.97 36.8214 31.9714H37.8214C37.8813 31.97 37.9353 31.9352 37.9614 31.8814L42.1014 24.5114V35.3214C42.1068 35.4169 42.1858 35.4916 42.2814 35.4914H44.9814C45.0292 35.49 45.0751 35.4724 45.1114 35.4414C45.126 35.4028 45.126 35.3601 45.1114 35.3214V18.7814C45.1199 18.7168 45.0882 18.6535 45.0314 18.6214Z" fill="white"/>
<path d="M87.1002 18.5714H84.5802C84.4885 18.5764 84.4152 18.6497 84.4102 18.7414V35.3814C84.4152 35.4732 84.4885 35.5464 84.5802 35.5514H87.1002C87.192 35.5464 87.2652 35.4732 87.2702 35.3814V18.7814C87.2877 18.7295 87.2774 18.6723 87.2429 18.6297C87.2085 18.5871 87.1546 18.5651 87.1002 18.5714Z" fill="white"/>
<path d="M80.1799 32.4315L78.3499 30.5815C78.3195 30.5471 78.2758 30.5274 78.2299 30.5274C78.184 30.5274 78.1403 30.5471 78.1099 30.5815C76.9491 31.8566 75.3042 32.5828 73.5799 32.5815C72.147 32.5594 70.7851 31.9535 69.8093 30.904C68.8334 29.8545 68.328 28.4523 68.4099 27.0215C68.3864 25.573 68.9115 24.1691 69.8799 23.0915C70.8323 22.0589 72.1751 21.4746 73.5799 21.4815C75.2622 21.527 76.8553 22.2479 77.9999 23.4815C78.0696 23.5489 78.1801 23.5489 78.2499 23.4815L80.0999 21.3215C80.161 21.2532 80.161 21.1499 80.0999 21.0815C78.4042 19.3612 76.0638 18.4323 73.6499 18.5215C71.3685 18.4635 69.1629 19.3428 67.5473 20.9547C65.9317 22.5665 65.0472 24.77 65.0999 27.0515V27.1015C65.0884 29.3377 65.9494 31.4902 67.4999 33.1015C69.0809 34.7052 71.2482 35.5937 73.4999 35.5615C76.0553 35.6426 78.5117 34.5704 80.1899 32.6415C80.2354 32.5776 80.2313 32.4908 80.1799 32.4315Z" fill="white"/>
<path d="M60.2386 27.0712C59.2574 26.3838 58.1258 25.9414 56.9386 25.7812H56.8586H56.7886L55.9686 25.6012C55.6753 25.5582 55.3848 25.4981 55.0986 25.4212C54.4569 25.2975 53.8537 25.0233 53.3386 24.6212C53.0288 24.3191 52.8554 23.9038 52.8586 23.4712V23.2912C52.967 22.1809 53.9031 21.3359 55.0186 21.3412C55.3312 21.3117 55.646 21.3117 55.9586 21.3412C57.2095 21.4189 58.4035 21.8916 59.3686 22.6912C59.426 22.7299 59.5012 22.7299 59.5586 22.6912C59.6006 22.7065 59.6466 22.7065 59.6886 22.6912L61.2286 20.7812C61.263 20.7508 61.2828 20.7071 61.2828 20.6612C61.2828 20.6153 61.263 20.5715 61.2286 20.5412C59.678 19.177 57.6623 18.4609 55.5986 18.5412C52.1886 18.5412 49.8886 20.5412 49.8886 23.5412V23.6012C49.8406 24.7583 50.2794 25.8826 51.0986 26.7012C52.0415 27.4923 53.1825 28.0109 54.3986 28.2012L54.9486 28.3112L55.3286 28.3912L55.8786 28.4912L56.3586 28.5812C56.9835 28.687 57.5796 28.922 58.1086 29.2712C58.5564 29.6152 58.8068 30.1572 58.7786 30.7212C58.7786 31.9012 57.8486 32.7212 56.3086 32.8012H55.7686H55.2886C53.79 32.7267 52.3691 32.1121 51.2886 31.0712C51.2467 31.0292 51.1869 31.0105 51.1286 31.0212C51.0829 31.0268 51.0405 31.048 51.0086 31.0812L49.3386 32.8912C49.2725 32.9575 49.2725 33.0648 49.3386 33.1312C51.0678 34.7742 53.3847 35.6534 55.7686 35.5712C59.4486 35.5712 61.7686 33.5712 61.7686 30.5712C61.8612 29.2246 61.2899 27.9177 60.2386 27.0712Z" fill="white"/>
<path d="M102.812 16.7808C102.812 17.184 102.485 17.5108 102.082 17.5108C101.679 17.5108 101.352 17.184 101.352 16.7808C101.352 16.3776 101.679 16.0508 102.082 16.0508C102.485 16.0508 102.812 16.3776 102.812 16.7808Z" fill="white"/>
<path fill-rule="evenodd" clip-rule="evenodd" d="M126.15 64.6137C127.977 64.5495 129.762 65.1741 131.15 66.3637H131.23V62.7837C129.747 62.3359 128.209 62.0936 126.66 62.0637C121.57 62.0637 119.49 65.0637 119.49 68.1337C119.49 71.6337 122.21 72.9637 124.78 73.9937C127.61 75.1337 128.89 75.8137 128.89 77.6337C128.89 79.1937 127.83 80.3037 125.64 80.3037C123.539 80.3797 121.48 79.7063 119.83 78.4037H119.76V82.1237C121.496 82.6571 123.304 82.9136 125.12 82.8837C129.38 82.8837 132.78 80.8837 132.78 76.4637C132.78 72.6237 129.91 71.3737 127.34 70.3037C124.77 69.2337 123.34 68.5937 123.34 66.8837C123.34 65.5537 124.34 64.6437 126.2 64.6437M19.26 57.3537C19.26 58.4314 19.9103 59.4026 20.9067 59.8131C21.9032 60.2236 23.0488 59.9924 23.808 59.2275C24.5671 58.4626 24.7898 57.3152 24.3717 56.3219C23.9537 55.3286 22.9777 54.6856 21.9 54.6937C21.1963 54.6937 20.5218 54.9746 20.0261 55.474C19.5305 55.9735 19.2547 56.6501 19.26 57.3537ZM17 82.3537H26.7V80.7837L24.2 80.3637V62.1837H23.83L17 62.9437V64.4637L19.49 64.9537V80.3437L17 80.7837V82.3537ZM109.85 64.5337C112.68 64.5337 113.44 66.4037 113.44 69.9337V70.2737H105.74C105.85 65.9437 107.29 64.5337 109.85 64.5337ZM53.85 70.5337C53.85 67.2337 55.4 65.3737 57.85 65.3737C59.96 65.3737 61.28 66.6937 61.28 69.1637V82.3937H66.1V69.2437C66.1 65.3737 63.95 62.0337 59.53 62.0337C57.2283 62.0039 55.0858 63.2048 53.91 65.1837V53.9337H53.53L46.7 54.6937V56.2137L49.19 56.7137V82.3937H53.91L53.85 70.5337ZM93.96 71.7937C93.96 67.6837 95.84 65.9737 98.83 65.9737C99.4011 65.9744 99.9695 66.0518 100.52 66.2037H100.64V62.2237C100.186 62.0893 99.7136 62.0252 99.24 62.0337C96.37 62.0337 94.71 63.9637 93.81 66.5137V62.1837H93.43L86.75 62.9437V64.4637L89.24 64.9537V82.3937H93.96V71.7937ZM117.1 81.5237V79.2837C115.594 79.739 114.033 79.9813 112.46 80.0037C107.46 80.0037 105.86 77.6837 105.78 72.7837H118V70.3137C118 66.1737 116.08 62.0337 110 62.0337C104.53 62.0337 100.91 65.4137 100.91 72.3637C100.91 79.3137 104.76 82.8537 111.17 82.8537C113.245 82.867 115.295 82.4124 117.17 81.5237M76.5 79.7837C74.39 79.7837 73.33 78.5637 73.33 76.2137C73.33 73.8637 74.61 72.8337 77.33 72.8337H80.1V75.9437C80.1378 76.9319 79.7784 77.8941 79.102 78.6156C78.4256 79.3371 77.4886 79.7577 76.5 79.7837ZM37.64 56.5237C39.9726 56.5119 42.2437 57.2713 44.1 58.6837H44.17V54.7837C42.144 54.0872 40.0121 53.7488 37.87 53.7837C31.23 53.7837 28.29 57.6537 28.29 61.7137C28.29 66.4337 31.72 68.3337 35.15 69.8137C39.83 71.8637 41.72 72.8137 41.72 75.7437C41.72 78.2137 40.32 80.1137 36.14 80.1137C33.5074 80.1308 30.9485 79.2449 28.89 77.6037H28.78V81.6737C31.0592 82.5266 33.4766 82.9504 35.91 82.9237C41.79 82.9237 46.4 80.1837 46.4 74.2637C46.4 68.9437 42.32 67.1537 38.51 65.4437C34.7 63.7337 32.78 62.7837 32.78 60.2737C32.78 58.2237 34.28 56.5937 37.61 56.5937M80.23 82.3937H84.8V68.9037C84.8 64.8437 82.5 62.0337 77.03 62.0337C74.6024 61.9733 72.2115 62.6346 70.16 63.9337V66.2137H70.24C71.9954 65.3699 73.9126 64.9162 75.86 64.8837C78.86 64.8837 80.08 66.1737 80.08 68.6737V70.3537H77.1C72.23 70.3537 68.72 72.3537 68.72 76.8837C68.72 80.5337 71.06 82.8837 74.83 82.8837C77.0567 82.9696 79.1475 81.8145 80.26 79.8837L80.23 82.3937Z" fill="white"/>
</svg>
