<svg width="50" height="50" viewBox="0 0 50 50" fill="none" xmlns="http://www.w3.org/2000/svg">
<g clip-path="url(#clip0_1890_10248)">
<path d="M25 50.0019C38.8071 50.0019 50 38.8091 50 25.0019C50 11.1948 38.8071 0.00195312 25 0.00195312C11.1929 0.00195312 0 11.1948 0 25.0019C0 38.8091 11.1929 50.0019 25 50.0019Z" fill="#FF9600"/>
<path fill-rule="evenodd" clip-rule="evenodd" d="M33.9968 22.6504C34.3722 20.1286 32.4614 18.7729 29.8486 17.8686L30.6961 14.4524L28.6267 13.9342L27.8016 17.2603C27.2576 17.1241 26.6988 16.9956 26.1436 16.8682L26.9747 13.5202L24.9064 13.002L24.0583 16.4169C23.608 16.3139 23.1659 16.212 22.7369 16.1048L22.7392 16.0942L19.8853 15.3781L19.3348 17.5991C19.3348 17.5991 20.8702 17.9527 20.8378 17.9746C21.6759 18.1848 21.8274 18.7421 21.8021 19.184L20.8366 23.0757C20.8944 23.0905 20.9692 23.1118 21.0518 23.145L20.9816 23.1274L20.9814 23.1273C20.9334 23.1152 20.8838 23.1027 20.8331 23.0905L19.4798 28.5422C19.3773 28.7981 19.1173 29.1818 18.5315 29.0362C18.5521 29.0664 17.0273 28.6589 17.0273 28.6589L16 31.0392L18.693 31.7137C18.9937 31.7895 19.2909 31.8673 19.585 31.9444L19.5859 31.9447C19.7814 31.9959 19.9754 32.0467 20.1682 32.0963L19.3118 35.5516L21.3789 36.0698L22.227 32.6513C22.7917 32.8053 23.3398 32.9474 23.8762 33.0813L23.031 36.4838L25.1004 37.002L25.9568 33.5533C29.4855 34.2243 32.139 33.9537 33.2559 30.7466C34.1559 28.1644 33.2111 26.6748 31.3545 25.7035C32.7066 25.3902 33.7251 24.4965 33.9968 22.6504ZM29.2684 29.313C28.6816 31.6821 24.9913 30.7026 23.3027 30.2545C23.1508 30.2142 23.0151 30.1781 22.8993 30.1492L24.0357 25.5717C24.1766 25.6071 24.3489 25.6459 24.544 25.6899H24.5441C26.2905 26.0837 29.8696 26.8907 29.2684 29.313ZM24.8951 23.5646C26.3029 23.9422 29.3737 24.7656 29.9086 22.6124C30.4548 20.41 27.4702 19.7461 26.0126 19.4219C25.8487 19.3854 25.704 19.3532 25.5859 19.3236L24.5556 23.4753C24.653 23.4997 24.7672 23.5303 24.8951 23.5646Z" fill="white"/>
</g>
<defs>
<clipPath id="clip0_1890_10248">
<rect width="50" height="50" fill="white"/>
</clipPath>
</defs>
</svg>
