<svg width="221" height="75" viewBox="0 0 221 75" fill="none" xmlns="http://www.w3.org/2000/svg">
<g clip-path="url(#clip0_2731_6557)">
<path fill-rule="evenodd" clip-rule="evenodd" d="M123.408 62.9352C130.119 63.8794 134.205 62.6499 137.37 59.4878C139.358 57.5036 140.868 55.1794 142.202 52.7373C147.602 42.8552 160.595 18.9805 160.595 18.9805H151.235L141.503 38.5384L138.466 18.9805H128.519V19.4352C128.519 19.4352 131.886 37.3405 133.615 46.5163C133.872 47.8836 134.139 51.4026 131.665 53.6784C130.281 54.951 128.282 56.0089 124.839 55.4457L123.408 62.9352Z" fill="#1F1F1F"/>
<path fill-rule="evenodd" clip-rule="evenodd" d="M115.951 18.981L106.903 39.5168L106.658 39.4957L105.432 19.4894H95.5776L85.9712 39.5189L85.726 39.4357L85.3144 18.981H75.8828L77.7597 51.7862H87.966L97.8544 30.381L98.087 30.421L99.6544 51.7841H109.927L124.786 18.981H115.951Z" fill="#1F1F1F"/>
<path fill-rule="evenodd" clip-rule="evenodd" d="M170.497 51.7864H160.594C162.8 40.7243 164.907 30.0337 167.113 18.9801H174.791V25.0159C175.818 22.5222 177.22 20.2001 179.599 19.1811C181.933 18.1811 185.54 18.2337 189.218 19.3632C187.77 22.1685 186.665 24.6643 185.097 27.7011C183.682 27.4211 182.41 27.0632 181.114 26.9348C178.203 26.6453 176.09 27.8064 175.096 30.5664C174.402 32.4937 173.971 34.5348 173.552 36.5485C172.501 41.5937 171.525 46.6516 170.497 51.7864Z" fill="#1F1F1F"/>
<path fill-rule="evenodd" clip-rule="evenodd" d="M202.159 26.7821C203.575 25.061 206.124 24.1094 208.017 24.7021C210.325 25.4252 211.083 27.9842 209.443 29.7705C208.886 30.3768 208.109 30.8789 207.336 31.1694C204.954 32.0642 202.488 32.0368 199.895 31.5905C200.334 29.6884 201.028 28.1557 202.159 26.7821ZM214.834 43.6315C214.834 43.6315 214.75 43.6305 214.502 43.6305C210.71 45.0852 206.503 45.4663 203.603 44.6442C200.399 43.7357 198.55 40.9473 199.133 37.7978C208.682 38.601 212.736 36.7831 214.911 35.4821C220.806 31.9568 222.305 22.521 214.614 19.7273C207.856 17.2726 198.442 18.4399 193.995 23.8273C189.942 28.7368 188.753 34.1357 189.374 40.1452C189.84 44.6663 192.94 51.1473 203.071 52.1589C209.197 52.7705 213.118 51.1968 213.403 51.0789L214.834 43.6315Z" fill="#1F1F1F"/>
<path fill-rule="evenodd" clip-rule="evenodd" d="M38.4328 37.2095H60.9528L48.8033 66.8863C47.1212 70.9958 43.1212 73.6811 38.6802 73.6811H16.1602L28.3096 44.0042C29.9917 39.8947 33.9917 37.2095 38.4328 37.2095Z" fill="#94C5FF"/>
<path fill-rule="evenodd" clip-rule="evenodd" d="M60.9509 37.211L47.3151 54.551C45.2488 57.3036 42.1214 59.0931 38.4435 59.0931H22.1309L28.3245 43.9963C30.0088 39.891 34.0077 37.2089 38.4456 37.21L60.9509 37.211Z" fill="#1A32AF"/>
<path fill-rule="evenodd" clip-rule="evenodd" d="M30.966 18.9697H53.486L41.3365 48.6466C39.6544 52.756 35.6544 55.4413 31.2134 55.4413H8.69336L20.8428 25.7645C22.5249 21.655 26.5249 18.9697 30.966 18.9697Z" fill="#0092FF"/>
<path fill-rule="evenodd" clip-rule="evenodd" d="M53.486 18.9713L39.8502 36.3113C37.7839 39.0639 34.6565 40.8534 30.9786 40.8534H14.666L20.8597 25.7565C22.5439 21.6513 26.5429 18.9692 30.9808 18.9702L53.486 18.9713Z" fill="#1A32AF"/>
<path fill-rule="evenodd" clip-rule="evenodd" d="M23.5011 0.711914H46.0211L33.8717 30.3888C32.1896 34.4982 28.1896 37.1835 23.7485 37.1835H1.22852L13.378 7.50665C15.0601 3.39718 19.0601 0.711914 23.5011 0.711914Z" fill="#0055FF"/>
</g>
<defs>
<clipPath id="clip0_2731_6557">
<rect width="220" height="73.6842" fill="white" transform="translate(0.498047 0.536133)"/>
</clipPath>
</defs>
</svg>
