<svg width="221" height="47" viewBox="0 0 221 47" fill="none" xmlns="http://www.w3.org/2000/svg">
<g clip-path="url(#clip0_2731_6570)">
<path d="M151.674 8.95187C148.49 9.60057 144.509 12.5492 143.094 15.321C142.209 17.0607 141.561 19.8325 141.561 21.867C141.561 26.7029 143.566 30.6836 147.222 33.131C149.492 34.6348 151.763 35.313 154.682 35.313C157.631 35.313 159.872 34.6348 162.172 33.1015C165.917 30.5951 167.774 26.8798 167.804 21.8965C167.833 13.2274 160.373 7.24164 151.674 8.95187ZM158.132 13.9056C159.842 14.6428 161.405 16.2351 162.201 18.0043C163.086 20.0389 163.086 23.9311 162.172 26.0247C160.167 30.6836 153.739 32.2759 149.581 29.0913C148.048 27.9413 146.957 25.9952 146.544 23.6952C146.249 21.9555 146.249 21.3953 146.691 19.685C147.134 17.8863 147.9 16.412 148.785 15.5864C151.409 13.1095 154.918 12.4903 158.132 13.9056Z" fill="#1F1F1F"/>
<path d="M184.761 9.04036C180.928 10.0429 177.36 13.1095 176.033 16.589C174.087 21.7786 175.09 27.617 178.628 31.3913C181.37 34.3105 186.236 35.9323 190.187 35.2246C196.114 34.1631 200.271 30.0054 201.156 24.226C202.129 18.0928 199.298 12.4903 193.932 9.95445C192.015 9.04036 191.396 8.89293 188.978 8.77498C187.297 8.71601 185.646 8.80447 184.761 9.04036ZM190.777 13.5813C191.956 13.9646 192.87 14.5249 193.961 15.5864C195.878 17.4736 196.556 19.4492 196.35 22.7812C196.143 26.3491 194.581 28.6785 191.425 30.1234C190.099 30.7426 189.538 30.8311 187.74 30.7131C185.174 30.5362 183.641 29.799 181.99 27.9414C180.486 26.2311 180.044 24.8158 180.044 21.7786C180.073 17.7095 181.813 15.0262 185.322 13.6993C187.209 12.9621 188.683 12.9326 190.777 13.5813Z" fill="#1F1F1F"/>
<path d="M60.3861 12.8456C59.649 14.8507 58.1746 18.7134 57.1131 21.4852C56.0516 24.2275 54.4593 28.3851 53.5747 30.7145L51.9824 34.9312L54.4888 34.8427L56.9952 34.7542L57.9977 31.953C58.558 30.4197 59.1772 29.0633 59.3836 28.9453C60.0028 28.5325 69.4975 28.6505 69.8514 29.0633C69.9988 29.2697 70.4706 30.4197 70.9129 31.5991C72.1513 35.0786 71.9449 34.9017 74.6282 34.9017C76.309 34.9017 76.9872 34.7837 76.9872 34.5183C76.9872 34.3414 76.4564 32.7786 75.7782 31.0684C75.1295 29.3582 73.8026 25.8492 72.8295 23.2544C71.8565 20.6596 70.618 17.416 70.0873 16.0301C69.5565 14.6443 68.7604 12.5507 68.3181 11.3712L67.4924 9.24819H64.6322H61.7425L60.3861 12.8456ZM66.4899 19.4506C67.404 21.898 68.1411 24.08 68.1411 24.2569C68.1411 24.4634 66.9912 24.5813 64.4553 24.5813C62.4207 24.5813 60.7695 24.5223 60.7695 24.4339C60.7695 23.8146 64.4258 14.5853 64.6322 14.7622C64.7502 14.8802 65.6053 17.0032 66.4899 19.4506Z" fill="#1F1F1F"/>
<path d="M84.9453 22.0742V34.9009H87.3043H89.6632L89.7222 25.6715L89.8106 16.4717L92.4644 20.5114C93.9388 22.7524 95.7375 25.5241 96.4746 26.7036C97.2413 27.883 98.7156 30.2125 99.8066 31.8637L101.753 34.9009H104.259H106.765V22.0742V9.24746H104.407H102.048V17.6512C102.048 22.2806 101.93 26.0549 101.782 26.0549C101.635 26.0549 99.1579 22.2806 96.2682 17.6512L90.9901 9.24746H87.9824H84.9453V22.0742Z" fill="#1F1F1F"/>
<path d="M116.791 22.0742V34.9009H119.15H121.509L121.568 29.9766L121.656 25.0228L125.637 24.8754C129.323 24.728 129.706 24.669 131.033 23.9023C133.657 22.369 134.984 19.5973 134.689 16.3538C134.424 13.1692 132.743 10.9282 129.854 9.83719C128.468 9.30643 127.583 9.24746 122.541 9.24746H116.791V22.0742ZM128.202 13.8179C130.001 14.8794 130.591 17.3858 129.47 19.214C128.586 20.6293 127.288 21.0716 124.222 20.9832L121.656 20.8947L121.568 17.3858C121.538 15.4397 121.568 13.6705 121.656 13.4346C121.892 12.7859 126.964 13.0807 128.202 13.8179Z" fill="#1F1F1F"/>
<path d="M209.973 22.0742V34.9009L218.17 34.8419L226.338 34.7534L226.426 32.6304L226.515 30.4779L220.676 30.4189L214.838 30.3304L214.749 19.7742L214.691 9.24746H212.332H209.973V22.0742Z" fill="#1F1F1F"/>
<path fill-rule="evenodd" clip-rule="evenodd" d="M19.3535 1.43359C19.687 1.43342 20.0151 1.51722 20.3077 1.67726C20.6003 1.83731 20.8479 2.06844 21.0276 2.34936L44.8918 39.6456C45.0833 39.9461 45.1907 40.2925 45.2028 40.6486C45.2149 41.0048 45.1312 41.3577 44.9605 41.6704C44.7897 41.9832 44.5382 42.2444 44.2321 42.4269C43.926 42.6093 43.5765 42.7063 43.2202 42.7077H31.6196C31.281 42.7077 30.9481 42.6212 30.6524 42.4564C30.3567 42.2916 30.108 42.054 29.9299 41.7661L6.81132 4.4724C6.62509 4.17122 6.52254 3.82583 6.51422 3.47183C6.5059 3.11782 6.59213 2.768 6.76401 2.45841C6.93588 2.14882 7.1872 1.89066 7.49206 1.71052C7.79692 1.53039 8.14429 1.43479 8.49839 1.43359H19.3509H19.3535Z" fill="url(#paint0_radial_2731_6570)"/>
<path fill-rule="evenodd" clip-rule="evenodd" d="M32.371 1.4336H43.2235C43.5785 1.43269 43.9272 1.52692 44.2334 1.70649C44.5396 1.88606 44.7921 2.1444 44.9646 2.45464C45.1371 2.76489 45.2233 3.11569 45.2143 3.47055C45.2052 3.82541 45.1013 4.17136 44.9132 4.4724L21.7946 41.7661C21.6165 42.054 21.3678 42.2917 21.0721 42.4565C20.7764 42.6213 20.4435 42.7077 20.1049 42.7077H8.50693C8.14947 42.7089 7.79829 42.6137 7.49044 42.432C7.18259 42.2503 6.92947 41.9889 6.75778 41.6754C6.58609 41.3619 6.50219 41.0078 6.51493 40.6506C6.52767 40.2933 6.63658 39.9462 6.83017 39.6457L30.6994 2.34937C30.8789 2.06882 31.1261 1.83791 31.4182 1.67789C31.7103 1.51786 32.038 1.43386 32.371 1.4336Z" fill="url(#paint1_linear_2731_6570)"/>
</g>
<defs>
<radialGradient id="paint0_radial_2731_6570" cx="0" cy="0" r="1" gradientUnits="userSpaceOnUse" gradientTransform="translate(-21.7851 -11.788) rotate(151.815) scale(10.1865 16.4252)">
<stop stop-color="#2A39C6"/>
<stop offset="1" stop-color="#6674FC"/>
</radialGradient>
<linearGradient id="paint1_linear_2731_6570" x1="35.2556" y1="1.43359" x2="13.8954" y2="41.609" gradientUnits="userSpaceOnUse">
<stop stop-color="#347FE0"/>
<stop offset="1" stop-color="#A64CF2"/>
</linearGradient>
<clipPath id="clip0_2731_6570">
<rect width="220" height="45.8334" fill="white" transform="translate(0.498047 0.461426)"/>
</clipPath>
</defs>
</svg>
