<svg width="110" height="26" viewBox="0 0 110 26" fill="none" xmlns="http://www.w3.org/2000/svg">
<g clip-path="url(#clip0_879_15733)">
<path fill-rule="evenodd" clip-rule="evenodd" d="M26.948 25.0203V0.982269H27.8206V25.0203H26.948ZM26.948 25.0203L26.0318 0.982269H25.1592L26.0725 25.0203H26.948ZM26.0754 25.0203L24.243 0.982269H23.3704L25.2028 25.0203H26.0754ZM25.1796 25.0203L22.4221 0.982269H21.5495L24.2953 25.0203H25.1796ZM24.2779 25.0203L20.6188 0.982269H19.7462L23.4024 25.0203H24.2779ZM23.3849 25.0203L18.8038 0.982269H17.9166L22.4978 25.0203H23.3849ZM22.489 25.0203L16.9626 0.982269H16.0667L21.5932 25.0203H22.489ZM21.5844 25.0203L15.0923 0.982269H14.1906L20.6566 25.0203H21.5844ZM20.674 25.0203L13.254 0.982269H12.3436L19.7636 25.0203H20.674ZM19.752 25.0203L11.3692 0.982269H10.4471L18.8008 25.0203H19.752ZM0.0253906 0.982269V25.0203H0.897991V0.982269H0.0253906ZM0.897991 0.982269L1.8753 25.0203H2.7479L1.77059 0.982269H0.897991ZM1.77059 0.982269L3.73394 25.0203H4.60654L2.64319 0.982269H1.77059ZM2.65774 0.982269L5.54895 25.0203H6.42155L3.51579 0.982269H2.65774ZM3.55361 0.982269L7.47158 25.0203H8.34418L4.4233 0.982269H3.55361ZM4.42621 0.982269L9.28368 25.0203H10.1737L5.31626 0.982269H4.42621ZM5.29881 0.982269L11.2209 25.0203H12.1196L6.19759 0.982269H5.29881ZM6.19468 0.982269L13.2627 25.0203H14.1702L7.10218 0.982269H6.19468ZM7.09346 0.982269L15.197 25.0203H16.1161L8.02423 0.982269H7.09346ZM8.01841 0.982269L11.695 9.96323L17.8032 24.8871L17.8555 25.0203H18.795L18.7223 24.8444L12.6141 9.918L8.96082 0.982269H8.01841Z" fill="url(#paint0_linear_879_15733)"/>
<path fill-rule="evenodd" clip-rule="evenodd" d="M85.0607 18.258C84.0601 20.3309 82.3804 22.1062 80.2279 23.3656C78.0754 24.625 75.5439 25.3136 72.9446 25.347C70.3452 25.3804 67.7911 24.757 65.5963 23.5534C63.4015 22.3498 61.6614 20.6185 60.59 18.5722C58.9408 15.4587 58.9379 10.5637 60.59 7.44771C61.6579 5.39773 63.3963 3.66227 65.5913 2.45495C67.7863 1.24764 70.342 0.621171 72.9438 0.652683C75.5457 0.684195 78.0801 1.37231 80.235 2.6323C82.3899 3.8923 84.0714 5.66919 85.0723 7.74423L85.145 7.88998H82.2771L82.2422 7.8347C81.3652 6.40492 80.0704 5.19828 78.4865 4.33471C76.9026 3.47113 75.0847 2.98067 73.2134 2.91207C71.3421 2.84347 69.4826 3.19912 67.8197 3.94367C66.1568 4.68823 64.7483 5.79576 63.7343 7.15622C61.3637 10.3099 61.3637 15.6999 63.7343 18.8435C64.7481 20.2041 66.1563 21.3118 67.8191 22.0566C69.4818 22.8013 71.3412 23.1572 73.2125 23.0889C75.0838 23.0205 76.9018 22.5303 78.4859 21.667C80.07 20.8036 81.3649 19.5972 82.2422 18.1676L82.2771 18.1123H85.145L85.0607 18.258ZM53.2776 22.3163V0.982128H55.8954V25.0201H52.3294L34.5866 3.86438V25.0201H31.9688V0.982128H35.3748L53.2776 22.3163ZM97.6785 11.2421L106.724 0.979613H110L99.316 13.1017L109.822 25.0201H106.55L97.6785 14.9687L88.8099 25.0201H85.6104L96.0322 13.0991L85.3515 0.982128H88.6267L97.6785 11.2421Z" fill="white"/>
</g>
<defs>
<linearGradient id="paint0_linear_879_15733" x1="14.2168" y1="27.5918" x2="13.8426" y2="-6.82993" gradientUnits="userSpaceOnUse">
<stop stop-color="#433CA4"/>
<stop offset="0.932292" stop-color="#9850EF"/>
<stop offset="1" stop-color="#6E66E6"/>
</linearGradient>
<clipPath id="clip0_879_15733">
<rect width="110" height="24.6939" fill="white" transform="translate(0 0.653076)"/>
</clipPath>
</defs>
</svg>
