<svg width="150" height="150" viewBox="0 0 150 150" fill="none" xmlns="http://www.w3.org/2000/svg">
<rect width="150" height="150" fill="#F7F7F7"/>
<mask id="mask0_3406_6167" style="mask-type:alpha" maskUnits="userSpaceOnUse" x="19" y="40" width="70" height="44">
<path d="M87 40H21C19.8954 40 19 40.8954 19 42V82C19 83.1046 19.8954 84 21 84H87C88.1046 84 89 83.1046 89 82V42C89 40.8954 88.1046 40 87 40Z" fill="white"/>
</mask>
<g mask="url(#mask0_3406_6167)">
<path d="M89.6719 38.7188H18.6719V87.7186H89.6719V38.7188Z" fill="#0059B7"/>
<path d="M57.173 39.1719H19.125V63.789H57.173V39.1719Z" fill="#0059B7"/>
<path d="M57.173 47.7701H41.9425V39.1719H34.3273V47.7701H19.125V55.1634H34.3273V63.789H41.9425V55.1634H57.173V47.7701Z" fill="white"/>
<path d="M57.173 60.9686L23.4967 39.1719H19.125V42.0197L52.773 63.789H57.173V60.9686Z" fill="white"/>
<path d="M19.125 60.9686L52.8012 39.1719H57.173V42.0197L23.5249 63.789H19.125V60.9686Z" fill="white"/>
<path d="M57.173 49.3309H40.363V39.1719H35.9349V49.3309H19.125V53.63H35.9349V63.789H40.363V53.63H57.173V49.3309Z" fill="#F44247"/>
<path d="M57.1741 63.7075V61.7633L46.9359 55.1641H43.918L57.1741 63.7075Z" fill="#F44247"/>
<path d="M57.1718 39.1719H54.1539L41.9414 47.0581V47.7701H43.8311L57.1718 39.1719Z" fill="#F44247"/>
<path d="M32.3529 55.1641L19.125 63.7075V63.7897H22.0301L34.3273 55.8487V55.1641H32.3529Z" fill="#F44247"/>
<path d="M19.125 39.1719V41.1161L29.4197 47.7701H32.4376L19.125 39.1719Z" fill="#F44247"/>
<path d="M37.1719 71.7188L38.5256 74.3587L41.5826 73.6993L40.2136 76.3316L42.6719 78.1497L39.6111 78.7926L39.6197 81.7186L37.1719 79.8886L34.7242 81.7186L34.7328 78.7926L31.6719 78.1497L34.1303 76.3316L32.7611 73.6993L35.8183 74.3587L37.1719 71.7188Z" fill="white"/>
<path d="M76.6719 76.7188L77.4099 78.3028L79.0779 77.9068L78.3309 79.4868L79.6719 80.5778L78.0019 80.9638L78.0069 82.7188L76.6719 81.6208L75.3369 82.7188L75.3409 80.9638L73.6719 80.5778L75.0129 79.4868L74.2659 77.9068L75.9339 78.3028L76.6719 76.7188Z" fill="white"/>
<path d="M65.6719 58.7188L66.4099 60.3026L68.0779 59.9071L67.3309 61.4867L68.6719 62.5774L67.0029 62.9634L67.0069 64.7188L65.6719 63.6204L64.3369 64.7188L64.3409 62.9634L62.6719 62.5774L64.0129 61.4867L63.2659 59.9071L64.9339 60.3026L65.6719 58.7188Z" fill="white"/>
<path d="M77.6719 64.7188L78.1639 65.7747L79.2759 65.5109L78.7779 66.564L79.6719 67.2911L78.5589 67.5484L78.5619 68.7188L77.6719 67.9865L76.7819 68.7188L76.7849 67.5484L75.6719 67.2911L76.5659 66.564L76.0679 65.5109L77.1799 65.7747L77.6719 64.7188Z" fill="white"/>
<path d="M73.6719 43.7188L74.4099 45.3026L76.0779 44.9072L75.3309 46.4868L76.6719 47.5774L75.0029 47.9634L75.0069 49.7188L73.6719 48.6206L72.3369 49.7188L72.3409 47.9634L70.6719 47.5774L72.0129 46.4868L71.2659 44.9072L72.9339 45.3026L73.6719 43.7188Z" fill="white"/>
<path d="M82.6719 54.7188L83.4099 56.3026L85.0779 55.9071L84.3309 57.4867L85.6719 58.5774L84.0019 58.9635L84.0069 60.7188L82.6719 59.6206L81.3369 60.7188L81.3409 58.9635L79.6719 58.5774L81.0129 57.4867L80.2659 55.9071L81.9339 56.3026L82.6719 54.7188Z" fill="white"/>
</g>
<g filter="url(#filter0_d_3406_6167)">
<path d="M128 75H59C57.3431 75 56 76.3431 56 78V109C56 110.657 57.3431 112 59 112H128C129.657 112 131 110.657 131 109V78C131 76.3431 129.657 75 128 75Z" fill="#2C2C2C"/>
<path d="M128 76H59C57.8954 76 57 76.8954 57 78V109C57 110.105 57.8954 111 59 111H128C129.105 111 130 110.105 130 109V78C130 76.8954 129.105 76 128 76Z" stroke="#F7F7F7" stroke-width="2"/>
</g>
<path d="M80.1797 103L78.9375 98.9219H72.6914L71.4492 103H67.5352L73.582 85.7969H78.0234L84.0938 103H80.1797ZM78.0703 95.875C76.9219 92.1797 76.2734 90.0898 76.125 89.6055C75.9844 89.1211 75.8828 88.7383 75.8203 88.457C75.5625 89.457 74.8242 91.9297 73.6055 95.875H78.0703ZM102.207 85.8672V96.9531C102.207 98.2188 101.922 99.3281 101.352 100.281C100.789 101.234 99.9727 101.965 98.9023 102.473C97.832 102.98 96.5664 103.234 95.1055 103.234C92.9023 103.234 91.1914 102.672 89.9727 101.547C88.7539 100.414 88.1445 98.8672 88.1445 96.9062V85.8672H91.7656V96.3555C91.7656 97.6758 92.0312 98.6445 92.5625 99.2617C93.0938 99.8789 93.9727 100.188 95.1992 100.188C96.3867 100.188 97.2461 99.8789 97.7773 99.2617C98.3164 98.6367 98.5859 97.6602 98.5859 96.332V85.8672H102.207ZM118.516 98.2422C118.516 99.7891 117.957 101.008 116.84 101.898C115.73 102.789 114.184 103.234 112.199 103.234C110.371 103.234 108.754 102.891 107.348 102.203V98.8281C108.504 99.3438 109.48 99.707 110.277 99.918C111.082 100.129 111.816 100.234 112.48 100.234C113.277 100.234 113.887 100.082 114.309 99.7773C114.738 99.4727 114.953 99.0195 114.953 98.418C114.953 98.082 114.859 97.7852 114.672 97.5273C114.484 97.2617 114.207 97.0078 113.84 96.7656C113.48 96.5234 112.742 96.1367 111.625 95.6055C110.578 95.1133 109.793 94.6406 109.27 94.1875C108.746 93.7344 108.328 93.207 108.016 92.6055C107.703 92.0039 107.547 91.3008 107.547 90.4961C107.547 88.9805 108.059 87.7891 109.082 86.9219C110.113 86.0547 111.535 85.6211 113.348 85.6211C114.238 85.6211 115.086 85.7266 115.891 85.9375C116.703 86.1484 117.551 86.4453 118.434 86.8281L117.262 89.6523C116.348 89.2773 115.59 89.0156 114.988 88.8672C114.395 88.7188 113.809 88.6445 113.23 88.6445C112.543 88.6445 112.016 88.8047 111.648 89.125C111.281 89.4453 111.098 89.8633 111.098 90.3789C111.098 90.6992 111.172 90.9805 111.32 91.2227C111.469 91.457 111.703 91.6875 112.023 91.9141C112.352 92.1328 113.121 92.5312 114.332 93.1094C115.934 93.875 117.031 94.6445 117.625 95.418C118.219 96.1836 118.516 97.125 118.516 98.2422Z" fill="white"/>
<defs>
<filter id="filter0_d_3406_6167" x="44" y="67" width="91" height="53" filterUnits="userSpaceOnUse" color-interpolation-filters="sRGB">
<feFlood flood-opacity="0" result="BackgroundImageFix"/>
<feColorMatrix in="SourceAlpha" type="matrix" values="0 0 0 0 0 0 0 0 0 0 0 0 0 0 0 0 0 0 127 0" result="hardAlpha"/>
<feOffset dx="-4"/>
<feGaussianBlur stdDeviation="4"/>
<feColorMatrix type="matrix" values="0 0 0 0 0 0 0 0 0 0 0 0 0 0 0 0 0 0 0.15 0"/>
<feBlend mode="normal" in2="BackgroundImageFix" result="effect1_dropShadow_3406_6167"/>
<feBlend mode="normal" in="SourceGraphic" in2="effect1_dropShadow_3406_6167" result="shape"/>
</filter>
</defs>
</svg>
