<svg width="46" height="46" viewBox="0 0 46 46" fill="none" xmlns="http://www.w3.org/2000/svg">
<g clip-path="url(#clip0_2603_11260)">
<path d="M23 45.8789C35.4264 45.8789 45.5 35.8053 45.5 23.3789C45.5 10.9525 35.4264 0.878906 23 0.878906C10.5736 0.878906 0.5 10.9525 0.5 23.3789C0.5 35.8053 10.5736 45.8789 23 45.8789Z" fill="#F3BA2F"/>
<path d="M17.5381 21.1345L23 15.6727L28.4647 21.1374L31.6428 17.9593L23 9.31641L14.36 17.9564L17.5381 21.1345ZM8.9375 23.3789L12.1156 20.2008L15.2938 23.3789L12.1156 26.557L8.9375 23.3789ZM17.5381 25.6233L23 31.0852L28.4647 25.6205L31.6428 28.7972L23 37.4414L14.36 28.8014L14.3558 28.7972L17.5381 25.6233ZM30.7063 23.3789L33.8844 20.2008L37.0625 23.3789L33.8844 26.557L30.7063 23.3789ZM26.2231 23.3761H26.226V23.3789L23 26.6049L19.7783 23.3845L19.7727 23.3789L19.7783 23.3747L20.3421 22.8094L20.6164 22.5352L23 20.153L26.2246 23.3775L26.2231 23.3761Z" fill="white"/>
</g>
<defs>
<clipPath id="clip0_2603_11260">
<rect width="45" height="45" fill="white" transform="translate(0.5 0.878906)"/>
</clipPath>
</defs>
</svg>
