<svg width="190" height="62" viewBox="0 0 190 62" fill="none" xmlns="http://www.w3.org/2000/svg">
<g clip-path="url(#clip0_2731_6658)">
<path d="M93.17 53.758H85.2724V22.895H93.17V53.758ZM84.4473 11.7802C84.4473 9.03651 86.6442 7.18506 89.3919 7.18506C91.7962 7.18506 93.924 9.03651 93.924 11.7802C93.924 14.7982 91.7962 16.7187 89.3919 16.7187C86.5772 16.7187 84.4473 14.7982 84.4473 11.7802ZM102.444 42.0294V14.3185H110.341V22.893H120.3V30.3008H110.341V41.5498C110.341 45.2527 111.577 47.1062 114.05 47.1062C115.629 47.1062 117.211 46.4884 118.79 45.3218L121.194 51.4269C118.721 53.4166 115.698 54.4449 112.059 54.4449C105.258 54.4449 102.444 50.2604 102.444 42.0294ZM150.866 45.1165L153.132 50.6729C150.11 53.2093 146.196 54.514 141.318 54.514C136.304 54.514 132.321 53.004 129.23 50.0551C126.208 47.1062 124.698 43.196 124.698 38.3265C124.698 33.7294 126.208 29.8883 129.161 26.8032C132.114 23.714 136.099 22.139 141.044 22.139C145.096 22.139 148.598 23.5108 151.415 26.1833C154.231 28.8599 155.672 32.2905 155.672 36.473C155.672 38.1883 155.536 39.6292 155.193 40.7267H132.87C133.487 45.3218 137.199 47.9293 142.143 47.9293C145.645 47.9293 148.531 46.968 150.866 45.1165ZM140.7 28.7237C136.235 28.7237 133.487 30.9857 132.595 35.4447H147.775C147.844 31.6035 145.096 28.7237 140.7 28.7237ZM176.278 30.3008H160.548V22.893H187.336V28.5855L170.578 46.4193H186.993V53.758H159.522V48.0654L176.278 30.3008Z" fill="#1F1F1F"/>
<path d="M31.0256 0.326172C47.8859 0.326172 61.5513 13.9753 61.5513 30.8112C61.5513 47.647 47.8859 61.2962 31.0256 61.2962C14.1674 61.2962 0.5 47.647 0.5 30.8112C0.5 13.9753 14.1674 0.326172 31.0256 0.326172ZM38.464 9.48387L33.0885 24.2183C33.0722 24.2671 33.062 24.3179 33.062 24.3666C33.062 24.6044 33.2551 24.7975 33.4929 24.7975H43.6586C43.7298 24.7975 43.8009 24.8158 43.8639 24.8503C44.0732 24.9621 44.1484 25.2243 44.0366 25.4316L28.8897 53.2888C29.5928 53.3558 30.3062 53.3904 31.0256 53.3904C43.5123 53.3904 53.6353 43.2816 53.6353 30.8112C53.6353 20.9442 47.2965 12.5547 38.464 9.48387ZM27.4345 8.51648C16.655 10.2358 8.41797 19.5622 8.41797 30.8112C8.41797 40.544 14.5841 48.838 23.2255 52.0084L29.1945 33.0427C29.2087 33.002 29.2148 32.9573 29.2148 32.9146C29.2148 32.6769 29.0238 32.4838 28.786 32.4838H20.173C20.1262 32.4838 20.0815 32.4777 20.0389 32.4635C19.8133 32.3883 19.6893 32.1464 19.7645 31.9208L27.4345 8.51648Z" fill="#6A42E9"/>
</g>
<defs>
<clipPath id="clip0_2731_6658">
<rect width="189.007" height="60.97" fill="white" transform="translate(0.5 0.326172)"/>
</clipPath>
</defs>
</svg>
