<svg width="150" height="150" viewBox="0 0 150 150" fill="none" xmlns="http://www.w3.org/2000/svg">
<rect width="150" height="150" fill="#F7F7F7"/>
<mask id="mask0_3406_6240" style="mask-type:alpha" maskUnits="userSpaceOnUse" x="19" y="42" width="70" height="44">
<path d="M19 46C19 43.7909 20.7909 42 23 42H85C87.2091 42 89 43.7909 89 46V82C89 84.2091 87.2091 86 85 86H23C20.7909 86 19 84.2091 19 82V46Z" fill="white"/>
</mask>
<g mask="url(#mask0_3406_6240)">
<path d="M14 42L14 86H94V42L14 42Z" fill="#0059B7"/>
<path d="M53.7536 46.0117L54.6491 48.8244H57.5464L55.2023 50.5628L56.0977 53.3755L53.7536 51.6371L51.4095 53.3755L52.3049 50.5628L49.9609 48.8244H52.8583L53.7536 46.0117Z" fill="#FFDE59"/>
<path d="M41.1759 51.3867L43.7899 52.746L45.8641 50.6289L45.4051 53.5862L48.0191 54.9456L45.1216 55.4141L44.6627 58.3716L43.3309 55.7036L40.4336 56.1721L42.5078 54.0549L41.1759 51.3867Z" fill="#FFDE59"/>
<path d="M35.9102 64.4261L38.8076 63.4651V60.3555L40.5982 62.8713L43.4957 61.9104L41.7049 64.4261L43.4957 66.9418L40.5982 65.9809L38.8076 68.4967V65.3871L35.9102 64.4261Z" fill="#FFDE59"/>
<path d="M41.1759 77.1725L42.5077 74.5043L40.4336 72.387L43.331 72.8557L44.6627 70.1875L45.1217 73.1449L48.0191 73.6134L45.4054 74.9729L45.8642 77.9303L43.79 75.813L41.1759 77.1725Z" fill="#FFDE59"/>
<path d="M53.7536 82.4729L52.8582 79.6602H49.9609L52.305 77.9219L51.4095 75.1094L53.7536 76.8476L56.0977 75.1094L55.2023 77.9219L57.5464 79.6602H54.649L53.7536 82.4729Z" fill="#FFDE59"/>
<path d="M66.4368 77.1726L63.8228 75.8131L61.7483 77.9305L62.2076 74.9729L59.5938 73.6134L62.4911 73.145L62.95 70.1875L64.2818 72.8557L67.1792 72.387L65.1048 74.5046L66.4368 77.1726Z" fill="#FFDE59"/>
<path d="M71.9996 64.4262L69.1021 65.3873V68.4969L67.3114 65.981L64.4141 66.942L66.2048 64.4262L64.4141 61.9105L67.3116 62.8714L69.1021 60.3555V63.4653L71.9996 64.4262Z" fill="#FFDE59"/>
<path d="M66.4368 51.3866L65.1048 54.0548L67.1792 56.1721L64.2817 55.7034L62.95 58.3715L62.4911 55.414L59.5938 54.9454L62.2074 53.5861L61.7483 50.6289L63.8229 52.746L66.4368 51.3866Z" fill="#FFDE59"/>
</g>
<g filter="url(#filter0_d_3406_6240)">
<path d="M130 75H61C59.3431 75 58 76.3431 58 78V109C58 110.657 59.3431 112 61 112H130C131.657 112 133 110.657 133 109V78C133 76.3431 131.657 75 130 75Z" fill="#2C2C2C"/>
<path d="M130 76H61C59.8954 76 59 76.8954 59 78V109C59 110.105 59.8954 111 61 111H130C131.105 111 132 110.105 132 109V78C132 76.8954 131.105 76 130 76Z" stroke="#F7F7F7" stroke-width="2"/>
</g>
<path d="M81.8047 103H71.9375V85.8672H81.8047V88.8438H75.5703V92.6055H81.3711V95.582H75.5703V100H81.8047V103ZM101.336 85.8672V96.9531C101.336 98.2188 101.051 99.3281 100.48 100.281C99.918 101.234 99.1016 101.965 98.0312 102.473C96.9609 102.98 95.6953 103.234 94.2344 103.234C92.0312 103.234 90.3203 102.672 89.1016 101.547C87.8828 100.414 87.2734 98.8672 87.2734 96.9062V85.8672H90.8945V96.3555C90.8945 97.6758 91.1602 98.6445 91.6914 99.2617C92.2227 99.8789 93.1016 100.188 94.3281 100.188C95.5156 100.188 96.375 99.8789 96.9062 99.2617C97.4453 98.6367 97.7148 97.6602 97.7148 96.332V85.8672H101.336ZM111.164 93.4727H112.336C113.484 93.4727 114.332 93.2812 114.879 92.8984C115.426 92.5156 115.699 91.9141 115.699 91.0938C115.699 90.2812 115.418 89.7031 114.855 89.3594C114.301 89.0156 113.438 88.8438 112.266 88.8438H111.164V93.4727ZM111.164 96.4258V103H107.531V85.8672H112.523C114.852 85.8672 116.574 86.293 117.691 87.1445C118.809 87.9883 119.367 89.2734 119.367 91C119.367 92.0078 119.09 92.9062 118.535 93.6953C117.98 94.4766 117.195 95.0898 116.18 95.5352C118.758 99.3867 120.438 101.875 121.219 103H117.188L113.098 96.4258H111.164Z" fill="white"/>
<defs>
<filter id="filter0_d_3406_6240" x="46" y="67" width="91" height="53" filterUnits="userSpaceOnUse" color-interpolation-filters="sRGB">
<feFlood flood-opacity="0" result="BackgroundImageFix"/>
<feColorMatrix in="SourceAlpha" type="matrix" values="0 0 0 0 0 0 0 0 0 0 0 0 0 0 0 0 0 0 127 0" result="hardAlpha"/>
<feOffset dx="-4"/>
<feGaussianBlur stdDeviation="4"/>
<feColorMatrix type="matrix" values="0 0 0 0 0 0 0 0 0 0 0 0 0 0 0 0 0 0 0.15 0"/>
<feBlend mode="normal" in2="BackgroundImageFix" result="effect1_dropShadow_3406_6240"/>
<feBlend mode="normal" in="SourceGraphic" in2="effect1_dropShadow_3406_6240" result="shape"/>
</filter>
</defs>
</svg>
