<svg width="150" height="150" viewBox="0 0 150 150" fill="none" xmlns="http://www.w3.org/2000/svg">
<rect width="150" height="150" fill="#3382C3"/>
<path fill-rule="evenodd" clip-rule="evenodd" d="M123.762 46.004L120.127 45.5887V45.0704L120.855 45.1734V44.8612L120.127 44.7582L120.23 44.4475L121.893 44.6552V44.3445L119.918 44.2399L120.023 43.8246L123.242 44.2399L123.345 43.9292L123.657 44.0323L123.76 43.4094C94.4756 41.0224 56.8842 49.3293 41.9297 61.686C40.8899 62.5165 39.9564 63.3471 39.2305 64.2822C38.7106 64.8021 38.2953 65.322 37.8801 65.8403C38.674 65.2956 39.5067 64.8098 40.3717 64.3868C41.7555 63.5298 43.1759 62.7334 44.629 61.9998C65.2942 51.3027 94.0588 45.072 121.787 48.1882L121.891 47.356L118.983 47.0454V46.6301L119.709 46.7331V46.4209L123.031 46.8361V46.5255H123.448V46.2132H123.758V46.004H123.762ZM34.7656 70.6143C34.8686 70.5113 34.8686 70.4066 34.9732 70.3036V70.6143H34.7656Z" fill="white"/>
<path fill-rule="evenodd" clip-rule="evenodd" d="M122.307 50.2612L122.41 49.9506H122.72L122.823 49.12C93.8509 46.8361 64.6695 52.9621 46.4975 62.2042C44.9394 62.9301 43.589 63.7623 42.2385 64.5912C40.5098 65.5565 38.8447 66.6318 37.2537 67.8103C37.0461 68.018 36.9415 68.1226 36.7338 68.2256L36.6308 69.4714C36.9415 69.2638 37.2537 69.1608 37.5644 68.9531L39.1224 68.018C41.0957 66.9798 43.1737 65.837 45.3531 64.9018C47.1187 64.0713 48.8844 63.3438 50.6501 62.6179C71.3154 54.4139 98.0036 50.4689 119.292 53.6864V53.3757L119.602 53.4787L119.705 52.9605L122.717 53.2711V52.9605H123.028L123.132 52.4406H123.34L123.445 52.1283L121.886 52.0253V51.7147H122.197V51.404H121.886L121.989 51.0918L124.586 51.2994V51.0918H124.898L125.001 50.5719L122.307 50.2612ZM30.8203 76.6372C30.8203 76.4296 30.9233 76.3265 31.0279 76.2219C30.9249 76.3265 30.9249 76.4296 30.9249 76.6372H30.8203Z" fill="white"/>
<path fill-rule="evenodd" clip-rule="evenodd" d="M53.2494 62.9302C51.3807 63.6577 49.5104 64.3836 47.7463 65.1111C45.5034 66.0899 43.2873 67.129 41.1004 68.2272C40.5822 68.5395 39.9593 68.8501 39.4394 69.1624C38.4012 69.6823 37.3614 70.2022 36.4279 70.7205L36.1172 71.0311V72.7968C37.3087 72.2004 38.5209 71.6463 39.7516 71.1357C40.8928 70.5128 42.0356 69.9929 43.2814 69.4731C43.957 69.2407 44.6163 68.9632 45.2547 68.6425C47.8618 67.6104 50.4931 66.6406 53.1464 65.734C55.3274 64.9019 57.5084 64.2806 59.7923 63.5531C75.9926 58.8805 93.5417 56.9072 112.651 58.7759L112.754 58.256H113.064V57.9453L110.78 57.7377L110.885 57.1148L111.196 57.2178V56.9056L112.131 57.0102L112.234 56.3873L112.545 56.4903L112.649 56.1796L114 56.2826V55.7628H114.415V55.5551L115.35 55.6581V55.3475H115.765V55.1399L114.83 55.0368V54.7262L117.426 55.0368V54.7262L117.842 54.8292V54.5186C93.7494 51.6117 70.4879 56.3873 53.2494 62.9302ZM95.5151 74.9762C95.4121 74.6639 95.3074 74.2486 95.2044 73.9364C94.7867 72.5183 94.1936 71.1578 93.4387 69.8867C92.9714 69.2222 92.4503 68.5972 91.8807 68.018L90.7395 69.6791L88.6615 72.4829C88.8692 72.7936 89.0768 73.0028 89.2844 73.3135C89.5951 73.7287 89.9073 74.041 90.2196 74.4563C90.7395 75.1838 91.2578 75.8067 91.673 76.5342C92.4006 77.9877 93.0235 79.8564 93.1265 83.0755C93.1265 83.2831 93.2295 83.3862 93.2295 83.4908C93.3325 83.3862 93.5401 83.2831 93.6447 83.1785C95.4104 81.9327 96.0333 79.5441 95.8241 76.9479C95.7227 76.3266 95.6181 75.7021 95.5151 74.9762Z" fill="white"/>
<path fill-rule="evenodd" clip-rule="evenodd" d="M99.4609 70.5114C99.2533 69.5763 99.0456 68.6427 98.735 67.7076C98.0075 65.9419 97.0739 64.2808 95.6189 62.7227L92.6074 67.0847L92.5044 67.1877C93.5425 68.1228 94.2701 69.161 94.893 70.0962C95.6994 71.2906 96.2643 72.6314 96.5556 74.0428C96.5556 74.4581 96.6587 74.7703 96.6587 75.184C96.7633 75.8069 96.8663 76.4298 96.8663 77.1573C96.9709 77.8849 96.9709 78.7154 96.9709 79.6505C97.5938 79.0276 98.1137 78.1971 98.632 77.262C98.8396 76.7437 99.0473 76.1208 99.2549 75.3932C99.2549 75.0826 99.3595 74.6657 99.4625 74.3535C99.5655 73.1077 99.5655 71.8619 99.4609 70.5114ZM90.1158 76.4298C89.7169 75.6497 89.2292 74.9184 88.6623 74.2504C88.4547 74.0428 88.144 73.7305 87.9348 73.6275L87.5195 74.1458L86.1691 76.0161L84.8187 77.8848C85.9615 79.1306 87.1027 80.8963 87.9348 82.5574C88.6623 84.0124 89.1806 85.3613 89.2852 86.3994L91.7768 84.8414C92.0891 84.6337 92.1921 83.9062 92.1921 83.0757C92.0891 81.207 91.257 78.5061 90.1158 76.4298ZM79.8355 95.4356C63.8428 101.251 47.5395 98.0318 38.2974 91.072C33.0003 87.127 30.0934 81.9345 30.924 76.6391H30.8209C28.2247 81.9345 28.5354 86.5041 30.7179 90.3461C38.0914 102.807 66.7513 105.923 83.5745 95.8508C86.0677 94.2912 88.3517 92.4241 90.2204 90.3461C86.9643 92.4333 83.48 94.1409 79.8355 95.4356Z" fill="white"/>
<path fill-rule="evenodd" clip-rule="evenodd" d="M36.0101 77.1585C35.3297 75.0445 34.9795 72.8381 34.9719 70.6172H34.7643C33.6215 72.7982 32.894 74.8745 32.6863 76.8479C32.0634 82.7663 35.6978 87.8557 41.6162 91.3855C50.3384 96.7856 64.3578 98.7605 76.9237 95.1261C83.1543 93.3588 88.9697 90.2443 93.7468 85.4671C77.965 95.6428 42.6576 96.0581 36.0101 77.1585Z" fill="white"/>
<path fill-rule="evenodd" clip-rule="evenodd" d="M59.687 103.326C54.4945 103.534 49.1992 103.016 44.5266 101.77C37.3608 99.8998 31.4423 96.1624 28.8461 90.0347C27.7049 87.5431 27.185 84.6346 27.3926 81.3125C25.8346 84.4286 25.004 87.2309 25.004 89.7241C24.901 93.9814 26.7697 97.5112 29.8843 100.212C33.5187 103.431 38.9188 105.612 44.9418 106.65L52.2107 107.484C58.8566 107.692 65.8146 106.755 71.9406 104.68C77.2361 102.81 82.0133 100.006 85.1278 96.164C79.937 100.21 69.9674 103.016 59.687 103.326Z" fill="white"/>
</svg>
