<svg width="38" height="38" viewBox="0 0 38 38" fill="none" xmlns="http://www.w3.org/2000/svg">
<rect x="0.5" y="0.5" width="37" height="37" rx="5" fill="#48535A"/>
<path d="M9.56881 17.7676C8.82827 17.7676 8.21913 18.2805 8.21913 19.1337C8.21913 19.9335 8.63197 20.4349 9.47468 20.4349C10.2232 20.4349 10.8252 19.9182 10.8252 19.0651C10.8252 18.1811 10.305 17.7676 9.56881 17.7676ZM16.9769 17.7676C16.3144 17.7676 15.9264 18.0851 15.9264 18.5443C15.9264 19.3861 17.0918 19.1682 17.0918 19.662C17.0918 19.8991 16.8752 20.0022 16.6052 20.0022C16.4047 20.0022 16.1841 19.9602 16.0285 19.9104L15.9958 20.373C16.1677 20.4152 16.3634 20.4349 16.5597 20.4349C17.2388 20.4349 17.6526 20.0787 17.6526 19.5926C17.6526 18.793 16.4824 18.9573 16.4824 18.4943C16.4824 18.3107 16.6463 18.1809 16.953 18.1809C17.1208 18.1809 17.2921 18.2074 17.4476 18.2496L17.4763 17.8138C17.3127 17.787 17.1325 17.7676 16.9769 17.7676ZM26.325 17.7713C25.3677 17.7713 24.7783 18.3494 24.7783 19.1606C24.7783 19.9488 25.2982 20.4305 26.1736 20.4305C26.5048 20.4305 26.8445 20.3734 27.1188 20.2701V19.0382H26.5867V19.9373C26.4804 19.9679 26.3657 19.9828 26.235 19.9828C25.6746 19.9828 25.3551 19.6615 25.3551 19.1143C25.3551 18.5366 25.7483 18.2153 26.2922 18.2153C26.55 18.2153 26.8028 18.2647 27.0238 18.3451L27.106 17.8825C26.8687 17.8174 26.5991 17.7713 26.325 17.7713ZM5.43359 17.8094L6.3948 20.3924H7.00424L7.96945 17.8094H7.42543L6.8814 19.2904C6.79961 19.5084 6.75479 19.6539 6.71389 19.8298H6.70511C6.65602 19.6423 6.59465 19.4664 6.54157 19.321L6.00633 17.8094H5.43359ZM11.4753 17.8094V20.3924H12.9031V19.9559H12.0073V17.8094H11.4753ZM13.4759 17.8094V20.3924H14.0071V19.1524L14.899 20.3924H15.5945L14.5392 19.0569L15.5499 17.8094H14.9029L14.0071 18.9808V17.8094H13.4759ZM18.0698 17.8094L18.7733 20.3924H19.3867L19.7872 18.9576C19.8364 18.7856 19.8735 18.613 19.8941 18.4331H19.8981C19.9268 18.6169 19.9593 18.8042 20.0041 18.9688L20.4054 20.3924H21.0555L21.7591 17.8094H21.2278L20.8513 19.2523C20.8104 19.4054 20.7737 19.5694 20.7452 19.7493H20.7404C20.7159 19.5694 20.6712 19.3858 20.6303 19.2441L20.2044 17.8094H19.6444L19.2232 19.2523C19.1741 19.4169 19.1411 19.5929 19.1123 19.7649H19.1084C19.0838 19.585 19.0513 19.405 19.0063 19.2367L18.6297 17.8094H18.0698ZM22.8559 17.8094L21.8907 20.3924H22.4259L22.6182 19.8642H23.6695L23.8618 20.3924H24.4433L23.4573 17.8094H22.8559ZM27.9977 17.8094V20.3924H29.4991V19.9679H28.5297V19.2673H29.4503V18.8621H28.5297V18.2264H29.4991V17.8094H27.9977ZM30.2808 17.8094V20.3924H30.7961V19.4702C30.7961 19.1604 30.7877 18.7244 30.7714 18.5025C30.8531 18.6708 30.9799 18.8738 31.0983 19.0688L31.9167 20.3924H32.5669V17.8094H32.0516V18.6129C32.0516 18.9305 32.0598 19.4205 32.0803 19.6806C31.9779 19.4854 31.8393 19.2558 31.7167 19.0569L30.9389 17.8094H30.2808ZM9.52015 18.2153C9.99458 18.2153 10.2564 18.5293 10.2564 19.1031C10.2564 19.723 9.87128 19.9828 9.51136 19.9828C9.01623 19.9828 8.78787 19.6271 8.78787 19.08C8.78787 18.4984 9.13969 18.2153 9.52015 18.2153ZM23.1335 18.3794H23.1423C23.1791 18.5248 23.22 18.6511 23.2731 18.7927L23.5307 19.4702H22.7538L23.0026 18.8121C23.0599 18.663 23.1007 18.5134 23.1335 18.3794Z" fill="white"/>
</svg>
