<svg width="221" height="49" viewBox="0 0 221 49" fill="none" xmlns="http://www.w3.org/2000/svg">
<path d="M97.4783 0.771397C85.5086 2.62792 77.2031 12.3991 77.2031 24.6619C77.2031 31.5017 79.3039 36.5827 84.0429 41.3217C88.8797 46.1584 94.1561 48.2592 101.387 48.3081C106.565 48.3081 110.474 47.331 114.382 44.9859C125.131 38.4392 128.941 25.3459 123.518 13.6205C120.734 7.61121 112.477 1.79737 105.295 0.771397C101.484 0.233982 100.947 0.233982 97.4783 0.771397ZM106.077 9.85858C112.721 11.8128 116.776 17.4801 116.776 24.7596C116.776 30.6223 113.21 35.9964 107.738 38.4881C104.416 39.9538 98.5043 40.0026 95.1821 38.5369C82.6261 32.9185 83.359 14.4999 96.3546 10.0051C99.5791 8.88146 102.608 8.83261 106.077 9.85858Z" fill="#1F1F1F"/>
<path d="M190.748 1.02687C182.198 2.88339 175.309 9.33236 172.671 17.8333C171.645 21.1555 171.743 28.2396 172.867 31.806C175.993 41.8703 185.325 48.3682 196.659 48.3682C204.037 48.3682 208.629 46.7559 213.368 42.6032C217.618 38.8413 219.573 34.3465 220.159 26.9205L220.501 22.7677L208.58 22.8654L196.659 23.012L196.513 26.7739L196.366 30.5846H203.45C207.359 30.5846 210.632 30.7801 210.779 31.0243C210.925 31.2198 210.388 32.4412 209.606 33.7114C203.695 42.9452 186.79 41.2841 182.198 30.9755C180.488 27.1159 180.586 21.0089 182.345 17.6378C184.006 14.5111 186.742 11.8729 189.82 10.456C191.725 9.62549 193.191 9.38121 196.415 9.38121C201.398 9.33236 204.525 10.5049 207.408 13.4851L209.313 15.4393L212.489 13.6805C217.423 10.9935 217.374 11.14 214.492 7.91554C210.192 3.27423 202.571 0.245174 195.438 0.342888C194.51 0.342888 192.409 0.684879 190.748 1.02687Z" fill="#1F1F1F"/>
<path d="M0.496094 16.9933C0.496094 26.276 0.740373 33.9463 1.03351 35.8028C2.20605 42.3984 7.62904 47.1374 15.2994 48.1634C24.24 49.4336 32.2524 45.8183 35.2326 39.2716C36.4051 36.7311 36.4051 36.438 36.5517 18.9476L36.6983 1.26178H32.0569H27.4156L27.2691 18.2147C27.1225 34.3372 27.0737 35.2654 26.1454 36.5357C24.4354 38.783 22.5789 39.5647 18.817 39.5647C14.5666 39.6136 12.2703 38.5876 10.8535 35.9983C9.82755 34.1417 9.7787 33.6043 9.7787 17.6773V1.26178H5.1374H0.496094V16.9933Z" fill="#1F1F1F"/>
<path d="M41.7403 1.90715C41.5938 2.298 41.5449 4.20338 41.6426 6.20647L41.7892 9.8218L48.0427 9.96836L54.2474 10.1149V28.8756V47.6851H58.8887H63.53V28.8756V10.0661H69.8813H76.2326V5.66905V1.27203H59.133C45.258 1.27203 41.9358 1.41859 41.7403 1.90715Z" fill="#1F1F1F"/>
<path d="M132.891 24.4238V47.728L137.434 47.5815L141.929 47.4349L142.076 39.4714L142.173 31.5568H145.789H149.355L153.557 38.7874C159.37 48.754 158.247 47.728 163.816 47.5815L168.555 47.4349L164.696 40.9859C162.546 37.4194 160.25 33.5598 159.517 32.3384L158.247 30.1399L159.615 29.456C166.357 25.9383 169.191 16.5092 165.624 9.62049C164.354 7.07999 160.885 3.95321 158.051 2.63411C155.755 1.60814 154.827 1.51042 144.274 1.36386L132.891 1.16843V24.4238ZM154.338 10.451C156.928 11.7213 158.003 13.5778 158.003 16.558C158.003 18.4145 157.709 19.5382 156.928 20.6619C155.218 23.1047 153.215 23.7398 147.352 23.7398H142.173V16.6557V9.57163H147.45C151.456 9.57163 153.068 9.76706 154.338 10.451Z" fill="#1F1F1F"/>
</svg>
