<svg width="11" height="10" viewBox="0 0 11 10" fill="none" xmlns="http://www.w3.org/2000/svg">
<path d="M9.58172 0.0156364C9.39224 0.0742388 9.29848 0.16019 9.03477 0.517664C8.93319 0.656356 8.57767 1.13885 8.24364 1.59009C7.9096 2.04133 7.5072 2.58633 7.35288 2.8012C5.96205 4.71359 5.15334 6.17865 4.67866 7.64762L4.61419 7.84296L3.96761 7.19834C2.82291 6.05364 1.80519 5.14334 1.52976 5.01247C1.25823 4.88354 0.924197 4.94996 0.697602 5.17655C0.568676 5.30352 0.512027 5.42659 0.50226 5.58872C0.486633 5.83681 0.543282 5.91885 0.951545 6.2607C1.71533 6.89946 2.40293 7.5519 3.61405 8.78255C4.10826 9.28458 4.54192 9.72019 4.57708 9.74949C4.79782 9.92725 5.23733 9.92725 5.46002 9.74949C5.5909 9.64401 5.63192 9.54829 5.69443 9.20254C5.97963 7.65934 6.7063 6.09075 8.00532 4.21743C8.25535 3.85605 8.94686 2.90864 9.36489 2.35192C10.031 1.46311 10.41 0.941554 10.4529 0.847791C10.5096 0.728633 10.5155 0.531338 10.4686 0.416086C10.3631 0.162143 10.0877 -0.00389767 9.77902 9.53674e-06C9.69697 9.53674e-06 9.60907 0.00782299 9.58172 0.0156364Z" fill="url(#paint0_linear_3089_6856)"/>
<defs>
<linearGradient id="paint0_linear_3089_6856" x1="5.5" y1="9.88281" x2="5.5" y2="-5.81741e-05" gradientUnits="userSpaceOnUse">
<stop stop-color="#2E8CFF"/>
<stop offset="1" stop-color="#38BEFF"/>
</linearGradient>
</defs>
</svg>
