<svg width="21" height="20" viewBox="0 0 21 20" fill="none" xmlns="http://www.w3.org/2000/svg">
<path d="M10.1128 5.13707L10.1128 5.13709C10.3562 4.95921 10.6746 5.00768 10.8686 5.24788L10.8705 5.25019L10.8704 5.25024C10.9149 5.31253 11.0268 5.50427 11.1684 5.76117C11.3108 6.01943 11.4851 6.34668 11.6551 6.68246C11.8248 7.01768 11.9797 7.32315 12.0932 7.54586C12.1499 7.65723 12.1963 7.74783 12.229 7.81108C12.2453 7.84273 12.2582 7.86739 12.2672 7.88435L12.271 7.89137C12.2737 7.89183 12.2768 7.89232 12.2802 7.89286C12.301 7.89611 12.3314 7.90046 12.3707 7.90582C12.4492 7.91653 12.562 7.93109 12.7009 7.94859C12.9787 7.98358 13.3605 8.03024 13.7805 8.08115C13.7806 8.08116 13.7806 8.08116 13.7806 8.08116L13.7746 8.1308C15.4294 8.32599 15.5992 8.3854 15.5992 8.83519C15.5992 9.04735 15.4209 9.27649 14.5384 10.1761L10.1128 5.13707ZM10.1128 5.13707L10.1116 5.13799C10.0952 5.15078 10.0777 5.17356 10.061 5.19784C10.043 5.22396 10.0218 5.25799 9.99803 5.29852C9.95033 5.37968 9.89073 5.48928 9.82321 5.61902C9.68808 5.87863 9.52016 6.22086 9.35025 6.58192L9.35005 6.58236C9.18465 6.94283 9.02775 7.27783 8.90905 7.52689C8.84969 7.65144 8.79994 7.75437 8.76349 7.8282C8.74525 7.86515 8.73043 7.89461 8.71945 7.91578C8.71452 7.92527 8.71047 7.9329 8.70729 7.93869C8.70278 7.94023 8.69698 7.94206 8.68978 7.94418C8.67003 7.95 8.64218 7.95731 8.60676 7.96591C8.53606 7.9831 8.43722 8.00498 8.3171 8.02985C8.07694 8.07958 7.75294 8.14099 7.40131 8.2003L7.401 8.20036C7.34298 8.21051 7.2869 8.22032 7.23268 8.2298C6.49516 8.3588 6.10428 8.42716 5.88214 8.47996C5.76288 8.5083 5.68805 8.53307 5.63303 8.56228C5.57653 8.59228 5.54333 8.62579 5.5067 8.66456C5.4349 8.73648 5.38493 8.81293 5.3637 8.8983C5.34228 8.98442 5.35142 9.07438 5.38883 9.17051C5.46229 9.35923 5.64838 9.58027 5.94955 9.86448L5.95 9.86489C6.16223 10.0604 6.45513 10.3402 6.72031 10.5936C6.85775 10.7249 6.98774 10.8491 7.0952 10.9507L7.09531 10.9508L7.64491 11.4676L7.41955 13.0033L7.41954 13.0034C7.30946 13.7655 7.2537 14.1595 7.24509 14.3835C7.24076 14.4959 7.24792 14.5714 7.26914 14.6313C7.29077 14.6923 7.32555 14.7326 7.36397 14.7753L7.36428 14.7757C7.41604 14.8321 7.48524 14.8802 7.5568 14.9143C7.62803 14.9482 7.70551 14.9701 7.77455 14.9701C7.79772 14.9701 7.82788 14.9627 7.8596 14.9528C7.89299 14.9424 7.9338 14.9273 7.98067 14.9083C8.0745 14.8704 8.19519 14.8158 8.33412 14.7487C8.61208 14.6145 8.96517 14.4294 9.32658 14.2254C9.32663 14.2253 9.32667 14.2253 9.32673 14.2253L10.6189 13.5083L12.0211 14.2011C12.6606 14.5187 13.0241 14.6963 13.252 14.7823C13.3661 14.8253 13.4503 14.8471 13.5206 14.8507C13.593 14.8543 13.6478 14.8386 13.7022 14.8127L10.1128 5.13707ZM13.8263 11.0223C14.0175 10.7994 14.2819 10.5117 14.5742 10.211L13.6812 14.7673C14.0207 14.6146 14.0292 14.3345 13.7406 12.9003L13.7897 12.8906C13.7897 12.8905 13.7897 12.8905 13.7896 12.8904C13.7176 12.5258 13.6519 12.1761 13.6042 11.9071C13.5804 11.7725 13.5611 11.6584 13.5478 11.5727C13.5347 11.4886 13.5281 11.4362 13.5276 11.4175C13.5278 11.4166 13.5284 11.4151 13.5293 11.4128C13.5317 11.4068 13.5359 11.3984 13.5424 11.3873C13.5552 11.3652 13.5748 11.336 13.6012 11.3001C13.6539 11.2285 13.7306 11.1338 13.8263 11.0223ZM11.0909 7.16938L11.0911 7.16982C11.2695 7.50536 11.4438 7.82206 11.5831 8.06252C11.6528 8.18268 11.714 8.28425 11.7628 8.35975C11.7871 8.39745 11.8087 8.42917 11.8269 8.45366C11.844 8.47668 11.8613 8.49764 11.8768 8.50973L11.8768 8.50973L11.8775 8.51026C11.8933 8.52207 11.918 8.53175 11.9427 8.54009C11.9697 8.54917 12.0043 8.55901 12.045 8.56937C12.1268 8.59014 12.236 8.61369 12.3649 8.63819C12.6228 8.6872 12.9612 8.7404 13.3186 8.78295C13.587 8.81811 13.8459 8.85207 14.068 8.8812C14.3656 8.92024 14.597 8.95061 14.6968 8.96355C14.6941 8.96818 14.6911 8.97332 14.6876 8.979C14.6575 9.02766 14.6027 9.09992 14.5234 9.19452C14.3655 9.38296 14.1162 9.65345 13.7898 9.9883C13.7898 9.98834 13.7897 9.98837 13.7897 9.98841L12.729 11.066L12.7106 11.0847L12.7156 11.1105L12.9871 12.5362L12.9872 12.5365C13.0635 12.9266 13.1314 13.2871 13.1801 13.5542C13.2045 13.6878 13.2241 13.7979 13.2376 13.8767C13.2417 13.9009 13.2453 13.922 13.2482 13.9399C13.2409 13.9373 13.2329 13.9344 13.2243 13.9311C13.1605 13.9071 13.0674 13.868 12.9515 13.8167C12.72 13.7142 12.4002 13.5639 12.0485 13.3901L12.0263 13.4349L12.0485 13.3901C11.6958 13.2159 11.3579 13.0565 11.0984 12.9405C10.9686 12.8826 10.8581 12.8353 10.7749 12.8024C10.7334 12.786 10.6981 12.773 10.6704 12.764C10.6565 12.7595 10.644 12.7558 10.6332 12.7531C10.6233 12.7508 10.6115 12.7484 10.6006 12.7484C10.5891 12.7484 10.5772 12.751 10.5674 12.7536C10.5566 12.7564 10.5443 12.7604 10.5309 12.7652C10.504 12.7749 10.4701 12.7888 10.4303 12.8062C10.3506 12.8412 10.245 12.8914 10.1211 12.9531C9.87315 13.0765 9.55004 13.2466 9.21014 13.4335L9.2101 13.4336C8.75613 13.6839 8.44819 13.842 8.2522 13.9269C8.15351 13.9696 8.08662 13.9923 8.04503 13.9998C8.03726 14.0012 8.0309 14.002 8.0258 14.0023C8.0256 13.996 8.02556 13.9882 8.02572 13.979C8.02611 13.9562 8.02766 13.9263 8.03035 13.8898C8.03571 13.817 8.04543 13.7199 8.05866 13.6051C8.08509 13.3757 8.1253 13.0772 8.1719 12.7637C8.22289 12.4492 8.26751 12.1369 8.2994 11.8861C8.33109 11.6368 8.35072 11.4444 8.35072 11.3727C8.35072 11.2523 8.29614 11.1367 8.13715 10.9509C7.97803 10.7648 7.70649 10.4999 7.25718 10.0802C7.25714 10.0802 7.25709 10.0802 7.25705 10.0801L6.26121 9.13961L7.59601 8.91846L7.59611 8.91844C8.25352 8.80816 8.68987 8.71854 8.96234 8.62916C9.09825 8.58457 9.19781 8.53868 9.26415 8.48741C9.33107 8.43569 9.36799 8.37518 9.36908 8.30377C9.36928 8.30294 9.36964 8.30157 9.37022 8.29958C9.37185 8.29404 9.3745 8.28614 9.37834 8.2757C9.38598 8.25492 9.39742 8.22642 9.41232 8.19101C9.44206 8.1203 9.48476 8.02398 9.53634 7.91055C9.63945 7.68381 9.77747 7.39002 9.91689 7.099C10.0563 6.80797 10.197 6.52002 10.3054 6.30494C10.3596 6.19734 10.4056 6.10834 10.4392 6.04642C10.4465 6.03306 10.4531 6.02108 10.459 6.01054C10.4657 6.0211 10.4732 6.03322 10.4814 6.04685C10.5186 6.10823 10.5697 6.19749 10.6311 6.30816C10.7539 6.52935 10.917 6.83444 11.0909 7.16938Z" fill="#40475A" stroke="#40475A" stroke-width="0.1"/>
<rect x="0.8" y="0.3" width="19.4" height="19.4" rx="9.7" stroke="#40475A" stroke-width="0.6"/>
</svg>
