<svg width="41" height="41" viewBox="0 0 41 41" fill="none" xmlns="http://www.w3.org/2000/svg">
<rect x="0.5" y="0.5" width="40" height="40" rx="5" fill="#2C2C2C"/>
<path d="M10.0946 25.152C9.30404 25.1206 8.65726 24.9042 8.15156 24.5025C8.05502 24.4257 7.82505 24.1956 7.74791 24.0986C7.54281 23.8407 7.4034 23.5897 7.31041 23.3113C7.02425 22.4542 7.17153 21.3294 7.73166 20.095C8.21124 19.0383 8.95129 17.9901 10.2424 16.5385C10.4326 16.3249 10.9989 15.7002 11.0026 15.7002C11.0039 15.7002 10.9731 15.7537 10.9342 15.8188C10.5985 16.3811 10.3113 17.0434 10.1548 17.6168C9.90342 18.5369 9.93374 19.3265 10.2436 19.9387C10.4573 20.3605 10.8238 20.7258 11.2358 20.9278C11.9572 21.2812 13.0133 21.3105 14.303 21.0134C14.3918 20.9928 18.792 19.8247 24.0812 18.4176C29.3704 17.0104 33.6986 15.8599 33.6994 15.8609C33.7008 15.8621 21.411 21.121 15.0312 23.8492C14.0208 24.2812 13.7506 24.3903 13.2756 24.557C12.0614 24.9834 10.9737 25.1869 10.0946 25.152Z" fill="#F9F9F9"/>
</svg>
