<svg width="221" height="65" viewBox="0 0 221 65" fill="none" xmlns="http://www.w3.org/2000/svg">
<mask id="mask0_2731_6547" style="mask-type:luminance" maskUnits="userSpaceOnUse" x="0" y="0" width="221" height="65">
<path d="M220.5 0.498047H0.5V64.2584H220.5V0.498047Z" fill="white"/>
</mask>
<g mask="url(#mask0_2731_6547)">
<path d="M0.499462 36.1076C0.499462 51.6556 13.1034 64.2597 28.6511 64.2597C44.1988 64.2597 56.8027 51.6556 56.8027 36.1076C56.8027 20.5597 44.1988 7.95557 28.6511 7.95557C13.1034 7.95557 0.499462 20.5597 0.499462 36.1076Z" fill="#1F1F1F"/>
<path d="M52.7038 8.14129C52.7038 12.3625 56.1257 15.7845 60.347 15.7845C64.5682 15.7845 67.9902 12.3625 67.9902 8.14129C67.9902 3.92004 64.5682 0.498047 60.347 0.498047C56.1257 0.498047 52.7038 3.92004 52.7038 8.14129Z" fill="#1F1F1F"/>
<path d="M69.8203 50.1161H74.4192L77.1912 35.722C77.5775 33.6856 77.9986 30.4556 77.9986 30.4556H78.069C78.069 30.4556 78.1042 33.4397 78.245 35.3004L79.4396 50.1161H84.214L91.1304 35.2661C92.1133 33.1598 93.2019 30.4565 93.2019 30.4565H93.2723C93.2723 30.4565 92.4649 33.5462 92.0434 35.7228L89.2714 50.117H93.9411L98.7837 25.0141H91.5515L85.5133 38.0381C84.0741 41.1621 82.9503 44.533 82.9503 44.533H82.9151C82.9151 44.533 82.8799 40.917 82.5992 37.405L81.6515 25.0141H74.6652L69.8203 50.1161ZM105.805 50.6441C111.949 50.6441 115.811 45.5885 115.811 39.8311C115.811 34.4948 112.089 31.6159 107.49 31.6159C101.347 31.6159 97.3445 36.5659 97.3445 42.2533C97.3445 47.7621 101.101 50.6428 105.805 50.6428V50.6441ZM102.049 42.5327C102.049 39.0567 103.628 35.1601 107.245 35.1601C110.017 35.1601 111.106 37.3368 111.106 39.689C111.106 43.1294 109.562 47.0968 105.91 47.0968C103.137 47.0968 102.049 44.9901 102.049 42.5327ZM124.447 50.6428C130.59 50.6428 134.452 45.5872 134.452 39.8298C134.452 34.4935 130.731 31.6146 126.132 31.6146C119.989 31.6141 115.985 36.5646 115.985 42.252C115.985 47.7621 119.743 50.6428 124.447 50.6428H124.447ZM120.69 42.5327C120.69 39.0567 122.27 35.1601 125.886 35.1601C128.658 35.1601 129.748 37.3368 129.748 39.689C129.748 43.1294 128.203 47.0968 124.552 47.0968C121.779 47.0968 120.69 44.9901 120.69 42.5327ZM141.86 32.1047H137.261L133.785 50.1148H138.49L140.386 40.2848C140.877 37.6518 142.457 35.6155 144.669 35.6155C146.67 35.6155 147.583 36.9144 147.126 39.3018L145.02 50.1161H149.724L151.901 38.7421C152.708 34.5291 150.637 31.6141 147.056 31.6141C144.493 31.6141 142.983 32.7374 141.439 34.9493H141.334L141.86 32.1047ZM151.936 50.1148H157.132L158.885 41.0231H164.994C170.611 41.0231 174.437 37.793 174.437 32.4215C174.437 27.717 171.242 25.0137 166.433 25.0137H156.781L151.936 50.1148ZM161.132 29.4014H165.766C168.048 29.4014 169.242 30.6303 169.242 32.6662C169.242 35.6502 167.101 36.9144 164.749 36.9144H159.695L161.132 29.4014ZM183.462 50.1161H187.921V49.9401C187.64 49.519 187.534 48.6764 187.78 47.4475L189.465 38.8116C190.448 33.5805 187.078 31.6498 182.619 31.6498C177.985 31.6498 175.139 33.8968 174.545 37.5832H178.758C179.179 35.7928 180.478 35.0202 182.444 35.0202C184.234 35.0202 185.253 35.7242 185.253 37.0213C185.253 38.8116 183.954 38.952 180.583 39.2332C176.195 39.5852 172.403 40.4621 172.403 45.2365C172.403 48.958 175.351 50.5376 178.126 50.5376C180.722 50.5376 182.058 49.3087 183.146 48.1502H183.217C183.147 48.8157 183.231 49.4881 183.462 50.1161ZM176.932 44.8141C176.932 42.3567 179.425 42.4619 181.145 42.146C182.326 41.9889 183.482 41.6821 184.585 41.233L184.024 44.0767C183.672 45.7267 182.093 47.2715 179.635 47.2715C178.056 47.2724 176.932 46.4298 176.932 44.8141ZM187.956 56.0143H190.904C194.38 56.0143 195.924 54.6098 197.715 50.9939L207.021 32.106H202.244L198.523 40.2861C197.751 41.9713 196.873 44.3587 196.873 44.3587H196.803C196.803 44.3587 196.522 41.9361 196.275 40.2861L195.046 32.106H190.131L192.727 44.9202C193.05 46.2447 193.25 47.5963 193.323 48.9576C193.323 51.2047 192.2 52.2928 190.199 52.2928H188.69L187.956 56.0143Z" fill="#1F1F1F"/>
<path d="M209.055 25.5934H210.863L209.853 30.8065H211.109L212.118 25.5934H213.935L214.137 24.5312H209.257L209.055 25.5934ZM213.259 30.8065H214.409L215.102 27.2082C215.198 26.6991 215.304 25.8917 215.304 25.8917H215.322C215.322 25.8917 215.33 26.6397 215.366 27.103L215.664 30.807H216.858L218.587 27.0942C218.833 26.5662 219.105 25.8917 219.105 25.8917H219.122C219.122 25.8917 218.92 26.6639 218.814 27.2082L218.121 30.8065H219.288L220.5 24.5312H218.691L217.181 27.7872C216.821 28.5682 216.54 29.4109 216.54 29.4109H216.535C216.535 29.4109 216.526 28.5066 216.455 27.6293L216.218 24.5312H214.472L213.259 30.8065Z" fill="#1F1F1F"/>
</g>
</svg>
