<svg width="38" height="38" viewBox="0 0 38 38" fill="none" xmlns="http://www.w3.org/2000/svg">
<rect x="0.5" y="0.5" width="37" height="37" rx="5" fill="#76B900"/>
<path fill-rule="evenodd" clip-rule="evenodd" d="M15.8714 10.8594V13.0612C16.0162 13.0501 16.161 13.0407 16.3065 13.0358C21.914 12.8468 25.5676 17.6348 25.5676 17.6348C25.5676 17.6348 21.3713 22.7374 16.9995 22.7374C16.5988 22.7374 16.2237 22.7002 15.8714 22.6378V23.9994C16.1727 24.0376 16.485 24.0601 16.811 24.0601C20.8792 24.0601 23.8213 21.9824 26.6702 19.5234C26.8801 19.6916 27.3791 19.9669 27.9035 20.2563C28.5584 20.6177 29.253 21.001 29.4738 21.2248C26.7649 23.4925 20.4522 25.3207 16.8733 25.3207C16.5283 25.3207 16.197 25.2997 15.8714 25.2682V27.1816H31.3346V10.8594H15.8714ZM15.8714 14.2552C11.4184 14.5956 9.18816 17.8861 9.18816 17.8861C9.18816 17.8861 10.8927 23.373 15.8714 23.9994V25.2682C9.08708 24.6279 6.66797 17.6349 6.66797 17.6349C6.66797 17.6349 10.9391 13.4573 15.8714 13.0612V14.2552ZM15.8714 22.6378V21.4758C13.7501 20.7631 13.0605 18.2864 13.0605 18.2864C13.0605 18.2864 14.2908 16.8152 15.8656 17.0042C15.8675 17.0042 15.8691 17.0049 15.8713 17.0049L15.8714 21.4758C16.2272 21.5954 16.6224 21.6662 17.0633 21.6662C20.127 21.6662 22.9843 17.6978 22.9843 17.6978C22.9843 17.6978 20.3389 14.106 16.3065 14.2326C16.1591 14.2373 16.0147 14.2452 15.8714 14.2552V15.7296C16.1352 15.7013 16.4039 15.6816 16.6846 15.6817C19.2676 15.6817 20.7998 17.6912 20.7998 17.6912L18.7008 19.4611C18.6418 19.3627 18.5852 19.2678 18.5306 19.1762C17.7126 17.8031 17.3428 17.1827 15.8713 17.0049L15.8714 15.7296C12.8708 16.0542 11.0642 18.0557 11.0642 18.0557C11.0642 18.0557 12.1086 21.967 15.8714 22.6378Z" fill="#F9F9F9"/>
</svg>
