<svg width="41" height="31" viewBox="0 0 41 31" fill="none" xmlns="http://www.w3.org/2000/svg">
<path d="M39.9187 1.93905L36.118 0.102846C35.7621 -0.068283 35.339 -0.0237895 35.0294 0.220925L23.0213 9.13468L28 13.0004L34.3673 8.50869V22.5087L20.1363 11.4367L5.90522 0.364673C5.59394 0.123381 5.1726 0.0788877 4.81833 0.250017L1.08128 2.05885C0.727009 2.22997 0.5 2.58934 0.5 2.98294V28.1389C0.5 28.5324 0.725289 28.8918 1.08128 29.0629L4.88368 30.8975C5.23967 31.0686 5.66273 31.0241 5.97229 30.7794L17 21.3727L12.0213 17.5069L6.6344 22.4899V8.61137L35.081 30.764C35.3923 31.0053 35.8136 31.0498 36.1679 30.8786L40.5 28.7806V2.86144C40.5 2.46784 40.2747 2.10847 39.9187 1.93734V1.93905Z" fill="#37ABFF"/>
</svg>
