<svg width="221" height="52" viewBox="0 0 221 52" fill="none" xmlns="http://www.w3.org/2000/svg">
<path d="M22.0639 1.12733C21.9764 1.2613 21.8305 1.77039 21.743 2.27947C21.6262 2.78855 21.422 3.4584 21.2761 3.75313C21.1594 4.04786 20.9551 4.47656 20.8968 4.7445C20.78 5.01244 20.2548 5.25359 19.467 5.36076C18.0663 5.57511 15.4402 6.27175 15.0025 6.56648C14.8566 6.67366 14.3897 6.86121 14.0104 6.96839C13.6019 7.07557 12.6098 7.55785 11.8219 8.01335C5.02306 11.8449 0.529399 19.0256 0.500219 26.126C0.471039 31.5919 3.35982 37.8081 7.70758 41.6396L9.66261 43.3544L9.02066 45.7927C8.64133 47.1324 8.11609 48.9275 7.8243 49.8117C7.50332 50.6691 7.26989 51.4194 7.26989 51.473C7.26989 51.5266 8.75804 51.5801 10.5964 51.5801H13.9228L14.2438 50.4548C15.411 45.9802 15.2651 46.1678 16.7533 46.6501C17.3952 46.8376 18.2122 47.0252 18.5624 47.0252C19.8171 47.0252 19.8463 47.6414 18.7666 50.9907L18.5624 51.6069L22.0056 51.5266L25.4488 51.4462L25.7989 49.9725C26.2658 47.8022 26.616 47.3735 28.0458 47.1592C32.0142 46.5697 35.8659 44.7477 39.8927 41.5592C41.7018 40.1124 44.5322 35.9057 45.5827 33.0924C47.1876 28.859 47.1876 23.5002 45.6119 19.4543C44.0362 15.4085 41.1766 11.6037 38.2586 9.75495C37.7042 9.37984 37.675 9.21907 37.9376 8.41526C38.4921 6.67366 39.951 1.50245 39.951 1.20771C39.951 1.02016 38.9006 0.939777 36.6829 0.993362C34.7279 1.04695 33.3856 1.18092 33.3856 1.34168C33.3856 1.47565 33.2981 1.7168 33.2105 1.87756C33.0938 2.01153 32.9187 2.70817 32.8312 3.40481C32.7145 4.10145 32.5102 4.7445 32.3352 4.82488C32.1893 4.93206 32.0725 5.28038 32.0725 5.65549C32.0725 6.24496 31.985 6.29855 31.2847 6.13778C30.8178 6.03061 30.2342 5.84305 29.9716 5.73587C29.709 5.60191 29.0962 5.49473 28.6002 5.49473C27.8123 5.49473 27.6956 5.41435 27.6956 4.7445C27.6956 4.34259 27.8999 3.53878 28.1333 2.94931C28.9211 0.912983 28.9503 0.939777 25.3904 0.939777C23.6105 0.939777 22.1223 1.02016 22.0639 1.12733ZM26.2366 21.4371C28.1333 22.3213 29.4464 24.2772 29.4464 26.2332C29.4464 29.9575 25.2153 32.5297 21.4803 31.0828C20.1673 30.5738 18.4165 28.6982 18.1831 27.5461C17.9496 26.3939 18.1831 23.9825 18.5624 23.7413C18.7083 23.661 18.9125 23.3662 19.0293 23.1251C19.2627 22.5088 21.3053 21.3031 22.5016 21.0352C23.6396 20.794 25.2153 20.9548 26.2366 21.4371Z" fill="url(#paint0_linear_2731_6628)"/>
<path d="M109.919 13.7984C106.418 14.8166 103.879 16.7993 102.362 19.8002C101.253 21.9973 100.844 24.1676 101.019 26.9274C101.516 34.0277 106.651 38.4487 114.413 38.4487C119.403 38.4487 123.138 36.7071 125.18 33.4651C126.056 32.045 126.989 29.2316 126.668 28.9369C126.581 28.8565 125.005 28.8029 123.138 28.8029H119.753L119.373 29.58C117.681 33.09 112.224 33.599 109.452 30.5178C108.927 29.9551 108.519 29.2049 108.519 28.8833C108.519 28.5618 108.402 28.2135 108.227 28.1331C108.081 28.0527 107.935 27.0078 107.935 25.8556C107.935 24.7035 108.081 23.6585 108.227 23.5781C108.402 23.4978 108.519 23.203 108.519 22.9351C108.519 22.6672 108.927 21.9437 109.423 21.3275C111.612 18.5141 116.222 18.4605 118.673 21.1935C119.198 21.7562 119.607 22.3724 119.607 22.56C119.607 22.8279 120.453 22.9083 123.05 22.9083C124.947 22.9083 126.581 22.8547 126.668 22.7743C126.931 22.5332 126.172 19.9074 125.472 18.7017C124.071 16.1563 122 14.6826 118.527 13.7984C115.989 13.1286 112.224 13.1286 109.919 13.7984Z" fill="#1F1F1F"/>
<path d="M58.1836 25.8589V37.9429L65.6244 37.8625C72.7442 37.7821 73.1235 37.7553 74.2324 37.1658C76.9753 35.719 78.5218 32.7449 77.8506 30.1995C77.2087 27.8684 76.0999 26.6359 74.174 26.1536C72.9776 25.8589 73.0944 25.5105 74.5533 24.7871C75.3412 24.412 76.2166 23.7153 76.6543 23.0723C77.2962 22.1345 77.4129 21.679 77.4129 19.9642C77.4129 18.437 77.2962 17.7671 76.8585 17.1509C75.9248 15.7576 75.1661 15.1413 73.7947 14.5251C72.5983 14.016 71.9272 13.9624 65.3326 13.8552L58.1836 13.7748V25.8589ZM69.9138 19.0264C70.8767 20.0178 70.8475 21.7862 69.8554 22.7508C69.1843 23.4206 68.98 23.4742 67.025 23.3938L64.8949 23.3134L64.8074 21.0895C64.6906 18.169 64.8657 17.9815 67.346 18.169C68.9509 18.2762 69.3594 18.4102 69.9138 19.0264ZM70.0013 28.4043C70.7308 29.0473 70.8767 29.3956 70.8767 30.4138C70.8767 31.432 70.7308 31.7803 70.0305 32.3965C69.2718 33.0664 69.0384 33.12 67.2001 33.0396L65.1867 32.9592L65.0992 30.5746C65.0408 29.2617 65.0992 28.0024 65.1867 27.788C65.3034 27.4933 65.7703 27.4397 67.2293 27.5201C68.8341 27.6004 69.2427 27.7344 70.0013 28.4043Z" fill="#1F1F1F"/>
<path d="M79.9336 16.7425V19.6899H82.9975H86.0613V28.7998V37.9097H89.5629H93.0644V28.7998V19.7167L96.2158 19.6363L99.338 19.5559V16.7425V13.9292L89.6504 13.8488L79.9336 13.7952V16.7425Z" fill="#1F1F1F"/>
<path d="M132.155 25.3961C132.155 31.7998 132.067 37.2658 131.95 37.5069C131.775 37.9356 132.155 37.9624 136.999 37.8285C142.747 37.6677 143.71 37.4801 146.307 35.8993C148.904 34.3185 150.596 31.6659 151.267 28.1559C151.647 26.0927 151.647 25.5837 151.238 23.5205C150.392 19.0728 147.882 16.1522 143.389 14.4374C142.513 14.1159 140.967 13.9551 137.203 13.848L132.155 13.714V25.3961ZM141.755 15.9647C143.651 16.313 145.023 17.0632 146.686 18.7244C148.816 20.8412 149.196 21.9665 149.196 25.8516C149.196 29.4152 149.108 29.7367 147.503 32.041C146.744 33.1395 145.198 34.3988 143.593 35.1491C142.192 35.8189 138.749 36.1672 134.431 36.0601C133.935 36.0333 133.905 35.3634 133.905 25.9052C133.905 20.3321 133.964 15.6967 134.022 15.6432C134.256 15.4288 140.179 15.6699 141.755 15.9647Z" fill="#1F1F1F"/>
<path d="M155.912 15.1934C154.949 15.5953 154.512 16.667 154.949 17.6048C155.533 18.9177 157.896 18.9713 158.422 17.6584C159.122 15.9972 157.546 14.4699 155.912 15.1934Z" fill="#1F1F1F"/>
<path d="M213.569 19.6999V22.3793H211.964C210.389 22.3793 210.359 22.3793 210.359 23.1831C210.359 23.9869 210.389 23.9869 211.935 23.9869H213.511L213.627 29.3993C213.715 33.8471 213.832 35.0528 214.269 35.937C214.97 37.4642 216.108 37.9733 218.53 37.8662C220.339 37.7858 220.426 37.759 220.485 37.0623C220.543 36.3389 220.514 36.3121 218.967 36.3925C217.683 36.4461 217.275 36.3389 216.691 35.8298C215.553 34.8385 215.291 33.4184 215.378 28.5419L215.466 24.1209L217.742 24.0405L219.989 23.9602V23.1831V22.4061L217.742 22.3257L215.466 22.2453V19.6196V17.0205H214.532H213.569V19.6999Z" fill="#1F1F1F"/>
<path d="M169.674 22.2685C168.186 22.7508 167.689 23.1795 166.872 24.6531C166.493 25.323 166.085 25.8588 165.939 25.8588C165.822 25.8588 165.705 25.0818 165.705 24.1172V22.3756H164.772H163.809L163.896 30.1727L163.984 37.9429L164.772 37.8625L165.559 37.7821L165.705 33.2272C165.822 29.61 165.968 28.3775 166.406 27.2789C167.223 25.2694 168.507 24.2244 170.578 23.8493C172.066 23.5814 172.271 23.4742 172.271 22.8847C172.271 21.8398 171.454 21.6522 169.674 22.2685Z" fill="#1F1F1F"/>
<path d="M180.035 22.3002C178.284 22.8628 176.067 24.926 175.571 26.4264C175.366 27.0695 175.191 28.8111 175.191 30.2847C175.191 32.6158 175.308 33.1517 175.95 34.4378C176.913 36.3401 178.46 37.4655 180.823 38.0282C182.486 38.4301 182.749 38.4301 184.558 38.0282C186.659 37.5191 188.235 36.4205 189.139 34.7325L189.577 33.9019H188.731C188.147 33.9019 187.534 34.2234 186.601 35.0808C185.171 36.4205 184.033 36.7421 181.728 36.5009C180.123 36.3134 178.78 35.5363 177.905 34.1966C177.146 33.0713 176.738 31.2225 177.146 30.7402C177.38 30.4991 179.072 30.4187 183.712 30.4187H189.985L189.752 28.6235C189.489 26.3728 188.818 24.926 187.388 23.6667C185.463 21.9519 182.691 21.4428 180.035 22.3002ZM183.887 23.4791C185.579 23.9078 187.213 25.4083 187.739 27.0159C187.972 27.7661 188.176 28.4628 188.176 28.5967C188.176 28.7039 185.696 28.8111 182.632 28.8111H177.088V28.0073C177.088 27.0159 177.934 25.4083 178.926 24.5777C179.539 24.0418 181.582 23.2648 182.486 23.2112C182.661 23.1844 183.274 23.3183 183.887 23.4791Z" fill="#1F1F1F"/>
<path d="M199.098 22.2113C197.143 22.64 195.713 23.4706 194.838 24.7031C193.554 26.4983 193.291 27.4361 193.32 30.2762C193.35 32.9288 193.817 34.456 194.955 35.7689C195.772 36.6799 197.464 37.6177 199.098 38.0464C200.586 38.4483 200.995 38.4483 202.57 38.1536C204.817 37.6981 206.51 36.5728 207.356 34.9651C208.231 33.3307 208.202 33.0896 207.064 33.0896C206.247 33.0896 206.072 33.1967 205.839 33.947C205.401 35.2063 203.679 36.3584 201.928 36.5192C199.594 36.7067 198.485 36.412 197.114 35.1259C192.941 31.3212 195.305 23.7117 200.615 23.7117C201.286 23.7117 202.249 23.7921 202.775 23.8993C203.913 24.0868 205.984 25.882 205.984 26.659C205.984 27.0877 206.189 27.1949 207.006 27.1949C208.202 27.1949 208.26 26.9538 207.356 25.3461C206.422 23.6581 204.934 22.6667 202.716 22.2113C201.724 22.0237 200.82 21.8629 200.732 21.8629C200.645 21.8629 199.915 22.0237 199.098 22.2113Z" fill="#1F1F1F"/>
<path d="M156.088 30.1395V37.9097H156.963H157.839V30.1395V22.3692H156.963H156.088V30.1395Z" fill="#1F1F1F"/>
<path d="M38.8179 46.63C37.2422 48.2912 37.7382 50.2471 40.0142 51.3189C41.7942 52.1227 44.3328 50.5151 44.3328 48.5859C44.3328 46.8711 43.0197 45.719 41.0939 45.6922C39.8975 45.6922 39.6057 45.7994 38.8179 46.63ZM42.9614 46.7104C43.8368 47.407 44.0994 48.318 43.7492 49.3362C43.3699 50.4079 42.3486 51.051 41.0355 51.051C38.0884 51.051 37.4756 47.1391 40.2477 46.1477C40.9188 45.9065 42.3486 46.1745 42.9614 46.7104Z" fill="#1F1F1F"/>
<path d="M40.2465 47.8075C40.2465 48.2362 40.159 48.7721 40.0715 49.0132C39.9839 49.2544 40.0423 49.4419 40.2174 49.4419C40.3924 49.4419 40.5383 48.9864 40.5383 48.3702C40.5383 47.4592 40.6259 47.2984 41.1219 47.2984C41.9098 47.2984 42.2308 48.0755 41.618 48.5042C41.1511 48.7989 41.1511 48.8525 41.6472 49.2544C42.114 49.6295 42.1432 49.6027 42.1432 48.6917C42.1432 47.4324 41.8514 47.0305 40.9469 47.0305C40.3633 47.0305 40.2465 47.1645 40.2465 47.8075Z" fill="#1F1F1F"/>
<defs>
<linearGradient id="paint0_linear_2731_6628" x1="46.9789" y1="51.2862" x2="0.500003" y2="1.70867" gradientUnits="userSpaceOnUse">
<stop stop-color="#67A1FD"/>
<stop offset="1" stop-color="#0063FF"/>
</linearGradient>
</defs>
</svg>
