<svg width="221" height="41" viewBox="0 0 221 41" fill="none" xmlns="http://www.w3.org/2000/svg">
<path d="M17.227 0.51886C11.269 1.47469 5.82079 5.26616 2.92144 10.5551C1.13722 13.7412 0.5 16.3538 0.5 20.3046C0.5 25.6254 2.06119 29.7992 5.47032 33.6543C7.03151 35.4067 11.269 38.4654 12.0974 38.4654C12.3523 38.4654 12.6709 38.5928 12.7665 38.784C12.8621 38.9433 13.34 39.1026 13.7861 39.1026H14.6144L13.7861 38.4654C13.34 38.1149 12.7665 37.8919 12.5435 37.9874C12.2886 38.083 11.9381 37.86 11.7469 37.4458C8.4334 30.5001 7.57315 25.02 8.62456 18.0424C9.42109 12.6579 10.5362 10.4276 12.3523 10.4276C13.7223 10.4276 14.7419 11.6384 14.9968 13.4863C15.1879 15.1112 16.558 21.0055 17.705 25.0837C18.852 29.2257 19.2661 31.6471 19.4573 35.5023C19.6803 39.9628 19.521 40.4726 18.0236 39.3893C17.2908 38.8477 16.9403 38.7521 16.8447 39.007C16.7491 39.23 16.2394 39.453 15.6977 39.453C14.933 39.4849 15.0924 39.5805 16.4305 39.8354C18.5971 40.2814 22.0699 40.2814 24.3958 39.8354C25.9888 39.5168 26.0525 39.4849 24.9693 39.453C24.0453 39.4212 23.7586 39.2937 23.7267 38.8477C23.7267 38.5291 23.6311 38.4654 23.5355 38.6884C23.4718 38.9114 23.2169 39.1026 22.962 39.1026C22.739 39.1026 22.3885 39.3256 22.1655 39.5805C21.4327 40.4407 21.2097 39.7079 21.2097 36.6174C21.2097 33.1127 21.7194 30.0222 23.1213 24.7651C24.8737 18.2017 25.033 17.5327 25.5109 14.697C25.8932 12.3712 26.1163 11.7339 26.7854 11.1286C29.5891 8.70715 31.5964 12.0526 32.3292 20.4639C32.7752 25.7209 32.1061 29.8629 29.9077 35.2793C28.8563 37.86 28.6014 38.2105 27.8686 37.9874C27.5182 37.86 27.2633 37.9237 27.2633 38.083C27.2633 38.2423 26.9447 38.5291 26.5623 38.7202C25.8295 39.0389 25.8295 39.0707 26.6898 39.0707C28.6014 39.1344 33.4124 35.8528 35.9932 32.7304C41.0272 26.6449 41.6963 17.1185 37.5544 10.1728C35.1648 6.1264 30.8317 2.65355 26.3712 1.2198C24.109 0.487 19.6485 0.168388 17.227 0.51886ZM20.8273 8.35668C21.0185 8.80273 21.6239 9.40809 22.1336 9.7267L23.0576 10.3002L21.815 11.3198C21.146 11.8933 20.5725 12.5942 20.5725 12.8491C20.5725 13.6137 20.1264 13.3589 19.6803 12.3393C19.4255 11.7977 18.8201 11.1286 18.2785 10.8737L17.3226 10.3639L18.3103 9.75856C18.852 9.43995 19.4892 8.80273 19.6803 8.35668C19.8715 7.91062 20.1264 7.56015 20.2538 7.56015C20.3813 7.56015 20.6362 7.91062 20.8273 8.35668Z" fill="#1F1F1F"/>
<path d="M11.0102 12.5076C10.7872 12.7944 10.6597 13.0493 10.7234 13.1449C10.819 13.2086 11.042 12.9856 11.2651 12.6669C11.7111 11.9023 11.5837 11.8386 11.0102 12.5076Z" fill="#1F1F1F"/>
<path d="M27.4238 12.345C27.3282 12.5043 27.392 12.6636 27.5513 12.6636C27.7424 12.6636 27.9017 12.5043 27.9017 12.345C27.9017 12.1538 27.838 12.0264 27.7743 12.0264C27.6787 12.0264 27.5194 12.1538 27.4238 12.345Z" fill="#1F1F1F"/>
<path d="M29.5258 12.8504C29.5258 13.2008 29.6214 13.2964 29.7169 13.0415C29.8125 12.8185 29.7807 12.5318 29.6851 12.4362C29.5895 12.3087 29.4939 12.4999 29.5258 12.8504Z" fill="#1F1F1F"/>
<path d="M13.6152 14.5742C13.6152 15.0203 13.679 15.1796 13.7745 14.9566C13.8383 14.7654 13.8383 14.3831 13.7745 14.16C13.679 13.9689 13.6152 14.1282 13.6152 14.5742Z" fill="#1F1F1F"/>
<path d="M58.9552 14.5969C58.2862 14.9156 57.3303 15.5846 56.8524 16.0307L55.9603 16.8591L55.8647 15.8077L55.7691 14.7244H53.5389H51.3086V15.8395C51.3086 16.8591 51.4042 16.9547 52.4237 17.114L53.5389 17.2733L53.6344 23.8685L53.6982 30.4956H54.8133H55.9284V25.3023V20.1089L56.8843 18.5796C58.4136 16.19 60.8988 15.4891 62.9697 16.8909C64.9133 18.1654 65.1681 19.1531 65.1681 25.143V30.4956H66.2833H67.3984V25.5571C67.3984 20.0452 67.6214 19.0894 69.3101 17.4644C71.2855 15.6165 74.4716 15.8714 75.9053 18.0379C76.6063 19.0575 76.6381 19.408 76.6381 24.7925V30.4956H78.9958C81.0349 30.4956 81.3854 30.4 81.5766 29.8902C81.8633 28.9344 81.4173 28.2972 80.3659 28.2016L79.3463 28.106L79.187 23.4862C78.964 18.3566 78.6772 17.2733 76.9249 15.6165C74.4716 13.3225 70.9987 13.5137 68.418 16.0944L67.0161 17.4963L66.0284 16.3174C64.1805 14.0553 61.3767 13.3862 58.9552 14.5969Z" fill="#1F1F1F"/>
<path d="M90.2832 14.3431C86.0456 15.745 83.4649 20.11 84.4526 24.2838C85.4403 28.585 88.4671 30.9746 92.8958 30.9746C95.6677 30.9746 97.1014 30.4011 98.9812 28.5532C100.415 27.1513 100.511 26.6096 99.4591 25.9406C98.7582 25.4627 98.6626 25.4945 97.6431 26.5459C96.1137 28.139 94.9349 28.6169 92.6727 28.6169C90.9841 28.6169 90.4743 28.4894 89.2955 27.6611C87.9573 26.769 86.3961 24.3157 86.7466 23.7103C86.8103 23.5828 89.9327 23.4873 93.6604 23.4873C101.594 23.4873 101.466 23.5191 100.861 20.9065C100.638 19.9826 100.256 18.8674 100.033 18.4214C99.3636 17.1788 97.4838 15.3308 96.1775 14.7255C94.7437 14.0245 91.8125 13.8334 90.2832 14.3431ZM95.7314 17.1469C97.1333 17.9434 98.0254 19.0904 98.0891 20.2374L98.1528 21.0977L92.6409 21.1933C86.4598 21.2889 86.2368 21.1933 87.4794 19.186C89.2317 16.3504 92.7683 15.4583 95.7314 17.1469Z" fill="#1F1F1F"/>
<path d="M114.051 14.4058C113.51 14.6607 112.681 15.2979 112.203 15.8395C111.375 16.8591 111.216 16.7954 110.993 15.3616C110.897 14.7563 110.642 14.7244 107.552 14.7244H104.206V15.8395V16.9547L106.436 17.114L108.667 17.2733V22.6897V28.106L106.373 28.2016L104.047 28.2972V29.3805V30.4956H110.61H117.142L117.046 29.4442L116.951 28.4246L114.083 28.2653L111.216 28.106L111.12 24.4739C111.024 20.4275 111.502 18.3566 112.777 17.1458C113.669 16.3174 115.358 15.9988 116.568 16.4449C117.269 16.7316 117.429 16.9865 117.429 17.8786C117.429 19.8859 119.436 20.778 120.487 19.1849C121.475 17.6875 120.2 15.3935 117.843 14.4058C116.473 13.8323 115.358 13.8323 114.051 14.4058Z" fill="#1F1F1F"/>
<path d="M129.696 14.321C126.733 15.3087 124.917 16.9336 123.834 19.4506C122.081 23.5607 124.121 28.5947 128.358 30.5064C131.385 31.9083 135.718 31.0162 138.076 28.4992C139.223 27.3203 139.318 26.4919 138.394 25.9184C137.948 25.6317 137.598 25.791 136.642 26.6831C135.081 28.1168 134.443 28.4673 132.819 28.7222C131.066 29.0408 129.123 28.4673 127.721 27.2247C123.579 23.5926 126.16 16.4876 131.64 16.4876C134.38 16.4876 136.483 17.6983 136.068 19.0364C135.399 21.1711 138.362 22.4456 139.414 20.4702C139.924 19.4825 139.605 18.5904 138.044 16.9017C135.845 14.5122 132.341 13.4289 129.696 14.321Z" fill="#1F1F1F"/>
<path d="M174.519 14.5969C173.755 14.9793 172.958 15.5528 172.767 15.8714C172.257 16.6998 171.907 16.6361 171.907 15.7121C171.907 14.7244 171.429 14.5651 168.083 14.5651C164.993 14.5651 164.356 14.8837 164.706 16.3174C164.897 17.0821 165.025 17.114 167.128 17.114H169.358L169.294 22.5941L169.199 28.106L166.968 28.2653L164.738 28.4246L164.642 29.4442L164.547 30.4956H171.078H177.642V29.3805V28.2653H174.774H171.907V24.1553C171.907 19.7266 172.225 18.484 173.595 17.1777C174.647 16.19 176.431 15.9351 177.482 16.6042C178.088 17.0184 178.247 17.337 178.12 17.7831C177.801 18.7707 178.757 19.9815 179.872 19.9815C180.605 19.9815 180.923 19.7584 181.306 19.0256C181.72 18.1972 181.752 17.9424 181.338 17.0502C180.796 15.7439 179.713 14.7563 178.311 14.2783C176.782 13.7686 176.081 13.8323 174.519 14.5969Z" fill="#1F1F1F"/>
<path d="M209.956 14.3315C208.077 14.8094 205.687 16.7211 204.667 18.569C203.935 19.8753 203.775 20.5763 203.775 22.4879C203.775 25.2917 204.508 27.1078 206.388 28.7645C210.626 32.5879 216.743 31.6639 219.642 26.7573C220.407 25.451 220.502 24.9412 220.502 22.5516C220.502 20.1621 220.407 19.6841 219.61 18.3141C218.559 16.5618 216.488 14.9687 214.513 14.3634C212.983 13.8854 211.804 13.8854 209.956 14.3315ZM215.214 17.1671C219.292 19.6523 219.515 25.0368 215.66 27.6813C214.481 28.5097 213.907 28.669 212.346 28.7008C210.179 28.7008 209.128 28.2866 207.694 26.7573C206.388 25.3873 205.878 23.8261 206.101 21.8507C206.515 18.5372 208.841 16.498 212.219 16.498C213.589 16.498 214.449 16.6892 215.214 17.1671Z" fill="#1F1F1F"/>
<path d="M30.1953 15.0474C30.1953 15.5571 30.259 15.7483 30.3546 15.4297C30.4183 15.1429 30.4183 14.6969 30.3546 14.4739C30.259 14.2827 30.1953 14.5057 30.1953 15.0474Z" fill="#1F1F1F"/>
<path d="M142.407 15.0185C142.312 15.2733 142.28 15.815 142.344 16.2292C142.407 16.8027 142.694 16.9938 143.554 17.1213L144.67 17.2806L144.829 22.219C144.988 26.9663 145.02 27.2212 145.88 28.4638C146.964 30.0887 148.907 31.1401 150.723 31.1401C152.412 31.1401 153.527 30.6941 155.024 29.4196L156.14 28.4638L156.235 29.4834L156.331 30.5029H158.72H161.078V29.4196C161.078 28.3682 161.014 28.3045 159.899 28.2089L158.688 28.1133L158.529 21.4225L158.37 14.7317H157.414H156.458L156.299 20.2118L156.14 25.66L155.152 26.9026C154.132 28.1771 152.444 29.1966 151.36 29.1966C150.213 29.1966 148.525 28.1452 147.856 26.9982C147.314 26.0105 147.187 25.1821 147.059 20.3074L146.9 14.7317L144.733 14.6361C143.077 14.5724 142.535 14.6361 142.407 15.0185Z" fill="#1F1F1F"/>
<path d="M183.827 15.0145C183.732 15.2694 183.7 15.811 183.764 16.2252C183.827 16.7987 184.082 16.9899 185.006 17.0536C186.281 17.1492 186.344 17.2766 188.798 23.3302C189.371 24.7321 190.104 26.4526 190.391 27.1535C190.709 27.8545 191.187 29.0015 191.474 29.7024L192.016 31.0087L190.55 34.7683C189.722 36.8393 189.148 38.7191 189.244 38.974C189.467 39.5156 190.837 39.5475 191.251 39.0058C191.442 38.8147 192.398 36.457 193.386 33.8443C200.299 15.7791 199.63 17.3085 200.905 17.181C202.116 17.0536 202.498 16.7031 202.498 15.6198C202.498 14.6959 201.765 14.5047 198.356 14.6321L195.648 14.7277V15.8429C195.648 16.7668 195.775 16.9899 196.381 17.0536C196.763 17.1173 197.082 17.3403 197.082 17.5315C197.082 17.9138 195.584 21.8646 194.533 24.286C194.246 24.987 193.895 25.9428 193.768 26.4207C193.418 27.8545 192.844 27.1535 191.41 23.5532C190.646 21.6734 189.753 19.5706 189.435 18.8697C188.798 17.4678 188.861 17.1173 189.753 17.1173C190.423 17.1173 190.932 15.8747 190.582 15.0463C190.327 14.3773 184.082 14.3454 183.827 15.0145Z" fill="#1F1F1F"/>
<path d="M10.1113 15.5327C10.1113 15.9788 10.1751 16.1381 10.2706 15.9151C10.3344 15.7239 10.3344 15.3416 10.2706 15.1185C10.1751 14.9274 10.1113 15.0867 10.1113 15.5327Z" fill="#1F1F1F"/>
<path d="M30.8945 22.7007C30.8945 25.3133 30.9583 26.3647 30.9901 24.9947C31.0538 23.6247 31.0538 21.49 30.9901 20.2155C30.9583 18.9411 30.8945 20.0562 30.8945 22.7007Z" fill="#1F1F1F"/>
<path d="M9.54297 22.8577C9.54297 24.8649 9.57483 25.6933 9.63855 24.6737C9.70227 23.686 9.70227 22.0293 9.63855 21.0097C9.57483 20.022 9.54297 20.8504 9.54297 22.8577Z" fill="#1F1F1F"/>
<path d="M14.3027 24.1422C14.3027 24.9387 14.3665 25.2573 14.4302 24.8431C14.4939 24.4608 14.4939 23.8235 14.4302 23.4093C14.3665 23.027 14.3027 23.3456 14.3027 24.1422Z" fill="#1F1F1F"/>
<path d="M10.1113 29.2397C10.1113 29.6858 10.1751 29.8451 10.2706 29.6221C10.3344 29.4309 10.3344 29.0486 10.2706 28.8256C10.1751 28.6344 10.1113 28.7937 10.1113 29.2397Z" fill="#1F1F1F"/>
<path d="M30.1953 29.6997C30.1953 30.2095 30.259 30.4006 30.3546 30.082C30.4183 29.7953 30.4183 29.3492 30.3546 29.1262C30.259 28.935 30.1953 29.1581 30.1953 29.6997Z" fill="#1F1F1F"/>
<path d="M29.5605 31.7813C29.5605 32.2273 29.6243 32.3866 29.7199 32.1636C29.7836 31.9724 29.7836 31.5901 29.7199 31.3671C29.6243 31.1759 29.5605 31.3352 29.5605 31.7813Z" fill="#1F1F1F"/>
<path d="M14.8984 34.0133C14.8984 34.6186 14.9622 34.8735 15.0577 34.5549C15.1215 34.2682 15.1215 33.7584 15.0577 33.4398C14.9622 33.153 14.8984 33.4079 14.8984 34.0133Z" fill="#1F1F1F"/>
<path d="M28.891 33.5613C28.891 33.9118 28.9866 34.0074 29.0822 33.7525C29.1778 33.5295 29.1459 33.2427 29.0503 33.1471C28.9547 33.0197 28.8592 33.2108 28.891 33.5613Z" fill="#1F1F1F"/>
<path d="M25.3891 34.5198C25.3891 34.8703 25.4846 34.9659 25.5802 34.711C25.6758 34.4879 25.644 34.2012 25.5484 34.1056C25.4528 33.9782 25.3572 34.1693 25.3891 34.5198Z" fill="#1F1F1F"/>
<path d="M12.1269 35.2898C12.0314 35.4491 12.0951 35.6084 12.2544 35.6084C12.4456 35.6084 12.6049 35.4491 12.6049 35.2898C12.6049 35.0986 12.5411 34.9712 12.4774 34.9712C12.3818 34.9712 12.2225 35.0986 12.1269 35.2898Z" fill="#1F1F1F"/>
<path d="M28.2445 35.4749C28.2445 35.8254 28.3401 35.9209 28.4357 35.6661C28.5313 35.443 28.4994 35.1563 28.4038 35.0607C28.3083 34.9332 28.2127 35.1244 28.2445 35.4749Z" fill="#1F1F1F"/>
<path d="M15.5332 36.2432C15.5332 36.6892 15.5969 36.8485 15.6925 36.6255C15.7562 36.4343 15.7562 36.052 15.6925 35.829C15.5969 35.6378 15.5332 35.7971 15.5332 36.2432Z" fill="#1F1F1F"/>
<path d="M16.1332 37.6995C16.1332 38.05 16.2288 38.1455 16.3244 37.8907C16.42 37.6676 16.3881 37.3809 16.2925 37.2853C16.1969 37.1579 16.1013 37.349 16.1332 37.6995Z" fill="#1F1F1F"/>
</svg>
