<svg width="38" height="38" viewBox="0 0 38 38" fill="none" xmlns="http://www.w3.org/2000/svg">
<rect x="0.5" y="0.5" width="37" height="37" rx="5" fill="#2C2C2C"/>
<path fill-rule="evenodd" clip-rule="evenodd" d="M13.4194 18.7556C13.3202 19.0967 13.2589 19.3075 13.0428 19.5407C12.708 19.9024 12.3558 19.9875 11.2609 19.9875H6.54297C6.54297 16.4237 8.07314 13.161 10.5383 10.8996C12.8615 8.76829 15.8529 7.65484 18.8762 7.6543C21.8994 7.65484 24.891 8.76829 27.2139 10.8996C29.6788 13.161 31.2096 16.4237 31.2096 19.9875H26.4914C25.3964 19.9875 25.0445 19.9024 24.7095 19.5407C24.4934 19.3075 24.4321 19.0968 24.3329 18.7557C24.2741 18.5536 24.2021 18.3059 24.0767 17.9808C23.7717 17.1906 23.2955 16.4922 22.6973 15.9287C21.6407 14.9345 20.2663 14.414 18.8762 14.4137C17.4863 14.414 16.1116 14.9345 15.0553 15.9287C14.4568 16.4922 13.9809 17.1906 13.6755 17.9808C13.5502 18.3059 13.4782 18.5536 13.4194 18.7556ZM26.1216 21.659C27.2356 22.7728 29.1662 24.7036 29.927 25.4644C28.8754 27.5857 27.257 29.3203 25.3067 30.5117L20.0576 25.2626C19.5797 24.7844 19.3679 24.5995 19.1088 24.52C19.0263 24.4951 18.961 24.4774 18.8762 24.4774C18.7935 24.4774 18.7261 24.4946 18.6436 24.52C18.3846 24.5995 18.1728 24.7844 17.6948 25.2626C17.112 25.8455 13.6125 29.3452 12.4451 30.5117C10.4958 29.3203 8.87685 27.5857 7.82568 25.4644C8.82893 24.4611 11.8666 21.4233 12.3823 20.9072C12.8582 20.4314 13.0761 20.2015 13.3434 20.0906C13.6111 19.9794 13.9283 19.9876 14.6036 19.9876H23.1491C23.8244 19.9876 24.1416 19.9795 24.4092 20.0906C24.6765 20.2016 24.8943 20.4315 25.3698 20.9072L26.1216 21.659Z" fill="#F9F9F9"/>
</svg>
