<svg width="96" height="40" viewBox="0 0 96 40" fill="none" xmlns="http://www.w3.org/2000/svg">
<path d="M17.9283 5.46714C16.8104 6.78998 15.0217 7.83335 13.2331 7.6843C13.0095 5.89567 13.8852 3.99524 14.9099 2.82145C16.0278 1.46134 17.9842 0.492495 19.5679 0.417969C19.7542 2.28113 19.0275 4.10703 17.9283 5.46714ZM19.5492 8.0383C16.9594 7.88925 14.7423 9.5102 13.5126 9.5102C12.2643 9.5102 10.3825 8.11283 8.33298 8.15009C5.66866 8.18736 3.19066 9.69652 1.83055 12.1C-0.964195 16.907 1.10392 24.0242 3.8055 27.9369C5.12835 29.8746 6.71203 31.9986 8.79877 31.924C10.7737 31.8495 11.5563 30.6385 13.9411 30.6385C16.3446 30.6385 17.034 31.924 19.1207 31.8868C21.282 31.8495 22.6421 29.9491 23.9649 28.0114C25.4741 25.8129 26.0889 23.6702 26.1262 23.5584C26.0889 23.5212 21.9527 21.9375 21.9154 17.1678C21.8782 13.1806 25.176 11.2802 25.325 11.1684C23.4619 8.41093 20.5553 8.11283 19.5492 8.0383ZM34.5104 2.63513V31.6818H39.0193V21.7512H45.2609C50.9621 21.7512 54.9679 17.8385 54.9679 12.1745C54.9679 6.51051 51.0367 2.63513 45.4099 2.63513H34.5104ZM39.0193 6.43598H44.2175C48.1301 6.43598 50.3659 8.52272 50.3659 12.1932C50.3659 15.8636 48.1301 17.969 44.1989 17.969H39.0193V6.43598ZM63.2031 31.9054C66.0351 31.9054 68.6622 30.4708 69.8546 28.1977H69.9478V31.6818H74.1212V17.2237C74.1212 13.0316 70.7675 10.33 65.6066 10.33C60.8183 10.33 57.2783 13.0688 57.1478 16.8324H61.2095C61.5449 15.0438 63.2031 13.87 65.4762 13.87C68.2337 13.87 69.7801 15.1556 69.7801 17.5218V19.1241L64.1533 19.4595C58.9178 19.7762 56.0858 21.9189 56.0858 25.6452C56.0858 29.4088 59.011 31.9054 63.2031 31.9054ZM64.4142 28.4586C62.0107 28.4586 60.4829 27.3034 60.4829 25.5334C60.4829 23.7075 61.9548 22.6455 64.7682 22.4778L69.7801 22.1611V23.8007C69.7801 26.5209 67.4698 28.4586 64.4142 28.4586ZM79.6921 39.5816C84.0892 39.5816 86.1573 37.9048 87.9645 32.8184L95.883 10.6095H91.2996L85.9896 27.7692H85.8964L80.5864 10.6095H75.8726L83.5116 31.7564L83.1017 33.0419C82.4123 35.2218 81.2944 36.0603 79.3008 36.0603C78.9468 36.0603 78.2575 36.023 77.978 35.9857V39.4698C78.2388 39.5444 79.3567 39.5816 79.6921 39.5816Z" fill="black"/>
</svg>
