<svg width="221" height="71" viewBox="0 0 221 71" fill="none" xmlns="http://www.w3.org/2000/svg">
<g clip-path="url(#clip0_2731_6588)">
<path d="M35.5529 70.3261C54.9122 70.3261 70.6059 54.6324 70.6059 35.2732C70.6059 15.914 54.9122 0.220215 35.5529 0.220215C16.1937 0.220215 0.5 15.914 0.5 35.2732C0.5 54.6324 16.1937 70.3261 35.5529 70.3261Z" fill="url(#paint0_linear_2731_6588)"/>
<path d="M57.6875 33.1302L47.7866 23.2294L47.7687 23.2114L47.7295 23.1771C47.6654 23.1192 47.5984 23.0647 47.5286 23.0138C47.4796 22.9746 47.4306 22.937 47.3783 22.9027C47.3555 22.8864 47.3326 22.8733 47.3081 22.8586C46.7437 22.4889 46.0608 22.345 45.3952 22.4555C44.7295 22.5659 44.1298 22.9226 43.7149 23.4548L28.3166 38.8547V25.1354C28.3166 24.4142 28.0301 23.7225 27.5201 23.2125C27.0101 22.7025 26.3184 22.416 25.5972 22.416C24.876 22.416 24.1843 22.7025 23.6743 23.2125C23.1643 23.7225 22.8778 24.4142 22.8778 25.1354V38.8547L17.2562 33.2331C16.7423 32.7431 16.0572 32.4735 15.3472 32.482C14.6372 32.4904 13.9587 32.7762 13.4566 33.2782C12.9546 33.7803 12.6688 34.4588 12.6603 35.1688C12.6519 35.8788 12.9215 36.5639 13.4115 37.0778L23.6749 47.3411C23.7394 47.4065 23.8075 47.4681 23.879 47.5257C23.9476 47.5812 24.0195 47.6351 24.0913 47.689C24.4622 47.9293 24.886 48.0756 25.3261 48.1153H25.3375C25.4257 48.1235 25.5139 48.1284 25.6021 48.1284H25.6429C25.717 48.1284 25.7905 48.1251 25.8634 48.1186H25.9173C25.9876 48.1104 26.0578 48.1022 26.1264 48.0875H26.1574C26.2342 48.0712 26.3109 48.0532 26.3861 48.0304H26.3991C26.4811 48.0057 26.5618 47.9768 26.6409 47.9438C26.7535 47.8972 26.8627 47.8427 26.9675 47.7805L27.0296 47.7446C27.1323 47.6818 27.2305 47.6119 27.3236 47.5355L27.3513 47.511C27.4085 47.462 27.4657 47.413 27.5146 47.3575L43.1286 31.7337V45.4106C43.1286 46.1319 43.4151 46.8235 43.9251 47.3335C44.4351 47.8435 45.1268 48.13 45.848 48.13C46.5692 48.13 47.2609 47.8435 47.7709 47.3335C48.2808 46.8235 48.5673 46.1319 48.5673 45.4106V31.6913L53.8428 36.9765C54.3549 37.4764 55.0434 37.7543 55.759 37.7499C56.4746 37.7455 57.1597 37.4592 57.6656 36.953C58.1715 36.4469 58.4576 35.7617 58.4616 35.0461C58.4657 34.3305 58.1876 33.6421 57.6875 33.1302Z" fill="white"/>
<path d="M82.8516 27.09H90.9199V48.1656H95.7527V27.09H103.821V22.5757H82.8516V27.09Z" fill="#1F1F1F"/>
<path d="M114.414 28.9294C113.842 28.9691 113.276 29.0704 112.725 29.2315C112.195 29.3858 111.688 29.6093 111.216 29.8963C110.623 30.2425 110.104 30.702 109.688 31.2486C109.491 31.5081 109.313 31.7809 109.155 32.0652V28.9735H104.891V48.1659H109.768V38.3565C109.755 37.6835 109.853 37.0129 110.06 36.3721C110.247 35.8051 110.551 35.2835 110.952 34.8413C111.353 34.399 111.843 34.0459 112.389 33.8047C112.989 33.5237 113.637 33.3575 114.298 33.3147C114.923 33.2528 115.553 33.3082 116.157 33.478V28.9735C115.579 28.9017 114.995 28.8869 114.414 28.9294Z" fill="#1F1F1F"/>
<path d="M134.495 31.9227C133.866 30.6858 132.803 29.7244 131.509 29.2229C130.195 28.7003 128.69 28.439 126.995 28.439C124.685 28.439 122.861 28.9371 121.522 29.9334C120.209 30.8897 119.248 32.251 118.786 33.8075L123.157 35.1925C123.466 34.3149 124.005 33.7051 124.774 33.3632C125.469 33.036 126.226 32.8601 126.995 32.8471C128.275 32.8471 129.188 33.1139 129.732 33.6474C130.158 34.0639 130.413 34.6731 130.505 35.4603C129.688 35.5828 128.912 35.6988 128.185 35.805C126.943 35.989 125.83 36.1817 124.845 36.3831C123.983 36.5522 123.133 36.7836 122.304 37.0756C121.399 37.3844 120.563 37.8665 119.843 38.4949C119.252 39.0288 118.798 39.6964 118.518 40.4418C118.239 41.2223 118.1 42.0463 118.11 42.8753C118.099 43.8973 118.353 44.9047 118.848 45.7988C119.353 46.6992 120.105 47.4361 121.015 47.9221C121.969 48.4502 123.133 48.7137 124.507 48.7126C126.167 48.7126 127.538 48.4251 128.621 47.8502C129.552 47.3316 130.375 46.6403 131.047 45.8136V48.1801H135.277V36.4354C135.281 35.6409 135.245 34.8467 135.169 34.0557C135.087 33.3072 134.858 32.5823 134.495 31.9227ZM129.98 42.3364C129.781 42.7052 129.533 43.0458 129.244 43.349C128.828 43.793 128.334 44.1573 127.787 44.4236C127.086 44.7578 126.314 44.9191 125.538 44.894C125.047 44.9062 124.558 44.8218 124.099 44.6458C123.724 44.5027 123.4 44.2529 123.166 43.9271C122.942 43.5945 122.828 43.1997 122.84 42.7986C122.836 42.4959 122.906 42.1969 123.046 41.928C123.202 41.6434 123.42 41.3973 123.684 41.2078C124.037 40.9549 124.421 40.749 124.827 40.5953C125.298 40.4244 125.779 40.2821 126.266 40.169C126.811 40.0384 127.528 39.893 128.417 39.7329C128.984 39.6317 129.677 39.5108 130.467 39.3769C130.457 39.7182 130.443 40.0857 130.416 40.5202C130.39 41.1481 130.242 41.765 129.98 42.3364Z" fill="#1F1F1F"/>
<path d="M157.397 33.5495C157.162 32.6755 156.781 31.8474 156.27 31.0997C155.702 30.2831 154.942 29.6181 154.057 29.1626C153.11 28.6541 151.884 28.3999 150.379 28.3999C148.496 28.3999 146.935 28.8082 145.697 29.6248C145.129 30.0001 144.612 30.4476 144.16 30.9559V28.9732H139.859V48.1656H144.759V38.4281C144.759 37.2304 144.892 36.2706 145.158 35.5487C145.423 34.8268 145.766 34.2791 146.187 33.9056C146.565 33.5523 147.022 33.2932 147.519 33.1494C147.953 33.0245 148.401 32.9586 148.852 32.9534C149.882 32.9534 150.679 33.1848 151.242 33.6476C151.798 34.0993 152.22 34.6954 152.46 35.3706C152.703 36.031 152.852 36.722 152.904 37.4236C152.952 38.1042 152.976 38.6638 152.974 39.1026V48.1656H157.874V37.3959C157.874 37.0692 157.851 36.5678 157.804 35.8671C157.743 35.0834 157.606 34.3074 157.397 33.5495Z" fill="#1F1F1F"/>
<path d="M175.495 38.006C174.611 37.5052 173.441 37.0642 171.985 36.6831C170.493 36.3042 169.382 35.996 168.654 35.7587C167.925 35.5213 167.446 35.2905 167.215 35.0662C167.102 34.9588 167.012 34.8289 166.952 34.6849C166.892 34.5409 166.863 34.3859 166.867 34.23C166.867 33.673 167.136 33.25 167.675 32.9511C168.214 32.6522 168.93 32.5379 169.816 32.5967C170.729 32.6675 171.452 32.9103 171.985 33.3251C172.248 33.5277 172.465 33.7823 172.624 34.0729C172.783 34.3635 172.881 34.6839 172.91 35.0139L177.85 34.1238C177.705 33.0112 177.245 31.9632 176.526 31.1023C175.766 30.2199 174.798 29.5421 173.709 29.1309C172.432 28.6478 171.075 28.4123 169.71 28.4368C168.159 28.4368 166.811 28.6829 165.668 29.175C164.599 29.607 163.676 30.3358 163.007 31.2754C162.368 32.2211 162.04 33.3421 162.067 34.4831C162.04 35.3619 162.255 36.2311 162.687 36.9967C163.102 37.6914 163.778 38.287 164.714 38.7835C165.651 39.28 166.903 39.7302 168.471 40.1342C169.856 40.5022 170.877 40.7984 171.535 41.0227C172.188 41.2481 172.616 41.4751 172.805 41.707C173.005 41.9688 173.106 42.2928 173.09 42.6216C173.1 42.898 173.041 43.1726 172.917 43.4197C172.792 43.6668 172.607 43.8783 172.379 44.0344C171.902 44.3708 171.228 44.5391 170.357 44.5391C169.29 44.5391 168.41 44.2843 167.718 43.7747C167.02 43.2601 166.542 42.5023 166.377 41.6515L161.43 42.4158C161.75 44.4182 162.653 45.9676 164.139 47.0641C165.626 48.1605 167.577 48.7082 169.994 48.7071C172.506 48.7071 174.473 48.1442 175.894 47.0184C177.315 45.8925 178.028 44.3442 178.033 42.3734C178.059 41.4847 177.851 40.6048 177.429 39.8222C177.023 39.1188 176.378 38.5134 175.495 38.006Z" fill="#1F1F1F"/>
<path d="M197.26 31.9227C196.631 30.6861 195.568 29.7248 194.275 29.2229C192.959 28.7003 191.455 28.439 189.76 28.439C187.451 28.439 185.627 28.9371 184.287 29.9334C182.975 30.89 182.013 32.2511 181.55 33.8075L185.922 35.1925C186.232 34.3149 186.771 33.7051 187.539 33.3632C188.235 33.036 188.992 32.8601 189.76 32.8471C191.041 32.8471 191.953 33.1139 192.498 33.6474C192.924 34.0639 193.177 34.6731 193.27 35.4603C192.454 35.5828 191.678 35.6988 190.951 35.805C189.709 35.989 188.595 36.1817 187.611 36.3831C186.748 36.5522 185.899 36.7836 185.07 37.0756C184.04 37.4567 183.219 37.9276 182.608 38.4884C182.018 39.0223 181.564 39.6898 181.284 40.4352C181.004 41.2155 180.865 42.0397 180.876 42.8688C180.864 43.8908 181.119 44.8982 181.614 45.7923C182.118 46.693 182.87 47.4299 183.781 47.9156C184.735 48.4436 185.899 48.7071 187.273 48.7061C188.932 48.7061 190.304 48.4186 191.387 47.8437C192.318 47.325 193.141 46.6338 193.813 45.807V48.1736H198.043V36.4354C198.046 35.6409 198.01 34.8467 197.935 34.0557C197.853 33.3072 197.623 32.5823 197.26 31.9227ZM192.746 42.3364C192.547 42.7052 192.299 43.0458 192.009 43.349C191.593 43.793 191.1 44.1573 190.553 44.4236C189.851 44.7578 189.08 44.9191 188.304 44.894C187.812 44.9062 187.323 44.8218 186.865 44.6458C186.49 44.5027 186.166 44.2529 185.932 43.9271C185.708 43.5945 185.593 43.1997 185.605 42.7986C185.601 42.4959 185.672 42.1969 185.811 41.928C185.967 41.643 186.186 41.3968 186.45 41.2078C186.803 40.9549 187.187 40.749 187.593 40.5953C188.064 40.4242 188.544 40.2818 189.032 40.169C189.576 40.0384 190.293 39.893 191.183 39.7329C191.75 39.6317 192.442 39.5108 193.233 39.3769C193.223 39.7182 193.207 40.0857 193.182 40.5202C193.155 41.1479 193.007 41.7645 192.746 42.3364Z" fill="#1F1F1F"/>
<path d="M213.111 38.5685L220.04 28.9732H214.069L207.566 38.2141V22.5757H202.661L202.625 48.1656H207.566V38.9246L214.211 48.1656H220.503L213.111 38.5685Z" fill="#1F1F1F"/>
</g>
<defs>
<linearGradient id="paint0_linear_2731_6588" x1="5.19071" y1="17.7434" x2="65.9152" y2="52.8013" gradientUnits="userSpaceOnUse">
<stop offset="0.13" stop-color="#348BED"/>
<stop offset="0.31" stop-color="#2B80E8"/>
<stop offset="0.64" stop-color="#1461DB"/>
<stop offset="0.72" stop-color="#0E57D7"/>
</linearGradient>
<clipPath id="clip0_2731_6588">
<rect width="220" height="70.1059" fill="white" transform="translate(0.5 0.220215)"/>
</clipPath>
</defs>
</svg>
