<svg width="45" height="38" viewBox="0 0 45 38" fill="none" xmlns="http://www.w3.org/2000/svg">
<path d="M24.4738 0.926759C24.9631 0.415038 25.7562 0.415039 26.2455 0.92676L42.0179 17.4244C42.5071 17.9361 42.5071 18.7658 42.0179 19.2775L38.4501 23.0093C37.9609 23.521 37.1676 23.521 36.6784 23.0093L20.906 6.51175C20.4168 6.00003 20.4168 5.17037 20.906 4.65864L24.4738 0.926759Z" fill="#34A9FF"/>
<path d="M42.4042 17.8383C42.8936 18.35 42.8936 19.1797 42.4042 19.6914L26.2884 36.5482C25.7992 37.0599 25.0061 37.0599 24.5168 36.5482L20.9489 32.8163C20.4597 32.3046 20.4597 31.4749 20.9489 30.9632L37.0648 14.1064C37.554 13.5947 38.3472 13.5947 38.8364 14.1064L42.4042 17.8383Z" fill="#34A9FF"/>
<path d="M4.95821 0.926759C5.44743 0.415038 6.24063 0.415039 6.72985 0.92676L22.5023 17.4244C22.9915 17.9361 22.9915 18.7658 22.5023 19.2775L18.9345 23.0093C18.4453 23.521 17.652 23.521 17.1628 23.0093L1.39036 6.51175C0.901131 6.00003 0.90113 5.17037 1.39036 4.65864L4.95821 0.926759Z" fill="#34A9FF"/>
<path d="M22.8886 17.8383C23.3778 18.35 23.3778 19.1797 22.8886 19.6914L6.77283 36.5482C6.28359 37.0599 5.4904 37.0599 5.00117 36.5482L1.43333 32.8163C0.944098 32.3046 0.9441 31.4749 1.43333 30.9632L17.5492 14.1064C18.0384 13.5947 18.8316 13.5947 19.3208 14.1064L22.8886 17.8383Z" fill="#34A9FF"/>
</svg>
