<svg width="38" height="38" viewBox="0 0 38 38" fill="none" xmlns="http://www.w3.org/2000/svg">
<rect x="0.5" y="0.5" width="37" height="37" rx="5" fill="#494D5A"/>
<path d="M26.4417 25.6274C18.0482 29.6221 12.8392 26.2798 9.50467 24.2499C9.29833 24.122 8.94762 24.2798 9.25191 24.6293C10.3628 25.9764 14.0034 29.2228 18.7555 29.2228C23.5108 29.2228 26.3398 26.6281 26.6938 26.1755C27.0453 25.7268 26.7969 25.4791 26.4417 25.6274ZM28.7991 24.3256C28.5736 24.0321 27.4283 23.9774 26.7078 24.0659C25.9858 24.1519 24.9024 24.593 24.9966 24.8579C25.045 24.9572 25.1436 24.9127 25.6395 24.8681C26.1368 24.8185 27.5297 24.6427 27.8198 25.0221C28.1116 25.4041 27.3755 27.224 27.2411 27.5176C27.1114 27.8111 27.2909 27.8868 27.5346 27.6912C27.7754 27.4959 28.2108 26.9897 28.5031 26.2736C28.7934 25.5536 28.9705 24.5491 28.7991 24.3256Z" fill="#FF9900"/>
<path fill-rule="evenodd" clip-rule="evenodd" d="M20.7984 17.4762C20.7984 18.5243 20.8249 19.3984 20.2951 20.3292C19.8675 21.086 19.1902 21.5514 18.4334 21.5514C17.4004 21.5514 16.7988 20.7643 16.7988 19.6027C16.7988 17.3096 18.8534 16.8934 20.7984 16.8934V17.4762ZM23.5114 24.0337C23.3335 24.1926 23.0762 24.204 22.8757 24.098C21.9827 23.3564 21.8238 23.012 21.3319 22.3044C19.8562 23.8104 18.8118 24.2607 16.8972 24.2607C14.6344 24.2607 12.8711 22.8644 12.8711 20.0681C12.8711 17.8848 14.0555 16.3977 15.7392 15.6713C17.1999 15.028 19.2394 14.9145 20.7984 14.7367V14.3885C20.7984 13.749 20.8475 12.9923 20.473 12.4398C20.1437 11.9441 19.5156 11.7398 18.9631 11.7398C17.9377 11.7398 17.022 12.2657 16.7988 13.3555C16.7533 13.5977 16.5755 13.8361 16.3334 13.8474L13.7224 13.5675C13.503 13.5182 13.2609 13.3404 13.3214 13.0036C13.9231 9.84033 16.7798 8.88672 19.3377 8.88672C20.6469 8.88672 22.3572 9.23486 23.3902 10.2263C24.6995 11.4484 24.5746 13.0793 24.5746 14.8539V19.0465C24.5746 20.3065 25.0968 20.8589 25.5885 21.5401C25.7627 21.7822 25.8007 22.0737 25.5811 22.2552C25.0324 22.713 24.0561 23.5644 23.5189 24.0413L23.5114 24.0337Z" fill="white"/>
<path d="M26.4417 25.6274C18.0482 29.6221 12.8392 26.2798 9.50467 24.2499C9.29833 24.122 8.94762 24.2798 9.25191 24.6293C10.3628 25.9764 14.0034 29.2228 18.7555 29.2228C23.5108 29.2228 26.3398 26.6281 26.6938 26.1755C27.0453 25.7268 26.7969 25.4791 26.4417 25.6274ZM28.7991 24.3256C28.5736 24.0321 27.4283 23.9774 26.7078 24.0659C25.9858 24.1519 24.9024 24.593 24.9966 24.8579C25.045 24.9572 25.1436 24.9127 25.6395 24.8681C26.1368 24.8185 27.5297 24.6427 27.8198 25.0221C28.1116 25.4041 27.3755 27.224 27.2411 27.5176C27.1114 27.8111 27.2909 27.8868 27.5346 27.6912C27.7754 27.4959 28.2108 26.9897 28.5031 26.2736C28.7934 25.5536 28.9705 24.5491 28.7991 24.3256Z" fill="#FF9900"/>
<path fill-rule="evenodd" clip-rule="evenodd" d="M20.7984 17.4762C20.7984 18.5243 20.8249 19.3984 20.2951 20.3292C19.8675 21.086 19.1902 21.5514 18.4334 21.5514C17.4004 21.5514 16.7988 20.7643 16.7988 19.6027C16.7988 17.3096 18.8534 16.8934 20.7984 16.8934V17.4762ZM23.5114 24.0337C23.3335 24.1926 23.0762 24.204 22.8757 24.098C21.9827 23.3564 21.8238 23.012 21.3319 22.3044C19.8562 23.8104 18.8118 24.2607 16.8972 24.2607C14.6344 24.2607 12.8711 22.8644 12.8711 20.0681C12.8711 17.8848 14.0555 16.3977 15.7392 15.6713C17.1999 15.028 19.2394 14.9145 20.7984 14.7367V14.3885C20.7984 13.749 20.8475 12.9923 20.473 12.4398C20.1437 11.9441 19.5156 11.7398 18.9631 11.7398C17.9377 11.7398 17.022 12.2657 16.7988 13.3555C16.7533 13.5977 16.5755 13.8361 16.3334 13.8474L13.7224 13.5675C13.503 13.5182 13.2609 13.3404 13.3214 13.0036C13.9231 9.84033 16.7798 8.88672 19.3377 8.88672C20.6469 8.88672 22.3572 9.23486 23.3902 10.2263C24.6995 11.4484 24.5746 13.0793 24.5746 14.8539V19.0465C24.5746 20.3065 25.0968 20.8589 25.5885 21.5401C25.7627 21.7822 25.8007 22.0737 25.5811 22.2552C25.0324 22.713 24.0561 23.5644 23.5189 24.0413L23.5114 24.0337Z" fill="white"/>
</svg>
