<svg width="137" height="32" viewBox="0 0 137 32" fill="none" xmlns="http://www.w3.org/2000/svg">
<g clip-path="url(#clip0_3172_7415)">
<path fill-rule="evenodd" clip-rule="evenodd" d="M33.5622 31.5759V0.425781H34.6489V31.5759H33.5622ZM33.5622 31.5759L32.421 0.425781H31.3343L32.4718 31.5759H33.5622ZM32.4754 31.5759L30.1931 0.425781H29.1064L31.3886 31.5759H32.4754ZM31.3596 31.5759L27.9254 0.425781H26.8386L30.2583 31.5759H31.3596ZM30.2366 31.5759L25.6794 0.425781H24.5926L29.1462 31.5759H30.2366ZM29.1245 31.5759L23.4188 0.425781H22.314L28.0196 31.5759H29.1245ZM28.0087 31.5759L21.1257 0.425781H20.01L26.8929 31.5759H28.0087ZM26.8821 31.5759L18.7964 0.425781H17.6734L25.7264 31.5759H26.8821ZM25.7482 31.5759L16.5069 0.425781H15.373L24.6143 31.5759H25.7482ZM24.5998 31.5759L14.1594 0.425781H13.0111L23.4152 31.5759H24.5998ZM0.03125 0.425781V31.5759H1.11803V0.425781H0.03125ZM1.11803 0.425781L2.33523 31.5759H3.42202L2.20482 0.425781H1.11803ZM2.20482 0.425781L4.65008 31.5759H5.73687L3.2916 0.425781H2.20482ZM3.30972 0.425781L6.9106 31.5759H7.99738L4.37839 0.425781H3.30972ZM4.42548 0.425781L9.30514 31.5759H10.3919L5.50864 0.425781H4.42548ZM5.51227 0.425781L11.562 31.5759H12.6706L6.62079 0.425781H5.51227ZM6.59905 0.425781L13.9747 31.5759H15.0941L7.71844 0.425781H6.59905ZM7.71482 0.425781L16.5178 31.5759H17.648L8.84507 0.425781H7.71482ZM8.8342 0.425781L18.9268 31.5759H20.0716L9.99344 0.425781H8.8342ZM9.98619 0.425781L14.5652 12.0639L22.1727 31.4033L22.2379 31.5759H23.408L23.3174 31.3479L15.7099 12.0053L11.1599 0.425781H9.98619Z" fill="url(#paint0_linear_3172_7415)"/>
<path fill-rule="evenodd" clip-rule="evenodd" d="M105.94 22.8157C104.694 25.5019 102.602 27.8023 99.921 29.4343C97.2402 31.0664 94.0873 31.9588 90.8499 32.0021C87.6125 32.0453 84.4316 31.2374 81.698 29.6777C78.9644 28.118 76.7973 25.8745 75.4629 23.2227C73.4089 19.1881 73.4053 12.8448 75.4629 8.80693C76.7929 6.15043 78.958 3.90149 81.6918 2.33697C84.4255 0.772449 87.6085 -0.0393675 90.849 0.00146817C94.0895 0.0423038 97.2459 0.934003 99.9298 2.5668C102.614 4.19959 104.708 6.5022 105.954 9.19117L106.045 9.38005H102.473L102.43 9.30841C101.337 7.4556 99.7249 5.89196 97.7522 4.77288C95.7795 3.6538 93.5153 3.01823 91.1847 2.92934C88.8541 2.84044 86.5382 3.30131 84.4671 4.26616C82.396 5.231 80.6419 6.66622 79.379 8.42919C76.4265 12.5159 76.4265 19.5007 79.379 23.5744C80.6416 25.3375 82.3955 26.773 84.4664 27.7381C86.5372 28.7032 88.8531 29.1644 91.1837 29.0758C93.5142 28.9873 95.7785 28.352 97.7514 27.2332C99.7243 26.1145 101.337 24.5511 102.43 22.6985L102.473 22.6268H106.045L105.94 22.8157ZM66.3557 28.0747V0.428385H69.616V31.5785H65.1747L43.0768 4.1634V31.5785H39.8164V0.428385H44.0585L66.3557 28.0747ZM121.655 13.724L132.921 0.425126H137L123.694 16.1337L136.779 31.5785H132.704L121.655 18.5531L110.61 31.5785H106.625L119.604 16.1304L106.302 0.428385H110.381L121.655 13.724Z" fill="black"/>
</g>
<defs>
<linearGradient id="paint0_linear_3172_7415" x1="17.3256" y1="31.7224" x2="17.3256" y2="-4.22101" gradientUnits="userSpaceOnUse">
<stop stop-color="#22B4FB"/>
<stop offset="0.68" stop-color="#006EF3"/>
</linearGradient>
<clipPath id="clip0_3172_7415">
<rect width="137" height="32" fill="white"/>
</clipPath>
</defs>
</svg>
