<svg width="38" height="38" viewBox="0 0 38 38" fill="none" xmlns="http://www.w3.org/2000/svg">
<rect x="0.5" y="0.5" width="37" height="37" rx="5" fill="#E82127"/>
<path d="M8.66419 22.3618H7.24765V16.8291H5.43359V15.6436H10.4782V16.8291H8.66419V22.3618Z" fill="white"/>
<path d="M15.3553 22.3618H11.5078V15.6436H15.3553V16.8108H12.9243V18.2858H15.1862V19.453H12.9243V21.1854H15.3553V22.3618Z" fill="white"/>
<path d="M20.6945 20.496C20.6945 21.1025 20.4767 21.5804 20.0411 21.9297C19.6085 22.2789 19.0053 22.4535 18.2316 22.4535C17.5187 22.4535 16.8882 22.3187 16.3398 22.0492V20.7257C16.7907 20.9279 17.1715 21.0704 17.4822 21.1531C17.796 21.2358 18.0823 21.2772 18.3412 21.2772C18.652 21.2772 18.8896 21.2174 19.0541 21.0979C19.2216 20.9785 19.3054 20.8008 19.3054 20.5649C19.3054 20.4332 19.2688 20.3167 19.1957 20.2157C19.1226 20.1115 19.0145 20.0119 18.8713 19.917C18.7312 19.822 18.4433 19.6704 18.0077 19.462C17.5995 19.269 17.2933 19.0837 17.0892 18.906C16.8851 18.7283 16.7222 18.5215 16.6003 18.2856C16.4784 18.0498 16.4175 17.7741 16.4175 17.4585C16.4175 16.8642 16.617 16.397 17.0161 16.057C17.4182 15.7169 17.9726 15.5469 18.6794 15.5469C19.0267 15.5469 19.3572 15.5882 19.671 15.6709C19.9877 15.7537 20.3183 15.8701 20.6625 16.0202L20.2056 17.1276C19.8491 16.9806 19.5537 16.878 19.3191 16.8197C19.0876 16.7616 18.8591 16.7325 18.6337 16.7325C18.3656 16.7325 18.16 16.7953 18.0168 16.9209C17.8736 17.0465 17.8021 17.2103 17.8021 17.4125C17.8021 17.5381 17.831 17.6484 17.8889 17.7434C17.9468 17.8353 18.0381 17.9257 18.163 18.0145C18.291 18.1003 18.591 18.2565 19.0632 18.4832C19.6877 18.7835 20.1157 19.0852 20.3472 19.3885C20.5787 19.6887 20.6945 20.0579 20.6945 20.496Z" fill="white"/>
<path d="M21.9062 22.3618V15.6436H23.3228V21.1854H26.0324V22.3618H21.9062Z" fill="white"/>
<path d="M31.2858 22.3611L30.8014 20.7619H28.3658L27.8816 22.3611H26.3555L28.7131 15.6152H30.445L32.812 22.3611H31.2858ZM30.4632 19.5672C30.0155 18.1181 29.7627 17.2986 29.7047 17.1087C29.6499 16.9188 29.6102 16.7686 29.5861 16.6584C29.4854 17.0505 29.1976 18.0201 28.7222 19.5672H30.4632Z" fill="white"/>
</svg>
