<svg width="41" height="40" viewBox="0 0 41 40" fill="none" xmlns="http://www.w3.org/2000/svg">
<circle cx="20.2354" cy="20" r="20" fill="#24292F"/>
<path fill-rule="evenodd" clip-rule="evenodd" d="M28.7427 10H32.2354L25.3681 16.6589C25.3681 16.6589 23.433 19.0421 20.2236 19.0421C17.0141 19.0421 15.079 16.6589 15.079 16.6589L8.23535 10H11.728L17.4861 15.6075C17.4861 15.6075 18.7368 16.5654 20.2236 16.5654C21.7103 16.5654 22.961 15.6075 22.961 15.6075L28.7427 10ZM11.728 30H8.23535L15.1026 23.3411C15.1026 23.3411 17.0377 20.9579 20.2471 20.9579C23.4566 20.9579 25.3917 23.3411 25.3917 23.3411L32.2354 30H28.7427L22.9846 24.3925C22.9846 24.3925 21.7339 23.4346 20.2471 23.4346C18.7604 23.4346 17.5097 24.3925 17.5097 24.3925L11.728 30Z" fill="white"/>
</svg>
