<svg width="22" height="22" viewBox="0 0 22 22" fill="none" xmlns="http://www.w3.org/2000/svg">
<rect x="0.3" y="0.3" width="21.4" height="21.4" rx="10.7" fill="#E1C8FF"/>
<path d="M10.7224 7.60738L10.7224 7.6074C10.8985 7.47868 11.1289 7.51421 11.2686 7.68714L11.2705 7.68945L11.2704 7.6895C11.302 7.73368 11.3802 7.86785 11.4785 8.04616C11.5776 8.22583 11.6988 8.45347 11.8171 8.68704C11.935 8.92006 12.0427 9.13238 12.1215 9.28718C12.161 9.36459 12.1932 9.42753 12.2159 9.47146L12.2414 9.52041C12.2557 9.52263 12.2763 9.52558 12.3029 9.52921C12.3574 9.53664 12.4358 9.54675 12.5323 9.55892C12.7254 9.58323 12.9907 9.61566 13.2827 9.65105C13.5702 9.68496 13.7942 9.71309 13.9682 9.74111C14.1416 9.76904 14.2685 9.79733 14.3602 9.83246C14.4526 9.86784 14.5149 9.91229 14.5519 9.97588C14.588 10.038 14.5951 10.1106 14.5951 10.1903C14.5951 10.2815 14.5552 10.3694 14.4457 10.5082C14.3361 10.6471 14.1498 10.8451 13.8435 11.1573C13.6405 11.3662 13.4569 11.566 13.3243 11.7206C13.2579 11.798 13.2048 11.8634 13.1685 11.9127C13.1503 11.9375 13.137 11.9573 13.1285 11.972C13.1243 11.9793 13.1218 11.9844 13.1204 11.9877C13.1212 12.0014 13.1256 12.0357 13.1342 12.0909C13.1434 12.1503 13.1568 12.2295 13.1733 12.323C13.2065 12.5099 13.2521 12.7529 13.3022 13.0063C13.3022 13.0063 13.3022 13.0063 13.3022 13.0064L13.2532 13.0161C13.4537 14.013 13.4478 14.2077 13.2119 14.3139L10.7224 7.60738ZM10.7224 7.60738L10.7212 7.6083C10.7077 7.61883 10.6943 7.63656 10.6828 7.65329C10.67 7.67188 10.6551 7.69588 10.6385 7.7242C10.6051 7.78094 10.5635 7.85738 10.5165 7.94767C10.4225 8.12837 10.3057 8.36645 10.1875 8.61755L10.1873 8.61799C10.0724 8.8685 9.96333 9.1013 9.88086 9.27435C9.83961 9.3609 9.80506 9.43238 9.77977 9.48361C9.76711 9.50926 9.75686 9.52963 9.74929 9.54421C9.74714 9.54837 9.74533 9.55178 9.74385 9.55455C9.74208 9.5551 9.7401 9.55571 9.73789 9.55635C9.72451 9.5603 9.70541 9.56531 9.68089 9.57127C9.63198 9.58316 9.56347 9.59833 9.48005 9.6156C9.31331 9.65013 9.08828 9.69278 8.84402 9.73398L8.84372 9.73404C8.80315 9.74114 8.76395 9.74799 8.72607 9.75462C8.21407 9.84417 7.94191 9.89177 7.78702 9.92858C7.70383 9.94835 7.65025 9.96592 7.61023 9.98717C7.56875 10.0092 7.54428 10.034 7.51863 10.0611M10.7224 7.60738L13.2329 14.3592C13.1934 14.3781 13.1528 14.3898 13.0994 14.3871C13.0482 14.3844 12.9879 14.3687 12.9081 14.3385C12.7488 14.2784 12.4953 14.1546 12.0511 13.9339C12.0511 13.9339 12.0511 13.9339 12.0511 13.9339L11.0836 13.4559L10.1925 13.9504C10.1924 13.9504 10.1923 13.9505 10.1923 13.9505C9.94083 14.0925 9.69513 14.2212 9.5016 14.3147C9.40488 14.3614 9.32065 14.3995 9.255 14.4261C9.22222 14.4393 9.19342 14.45 9.16966 14.4574C9.14757 14.4643 9.12465 14.4701 9.106 14.4701C9.05507 14.4701 8.99894 14.454 8.94809 14.4298C8.8969 14.4055 8.8471 14.3709 8.80958 14.33L8.80927 14.3296C8.7825 14.2999 8.75644 14.2699 8.74031 14.2244C8.7246 14.18 8.7197 14.1253 8.72273 14.0465C8.72876 13.8898 8.7677 13.6148 8.84414 13.0856L8.84416 13.0855L8.99965 12.0259L8.62341 11.6721L8.6233 11.672C8.54848 11.6012 8.45804 11.5148 8.36246 11.4235C8.1782 11.2474 7.97482 11.0531 7.82739 10.9173L7.82695 10.9169C7.61763 10.7194 7.48586 10.5637 7.43343 10.429C7.40653 10.3598 7.39958 10.2941 7.41537 10.2305C7.43098 10.1678 7.46753 10.1123 7.51863 10.0611M7.51863 10.0611C7.5188 10.0609 7.51898 10.0608 7.51915 10.0606L7.55451 10.0959L7.51815 10.0616C7.51831 10.0614 7.51847 10.0613 7.51863 10.0611ZM11.3977 9.03942L11.3977 9.03942L12.9641 10.1195L12.9576 10.1691C12.9577 10.1691 12.9578 10.1691 12.9579 10.1692C13.1446 10.1936 13.3246 10.2172 13.479 10.2375C13.6652 10.2619 13.8141 10.2814 13.8925 10.2916C13.8712 10.3243 13.8356 10.3706 13.7856 10.4303C13.6762 10.5609 13.5032 10.7486 13.2764 10.9812C13.2764 10.9813 13.2764 10.9813 13.2763 10.9813L12.5391 11.7304L12.5207 11.749L12.5256 11.7748L12.7144 12.7659L12.7144 12.7661C12.7675 13.0373 12.8147 13.2878 12.8485 13.4734C12.8655 13.5662 12.8791 13.6427 12.8884 13.6974C12.8895 13.7036 12.8905 13.7096 12.8915 13.7153C12.8479 13.6986 12.7864 13.6727 12.7108 13.6392C12.5501 13.568 12.328 13.4636 12.0837 13.3429C11.8384 13.2217 11.6033 13.1108 11.4227 13.0301C11.3324 12.9898 11.2553 12.9569 11.1972 12.9339C11.1682 12.9224 11.1434 12.9132 11.1237 12.9068C11.1138 12.9036 11.1047 12.9009 11.0967 12.899C11.0896 12.8973 11.08 12.8953 11.0704 12.8953C11.0605 12.8953 11.0506 12.8975 11.0435 12.8994C11.0354 12.9015 11.0264 12.9044 11.0169 12.9078C10.9977 12.9147 10.9737 12.9245 10.9459 12.9367C10.8902 12.9612 10.8166 12.9962 10.7303 13.0391C10.5578 13.1251 10.333 13.2434 10.0966 13.3734L10.0965 13.3734C9.78098 13.5474 9.56748 13.657 9.43197 13.7157C9.36723 13.7437 9.32334 13.7588 9.29587 13.7645C9.29618 13.7493 9.29723 13.7294 9.29902 13.7051C9.30272 13.6547 9.30946 13.5874 9.31864 13.5077C9.33698 13.3485 9.3649 13.1413 9.39728 12.9235C9.43274 12.7047 9.46377 12.4875 9.48596 12.313C9.50794 12.14 9.52175 12.0053 9.52175 11.9542C9.52175 11.8649 9.48076 11.781 9.36964 11.6511C9.25838 11.521 9.06898 11.3362 8.75678 11.0447C8.75675 11.0446 8.75672 11.0446 8.75668 11.0446L8.08686 10.412L8.98439 10.2633L8.98449 10.2632C9.44137 10.1866 9.74577 10.1241 9.93641 10.0616C10.0314 10.0304 10.1026 9.9979 10.1508 9.96065C10.1993 9.92318 10.2281 9.87776 10.2296 9.82307C10.2297 9.82284 10.2297 9.82259 10.2298 9.82232C10.2308 9.81893 10.2325 9.8138 10.2351 9.80668C10.2403 9.79256 10.2482 9.773 10.2585 9.74846C10.2791 9.69952 10.3087 9.63271 10.3445 9.55391C10.4162 9.39642 10.5121 9.1923 10.6089 8.99006C10.7058 8.78782 10.8036 8.58775 10.8788 8.43837C10.9165 8.36361 10.9484 8.30191 10.9717 8.25908C10.972 8.25839 10.9724 8.2577 10.9728 8.25702C10.9734 8.258 10.974 8.25899 10.9746 8.26C11.0003 8.30242 11.0357 8.36427 11.0783 8.44114C11.1636 8.59474 11.2769 8.80668 11.3977 9.03942Z" fill="black" stroke="black" stroke-width="0.1"/>
<rect x="4.3" y="4.3" width="13.4" height="13.4" rx="6.7" stroke="black" stroke-width="0.6"/>
<rect x="0.3" y="0.3" width="21.4" height="21.4" rx="10.7" stroke="black" stroke-width="0.6"/>
</svg>
