<svg width="38" height="38" viewBox="0 0 38 38" fill="none" xmlns="http://www.w3.org/2000/svg">
<rect x="0.5" y="0.5" width="37" height="37" rx="5" fill="#7399C6"/>
<path fill-rule="evenodd" clip-rule="evenodd" d="M10.0873 15.8275V14.3125H8.77703C7.38159 14.3125 6.66946 15.5351 6.66946 16.6777C6.64107 17.8207 7.01132 18.8833 8.26444 19.0166C7.66627 19.1761 7.12528 19.5743 7.09691 20.2125C7.09691 20.9564 7.49555 21.1693 8.35 21.6208C8.94775 21.9133 9.3752 22.1257 9.40357 22.7105C9.40357 23.1621 9.14728 23.4811 8.60632 23.4811C8.17887 23.4811 7.55231 23.2421 7.296 21.8599H7.09691V23.694H8.60632C9.54592 23.694 10.3724 23.1354 10.3724 22.2319C10.3724 21.4107 9.77214 21.1071 9.21978 20.8279C9.14684 20.791 9.07471 20.7545 9.00495 20.7173C8.96149 20.6952 8.91938 20.674 8.87868 20.6535C8.33261 20.3779 8.03652 20.2285 8.03652 19.7339C8.03652 19.3353 8.3784 19.0695 8.83421 19.0961C9.26124 19.0961 9.51797 19.3619 9.65988 19.601C9.79308 19.8241 9.85141 20.0243 9.92813 20.2876C9.93363 20.3065 9.93925 20.3258 9.94497 20.3454H10.1441V16.5448H8.54953V16.7305C8.58241 16.7409 8.62812 16.7472 8.67837 16.7541C8.75826 16.7652 8.84968 16.7778 8.91936 16.8105C9.06213 16.8905 9.14728 17.0496 9.14728 17.3154V18.0331C9.14728 18.2456 9.11847 18.5646 8.97656 18.7242C8.89099 18.8304 8.74864 18.8833 8.54911 18.8833C8.17887 18.8833 8.03652 18.5913 7.97976 18.4051C7.89416 18.0065 7.8658 17.4483 7.8658 16.7039C7.8658 15.9071 7.95137 15.2427 8.12208 14.9236C8.2928 14.6578 8.49236 14.472 8.83421 14.4987C9.34681 14.5249 9.71708 15.0835 9.8878 15.8275H10.0873ZM15.4133 18.6975H14.4164V14.392H15.4133V18.6975ZM24.2998 18.6971V16.1195C24.2998 15.3756 23.8728 15.0298 23.2462 15.0565C22.8188 15.0831 22.5625 15.3489 22.4485 15.5613C22.3062 15.1894 21.9927 15.0298 21.5369 15.0565C21.167 15.0831 20.8819 15.2956 20.7679 15.5351V15.1365H19.8851V18.6971H20.8535V16.0137C20.8535 15.748 20.8819 15.5884 21.0531 15.4556C21.167 15.376 21.281 15.3493 21.3661 15.376C21.594 15.4289 21.594 15.6951 21.594 16.0137V18.698H22.5625V15.9866C22.5625 15.7471 22.6192 15.5876 22.762 15.4547C22.876 15.3751 22.9899 15.3485 23.0751 15.3751C23.303 15.428 23.3314 15.6942 23.3314 16.0129V18.6971H24.2998ZM28.6008 18.6975H29.569V16.0133C29.569 15.7475 29.6262 15.5884 29.7685 15.4551C29.8825 15.3755 30.0248 15.3489 30.1104 15.3755C30.3383 15.4284 30.3383 15.6946 30.3383 16.0133V18.6975H31.3346V16.1195C31.3346 15.3755 30.9081 15.0298 30.2811 15.0564C29.9109 15.0836 29.6262 15.2956 29.5125 15.5351V15.1364H28.6008V18.6975ZM12.6223 18.3788C12.7363 18.1126 12.7363 17.5811 12.7363 16.9167V16.9172C12.7363 16.8238 12.7369 16.7322 12.7375 16.643C12.7409 16.122 12.7439 15.682 12.6223 15.4551C12.5368 15.3222 12.4512 15.2426 12.2516 15.2426C12.0809 15.2426 11.967 15.3222 11.9097 15.4551C11.7678 15.7213 11.7678 16.279 11.7678 16.9167C11.7678 17.5811 11.7678 18.1126 11.9102 18.3784C11.967 18.5113 12.0809 18.5913 12.2516 18.5913C12.4512 18.5913 12.5368 18.5113 12.6223 18.3788ZM13.1062 15.3755C12.8782 15.1893 12.5936 15.0564 12.2517 15.0564C11.9102 15.0564 11.654 15.1897 11.3977 15.3755C10.9986 15.6946 10.7423 16.279 10.7423 16.9167C10.7423 17.5811 10.9986 18.1393 11.3977 18.4584C11.654 18.6442 11.9102 18.777 12.2517 18.777C12.5936 18.777 12.8787 18.6442 13.1066 18.4584C13.5336 18.1393 13.7615 17.5811 13.7615 16.9167C13.7615 16.279 13.5336 15.6946 13.1066 15.3755H13.1062ZM23.0467 21.0094V20.053H22.0499C21.281 20.053 20.7968 20.4516 20.7968 21.0893C20.7968 21.5667 21.1657 21.7796 21.7619 22.1238L21.7652 22.1257C22.3062 22.4181 22.5337 22.6306 22.5337 22.9763C22.5337 23.3216 22.2778 23.5078 21.9359 23.5078C21.3945 23.4812 21.1671 23.0559 21.0243 22.3653H20.8248V23.694H21.9643C22.5625 23.694 23.2746 23.3216 23.2746 22.551C23.2746 21.9206 22.8792 21.7209 22.3389 21.4479C22.264 21.4101 22.1864 21.3708 22.1067 21.3289C21.5941 21.0623 21.5089 20.8503 21.5373 20.6107C21.5657 20.3721 21.822 20.2125 22.1067 20.2388C22.5625 20.2654 22.7336 20.6107 22.8476 21.0094H23.0467ZM17.7771 15.4289C17.9766 15.6946 17.9766 16.3319 17.9766 16.8372C17.9766 16.8898 17.9769 16.944 17.9772 16.9992C17.9798 17.5017 17.9829 18.0887 17.7775 18.3518C17.692 18.4584 17.6064 18.5113 17.464 18.5113C17.2649 18.5113 17.151 18.2989 17.0942 17.9531C17.0654 17.6345 17.0654 17.2358 17.0654 16.8105C17.0654 16.0933 17.1222 15.2955 17.4929 15.2955C17.6348 15.2955 17.692 15.3489 17.7775 15.4289H17.7771ZM18.9455 14.392V18.6975H18.0054V18.3517C17.9199 18.5379 17.6919 18.7508 17.2933 18.7508C16.2965 18.7508 16.0402 17.5549 16.0686 16.8372C16.0974 15.7741 16.6668 15.0831 17.3789 15.0831C17.6636 15.0831 17.8631 15.216 17.9482 15.4022V14.392H18.9455ZM26.6924 16.5714L26.3788 16.7572C26.0658 16.9434 26.0091 17.1829 25.9802 17.4483C25.9519 17.6611 25.9519 17.8469 25.9802 18.166C26.0086 18.4584 26.2082 18.5113 26.3788 18.4584C26.5784 18.3784 26.6924 18.0331 26.6924 17.6611V16.5714ZM27.6894 16.0666C27.6894 15.5879 27.5184 15.3759 27.2619 15.2426C27.0626 15.1364 26.8349 15.0564 26.4644 15.0564C25.667 15.0564 25.0975 15.4551 25.1259 15.9337C25.1543 16.2261 25.3821 16.3323 25.5816 16.3323C25.8663 16.3586 26.1798 16.2261 26.1514 15.8537C26.1366 15.7308 26.0769 15.6711 26.0261 15.6204C25.978 15.5725 25.9381 15.5326 25.9519 15.4551C25.9519 15.3222 26.1514 15.2693 26.2651 15.2426C26.55 15.2426 26.6924 15.3488 26.6924 15.5879V16.1728C26.6924 16.3852 26.6356 16.4119 26.0947 16.6243C26.0557 16.64 26.0167 16.6553 25.9783 16.6705C25.4277 16.8873 24.9552 17.0734 24.9552 17.794C24.9552 18.6179 25.5533 18.777 25.8949 18.777C26.3221 18.777 26.6356 18.5913 26.7493 18.2989V18.6975H27.6894V16.0666ZM12.5935 21.5408L12.2804 21.727C11.967 21.9132 11.9102 22.1523 11.8814 22.4181C11.8534 22.6305 11.8534 22.8434 11.8814 23.1354C11.8814 23.4545 12.0809 23.5078 12.2516 23.4278C12.4795 23.3482 12.5935 23.0296 12.5935 22.6305V21.5408ZM13.562 21.036C13.562 20.5578 13.4196 20.3716 13.1633 20.212L13.1638 20.2125C12.9642 20.1058 12.7367 20.0525 12.3661 20.0525C11.5688 20.0525 10.999 20.4516 11.0274 20.9031C11.0562 21.1955 11.2841 21.3017 11.4832 21.3284C11.7683 21.3284 12.0814 21.1955 12.053 20.8502C12.0389 20.7318 11.9829 20.672 11.9334 20.6192C11.883 20.5654 11.8394 20.5189 11.8539 20.4249C11.8539 20.292 12.053 20.2387 12.1669 20.2387C12.4516 20.2125 12.594 20.3187 12.594 20.584V21.1688C12.594 21.3551 12.5372 21.3817 11.9674 21.6204C11.9242 21.6386 11.8812 21.6563 11.8385 21.6738C11.319 21.8876 10.8567 22.0779 10.8567 22.7901C10.8567 23.614 11.4264 23.7464 11.7967 23.7464C12.2242 23.7464 12.5372 23.5607 12.6512 23.2949V23.6936H13.562V21.036ZM20.0562 21.116C20.0562 20.372 19.6288 19.9996 19.0022 20.053C18.6891 20.0792 18.4324 20.2121 18.2901 20.3983V19.3619H17.3212V21.807C17.3212 22.7101 16.6375 23.5607 15.9537 23.5341C15.4699 23.5341 15.356 23.1888 15.2988 22.8168C15.2137 22.2853 15.2137 21.6742 15.2704 21.0094C15.3276 20.5845 15.4415 20.2387 15.7834 20.2387C16.0397 20.2387 16.0681 20.3983 15.9541 20.5045C15.9399 20.5212 15.9247 20.5379 15.9092 20.5549C15.8014 20.6735 15.6801 20.8069 15.7546 21.0627C15.8402 21.3818 16.3812 21.4347 16.6379 21.196C16.837 20.9831 16.8086 20.6374 16.6663 20.4249C16.4951 20.1592 16.2105 20.053 15.7834 20.053C15.242 20.053 14.2168 20.5045 14.2168 21.9395C14.2168 23.4812 15.2704 23.7469 15.8686 23.7469C16.5523 23.7469 17.1501 23.1888 17.3212 22.7368V23.6936H18.2896V21.0094C18.2896 20.744 18.3464 20.5845 18.4892 20.4512C18.6031 20.3716 18.7455 20.345 18.831 20.3716C19.059 20.425 19.059 20.6907 19.059 21.0094V23.6936H20.0558V21.116H20.0562Z" fill="white"/>
</svg>
