<svg viewBox="0 0 36 25" fill="none" xmlns="http://www.w3.org/2000/svg" class="trend-image"><mask id="rising-trend_svg__a" maskUnits="userSpaceOnUse" x="0" y="0" width="36" height="25" style="mask-type: alpha;"><path fill="#C4C4C4" stroke="#174722" stroke-width="0.719" d="M.484 1.27h35.072v22.595H.484z"></path></mask><g mask="url(#rising-trend_svg__a)"><path d="M-5.788 39.464v.116h46.969V-4.35c0-.534-.763-.626-.89-.107a.22.22 0 01-.213.167h-.282a.811.811 0 00-.763.535l-.504 1.393a.747.747 0 01-.703.493.98.98 0 00-.977.908l-.161 2.193a.84.84 0 01-.124.381l-.257.415a.605.605 0 01-1.083-.115l-.032-.09a.7.7 0 00-1.351.12l-.356 2.12a.627.627 0 01-1.15.23l-.25-.398a1.254 1.254 0 00-2.05-.105l-.064.082a.91.91 0 01-1.232.19 1.143 1.143 0 00-1.743.622l-.624 2.132-.642 1.535c-.077.185-.124.38-.139.58l-.212 2.883a1.626 1.626 0 01-.227.715l-.388.65a1.14 1.14 0 01-1.985-.055L22.24 12.1a.756.756 0 00-1.053-.3.527.527 0 01-.725-.199c-.327-.585-1.202-.499-1.41.138a.547.547 0 01-.518.377h-.074a.646.646 0 01-.541-.292l-.305-.466a.974.974 0 00-1.776.37l-.24 1.405a.596.596 0 01-1.083.23.828.828 0 00-.69-.37h-.11a.801.801 0 01-.787-.651l-.12-.633a.8.8 0 00-1.576.03l-.829 5.417a1.626 1.626 0 01-.079.309l-.605 1.668a.786.786 0 01-.738.515c-.461 0-.867.314-.979.763l-.132.532a.502.502 0 01-.88.192.734.734 0 00-.573-.276h-.212a.942.942 0 01-.89-.634l-.584-1.68a1.856 1.856 0 00-.326-.578l-.562-.676a.945.945 0 00-1.232-.194.712.712 0 01-.767-.002l-.2-.129c-.233-.15-.4-.383-.466-.653L.85 14.99a.777.777 0 00-1.316-.35.545.545 0 01-.394.168h-.077a.957.957 0 00-.946.81l-.28 1.808a.815.815 0 01-.72.686c-.39.041-.724.296-.866.66l-.716 1.827a.412.412 0 01-.383.262h-.218a.095.095 0 01-.09-.062c-.129-.34-.633-.247-.633.117v18.549z" fill="url(#rising-trend_svg__paint0_linear)" fill-opacity="0.35" stroke="#202020" stroke-width="0.232"></path></g><defs><linearGradient id="rising-trend_svg__paint0_linear" x1="72.115" y1="-42.425" x2="87.108" y2="4.333" gradientUnits="userSpaceOnUse"><stop offset="0.002" stop-color="#202020"></stop><stop offset="1" stop-color="#fff"></stop></linearGradient></defs></svg>