<svg width="38" height="38" viewBox="0 0 38 38" fill="none" xmlns="http://www.w3.org/2000/svg">
<rect x="0.5" y="0.5" width="37" height="37" rx="5" fill="#494D5A"/>
<path d="M24.9117 28.2595C23.7695 29.3762 22.5093 29.202 21.308 28.6756C20.031 28.1384 18.8634 28.1046 17.5147 28.6756C15.8351 29.4058 14.9436 29.1936 13.9321 28.2595C8.22095 22.3364 9.06393 13.3139 15.5548 12.9742C17.129 13.0592 18.2312 13.851 19.1585 13.9168C20.5367 13.6345 21.856 12.8256 23.3312 12.9318C25.1035 13.0761 26.429 13.7809 27.3143 15.0484C23.6684 17.2562 24.5324 22.0966 27.8811 23.4552C27.2109 25.228 26.351 26.9793 24.9096 28.2743L24.9117 28.2595ZM19.032 12.9106C18.8613 10.2781 20.9793 8.1127 23.4155 7.90039C23.7505 10.9362 20.6758 13.2078 19.032 12.9106Z" fill="white" fill-opacity="0.5"/>
</svg>
