<svg width="150" height="150" viewBox="0 0 150 150" fill="none" xmlns="http://www.w3.org/2000/svg">
<rect width="150" height="150" fill="#F7F7F7"/>
<mask id="mask0_3406_6585" style="mask-type:alpha" maskUnits="userSpaceOnUse" x="19" y="42" width="70" height="44">
<path d="M85 42H23C20.7909 42 19 43.7909 19 46V82C19 84.2091 20.7909 86 23 86H85C87.2091 86 89 84.2091 89 82V46C89 43.7909 87.2091 42 85 42Z" fill="white"/>
</mask>
<g mask="url(#mask0_3406_6585)">
<path d="M94.1268 41.8203H14.2383V85.9898H94.1268V41.8203Z" fill="#0059B7"/>
<path d="M94.1268 57.2883H62.1481V41.8203H46.1879V57.2883H14.2383V70.522H46.1879V85.9898H62.1481V70.522H94.1268V57.2883Z" fill="white"/>
<path d="M94.1268 80.9074L23.3879 41.8203H14.2383V46.9517L84.8891 85.9898H94.1268V80.9074Z" fill="white"/>
<path d="M14.2383 80.9074L84.9478 41.8203H94.1268V46.9517L23.4767 85.9898H14.2383V80.9074Z" fill="white"/>
<path d="M94.1268 60.0382H58.831V41.8203H49.5043V60.0382H14.2383V67.7721H49.5043V85.9898H58.831V67.7721H94.1268V60.0382Z" fill="#F44247"/>
<path d="M94.1277 85.8686V82.3823L72.6603 70.5234H66.3242L94.1277 85.8686Z" fill="#F44247"/>
<path d="M94.1271 41.8203H87.791L62.1484 55.9625V57.2883H66.0865L94.1271 41.8203Z" fill="#F44247"/>
<path d="M42.0424 70.5234L14.2383 85.8686V85.9913H20.338L46.1879 71.7265V70.5234H42.0424Z" fill="#F44247"/>
<path d="M14.2383 41.8438V45.3302L35.8834 57.2873H42.1905L14.2383 41.8438Z" fill="#F44247"/>
</g>
<g filter="url(#filter0_d_3406_6585)">
<path d="M130 75H61C59.3431 75 58 76.3431 58 78V109C58 110.657 59.3431 112 61 112H130C131.657 112 133 110.657 133 109V78C133 76.3431 131.657 75 130 75Z" fill="#2C2C2C"/>
<path d="M130 76H61C59.8954 76 59 76.8954 59 78V109C59 110.105 59.8954 111 61 111H130C131.105 111 132 110.105 132 109V78C132 76.8954 131.105 76 130 76Z" stroke="#F7F7F7" stroke-width="2"/>
</g>
<path d="M93.5625 85.8672V96.9531C93.5625 98.2188 93.2773 99.3281 92.707 100.281C92.1445 101.234 91.3281 101.965 90.2578 102.473C89.1875 102.98 87.9219 103.234 86.4609 103.234C84.2578 103.234 82.5469 102.672 81.3281 101.547C80.1094 100.414 79.5 98.8672 79.5 96.9062V85.8672H83.1211V96.3555C83.1211 97.6758 83.3867 98.6445 83.918 99.2617C84.4492 99.8789 85.3281 100.188 86.5547 100.188C87.7422 100.188 88.6016 99.8789 89.1328 99.2617C89.6719 98.6367 89.9414 97.6602 89.9414 96.332V85.8672H93.5625ZM113.539 103H109.414L104.926 95.7812L103.391 96.8828V103H99.7578V85.8672H103.391V93.707L104.82 91.6914L109.461 85.8672H113.492L107.516 93.4492L113.539 103Z" fill="white"/>
<defs>
<filter id="filter0_d_3406_6585" x="46" y="67" width="91" height="53" filterUnits="userSpaceOnUse" color-interpolation-filters="sRGB">
<feFlood flood-opacity="0" result="BackgroundImageFix"/>
<feColorMatrix in="SourceAlpha" type="matrix" values="0 0 0 0 0 0 0 0 0 0 0 0 0 0 0 0 0 0 127 0" result="hardAlpha"/>
<feOffset dx="-4"/>
<feGaussianBlur stdDeviation="4"/>
<feColorMatrix type="matrix" values="0 0 0 0 0 0 0 0 0 0 0 0 0 0 0 0 0 0 0.15 0"/>
<feBlend mode="normal" in2="BackgroundImageFix" result="effect1_dropShadow_3406_6585"/>
<feBlend mode="normal" in="SourceGraphic" in2="effect1_dropShadow_3406_6585" result="shape"/>
</filter>
</defs>
</svg>
