<svg width="35" height="38" viewBox="0 0 35 38" fill="none" xmlns="http://www.w3.org/2000/svg">
<g clip-path="url(#clip0_3089_8189)">
<path d="M20.7227 30.99L25.6164 35.8838L32.5145 28.9857C32.756 28.7443 32.9475 28.4577 33.0782 28.1423C33.2089 27.8268 33.2762 27.4888 33.2762 27.1473V10.8533C33.2762 10.5118 33.2089 10.1738 33.0782 9.85831C32.9475 9.54289 32.756 9.25629 32.5145 9.0149L25.6207 2.12109L20.7269 7.01484L30.874 17.162C31.1156 17.4036 31.3072 17.6904 31.4379 18.0061C31.5685 18.3218 31.6357 18.6601 31.6355 19.0018C31.6353 19.3435 31.5678 19.6817 31.4367 19.9973C31.3057 20.3128 31.1138 20.5995 30.8719 20.8408L20.7227 30.99Z" fill="#37ABFF" stroke="#37ABFF" stroke-width="2.27" stroke-miterlimit="10"/>
<path d="M2.48438 30.99L7.37813 35.8838L14.2762 28.9857C14.5176 28.7443 14.7092 28.4577 14.8399 28.1423C14.9706 27.8268 15.0379 27.4888 15.0379 27.1473V10.8533C15.0379 10.5118 14.9706 10.1738 14.8399 9.85831C14.7092 9.54289 14.5176 9.25629 14.2762 9.0149L7.38237 2.12109L2.48863 7.01484L12.6357 17.162C12.8773 17.4036 13.0689 17.6904 13.1996 18.0061C13.3302 18.3218 13.3974 18.6601 13.3972 19.0018C13.397 19.3435 13.3294 19.6817 13.1984 19.9973C13.0674 20.3128 12.8755 20.5995 12.6336 20.8408L2.48438 30.99Z" fill="#37ABFF" stroke="#37ABFF" stroke-width="2.27" stroke-miterlimit="10"/>
</g>
<defs>
<clipPath id="clip0_3089_8189">
<rect width="34" height="38" fill="white" transform="translate(0.5)"/>
</clipPath>
</defs>
</svg>
