<svg width="38" height="38" viewBox="0 0 38 38" fill="none" xmlns="http://www.w3.org/2000/svg">
<rect x="0.5" y="0.5" width="37" height="37" rx="5" fill="#F7F7F7"/>
<path fill-rule="evenodd" clip-rule="evenodd" d="M12.2734 6.66992V18.9886C12.2734 25.7643 12.2799 31.3138 12.2896 31.3237C12.2994 31.3333 12.718 31.2914 13.2243 31.2361C13.7306 31.1808 14.4283 31.1096 14.7755 31.0802C15.3077 31.0348 16.9044 30.9344 17.0862 30.9312C17.1413 30.9312 17.1445 30.6554 17.1511 25.7125L17.1607 20.5058L17.1576 20.4968V20.5033L12.2734 6.66992Z" fill="#B1060F"/>
<path fill-rule="evenodd" clip-rule="evenodd" d="M12.2734 6.66992L17.1552 23.3176L17.1607 20.5059L17.1575 20.4969V20.5034L12.2734 6.66992Z" fill="#9D030F"/>
<path fill-rule="evenodd" clip-rule="evenodd" d="M21.0195 6.68555L21.0097 12.1346L21 17.5804L25.842 31.3197C25.839 31.3224 25.8262 31.3239 25.8055 31.3241C25.8296 31.3241 25.8444 31.3229 25.8484 31.3197C25.8647 31.3066 25.8679 25.7603 25.8647 18.9912L25.8548 6.68555H21.0195Z" fill="#B1060F"/>
<path fill-rule="evenodd" clip-rule="evenodd" d="M21 17.5805L25.635 30.7326L21.0052 14.8262L21 17.5805Z" fill="#9D030F"/>
<path fill-rule="evenodd" clip-rule="evenodd" d="M12.2734 6.66927L17.1575 20.5027V20.4962L17.5437 21.5861C19.6888 27.6546 20.8409 30.9111 20.8473 30.9175C20.8506 30.9207 21.1752 30.9402 21.5678 30.9597C22.7555 31.0179 24.2288 31.1445 25.3485 31.2838C25.6048 31.3164 25.8288 31.3327 25.8418 31.3196L20.9999 17.5803V17.5835L20.552 16.3186C20.1139 15.0828 19.8218 14.2558 18.0597 9.28026C17.5859 7.94072 17.1834 6.80874 17.1673 6.75684L17.1348 6.66602H14.7041L12.2734 6.66927Z" fill="#E50914"/>
</svg>
