<svg width="99" height="40" viewBox="0 0 99 40" fill="none" xmlns="http://www.w3.org/2000/svg">
<path d="M47.1353 19.5543V30.9394H43.5234V2.82307H53.1027C54.246 2.79992 55.3827 3.00306 56.4472 3.42079C57.5118 3.83852 58.4832 4.46261 59.3057 5.25714C60.1357 6.00429 60.7962 6.9203 61.2431 7.94371C61.69 8.96713 61.9129 10.0743 61.8968 11.1909C61.9203 12.3135 61.7009 13.4279 61.2537 14.4579C60.8064 15.4879 60.142 16.409 59.3057 17.1583C57.6306 18.7556 55.563 19.5535 53.1027 19.552H47.1353V19.5543ZM47.1353 6.28461V16.0994H53.1924C53.8565 16.1193 54.5174 16.0002 55.1328 15.7499C55.7482 15.4995 56.3045 15.1235 56.7662 14.6457C57.6769 13.7597 58.1984 12.5482 58.2161 11.2777C58.2338 10.0072 57.7461 8.7817 56.8604 7.87069L56.7662 7.77422C56.3096 7.28733 55.7551 6.90265 55.1391 6.64552C54.5231 6.38838 53.8597 6.26462 53.1924 6.28237H47.1353V6.28461Z" fill="black"/>
<path d="M70.2228 11.0752C72.8925 11.0752 74.9997 11.7886 76.5447 13.2154C78.0896 14.6422 78.8614 16.5984 78.8599 19.0841V30.9404H75.4051V28.2708H75.248C73.7524 30.4693 71.7633 31.5685 69.2806 31.5685C67.1613 31.5685 65.3883 30.9404 63.9615 29.6841C63.2766 29.1077 62.7289 28.3856 62.3587 27.5706C61.9884 26.7555 61.8048 25.8681 61.8213 24.973C61.8213 22.9824 62.5736 21.3993 64.0782 20.2237C65.5827 19.0482 67.5913 18.4589 70.1039 18.4559C72.2486 18.4559 74.0149 18.8485 75.4028 19.6337V18.8082C75.4061 18.1981 75.274 17.5949 75.016 17.0421C74.758 16.4893 74.3806 16.0006 73.911 15.6113C72.9552 14.7505 71.7109 14.2805 70.4247 14.2945C68.4057 14.2945 66.8091 15.1454 65.6351 16.8474L62.454 14.8441C64.2038 12.3315 66.7934 11.0752 70.2228 11.0752ZM65.5498 25.0515C65.5465 25.5113 65.6536 25.9653 65.862 26.3752C66.0705 26.785 66.3742 27.1389 66.7478 27.4071C67.5459 28.0367 68.5379 28.3698 69.5543 28.3493C71.0785 28.347 72.5396 27.7403 73.6171 26.6623C74.8135 25.5361 75.4118 24.2147 75.4118 22.6982C74.2856 21.8008 72.7152 21.3522 70.7007 21.3522C69.2335 21.3522 68.0101 21.7059 67.0305 22.4133C66.0411 23.1312 65.5498 24.0038 65.5498 25.0515Z" fill="black"/>
<path d="M98.6891 11.7041L86.6286 39.4212H82.9001L87.3757 29.723L79.4453 11.7041H83.3712L89.1031 25.5234H89.1816L94.7564 11.7041H98.6891Z" fill="black"/>
<path d="M32.542 17.0997C32.5425 15.9991 32.4494 14.9004 32.2639 13.8154H17.0312V20.0363H25.7558C25.577 21.0298 25.199 21.9769 24.6446 22.8204C24.0902 23.664 23.3708 24.3866 22.5298 24.9449V28.983H27.7367C30.7855 26.172 32.542 22.015 32.542 17.0997Z" fill="#4285F4"/>
<path d="M17.0333 32.8842C21.3922 32.8842 25.0624 31.453 27.7387 28.9852L22.5318 24.9471C21.0826 25.9297 19.2161 26.4906 17.0333 26.4906C12.8202 26.4906 9.24423 23.6505 7.9655 19.8232H2.60156V23.9847C3.94595 26.6599 6.00742 28.9088 8.55583 30.4803C11.1042 32.0518 14.0393 32.8841 17.0333 32.8842Z" fill="#34A853"/>
<path d="M7.9667 19.8218C7.28919 17.8166 7.28919 15.6443 7.9667 13.639V9.47754H2.60276C1.47181 11.728 0.882812 14.2118 0.882812 16.7304C0.882812 19.2491 1.47181 21.7328 2.60276 23.9833L7.9667 19.8218Z" fill="#FBBC04"/>
<path d="M17.0333 6.97373C19.3364 6.93803 21.5615 7.80808 23.2295 9.39658L27.8397 4.78642C24.9152 2.04249 21.0432 0.535333 17.0333 0.58007C14.0393 0.580206 11.1042 1.41249 8.55583 2.984C6.00742 4.55551 3.94595 6.8044 2.60156 9.47959L7.9655 13.6411C9.24423 9.81386 12.8202 6.97373 17.0333 6.97373Z" fill="#EA4335"/>
</svg>
