<svg width="13" height="12" viewBox="0 0 13 12" fill="none" xmlns="http://www.w3.org/2000/svg">
<path d="M6.17766 0.00441933C4.2213 0.124965 2.51357 1.10942 1.45125 2.72926C0.805831 3.71372 0.484375 4.80868 0.484375 6.00409C0.484375 7.62142 1.1072 9.12573 2.24485 10.2559C3.19164 11.1951 4.38705 11.7828 5.71306 11.9586C6.12994 12.0138 6.85322 12.0138 7.27011 11.9586C9.03058 11.725 10.5575 10.7631 11.5319 9.27893C12.1748 8.29447 12.4988 7.19951 12.4988 6.00409C12.4988 4.39179 11.891 2.91259 10.7559 1.76992C9.82166 0.830661 8.58607 0.217886 7.28266 0.0546465C6.9587 0.0144644 6.42377 -0.0106497 6.17766 0.00441933ZM7.23244 0.803036C7.35801 0.823127 7.56143 0.863309 7.687 0.890934C9.20135 1.23248 10.5475 2.31488 11.2431 3.75139C11.5796 4.45206 11.7529 5.20799 11.7529 6.00409C11.7529 7.40293 11.2155 8.69126 10.2109 9.70335C9.50523 10.4166 8.6162 10.9088 7.65184 11.1248C7.20481 11.2252 6.95116 11.2529 6.49158 11.2529C6.032 11.2529 5.77835 11.2252 5.33133 11.1248C3.78432 10.7782 2.44325 9.70837 1.74006 8.2568C1.40354 7.55612 1.23025 6.8002 1.23025 6.00409C1.23025 4.81119 1.60947 3.72879 2.36037 2.76442C2.54872 2.52333 3.02086 2.0537 3.26447 1.86535C4.03044 1.27517 4.90188 0.908514 5.82607 0.795502C5.95164 0.780434 6.08725 0.762855 6.12743 0.757832C6.27309 0.737741 7.00892 0.767877 7.23244 0.803036Z" fill="#565672"/>
<path d="M5.56205 3.0299C4.84882 3.13286 4.35408 3.64769 4.25614 4.38604C4.18331 4.91594 4.29129 5.14949 4.61024 5.14949C4.88398 5.14949 4.96183 5.03899 4.98695 4.62211C5.00704 4.28307 5.05475 4.16001 5.24311 3.98171C5.47415 3.7607 5.50429 3.75568 6.49377 3.75568C7.28988 3.75568 7.35517 3.75819 7.48325 3.80591C7.76704 3.9139 8.00059 4.23535 8.00059 4.51663C8.00059 4.77279 7.87 5.0616 7.6917 5.19721C7.649 5.22986 7.2723 5.42575 6.85792 5.63168C6.00908 6.04857 5.91867 6.11386 5.81319 6.38258C5.76296 6.51317 5.75543 6.57344 5.75291 6.88234C5.75291 7.17115 5.76045 7.249 5.79812 7.3143C5.91867 7.53781 6.31797 7.53781 6.43601 7.3143C6.46615 7.25654 6.48372 7.14855 6.49377 6.93257L6.50633 6.63121L7.27481 6.24194C8.16635 5.7899 8.18393 5.77985 8.34465 5.60405C8.641 5.2826 8.79168 4.79288 8.72889 4.36092C8.62593 3.63011 8.13119 3.13286 7.4054 3.02738C7.20198 2.99976 5.76296 2.99976 5.56205 3.0299Z" fill="#565672"/>
<path d="M5.91944 8.11595C5.67333 8.19129 5.53269 8.47758 5.59798 8.77141C5.71602 9.30885 6.53473 9.30885 6.65276 8.77393C6.75573 8.30681 6.38404 7.9728 5.91944 8.11595Z" fill="#565672"/>
</svg>
