<svg width="38" height="38" viewBox="0 0 38 38" fill="none" xmlns="http://www.w3.org/2000/svg">
<rect x="0.5" y="0.5" width="37" height="37" rx="5" fill="#1A1F71"/>
<mask id="mask0_3077_11008" style="mask-type:alpha" maskUnits="userSpaceOnUse" x="6" y="15" width="26" height="9">
<path fill-rule="evenodd" clip-rule="evenodd" d="M19.4244 17.5994C19.4355 16.1001 20.8222 15.0527 22.7921 15.0527C23.5603 15.0527 24.177 15.2201 24.6569 15.3943L24.3067 17.0281C23.4147 16.6174 22.627 16.6463 22.3416 16.6833C21.7656 16.7587 21.5027 17.0525 21.4963 17.3287C21.4769 18.2373 24.2976 18.3495 24.2887 20.3827C24.2821 21.9851 22.9128 23.0191 20.8187 23.0191C19.9273 23.0098 19.0676 22.8234 18.6022 22.6098L18.9631 20.9213C19.4266 21.1373 20.0082 21.4237 21.0101 21.408C21.5838 21.3991 22.1974 21.1713 22.2033 20.6541C22.2062 20.3165 21.9458 20.0742 21.1696 19.6966C20.414 19.3277 19.4114 18.7093 19.4244 17.5994ZM28.0244 15.1936H29.7256L31.3346 22.8986H29.4913L29.2503 21.7474H26.6936L26.2777 22.8986H24.185L27.1758 15.7587C27.3189 15.4161 27.6415 15.1936 28.0244 15.1936ZM28.3164 17.2755L27.2671 20.1685H28.9203L28.3164 17.2755ZM16.8886 15.1936H18.8813L17.233 22.8986H15.2398L16.8886 15.1936ZM13.9396 15.1936H16.0331L12.8038 22.8986H10.697L9.1078 16.7495C9.01135 16.371 8.92778 16.2321 8.63437 16.0728C8.15522 15.8126 7.36404 15.5685 6.66797 15.417L6.71496 15.1936H10.1066C10.5386 15.1936 10.9276 15.4812 11.0259 15.979L11.865 20.4377L13.9396 15.1936Z" fill="white"/>
</mask>
<g mask="url(#mask0_3077_11008)">
<path fill-rule="evenodd" clip-rule="evenodd" d="M19.4244 17.5994C19.4114 18.7093 20.414 19.3277 21.1696 19.6966C21.9458 20.0742 22.2062 20.3165 22.2033 20.6541C22.1974 21.1713 21.5838 21.3991 21.0101 21.408C20.0082 21.4237 19.4266 21.1373 18.9631 20.9213L18.6022 22.6098C19.0676 22.8234 19.9273 23.0098 20.8187 23.0191C22.9128 23.0191 24.2821 21.9851 24.2887 20.3827C24.2976 18.3495 21.4769 18.2373 21.4963 17.3287C21.5027 17.0525 21.7656 16.7587 22.3416 16.6833C22.627 16.6463 23.4147 16.6174 24.3067 17.0281L24.6569 15.3943C24.177 15.2201 23.5603 15.0527 22.7921 15.0527C20.8222 15.0527 19.4355 16.1001 19.4244 17.5994ZM28.0244 15.1936C27.6415 15.1936 27.3189 15.4161 27.1758 15.7587L24.185 22.8986H26.2777L26.6936 21.7474H29.2503L29.4913 22.8986H31.3346L29.7256 15.1936H28.0244ZM28.3164 17.2755L28.9203 20.1685H27.2671L28.3164 17.2755ZM16.8886 15.1936L15.2398 22.8986H17.233L18.8813 15.1936H16.8886ZM13.9396 15.1936L11.865 20.4377L11.0259 15.979C10.9276 15.4812 10.5386 15.1936 10.1066 15.1936H6.71496L6.66797 15.417C7.36404 15.5685 8.15522 15.8126 8.63437 16.0728C8.92778 16.2321 9.01135 16.371 9.1078 16.7495L10.697 22.8986H12.8038L16.0331 15.1936H13.9396Z" fill="white"/>
</g>
</svg>
