<svg width="150" height="150" viewBox="0 0 150 150" fill="none" xmlns="http://www.w3.org/2000/svg">
<rect width="150" height="150" fill="#F7F7F7"/>
<mask id="mask0_3406_6192" style="mask-type:alpha" maskUnits="userSpaceOnUse" x="19" y="42" width="70" height="44">
<path d="M19 46C19 43.7909 20.7909 42 23 42H85C87.2091 42 89 43.7909 89 46V82C89 84.2091 87.2091 86 85 86H23C20.7909 86 19 84.2091 19 82V46Z" fill="white"/>
</mask>
<g mask="url(#mask0_3406_6192)">
<path d="M14 42L14 86H94V42L14 42Z" fill="#DE2911"/>
<path d="M56.2713 58.6443C55.7713 60.7239 54.883 60.3273 54.447 62.1409C51.879 61.5234 50.2974 58.941 50.9148 56.3728C51.5321 53.8047 54.1147 52.2231 56.6829 52.8406C55.8109 56.4677 56.7186 56.7843 56.2713 58.6443Z" fill="#F0F0F0"/>
<path d="M49.6066 60.1847C51.4299 61.3028 50.7781 62.0253 52.3682 63.0004C50.9873 65.252 48.0427 65.958 45.7909 64.5773C43.5393 63.1965 42.8331 60.2517 44.214 58C47.3942 59.9501 47.9755 59.1847 49.6066 60.1847Z" fill="#F0F0F0"/>
<path d="M49.0134 66.9986C50.6403 65.61 51.1258 66.453 52.5445 65.2422C54.2594 67.2511 54.0208 70.2699 52.012 71.9848C50.0029 73.6997 46.9841 73.4609 45.2695 71.4521C48.1066 69.0301 47.5582 68.2404 49.0134 66.9986Z" fill="#F0F0F0"/>
<path d="M55.31 69.6682C54.4918 67.6919 55.4437 67.4904 54.7305 65.7671C57.171 64.7571 59.9685 65.9167 60.9786 68.3573C61.9886 70.7978 60.8288 73.5952 58.3882 74.6053C56.9619 71.1584 56.0416 71.4359 55.31 69.6682Z" fill="#F0F0F0"/>
<path d="M59.7947 64.5066C57.6624 64.6739 57.7647 63.7063 55.9055 63.8522C55.6989 61.2192 57.6664 58.9168 60.2996 58.7101C62.9327 58.504 65.235 60.4713 65.4414 63.1046C61.7223 63.3961 61.7018 64.3572 59.7947 64.5066Z" fill="#F0F0F0"/>
</g>
<g filter="url(#filter0_d_3406_6192)">
<path d="M130 75H61C59.3431 75 58 76.3431 58 78V109C58 110.657 59.3431 112 61 112H130C131.657 112 133 110.657 133 109V78C133 76.3431 131.657 75 130 75Z" fill="#2C2C2C"/>
<path d="M130 76H61C59.8954 76 59 76.8954 59 78V109C59 110.105 59.8954 111 61 111H130C131.105 111 132 110.105 132 109V78C132 76.8954 131.105 76 130 76Z" stroke="#F7F7F7" stroke-width="2"/>
</g>
<path d="M83.8438 103H80.2227V95.6055H73.4375V103H69.8047V85.8672H73.4375V92.582H80.2227V85.8672H83.8438V103ZM103.961 103H99.8359L95.3477 95.7812L93.8125 96.8828V103H90.1797V85.8672H93.8125V93.707L95.2422 91.6914L99.8828 85.8672H103.914L97.9375 93.4492L103.961 103ZM114.621 93.3789H121.418V102.262C120.316 102.621 119.277 102.871 118.301 103.012C117.332 103.16 116.34 103.234 115.324 103.234C112.738 103.234 110.762 102.477 109.395 100.961C108.035 99.4375 107.355 97.2539 107.355 94.4102C107.355 91.6445 108.145 89.4883 109.723 87.9414C111.309 86.3945 113.504 85.6211 116.309 85.6211C118.066 85.6211 119.762 85.9727 121.395 86.6758L120.188 89.582C118.938 88.957 117.637 88.6445 116.285 88.6445C114.715 88.6445 113.457 89.1719 112.512 90.2266C111.566 91.2812 111.094 92.6992 111.094 94.4805C111.094 96.3398 111.473 97.7617 112.23 98.7461C112.996 99.7227 114.105 100.211 115.559 100.211C116.316 100.211 117.086 100.133 117.867 99.9766V96.4023H114.621V93.3789Z" fill="white"/>
<defs>
<filter id="filter0_d_3406_6192" x="46" y="67" width="91" height="53" filterUnits="userSpaceOnUse" color-interpolation-filters="sRGB">
<feFlood flood-opacity="0" result="BackgroundImageFix"/>
<feColorMatrix in="SourceAlpha" type="matrix" values="0 0 0 0 0 0 0 0 0 0 0 0 0 0 0 0 0 0 127 0" result="hardAlpha"/>
<feOffset dx="-4"/>
<feGaussianBlur stdDeviation="4"/>
<feColorMatrix type="matrix" values="0 0 0 0 0 0 0 0 0 0 0 0 0 0 0 0 0 0 0.15 0"/>
<feBlend mode="normal" in2="BackgroundImageFix" result="effect1_dropShadow_3406_6192"/>
<feBlend mode="normal" in="SourceGraphic" in2="effect1_dropShadow_3406_6192" result="shape"/>
</filter>
</defs>
</svg>
