<svg width="38" height="38" viewBox="0 0 38 38" fill="none" xmlns="http://www.w3.org/2000/svg">
<rect x="0.5" y="0.5" width="37" height="37" rx="5" fill="#3183FF"/>
<path fill-rule="evenodd" clip-rule="evenodd" d="M25.6471 26.4916C23.9534 28.0614 21.7096 29.0147 19.2037 29.0147C15.385 29.0147 11.9751 26.8006 10.2749 23.5638L10.23 23.4772C9.53187 22.1161 9.13281 20.5793 9.13281 18.9507C9.13281 17.3359 9.52501 15.8115 10.2119 14.4592L10.2628 14.3604C11.9589 11.1109 15.376 8.88672 19.2036 8.88672C21.7978 8.88672 24.1103 9.90913 25.8233 11.5787L23.0801 14.3591C22.0725 13.4892 20.7716 12.9667 19.3275 12.9667C16.7284 12.9667 14.4404 14.6594 13.5794 17.0248L13.5495 17.1092C13.334 17.7296 13.2156 18.3946 13.2156 19.0868C13.2156 19.7486 13.3245 20.3851 13.5222 20.9823C14.3344 23.4345 16.6678 25.2067 19.3275 25.2067C20.617 25.2067 21.7893 24.7867 22.7434 24.0783L22.8036 24.0331C23.8215 23.2566 24.5824 22.1474 24.9479 20.8547H19.2036V17.0468H28.6952C28.8062 17.6635 28.8661 18.2995 28.8661 18.9507C28.8661 21.923 27.6609 24.5931 25.7073 26.4351L25.6471 26.4916Z" fill="white"/>
</svg>
