<svg width="38" height="38" viewBox="0 0 38 38" fill="none" xmlns="http://www.w3.org/2000/svg">
<rect x="0.5" y="0.5" width="37" height="37" rx="5" fill="#ED1B2D"/>
<path fill-rule="evenodd" clip-rule="evenodd" d="M6.66797 16.7793V20.1427H8.88313V19.5151H7.42158V18.7115H8.81752V18.1031H7.42158V17.4059H8.88313V16.7793H6.66797ZM29.3112 17.4062H30.0414V16.7793H29.3112V17.4062ZM16.3284 17.6791H17.0103V17.9121L17.021 17.9027C17.1049 17.8287 17.3393 17.622 17.7565 17.622C18.2703 17.622 18.6785 18.0013 18.6785 18.5968V20.1427H17.9582V18.7884C17.9582 18.4564 17.7963 18.2595 17.5032 18.2595C17.2194 18.2595 17.0486 18.4452 17.0486 18.7884V20.1427H16.3284V17.6791ZM23.1889 18.9109C23.1889 18.2002 23.758 17.622 24.5033 17.622C25.2484 17.622 25.8174 18.2002 25.8174 18.9109C25.8174 19.6214 25.2484 20.1989 24.5033 20.1989C23.758 20.1989 23.1889 19.6214 23.1889 18.9109ZM24.5076 19.5312C24.1542 19.5312 23.8999 19.2512 23.8999 18.9109C23.8999 18.5704 24.1543 18.2906 24.5076 18.2906C24.8616 18.2906 25.1163 18.5704 25.1163 18.9109C25.1163 19.2512 24.8616 19.5312 24.5076 19.5312ZM13.2972 18.9114C13.2972 18.2004 13.8666 17.6222 14.6112 17.6222C15.3568 17.6222 15.926 18.2004 15.926 18.9114C15.926 19.6217 15.3568 20.199 14.6112 20.199C13.8665 20.1991 13.2972 19.6217 13.2972 18.9114ZM14.6163 19.5317C14.2624 19.5317 14.0082 19.2517 14.0082 18.9112C14.0082 18.5704 14.2624 18.2909 14.6163 18.2909C14.9703 18.2909 15.2245 18.5704 15.2245 18.9112C15.2245 19.2517 14.9703 19.5317 14.6163 19.5317ZM30.0414 20.1427H29.3112V17.6791H30.0414V20.1427ZM30.6043 20.1427H31.3346V16.7793H30.6043V20.1427ZM26.2395 20.1427H26.9319L26.9398 19.9531C26.9432 19.9557 26.9474 19.9591 26.9526 19.9632C27.0224 20.019 27.2481 20.1994 27.6887 20.1994C28.31 20.1994 28.8862 19.6427 28.8862 18.9114C28.8862 18.1787 28.3453 17.622 27.697 17.622C27.2429 17.622 27.0143 17.8128 26.9526 17.8643C26.9469 17.869 26.9427 17.8725 26.9398 17.8747V16.7793H26.2395V20.1427ZM28.1462 18.9095C28.1462 18.5631 27.8838 18.2943 27.532 18.2943C27.1822 18.2943 26.9139 18.5606 26.9139 18.9115C26.9139 19.2579 27.1785 19.5267 27.531 19.5267C27.8803 19.5266 28.1462 19.2569 28.1462 18.9095ZM9.89526 20.1427H9.05077L10.1992 18.7052L9.18298 17.6791H10.1919L10.6425 18.1439L11.472 17.0765H12.3177L11.103 18.6062L11.5755 19.0812L12.6675 17.6791H13.5154L12.0379 19.5458L13.914 21.4324H12.891L11.5856 20.1039L10.8921 21.0026H10.0446L11.1277 19.6466L10.6544 19.1671L9.89526 20.1427ZM19.2554 20.1427V16.7793H20.4461L21.008 19.234H21.0336L21.6099 16.7793H22.7671V20.1428H22.0585V17.6032H22.0262L21.4022 20.1428H20.606L19.9963 17.6032H19.9641V20.1427H19.2554Z" fill="#F9F9F9"/>
</svg>
