<svg width="26" height="27" viewBox="0 0 26 27" fill="none" xmlns="http://www.w3.org/2000/svg">
<rect width="26" height="25.8829" rx="12.9414" transform="matrix(1 0 0 -1 0 26.5312)" fill="#A4A4A4" fill-opacity="0.08"/>
<path d="M17.0817 8.66407C16.8922 8.72268 16.7985 8.80863 16.5348 9.1661C16.4332 9.30479 16.0777 9.78729 15.7436 10.2385C15.4096 10.6898 15.0072 11.2348 14.8529 11.4496C13.462 13.362 12.6533 14.8271 12.1787 16.2961L12.1142 16.4914L11.4676 15.8468C10.3229 14.7021 9.30519 13.7918 9.02976 13.6609C8.75823 13.532 8.4242 13.5984 8.1976 13.825C8.06868 13.952 8.01203 14.075 8.00226 14.2372C7.98663 14.4852 8.04328 14.5673 8.45155 14.9091C9.21533 15.5479 9.90293 16.2003 11.114 17.431C11.6083 17.933 12.0419 18.3686 12.0771 18.3979C12.2978 18.5757 12.7373 18.5757 12.96 18.3979C13.0909 18.2924 13.1319 18.1967 13.1944 17.851C13.4796 16.3078 14.2063 14.7392 15.5053 12.8659C15.7554 12.5045 16.4469 11.5571 16.8649 11.0004C17.531 10.1116 17.91 9.58999 17.9529 9.49623C18.0096 9.37707 18.0155 9.17978 17.9686 9.06452C17.8631 8.81058 17.5877 8.64454 17.279 8.64845C17.197 8.64845 17.1091 8.65626 17.0817 8.66407Z" fill="#A061FA"/>
</svg>
