<svg width="115" height="34" viewBox="0 0 115 34" fill="none" xmlns="http://www.w3.org/2000/svg">
<path d="M114.359 29.389C114.359 31.1595 112.895 32.5936 111.084 32.5936H3.91577C2.10584 32.5936 0.636719 31.1595 0.636719 29.389V3.83374C0.636719 2.06412 2.10584 0.625 3.91577 0.625H111.083C112.895 0.625 114.358 2.06412 114.358 3.83374L114.359 29.389Z" fill="black"/>
<path d="M110.741 0.665919C112.713 0.665919 114.317 2.23048 114.317 4.15322V29.0699C114.317 30.9926 112.713 32.5572 110.741 32.5572H4.25926C2.28722 32.5572 0.682546 30.9926 0.682546 29.0699V4.15322C0.682546 2.23048 2.28722 0.665919 4.25926 0.665919H110.741ZM110.741 0.000437883H4.25926C1.91773 0.000437883 0 1.87023 0 4.15322V29.0699C0 31.3529 1.91773 33.2227 4.25926 33.2227H110.741C113.082 33.2227 115 31.3529 115 29.0699V4.15322C115 1.87023 113.082 0.000437883 110.741 0.000437883Z" fill="#A6A6A6"/>
<path d="M25.6623 16.4322C25.6376 13.7553 27.9104 12.453 28.0143 12.3924C26.7271 10.5627 24.7321 10.3127 24.031 10.2927C22.3554 10.1208 20.7301 11.2703 19.8765 11.2703C19.0059 11.2703 17.6915 10.3094 16.2749 10.3376C14.4519 10.365 12.7465 11.3941 11.8112 12.992C9.88091 16.2503 11.3205 21.0385 13.1699 23.6722C14.095 24.962 15.176 26.4022 16.5909 26.3515C17.9752 26.2959 18.4923 25.4911 20.1628 25.4911C21.8179 25.4911 22.3035 26.3515 23.7465 26.3191C25.2321 26.2959 26.1675 25.0235 27.0602 23.722C28.1293 22.2436 28.5586 20.7876 28.5756 20.7129C28.5407 20.7013 25.6904 19.6406 25.6623 16.4322Z" fill="white"/>
<path d="M22.9364 8.5602C23.6809 7.65241 24.1903 6.41737 24.0489 5.16406C22.9713 5.21057 21.6237 5.8908 20.8476 6.77866C20.1611 7.56105 19.5477 8.84342 19.7062 10.0494C20.9166 10.1374 22.1595 9.45388 22.9364 8.5602Z" fill="white"/>
<path d="M45.6956 26.1702H43.761L42.7013 22.9236H39.0179L38.0084 26.1702H36.125L39.7743 15.1172H42.0283L45.6956 26.1702ZM42.3819 21.5615L41.4235 18.6753C41.3221 18.3804 41.1322 17.6861 40.8519 16.5931H40.8178C40.7063 17.0632 40.5265 17.7575 40.2795 18.6753L39.3382 21.5615H42.3819V21.5615Z" fill="white"/>
<path d="M55.079 22.0858C55.079 23.4412 54.7033 24.5127 53.952 25.2992C53.279 25.9994 52.4434 26.349 51.4458 26.349C50.3691 26.349 49.5956 25.9719 49.1245 25.2178H49.0905V29.4163H47.2743V20.8225C47.2743 19.9703 47.2513 19.0958 47.207 18.1988H48.8043L48.9056 19.4621H48.9397C49.5454 18.5102 50.4645 18.0352 51.698 18.0352C52.6623 18.0352 53.4673 18.4064 54.1113 19.1498C54.757 19.8939 55.079 20.8723 55.079 22.0858ZM53.2288 22.1506C53.2288 21.3748 53.0499 20.7353 52.6904 20.232C52.2977 19.7071 51.7704 19.4446 51.1094 19.4446C50.6613 19.4446 50.2541 19.5908 49.8904 19.879C49.5258 20.1697 49.2873 20.5492 49.1757 21.0193C49.1194 21.2386 49.0913 21.418 49.0913 21.5592V22.8881C49.0913 23.4678 49.2736 23.957 49.6382 24.3565C50.0028 24.756 50.4764 24.9553 51.0591 24.9553C51.7431 24.9553 52.2755 24.6979 52.6563 24.1846C53.038 23.6705 53.2288 22.9927 53.2288 22.1506Z" fill="white"/>
<path d="M64.4844 22.0858C64.4844 23.4412 64.1087 24.5127 63.3565 25.2992C62.6844 25.9994 61.8488 26.349 60.8512 26.349C59.7745 26.349 59.001 25.9719 58.5308 25.2178H58.4967V29.4163H56.6806V20.8225C56.6806 19.9703 56.6576 19.0958 56.6133 18.1988H58.2105L58.3119 19.4621H58.3459C58.9508 18.5102 59.8699 18.0352 61.1042 18.0352C62.0677 18.0352 62.8727 18.4064 63.5184 19.1498C64.1615 19.8939 64.4844 20.8723 64.4844 22.0858ZM62.6342 22.1506C62.6342 21.3748 62.4544 20.7353 62.0949 20.232C61.7022 19.7071 61.1767 19.4446 60.5148 19.4446C60.0658 19.4446 59.6595 19.5908 59.2949 19.879C58.9303 20.1697 58.6926 20.5492 58.5811 21.0193C58.5257 21.2386 58.4967 21.418 58.4967 21.5592V22.8881C58.4967 23.4678 58.679 23.957 59.0419 24.3565C59.4065 24.7552 59.8801 24.9553 60.4645 24.9553C61.1485 24.9553 61.681 24.6979 62.0617 24.1846C62.4434 23.6705 62.6342 22.9927 62.6342 22.1506Z" fill="white"/>
<path d="M74.9938 23.0685C74.9938 24.0087 74.6591 24.7736 73.9869 25.3641C73.2484 26.0095 72.2202 26.3317 70.899 26.3317C69.6791 26.3317 68.7012 26.1025 67.9609 25.6432L68.3818 24.1673C69.1791 24.6374 70.0539 24.8733 71.0072 24.8733C71.6912 24.8733 72.2236 24.7221 72.6061 24.4215C72.9869 24.1208 73.1768 23.7171 73.1768 23.2138C73.1768 22.7653 73.0201 22.3874 72.7058 22.081C72.3931 21.7745 71.8709 21.4896 71.1418 21.2263C69.1569 20.5046 68.1654 19.4473 68.1654 18.0569C68.1654 17.1483 68.5129 16.4033 69.2089 15.8235C69.9023 15.243 70.8274 14.9531 71.9842 14.9531C73.0158 14.9531 73.8728 15.1284 74.5568 15.478L74.1028 16.9215C73.4639 16.5827 72.7415 16.4132 71.9331 16.4132C71.2942 16.4132 70.7951 16.5669 70.4373 16.8725C70.1349 17.1458 69.9832 17.4788 69.9832 17.8734C69.9832 18.3102 70.1562 18.6715 70.5037 18.9556C70.8061 19.218 71.3556 19.5021 72.1529 19.8086C73.1283 20.1914 73.8447 20.6391 74.3055 21.1524C74.7647 21.664 74.9938 22.3044 74.9938 23.0685Z" fill="white"/>
<path d="M80.9977 19.5257H78.9959V23.3952C78.9959 24.3795 79.3486 24.8711 80.0556 24.8711C80.3802 24.8711 80.6493 24.8437 80.8623 24.7889L80.9126 26.1336C80.5548 26.264 80.0837 26.3296 79.5002 26.3296C78.7829 26.3296 78.2224 26.1161 77.8178 25.6901C77.4149 25.2632 77.2121 24.5472 77.2121 23.5414V19.524H76.0195V18.1951H77.2121V16.7358L78.9959 16.2109V18.1951H80.9977V19.5257Z" fill="white"/>
<path d="M90.0339 22.1173C90.0339 23.3424 89.6744 24.3482 88.9572 25.1347C88.205 25.9445 87.2066 26.3482 85.962 26.3482C84.7626 26.3482 83.8077 25.9603 83.0956 25.1846C82.3834 24.4088 82.0273 23.4296 82.0273 22.2494C82.0273 21.0144 82.3936 20.0027 83.1288 19.2162C83.8622 18.4288 84.8521 18.0352 86.0966 18.0352C87.296 18.0352 88.2612 18.423 88.9895 19.1996C89.6863 19.9529 90.0339 20.9255 90.0339 22.1173ZM88.1496 22.1746C88.1496 21.4396 87.9886 20.8092 87.6623 20.2835C87.2816 19.6473 86.7372 19.33 86.0319 19.33C85.3019 19.33 84.7473 19.6481 84.3665 20.2835C84.0403 20.81 83.8793 21.4504 83.8793 22.2079C83.8793 22.9429 84.0403 23.5733 84.3665 24.0982C84.7592 24.7344 85.3078 25.0517 86.0157 25.0517C86.7091 25.0517 87.2535 24.7278 87.6462 24.0816C87.9809 23.5459 88.1496 22.9089 88.1496 22.1746Z" fill="white"/>
<path d="M95.9359 19.7561C95.7562 19.7237 95.5645 19.7071 95.3635 19.7071C94.7246 19.7071 94.2305 19.9421 93.883 20.413C93.5805 20.8283 93.4289 21.3532 93.4289 21.9869V26.1688H91.6136L91.6307 20.7087C91.6307 19.7901 91.6076 18.9538 91.5625 18.1996H93.1444L93.2108 19.7245H93.2611C93.4528 19.2004 93.7552 18.7785 94.1692 18.4621C94.5738 18.1772 95.0108 18.0352 95.4819 18.0352C95.6497 18.0352 95.8013 18.0468 95.9359 18.0675V19.7561Z" fill="white"/>
<path d="M104.058 21.806C104.058 22.1233 104.036 22.3907 103.991 22.6092H98.5427C98.564 23.3965 98.8272 23.9987 99.3332 24.414C99.7923 24.7852 100.386 24.9713 101.115 24.9713C101.922 24.9713 102.658 24.8459 103.32 24.5942L103.604 25.8234C102.831 26.1523 101.918 26.3159 100.864 26.3159C99.5964 26.3159 98.6015 25.9522 97.8774 25.2254C97.155 24.4987 96.793 23.5228 96.793 22.2986C96.793 21.0967 97.1295 20.0959 97.8033 19.2978C98.5086 18.4456 99.4618 18.0195 100.661 18.0195C101.839 18.0195 102.731 18.4456 103.337 19.2978C103.816 19.9747 104.058 20.8119 104.058 21.806ZM102.326 21.3467C102.338 20.8218 102.219 20.3683 101.973 19.9855C101.659 19.4929 101.176 19.2471 100.526 19.2471C99.932 19.2471 99.449 19.4871 99.0802 19.9688C98.7778 20.3517 98.598 20.811 98.5427 21.3459H102.326V21.3467Z" fill="white"/>
<path d="M41.781 8.31845C41.781 9.29602 41.4803 10.0319 40.8797 10.5261C40.3235 10.982 39.5329 11.2104 38.509 11.2104C38.0013 11.2104 37.5669 11.1889 37.2031 11.1457V5.80436C37.6776 5.72961 38.1887 5.69141 38.7407 5.69141C39.7161 5.69141 40.4512 5.89821 40.947 6.31183C41.5024 6.77943 41.781 7.44803 41.781 8.31845ZM40.8397 8.34254C40.8397 7.70883 40.6676 7.22295 40.3235 6.88408C39.9793 6.54605 39.4767 6.37661 38.8148 6.37661C38.5337 6.37661 38.2943 6.39489 38.0959 6.43309V10.4937C38.2058 10.5103 38.4068 10.5178 38.699 10.5178C39.3822 10.5178 39.9095 10.3326 40.2809 9.96212C40.6523 9.5917 40.8397 9.05183 40.8397 8.34254Z" fill="white"/>
<path d="M46.7728 9.17293C46.7728 9.77508 46.5965 10.2684 46.2438 10.6555C45.8741 11.0533 45.3843 11.2518 44.7727 11.2518C44.1832 11.2518 43.7138 11.0616 43.3637 10.6796C43.0145 10.2983 42.8398 9.81744 42.8398 9.23771C42.8398 8.63141 43.0196 8.1339 43.3808 7.7477C43.742 7.36149 44.2275 7.16797 44.8391 7.16797C45.4286 7.16797 45.9023 7.35817 46.2609 7.73939C46.6016 8.10982 46.7728 8.58822 46.7728 9.17293ZM45.8469 9.20117C45.8469 8.83988 45.7668 8.53008 45.6075 8.27178C45.4201 7.95949 45.1535 7.80334 44.8068 7.80334C44.4481 7.80334 44.1755 7.95949 43.9881 8.27178C43.828 8.53008 43.7488 8.84486 43.7488 9.21695C43.7488 9.57824 43.8288 9.88804 43.9881 10.1463C44.1815 10.4586 44.4507 10.6148 44.7983 10.6148C45.139 10.6148 45.4065 10.4561 45.599 10.138C45.7643 9.87475 45.8469 9.56246 45.8469 9.20117Z" fill="white"/>
<path d="M53.4666 7.24609L52.2101 11.1613H51.3923L50.8718 9.46119C50.7398 9.03677 50.6325 8.61485 50.549 8.19625H50.5328C50.4553 8.62648 50.348 9.04757 50.21 9.46119L49.6571 11.1613H48.83L47.6484 7.24609H48.5659L49.0199 9.10737C49.1298 9.54756 49.2201 9.96699 49.2925 10.364H49.3087C49.3751 10.0368 49.485 9.61982 49.6401 9.11567L50.21 7.24692H50.9374L51.4835 9.07581C51.6155 9.52182 51.7228 9.95121 51.8055 10.3648H51.8302C51.8907 9.96201 51.9818 9.53261 52.1028 9.07581L52.59 7.24692H53.4666V7.24609Z" fill="white"/>
<path d="M58.0941 11.1615H57.2013V8.91903C57.2013 8.228 56.9321 7.88249 56.3921 7.88249C56.1271 7.88249 55.9133 7.97718 55.7472 8.16737C55.5828 8.35757 55.4993 8.58182 55.4993 8.83846V11.1607H54.6066V8.36505C54.6066 8.0212 54.5955 7.64828 54.5742 7.24463H55.3588L55.4005 7.85675H55.4252C55.5291 7.66655 55.6842 7.50957 55.8878 7.38416C56.1297 7.23798 56.4006 7.16406 56.697 7.16406C57.0718 7.16406 57.3836 7.282 57.6315 7.51871C57.9399 7.80857 58.0941 8.24129 58.0941 8.81604V11.1615V11.1615Z" fill="white"/>
<path d="M60.5559 11.1609H59.6641V5.44922H60.5559V11.1609Z" fill="white"/>
<path d="M65.8119 9.17293C65.8119 9.77508 65.6356 10.2684 65.2829 10.6555C64.9132 11.0533 64.4225 11.2518 63.8118 11.2518C63.2214 11.2518 62.7521 11.0616 62.4028 10.6796C62.0535 10.2983 61.8789 9.81744 61.8789 9.23771C61.8789 8.63141 62.0586 8.1339 62.4198 7.7477C62.781 7.36149 63.2666 7.16797 63.8774 7.16797C64.4677 7.16797 64.9405 7.35817 65.2999 7.73939C65.6407 8.10982 65.8119 8.58822 65.8119 9.17293ZM64.8851 9.20117C64.8851 8.83988 64.805 8.53008 64.6457 8.27178C64.4592 7.95949 64.1917 7.80334 63.8458 7.80334C63.4863 7.80334 63.2138 7.95949 63.0272 8.27178C62.8671 8.53008 62.7878 8.84486 62.7878 9.21695C62.7878 9.57824 62.8679 9.88804 63.0272 10.1463C63.2206 10.4586 63.4898 10.6148 63.8373 10.6148C64.1781 10.6148 64.4447 10.4561 64.6372 10.138C64.8033 9.87475 64.8851 9.56246 64.8851 9.20117Z" fill="white"/>
<path d="M70.1287 11.1629H69.3271L69.2607 10.7119H69.236C68.9617 11.0716 68.5707 11.2518 68.063 11.2518C67.6839 11.2518 67.3772 11.133 67.1464 10.8972C66.9368 10.6829 66.832 10.4163 66.832 10.0998C66.832 9.62143 67.0365 9.25681 67.4479 9.00433C67.8585 8.75184 68.4361 8.62808 69.1797 8.6339V8.56081C69.1797 8.04504 68.902 7.78756 68.3458 7.78756C67.9497 7.78756 67.6004 7.88474 67.2988 8.07743L67.1174 7.506C67.4905 7.28092 67.9514 7.16797 68.4948 7.16797C69.5443 7.16797 70.0708 7.70783 70.0708 8.78755V10.2294C70.0708 10.6206 70.0904 10.932 70.1287 11.1629ZM69.2019 9.81744V9.21363C68.2171 9.19702 67.7248 9.4603 67.7248 10.0027C67.7248 10.207 67.781 10.3598 67.896 10.462C68.011 10.5641 68.1575 10.6148 68.3321 10.6148C68.5281 10.6148 68.7112 10.5541 68.8782 10.4337C69.046 10.3125 69.1491 10.1588 69.1874 9.97026C69.1968 9.9279 69.2019 9.87641 69.2019 9.81744Z" fill="white"/>
<path d="M75.2044 11.1609H74.4122L74.3705 10.5322H74.3458C74.0928 11.0106 73.6617 11.2498 73.0561 11.2498C72.5722 11.2498 72.1693 11.0646 71.8498 10.6942C71.5304 10.3237 71.3711 9.84286 71.3711 9.25233C71.3711 8.61862 71.544 8.10533 71.8916 7.71331C72.2281 7.34787 72.6403 7.16515 73.131 7.16515C73.6702 7.16515 74.0476 7.34205 74.2623 7.6967H74.2793V5.44922H75.1729V10.1061C75.1729 10.4874 75.1831 10.8387 75.2044 11.1609ZM74.2793 9.5098V8.85699C74.2793 8.74403 74.2708 8.65267 74.2546 8.5829C74.2043 8.3736 74.0962 8.19753 73.9318 8.0555C73.7656 7.91348 73.5655 7.84205 73.3346 7.84205C73.0015 7.84205 72.7409 7.97078 72.5492 8.22909C72.3592 8.48739 72.263 8.81712 72.263 9.21994C72.263 9.60698 72.3541 9.92093 72.5373 10.1626C72.7306 10.4201 72.9913 10.5488 73.3176 10.5488C73.6106 10.5488 73.8449 10.4417 74.0229 10.2266C74.195 10.0281 74.2793 9.78887 74.2793 9.5098Z" fill="white"/>
<path d="M82.8392 9.17293C82.8392 9.77508 82.6629 10.2684 82.3102 10.6555C81.9405 11.0533 81.4516 11.2518 80.8391 11.2518C80.2505 11.2518 79.7811 11.0616 79.4301 10.6796C79.0809 10.2983 78.9062 9.81744 78.9062 9.23771C78.9062 8.63141 79.086 8.1339 79.4472 7.7477C79.8084 7.36149 80.2939 7.16797 80.9064 7.16797C81.495 7.16797 81.9695 7.35817 82.3273 7.73939C82.668 8.10982 82.8392 8.58822 82.8392 9.17293ZM81.9141 9.20117C81.9141 8.83988 81.8341 8.53008 81.6748 8.27178C81.4865 7.95949 81.2207 7.80334 80.8732 7.80334C80.5154 7.80334 80.2428 7.95949 80.0545 8.27178C79.8944 8.53008 79.8152 8.84486 79.8152 9.21695C79.8152 9.57824 79.8952 9.88804 80.0545 10.1463C80.2479 10.4586 80.5171 10.6148 80.8647 10.6148C81.2054 10.6148 81.4737 10.4561 81.6663 10.138C81.8307 9.87475 81.9141 9.56246 81.9141 9.20117Z" fill="white"/>
<path d="M87.6401 11.1615H86.7482V8.91903C86.7482 8.228 86.479 7.88249 85.9381 7.88249C85.6732 7.88249 85.4593 7.97718 85.2941 8.16737C85.1288 8.35757 85.0462 8.58182 85.0462 8.83846V11.1607H84.1526V8.36505C84.1526 8.0212 84.1424 7.64828 84.1211 7.24463H84.9048L84.9465 7.85675H84.9712C85.076 7.66655 85.2311 7.50957 85.4338 7.38416C85.6766 7.23798 85.9466 7.16406 86.2439 7.16406C86.6179 7.16406 86.9296 7.282 87.1775 7.51871C87.4868 7.80857 87.6401 8.24129 87.6401 8.81604V11.1615V11.1615Z" fill="white"/>
<path d="M93.6449 7.89659H92.6618V9.79856C92.6618 10.2819 92.8365 10.5236 93.1823 10.5236C93.3425 10.5236 93.4754 10.5103 93.5801 10.4829L93.6031 11.1432C93.4268 11.208 93.1951 11.2404 92.9097 11.2404C92.5571 11.2404 92.2828 11.1358 92.0843 10.9265C91.885 10.7172 91.7861 10.365 91.7861 9.87082V7.89659H91.1992V7.2446H91.7861V6.527L92.661 6.26953V7.24377H93.644V7.89659H93.6449Z" fill="white"/>
<path d="M98.3703 11.1609H97.4767V8.93506C97.4767 8.23324 97.2075 7.88192 96.6683 7.88192C96.2543 7.88192 95.9715 8.0854 95.8164 8.49237C95.79 8.57792 95.7747 8.68257 95.7747 8.80549V11.1601H94.8828V5.44922H95.7747V7.80883H95.7917C96.0729 7.37943 96.4758 7.16515 96.998 7.16515C97.3677 7.16515 97.6735 7.28308 97.9163 7.51979C98.2187 7.81464 98.3703 8.25317 98.3703 8.8329V11.1609V11.1609Z" fill="white"/>
<path d="M103.246 9.01977C103.246 9.17591 103.234 9.30714 103.213 9.41428H100.535C100.547 9.80132 100.675 10.0962 100.923 10.3005C101.149 10.4832 101.442 10.5746 101.799 10.5746C102.196 10.5746 102.557 10.5131 102.882 10.3894L103.022 10.994C102.641 11.1551 102.193 11.2357 101.674 11.2357C101.052 11.2357 100.563 11.0571 100.208 10.7C99.8521 10.3428 99.6758 9.86361 99.6758 9.26229C99.6758 8.67177 99.8402 8.18008 100.172 7.78806C100.517 7.36946 100.985 7.16016 101.575 7.16016C102.153 7.16016 102.592 7.36946 102.888 7.78806C103.127 8.12028 103.246 8.5314 103.246 9.01977ZM102.394 8.79469C102.401 8.53639 102.342 8.3138 102.221 8.12609C102.066 7.8844 101.83 7.76314 101.511 7.76314C101.219 7.76314 100.982 7.88108 100.8 8.11779C100.652 8.30632 100.564 8.5314 100.535 8.79469H102.394Z" fill="white"/>
</svg>
