<svg width="15" height="15" viewBox="0 0 15 15" fill="none" xmlns="http://www.w3.org/2000/svg">
<g clip-path="url(#clip0_3379_6724)">
<path d="M14.6582 2.9552L6.73314 14.2037C6.41361 14.6586 5.90855 14.9485 5.3833 14.991C5.27633 14.9996 5.27633 14.9996 5.19901 15.0003C4.70162 15.0003 4.22314 14.8029 3.87324 14.4511L0.550593 11.1284C-0.183325 10.3964 -0.183325 9.20835 0.549358 8.47567C1.28132 7.7437 2.46894 7.7437 3.2009 8.47567L4.94949 10.2243L11.591 0.797729C12.1867 -0.0517026 13.3586 -0.254541 14.2058 0.34319C15.0513 0.939586 15.2548 2.10918 14.6582 2.9552Z" fill="#111111" fill-opacity="0.8"/>
<path d="M14.2496 2.66707L14.2495 2.66723L6.3244 13.9157L6.324 13.9163C6.08714 14.2535 5.71525 14.4625 5.34293 14.4927C5.28655 14.4972 5.26877 14.4985 5.25488 14.4992C5.24413 14.4998 5.23562 14.4999 5.19674 14.5003C4.83205 14.4997 4.48243 14.3545 4.22773 14.0985L4.22679 14.0975L0.904147 10.7749L0.903694 10.7744C0.365677 10.2378 0.365455 9.36668 0.902911 8.82922C1.43962 8.29252 2.31065 8.29252 2.84735 8.82922L4.59594 10.5778L5.01604 10.9979L5.35823 10.5122L11.9997 1.08571L12.0003 1.08483C12.4369 0.462304 13.296 0.313253 13.9175 0.751744L13.9176 0.751776C14.5379 1.18933 14.6867 2.04714 14.2496 2.66707Z" stroke="white" stroke-opacity="0.8"/>
</g>
<defs>
<clipPath id="clip0_3379_6724">
<rect width="15" height="15" fill="white"/>
</clipPath>
</defs>
</svg>
