<svg width="191" height="30" viewBox="0 0 191 30" fill="none" xmlns="http://www.w3.org/2000/svg">
<g clip-path="url(#clip0_5127_9898)">
<path fill-rule="evenodd" clip-rule="evenodd" d="M26.949 27.0185V2.98047H27.8216V27.0185H26.949ZM26.949 27.0185L26.0328 2.98047H25.1602L26.0735 27.0185H26.949ZM26.0764 27.0185L24.2439 2.98047H23.3713L25.2038 27.0185H26.0764ZM25.1805 27.0185L22.4231 2.98047H21.5505L24.2963 27.0185H25.1805ZM24.2788 27.0185L20.6197 2.98047H19.7471L23.4033 27.0185H24.2788ZM23.3859 27.0185L18.8047 2.98047H17.9176L22.4987 27.0185H23.3859ZM22.49 27.0185L16.9635 2.98047H16.0677L21.5941 27.0185H22.49ZM21.5854 27.0185L15.0933 2.98047H14.1916L20.6575 27.0185H21.5854ZM20.675 27.0185L13.255 2.98047H12.3446L19.7646 27.0185H20.675ZM19.753 27.0185L11.3702 2.98047H10.4481L18.8018 27.0185H19.753ZM0.0263672 2.98047V27.0185H0.898968V2.98047H0.0263672ZM0.898968 2.98047L1.87628 27.0185H2.74888L1.77157 2.98047H0.898968ZM1.77157 2.98047L3.73492 27.0185H4.60752L2.64417 2.98047H1.77157ZM2.65871 2.98047L5.54993 27.0185H6.42253L3.51677 2.98047H2.65871ZM3.55458 2.98047L7.47256 27.0185H8.34516L4.42427 2.98047H3.55458ZM4.42718 2.98047L9.28466 27.0185H10.1747L5.31724 2.98047H4.42718ZM5.29978 2.98047L11.2218 27.0185H12.1206L6.19856 2.98047H5.29978ZM6.19565 2.98047L13.2637 27.0185H14.1712L7.10316 2.98047H6.19565ZM7.09443 2.98047L15.198 27.0185H16.1171L8.0252 2.98047H7.09443ZM8.01939 2.98047L11.6959 11.9614L17.8041 26.8853L17.8565 27.0185H18.796L18.7233 26.8426L12.6151 11.9162L8.9618 2.98047H8.01939Z" fill="url(#paint0_linear_5127_9898)"/>
<path fill-rule="evenodd" clip-rule="evenodd" d="M85.0607 20.2588C84.0601 22.3317 82.3804 24.107 80.2279 25.3664C78.0754 26.6257 75.5439 27.3144 72.9446 27.3478C70.3452 27.3812 67.7911 26.7578 65.5963 25.5542C63.4015 24.3506 61.6614 22.6193 60.59 20.5729C58.9408 17.4595 58.9379 12.5645 60.59 9.44851C61.6579 7.39853 63.3963 5.66306 65.5913 4.45575C67.7863 3.24843 70.342 2.62196 72.9438 2.65348C75.5457 2.68499 78.0801 3.3731 80.235 4.6331C82.3899 5.8931 84.0714 7.66999 85.0723 9.74502L85.145 9.89077H82.2771L82.2422 9.83549C81.3652 8.40571 80.0704 7.19908 78.4865 6.3355C76.9026 5.47192 75.0847 4.98146 73.2134 4.91287C71.3421 4.84427 69.4826 5.19991 67.8197 5.94447C66.1568 6.68902 64.7483 7.79655 63.7343 9.15701C61.3637 12.3107 61.3637 17.7007 63.7343 20.8443C64.7481 22.2049 66.1563 23.3126 67.8191 24.0574C69.4818 24.8021 71.3412 25.158 73.2125 25.0897C75.0838 25.0213 76.9018 24.5311 78.4859 23.6678C80.07 22.8044 81.3649 21.598 82.2422 20.1684L82.2771 20.1131H85.145L85.0607 20.2588ZM53.2776 24.3171V2.98292H55.8954V27.0209H52.3294L34.5866 5.86517V27.0209H31.9688V2.98292H35.3748L53.2776 24.3171ZM97.6785 13.2429L106.724 2.98041H110L99.316 15.1024L109.822 27.0209H106.55L97.6785 16.9695L88.8099 27.0209H85.6104L96.0322 15.0999L85.3515 2.98292H88.6267L97.6785 13.2429Z" fill="white"/>
</g>
<path d="M136.519 24H135.553V8.406H129.481V7.44H142.591V8.406H136.519V24ZM147.577 24.345C146.373 24.345 145.346 24.069 144.495 23.517C143.644 22.965 142.996 22.1945 142.551 21.2055C142.114 20.2088 141.896 19.0627 141.896 17.767C141.896 16.4637 142.118 15.3213 142.563 14.34C143.015 13.351 143.667 12.5882 144.518 12.0515C145.376 11.5072 146.396 11.235 147.577 11.235C148.788 11.235 149.819 11.511 150.67 12.063C151.521 12.6073 152.165 13.3702 152.602 14.3515C153.039 15.3328 153.258 16.4713 153.258 17.767C153.258 19.0857 153.035 20.2395 152.591 21.2285C152.154 22.2175 151.506 22.9842 150.647 23.5285C149.796 24.0728 148.773 24.345 147.577 24.345ZM147.577 23.379C148.596 23.379 149.451 23.149 150.141 22.689C150.839 22.2213 151.36 21.5658 151.705 20.7225C152.05 19.8792 152.223 18.894 152.223 17.767C152.223 16.0343 151.828 14.6735 151.038 13.6845C150.248 12.6955 149.095 12.201 147.577 12.201C146.549 12.201 145.687 12.4348 144.989 12.9025C144.299 13.3702 143.782 14.0218 143.437 14.8575C143.099 15.6855 142.931 16.6553 142.931 17.767C142.931 18.9017 143.107 19.8907 143.46 20.734C143.812 21.5773 144.334 22.229 145.024 22.689C145.721 23.149 146.572 23.379 147.577 23.379ZM164.671 24H163.325L157.909 17.5945L156.759 18.6525V24H155.793V7.44H156.759V17.422L163.084 11.58H164.418L158.668 16.893L164.671 24ZM171.318 23.379C172.337 23.379 173.234 23.1413 174.009 22.666C174.791 22.183 175.412 21.4853 175.872 20.573L176.677 21.033C176.171 22.091 175.45 22.9075 174.515 23.4825C173.587 24.0575 172.521 24.345 171.318 24.345C170.152 24.345 169.14 24.0805 168.282 23.5515C167.431 23.0225 166.775 22.2673 166.315 21.286C165.863 20.297 165.637 19.1317 165.637 17.79C165.637 16.4407 165.863 15.2753 166.315 14.294C166.775 13.305 167.431 12.5498 168.282 12.0285C169.133 11.4995 170.145 11.235 171.318 11.235C172.498 11.235 173.51 11.5033 174.354 12.04C175.205 12.5767 175.853 13.3587 176.297 14.386C176.75 15.4057 176.976 16.6323 176.976 18.066H166.672C166.702 19.1853 166.906 20.1437 167.281 20.941C167.657 21.7307 168.186 22.3363 168.868 22.758C169.551 23.172 170.367 23.379 171.318 23.379ZM171.318 12.201C169.945 12.201 168.857 12.6265 168.052 13.4775C167.254 14.3285 166.802 15.536 166.695 17.1H175.906C175.776 15.513 175.316 14.3017 174.526 13.466C173.744 12.6227 172.675 12.201 171.318 12.201ZM184.326 11.304C185.369 11.304 186.266 11.5417 187.017 12.017C187.776 12.4923 188.355 13.1785 188.754 14.0755C189.16 14.9648 189.363 16.019 189.363 17.238V24H188.397V17.422C188.397 15.6817 188.045 14.386 187.339 13.535C186.642 12.6763 185.637 12.247 184.326 12.247C183.36 12.247 182.563 12.4693 181.934 12.914C181.313 13.351 180.857 13.9452 180.566 14.6965C180.282 15.4402 180.14 16.2797 180.14 17.215V24H179.174V11.58H180.071V13.5925C180.516 12.8182 181.106 12.2432 181.842 11.8675C182.586 11.4918 183.414 11.304 184.326 11.304Z" fill="white"/>
<path d="M120 30V0H118V30H120Z" fill="white" mask="url(#path-3-inside-1_5127_9898)"/>
<defs>
<linearGradient id="paint0_linear_5127_9898" x1="14.2177" y1="29.59" x2="13.8436" y2="-4.83173" gradientUnits="userSpaceOnUse">
<stop stop-color="#5ED3F0"/>
<stop offset="1" stop-color="#6BBFFC"/>
</linearGradient>
<clipPath id="clip0_5127_9898">
<rect width="110" height="24.6939" fill="white" transform="translate(0 2.65234)"/>
</clipPath>
</defs>
</svg>
