<svg width="46" height="47" viewBox="0 0 46 47" fill="none" xmlns="http://www.w3.org/2000/svg">
<g clip-path="url(#clip0_6259_12708)">
<path d="M32.2 0.900391H13.8C6.17847 0.900391 0 7.07886 0 14.7004V33.1004C0 40.7219 6.17847 46.9004 13.8 46.9004H32.2C39.8215 46.9004 46 40.7219 46 33.1004V14.7004C46 7.07886 39.8215 0.900391 32.2 0.900391Z" fill="black"/>
<path d="M32.1995 1.2832H13.7995C6.38966 1.2832 0.382812 7.29005 0.382812 14.6999V33.0999C0.382812 40.5097 6.38966 46.5165 13.7995 46.5165H32.1995C39.6093 46.5165 45.6161 40.5097 45.6161 33.0999V14.6999C45.6161 7.29005 39.6093 1.2832 32.1995 1.2832Z" stroke="#333333"/>
<path d="M29.0273 16.9961L28.9973 16.9309C28.9972 16.9307 28.9972 16.9305 28.9971 16.9303C28.5692 15.9671 27.8509 15.1433 26.9317 14.5596C26.0124 13.9758 24.9318 13.6573 23.8229 13.6427C22.714 13.6281 21.6244 13.9181 20.6881 14.4774C19.7518 15.0368 19.0093 15.8413 18.5528 16.7929C18.1983 17.5192 18.0237 18.4468 18.0238 19.3694C18.024 20.2921 18.1989 21.2194 18.5528 21.9451C19.0108 22.895 19.754 23.6977 20.6903 24.2553C21.6266 24.813 22.7155 25.1015 23.8233 25.086C24.9311 25.0706 26.0105 24.7518 26.9288 24.1683C27.8461 23.5854 28.5631 22.7634 28.991 21.8023L29.0247 21.7391L29.103 21.5921H28.9364H27.7342H27.6766L27.6477 21.6418L27.6331 21.667L27.6325 21.6681C27.2736 22.3032 26.7434 22.84 26.0939 23.2245C25.4444 23.609 24.6985 23.8275 23.9303 23.858C23.1621 23.8885 22.399 23.7298 21.717 23.398C21.035 23.0662 20.4582 22.5732 20.0434 21.9684L20.043 21.968C19.5605 21.273 19.3156 20.323 19.3156 19.3661C19.3156 18.4092 19.5605 17.458 20.0431 16.7607L20.0433 16.7604C20.4583 16.1557 21.0352 15.6627 21.7172 15.331C22.3993 14.9993 23.1624 14.8407 23.9306 14.8713C24.6988 14.9019 25.4447 15.1206 26.0942 15.5052C26.7436 15.8897 27.2737 16.4266 27.6324 17.0619L27.6331 17.0629L27.6477 17.0881L27.6766 17.1379H27.7342H28.9364H29.0924L29.0273 16.9961ZM15.5774 13.7927H15.4774V13.8927V23.3132L8.1515 13.8316L8.12148 13.7927H8.07237H6.64453H6.54453V13.8927V24.8372V24.9372H6.64453H7.74193H7.84193V24.8372V15.4981L15.1007 24.8983L15.1308 24.9372H15.1799H16.6748H16.7748V24.8372V13.8927V13.7927H16.6748H15.5774ZM34.1905 20.4194L37.8319 24.9003L37.8619 24.9372H37.9095H39.2813H39.4912L39.3589 24.7742L35.0058 19.4107L39.4333 13.9546L39.5656 13.7916H39.3556H37.9827H37.935L37.905 13.8285L34.1905 18.4054L30.4736 13.8296L30.4436 13.7927H30.396H29.023H28.813L28.9453 13.9557L33.3718 19.4098L29.0536 24.7745L28.9226 24.9372H29.1315H30.4728H30.5204L30.5504 24.9003L34.1905 20.4194Z" fill="white" stroke="white" stroke-width="0.2"/>
<path d="M16.7673 36.0312L15.3353 30.4312H16.1913L17.2393 34.5392L18.2833 30.4312H19.0393L20.0873 34.5392L21.1353 30.4312H21.9913L20.5673 36.0312H19.6113L18.6633 32.3232L17.7153 36.0312H16.7673ZM23.9359 36.1353C23.5679 36.1353 23.2319 36.0406 22.9279 35.8512C22.6265 35.6619 22.3852 35.4086 22.2039 35.0912C22.0252 34.7712 21.9359 34.4179 21.9359 34.0312C21.9359 33.7379 21.9879 33.4646 22.0919 33.2112C22.1959 32.9552 22.3385 32.7312 22.5199 32.5392C22.7039 32.3446 22.9172 32.1926 23.1599 32.0832C23.4025 31.9739 23.6612 31.9193 23.9359 31.9193C24.2425 31.9193 24.5239 31.9832 24.7799 32.1112C25.0359 32.2366 25.2545 32.4112 25.4359 32.6352C25.6172 32.8566 25.7505 33.1126 25.8359 33.4032C25.9212 33.6912 25.9465 33.9979 25.9119 34.3232H22.8279C22.8625 34.5072 22.9292 34.6739 23.0279 34.8232C23.1292 34.9699 23.2572 35.0859 23.4119 35.1712C23.5692 35.2566 23.7439 35.3006 23.9359 35.3032C24.1385 35.3032 24.3225 35.2526 24.4879 35.1512C24.6559 35.0499 24.7932 34.9099 24.8999 34.7312L25.7439 34.9272C25.5839 35.2819 25.3425 35.5726 25.0199 35.7992C24.6972 36.0232 24.3359 36.1353 23.9359 36.1353ZM22.7999 33.6872H25.0719C25.0452 33.4952 24.9772 33.3219 24.8679 33.1672C24.7612 33.0099 24.6265 32.8859 24.4639 32.7952C24.3039 32.7019 24.1279 32.6552 23.9359 32.6552C23.7465 32.6552 23.5705 32.7006 23.4079 32.7912C23.2479 32.8819 23.1145 33.0059 23.0079 33.1632C22.9039 33.3179 22.8345 33.4926 22.7999 33.6872ZM28.5996 31.9193C28.989 31.9193 29.3423 32.0139 29.6596 32.2032C29.9796 32.3926 30.2343 32.6472 30.4236 32.9672C30.613 33.2846 30.7076 33.6379 30.7076 34.0272C30.7076 34.3179 30.653 34.5912 30.5436 34.8472C30.4343 35.1006 30.2823 35.3246 30.0876 35.5192C29.8956 35.7112 29.6716 35.8619 29.4156 35.9712C29.1623 36.0806 28.8903 36.1353 28.5996 36.1353C28.3196 36.1353 28.0743 36.0712 27.8636 35.9432C27.6556 35.8126 27.485 35.6459 27.3516 35.4433V36.0312H26.5196V30.0312H27.3516V32.6112C27.485 32.4059 27.6556 32.2392 27.8636 32.1112C28.0743 31.9832 28.3196 31.9193 28.5996 31.9193ZM28.5916 35.3272C28.8236 35.3272 29.0356 35.2686 29.2276 35.1512C29.4196 35.0339 29.5716 34.8766 29.6836 34.6792C29.7983 34.4819 29.8556 34.2646 29.8556 34.0272C29.8556 33.7846 29.7983 33.5646 29.6836 33.3672C29.569 33.1699 29.4156 33.0139 29.2236 32.8992C29.0316 32.7819 28.821 32.7232 28.5916 32.7232C28.3596 32.7232 28.1556 32.7819 27.9796 32.8992C27.8036 33.0166 27.6663 33.1739 27.5676 33.3712C27.469 33.5686 27.4196 33.7872 27.4196 34.0272C27.4196 34.2672 27.469 34.4859 27.5676 34.6832C27.6663 34.8806 27.8036 35.0379 27.9796 35.1552C28.1556 35.2699 28.3596 35.3272 28.5916 35.3272Z" fill="#5ED3F0"/>
</g>
<defs>
<clipPath id="clip0_6259_12708">
<rect width="46" height="46" fill="white" transform="translate(0 0.900391)"/>
</clipPath>
</defs>
</svg>
