<svg width="118" height="26" viewBox="0 0 118 26" fill="none" xmlns="http://www.w3.org/2000/svg">
<g clip-path="url(#clip0_6895_7720)">
<mask id="mask0_6895_7720" style="mask-type:luminance" maskUnits="userSpaceOnUse" x="0" y="0" width="118" height="26">
<path d="M118 0H0V26H118V0Z" fill="white"/>
</mask>
<g mask="url(#mask0_6895_7720)">
<path fill-rule="evenodd" clip-rule="evenodd" d="M28.9119 25.6571V0.347656H29.848V25.6571H28.9119ZM28.9119 25.6571L27.9291 0.347656H26.993L27.9728 25.6571H28.9119ZM27.9759 25.6571L26.0102 0.347656H25.0741L27.0398 25.6571H27.9759ZM27.0149 25.6571L24.0569 0.347656H23.1208L26.0663 25.6571H27.0149ZM26.0476 25.6571L22.1224 0.347656H21.1863L25.1084 25.6571H26.0476ZM25.0897 25.6571L20.1754 0.347656H19.2237L24.138 25.6571H25.0897ZM24.1287 25.6571L18.2003 0.347656H17.2392L23.1676 25.6571H24.1287ZM23.1583 25.6571L16.194 0.347656H15.2267L22.1629 25.6571H23.1583ZM22.1816 25.6571L14.222 0.347656H13.2454L21.205 25.6571H22.1816ZM21.1925 25.6571L12.2001 0.347656H11.211L20.1722 25.6571H21.1925ZM0.03125 0.347656V25.6571H0.967312V0.347656H0.03125ZM0.967312 0.347656L2.0157 25.6571H2.95176L1.90337 0.347656H0.967312ZM1.90337 0.347656L4.00951 25.6571H4.94557L2.83943 0.347656H1.90337ZM2.85504 0.347656L5.95652 25.6571H6.89259L3.7755 0.347656H2.85504ZM3.81606 0.347656L8.01898 25.6571H8.95504L4.749 0.347656H3.81606ZM4.75212 0.347656L9.96287 25.6571H10.9177L5.70691 0.347656H4.75212ZM5.68818 0.347656L12.041 25.6571H13.0051L6.65233 0.347656H5.68818ZM6.64921 0.347656L14.2314 25.6571H15.2049L7.62271 0.347656H6.64921ZM7.61335 0.347656L16.3063 25.6571H17.2923L8.61182 0.347656H7.61335ZM8.60558 0.347656L12.5496 9.80364L19.102 25.5169L19.1582 25.6571H20.166L20.088 25.4719L13.5356 9.75602L9.61653 0.347656H8.60558Z" fill="#5ED3F0"/>
<path fill-rule="evenodd" clip-rule="evenodd" d="M91.2501 18.5377C90.1768 20.7203 88.3749 22.5894 86.0658 23.9154C83.7568 25.2414 81.0412 25.9665 78.2528 26.0017C75.4644 26.0368 72.7246 25.3804 70.3701 24.1132C68.0156 22.8459 66.1491 21.023 64.9998 18.8685C63.2306 15.5904 63.2275 10.4364 64.9998 7.15563C66.1453 4.99722 68.0101 3.16996 70.3648 1.89879C72.7194 0.627615 75.461 -0.0319861 78.252 0.00119289C81.0431 0.0343719 83.7618 0.758877 86.0734 2.08552C88.3851 3.41217 90.1888 5.28304 91.2626 7.46783L91.3406 7.62129H88.264L88.2266 7.56308C87.2859 6.05767 85.8969 4.78722 84.1978 3.87797C82.4987 2.96871 80.5485 2.45231 78.5411 2.38009C76.5338 2.30786 74.539 2.68232 72.7552 3.46625C70.9713 4.25019 69.4605 5.4163 68.3727 6.84872C65.8297 10.1692 65.8297 15.8443 68.3727 19.1542C69.4602 20.5867 70.9708 21.753 72.7545 22.5372C74.5382 23.3213 76.5329 23.6961 78.5402 23.6241C80.5476 23.5521 82.4978 23.036 84.1971 22.127C85.8964 21.218 87.2856 19.9477 88.2266 18.4425L88.264 18.3843H91.3406L91.2501 18.5377ZM57.1556 22.8107V0.348063H59.9637V25.6575H56.1384L37.1051 3.38276V25.6575H34.2969V0.348063H37.9507L57.1556 22.8107ZM104.786 11.1507L114.489 0.345415H118.003L106.542 13.1086L117.812 25.6575H114.302L104.786 15.0744L95.272 25.6575H91.8398L103.019 13.106L91.5621 0.348063H95.0754L104.786 11.1507Z" fill="black"/>
</g>
</g>
<defs>
<clipPath id="clip0_6895_7720">
<rect width="118" height="26" fill="white"/>
</clipPath>
</defs>
</svg>
