<svg width="21" height="20" viewBox="0 0 21 20" fill="none" xmlns="http://www.w3.org/2000/svg">
<mask id="mask0_4574_7769" style="mask-type:luminance" maskUnits="userSpaceOnUse" x="0" y="0" width="21" height="20">
<path d="M13.0004 14.9995V20H7.99981V14.9995H13.0004ZM5.50062 14.9995V20H0.5V14.9995H5.50062ZM20.5002 14.9995V20H15.4996V14.9995H20.5002ZM5.50062 7.49972V12.5003H0.5V7.49972H5.50062ZM13.0004 7.49972V12.5003H7.99981V7.49972H13.0004ZM20.5002 7.49972V12.5003H15.4996V7.49972H20.5002ZM5.50062 0V5.00047H0.5V0H5.50062ZM20.5002 0V5.00047H15.4996V0H20.5002ZM13.0004 0V5.00047H7.99981V0H13.0004Z" fill="white"/>
</mask>
<g mask="url(#mask0_4574_7769)">
<path d="M0.5 0H20.5002V20H0.5V0Z" fill="black"/>
</g>
</svg>
