<svg width="19" height="20" viewBox="0 0 19 20" fill="none" xmlns="http://www.w3.org/2000/svg">
<g clip-path="url(#clip0_634_2370)">
<path fill-rule="evenodd" clip-rule="evenodd" d="M5.88572 1.60742H13.673C16.7306 1.60742 18.7628 3.78983 18.7628 6.92173V14.259C18.7628 17.3911 16.7305 19.5733 13.6721 19.5733H5.88572C2.82825 19.5733 0.796875 17.3911 0.796875 14.259V6.92173C0.796875 3.79261 2.83369 1.60742 5.88572 1.60742ZM13.6733 2.95507H5.88593C3.60007 2.95507 2.14453 4.51665 2.14453 6.92195V14.2592C2.14453 16.6678 3.59506 18.2261 5.88593 18.2261H13.6724C15.9642 18.2261 17.4155 16.6677 17.4155 14.2592V6.92195C17.4155 4.51358 15.9644 2.95507 13.6733 2.95507Z" fill="white"/>
<path d="M6.41016 10.5898H13.1473" stroke="white" stroke-width="1.34744" stroke-linecap="round"/>
</g>
<defs>
<clipPath id="clip0_634_2370">
<rect width="19" height="19" fill="white" transform="translate(0 0.835938)"/>
</clipPath>
</defs>
</svg>
