<svg width="185" height="25" viewBox="0 0 185 25" fill="none" xmlns="http://www.w3.org/2000/svg">
<path d="M8.66214 24.5532C6.87768 24.5532 5.1354 24.5551 3.39311 24.5523C2.56401 24.551 2.60302 24.6266 2.60298 23.6876C2.60272 17.2209 2.59868 10.7542 2.61079 4.28756C2.61174 3.77843 2.49626 3.37724 2.17981 2.98595C1.64911 2.32972 1.17192 1.62428 0.675337 0.936977C0.618283 0.858012 0.58115 0.762715 0.5 0.60919C0.738155 0.59053 0.926426 0.563043 1.11471 0.562908C4.72574 0.560333 8.33677 0.560959 11.9478 0.56095C12.9032 0.56095 13.859 0.544352 14.8141 0.565198C16.0708 0.592627 17.2702 0.88525 18.3365 1.62265C19.9833 2.76145 20.8674 4.36511 20.91 6.48356C20.9299 7.47212 20.8252 8.42526 20.4266 9.32599C19.8833 10.5537 19.0377 11.4515 17.8562 11.9796C17.7458 12.0289 17.6412 12.0926 17.4786 12.1791C17.6006 12.245 17.6572 12.2859 17.7197 12.3078C19.3392 12.8755 20.4269 14.0626 21.0281 15.717C21.8466 17.9694 21.6043 20.1292 20.2706 22.1032C19.6478 23.025 18.7876 23.6446 17.7914 24.0416C16.9284 24.3855 16.0353 24.5568 15.1114 24.5547C12.9757 24.5498 10.84 24.5532 8.66214 24.5532ZM14.6863 19.8799C15.2484 19.7214 15.72 19.4154 16.0578 18.903C16.3505 18.459 16.4643 17.945 16.475 17.4179C16.4887 16.7444 16.3349 16.1165 15.8947 15.5939C15.3769 14.979 14.7301 14.6521 13.9634 14.6466C11.968 14.6323 9.97245 14.6415 7.97694 14.6416C7.92075 14.6416 7.86428 14.6409 7.80841 14.6461C7.53426 14.6721 7.49797 14.7082 7.47421 14.9947C7.46557 15.0988 7.46838 15.2041 7.46835 15.3089C7.46801 16.6563 7.46715 18.0038 7.46847 19.3512C7.46913 20.0272 7.47101 20.0299 8.09564 20.0304C9.92252 20.0318 11.7494 20.0377 13.5762 20.0248C13.9241 20.0224 14.2714 19.9423 14.6863 19.8799ZM11.1502 5.05437C10.0826 5.05472 9.01492 5.05154 7.94732 5.05715C7.51367 5.05943 7.47278 5.09844 7.47105 5.53256C7.46569 6.87948 7.46591 8.22645 7.47082 9.57337C7.47238 10.0011 7.51486 10.0523 7.89953 10.0533C9.83809 10.0584 11.7769 10.072 13.7151 10.0463C14.44 10.0367 15.0904 9.75783 15.5723 9.13938C16.4451 8.01938 16.2594 5.78354 14.4204 5.23586C14.0331 5.12053 13.6189 5.07946 13.215 5.06239C12.5558 5.03454 11.8948 5.05456 11.1502 5.05437Z" fill="white"/>
<path d="M26.5 4.85488C26.5001 3.62664 26.4998 2.44334 26.5005 1.26004C26.5005 1.12531 26.5015 0.990287 26.5099 0.855957C26.5207 0.682316 26.6109 0.578977 26.7748 0.566352C26.9145 0.555584 27.0552 0.555156 27.1954 0.555142C32.0654 0.55464 36.9354 0.554506 41.8054 0.554983C42.4976 0.555052 42.4985 0.556607 42.4991 1.29703C42.4998 2.34552 42.5011 3.39402 42.4982 4.44251C42.4966 5.03684 42.4879 5.0477 41.9331 5.04803C38.7333 5.04998 35.5334 5.04916 32.3335 5.04942C32.1511 5.04943 31.9684 5.04414 31.7863 5.05286C31.4573 5.0686 31.392 5.12921 31.3882 5.48359C31.3795 6.29233 31.384 7.10123 31.3839 7.91006C31.3838 8.47924 31.3785 9.04854 31.388 9.61756C31.3939 9.97226 31.4575 10.0322 31.7853 10.0496C31.9253 10.057 32.0659 10.0527 32.2063 10.0527C34.7746 10.0529 37.3429 10.0523 39.9112 10.0534C40.5596 10.0537 40.5612 10.0561 40.562 10.7486C40.5633 11.857 40.5645 12.9654 40.561 14.0738C40.5593 14.6094 40.5372 14.635 40.0379 14.6356C37.3994 14.6383 34.7609 14.637 32.1224 14.6378C31.9681 14.6379 31.8138 14.643 31.6595 14.6474C31.4896 14.6523 31.4049 14.7522 31.3938 14.9279C31.3881 15.0175 31.3847 15.1075 31.3847 15.1973C31.3841 16.6202 31.3823 18.0432 31.3853 19.4661C31.3864 19.9845 31.4264 20.027 31.9185 20.0273C35.1886 20.0294 38.4586 20.0277 41.7286 20.0295C42.475 20.0299 42.4745 19.965 42.4734 20.8077C42.4721 21.8412 42.4736 22.8747 42.4722 23.9083C42.472 24.0428 42.4881 24.1874 42.4474 24.3085C42.4164 24.4005 42.3173 24.5052 42.2306 24.5286C42.0846 24.5679 41.9244 24.5511 41.7701 24.5512C36.9142 24.5518 32.0582 24.5519 27.2023 24.5515C26.502 24.5514 26.5004 24.55 26.5003 23.8176C26.4999 17.5117 26.5 11.2058 26.5 4.85488Z" fill="white"/>
<path d="M65.4756 15.3105C65.4795 15.057 65.4867 14.8036 65.4868 14.5502C65.4875 10.1361 65.4871 5.7219 65.4876 1.30775C65.4876 0.562887 65.4889 0.561696 66.1917 0.561144C67.4011 0.56019 68.6105 0.560753 69.8199 0.561111C69.9351 0.561144 70.0502 0.563228 70.1654 0.566152C70.3717 0.571392 70.4867 0.676784 70.4939 0.895051C70.4978 1.01424 70.4997 1.13357 70.4997 1.25283C70.5 8.7539 70.5002 16.255 70.4997 23.756C70.4996 24.4628 70.4976 24.4641 69.8015 24.4646C68.5777 24.4654 67.3538 24.4556 66.1302 24.4702C65.8078 24.4741 65.6057 24.3587 65.4156 24.0872C63.9036 21.9275 62.377 19.7789 60.8544 17.6273C58.9066 14.8748 56.9585 12.1225 55.01 9.37053C54.959 9.29846 54.9022 9.23076 54.8144 9.13497C54.7499 9.10495 54.7296 9.11835 54.7198 9.14911C54.7165 10.0289 54.7107 10.9087 54.7105 11.7885C54.7094 15.8 54.7103 19.8115 54.7096 23.8231C54.7095 24.5524 54.7078 24.5536 53.9927 24.5541C52.8121 24.5551 51.6315 24.5546 50.4509 24.554C50.3214 24.5539 50.1919 24.5481 50.0624 24.5462C49.8714 24.5434 49.7684 24.4482 49.7654 24.2463C49.7625 24.0525 49.7572 23.8587 49.7571 23.6649C49.7567 17.2375 49.7534 10.8101 49.7635 4.38273C49.7643 3.89826 49.6775 3.50218 49.3557 3.12051C48.798 2.45919 48.2978 1.74582 47.7763 1.05194C47.6912 0.938631 47.6209 0.813322 47.5 0.625618C47.7067 0.597912 47.8421 0.564171 47.9774 0.563963C50.1371 0.560657 52.2967 0.56796 54.4563 0.554707C54.7739 0.552756 54.9585 0.697337 55.1294 0.938844C55.9798 2.14117 56.8374 3.33804 57.6908 4.5381C59.2099 6.67415 60.7266 8.81202 62.2466 10.9474C63.2797 12.3988 64.3167 13.8473 65.3855 15.3218C65.4475 15.3508 65.4663 15.3388 65.4756 15.3105Z" fill="white"/>
<path d="M92.4726 3.41637C92.4726 3.52095 92.4732 3.58087 92.4725 3.64078C92.4584 4.89345 92.5914 4.50312 91.8905 5.5168C90.4801 7.55638 89.0558 9.58477 87.6358 11.6166C85.7896 14.2582 83.9419 16.8984 82.0961 19.5402C82.0161 19.6547 81.9485 19.7791 81.8274 19.9768C82.0798 19.9994 82.2511 20.028 82.4225 20.0282C85.5186 20.0309 88.6147 20.029 91.7109 20.0311C92.5601 20.0317 92.4952 19.9705 92.4978 20.8868C92.5007 21.9353 92.5013 22.9838 92.4961 24.0323C92.4937 24.5178 92.4668 24.5474 92.0251 24.5508C91.206 24.5572 90.3868 24.5537 89.5677 24.5537C85.1109 24.5538 80.6542 24.554 76.1974 24.5535C75.5055 24.5534 75.5045 24.552 75.5039 23.8186C75.503 22.83 75.5108 21.8413 75.5001 20.8529C75.4967 20.5364 75.5808 20.2755 75.754 20.0227C77.9325 16.845 80.1067 13.6639 82.2802 10.4823C83.4327 8.79525 84.5819 7.10561 85.7313 5.4161C85.779 5.34597 85.8134 5.26536 85.875 5.15067C85.7645 5.1123 85.6821 5.06619 85.5967 5.05791C85.4451 5.04323 85.2916 5.05035 85.1388 5.05033C82.1399 5.05005 79.141 5.05056 76.1421 5.04962C75.5061 5.04942 75.5048 5.0471 75.504 4.34508C75.5027 3.35649 75.5034 2.3679 75.5037 1.37931C75.5039 0.555943 75.5042 0.555279 76.248 0.555181C78.7193 0.554849 81.1906 0.55503 83.662 0.555027C86.2999 0.555022 88.9379 0.555022 91.5758 0.555049C91.7008 0.555052 91.8257 0.553859 91.9507 0.555792C92.4316 0.563231 92.4689 0.600276 92.4714 1.12497C92.4749 1.87386 92.4725 2.62279 92.4726 3.41637Z" fill="white"/>
<path d="M101.499 21.3157C101.499 22.2554 101.502 23.1504 101.497 24.0453C101.495 24.5156 101.468 24.55 101.096 24.5515C100.033 24.5558 98.9706 24.5557 97.9081 24.5516C97.5275 24.5501 97.5022 24.5161 97.5017 24.0059C97.4992 21.7983 97.5002 19.5908 97.5002 17.3832C97.5001 12.0283 97.5001 6.67348 97.5003 1.31862C97.5004 0.556375 97.5012 0.555667 98.0945 0.555334C99.0646 0.554793 100.035 0.553973 101.005 0.555889C101.486 0.55684 101.498 0.571785 101.499 1.17897C101.5 3.20755 101.499 5.23614 101.499 7.26472C101.499 11.9334 101.499 16.6022 101.499 21.3157Z" fill="white"/>
<path d="M113.731 22.4807C113.731 23.0475 113.736 23.5697 113.728 24.0916C113.721 24.5046 113.679 24.5491 113.269 24.5507C111.914 24.556 110.56 24.556 109.205 24.5507C108.794 24.5491 108.758 24.5044 108.744 24.0925C108.738 23.9137 108.742 23.7345 108.742 23.5555C108.742 17.1564 108.736 10.7573 108.752 4.35818C108.753 3.845 108.618 3.44812 108.306 3.06185C107.761 2.38751 107.252 1.6822 106.73 0.988041C106.662 0.897583 106.607 0.796321 106.5 0.626239C106.723 0.600917 106.883 0.5672 107.043 0.56684C108.773 0.562947 110.502 0.564291 112.232 0.56425C112.607 0.564242 112.983 0.586742 113.356 0.558098C113.713 0.530687 113.949 0.668757 114.153 0.962886C114.817 1.91959 115.495 2.8654 116.17 3.81363C117.793 6.09397 119.417 8.37344 121.042 10.653C122.085 12.1169 123.128 13.5806 124.172 15.0437C124.231 15.1256 124.298 15.2006 124.404 15.332C124.44 15.1854 124.474 15.0973 124.479 15.0073C124.49 14.8439 124.484 14.6793 124.484 14.5152C124.484 10.1149 124.484 5.71458 124.484 1.31425C124.484 0.565944 124.485 0.564968 125.195 0.564518C126.406 0.563747 127.617 0.564042 128.827 0.564777C128.957 0.564856 129.087 0.567744 129.216 0.574841C129.385 0.584063 129.484 0.671407 129.49 0.853142C129.494 0.987252 129.5 1.12143 129.5 1.25558C129.5 8.75851 129.5 16.2614 129.5 23.7644C129.5 24.4611 129.497 24.4632 128.838 24.464C127.613 24.4655 126.388 24.4542 125.163 24.4706C124.823 24.4752 124.601 24.3543 124.404 24.0725C122.856 21.8642 121.299 19.6627 119.742 17.4616C118.329 15.4652 116.912 13.4721 115.497 11.4773C115.02 10.8042 114.544 10.1298 114.066 9.45699C113.999 9.36315 113.925 9.27548 113.811 9.13064C113.776 9.27947 113.742 9.36818 113.736 9.45895C113.725 9.60733 113.731 9.75706 113.731 9.90622C113.731 14.0828 113.731 18.2594 113.731 22.4807Z" fill="white"/>
<path d="M139.629 22.6448C137.482 21.2265 136.003 19.2769 135.17 16.7742C134.686 15.3205 134.46 13.8161 134.506 12.2835C134.589 9.46804 135.366 6.90195 137.133 4.74469C138.684 2.85053 140.626 1.61786 142.915 1.00267C144.997 0.442913 147.09 0.388185 149.177 0.949339C151.739 1.63841 153.682 3.25544 155.143 5.5621C155.181 5.62089 155.197 5.6949 155.245 5.819C153.984 6.55964 152.735 7.29309 151.458 8.04289C151.219 7.7382 151.014 7.45805 150.79 7.19626C149.767 6.00027 148.507 5.25159 146.991 5.08024C145.248 4.88335 143.636 5.29542 142.208 6.41532C140.932 7.41633 140.14 8.76718 139.743 10.3738C139.283 12.2333 139.365 14.0804 140.053 15.8684C141.468 19.5424 145.119 20.9096 148.236 19.9129C149.064 19.6485 149.84 19.2742 150.54 18.7254C150.753 18.5587 150.862 18.3807 150.856 18.0937C150.842 17.4362 150.857 16.7781 150.849 16.1204C150.844 15.7086 150.798 15.6629 150.402 15.6569C149.853 15.6487 149.304 15.6452 148.755 15.6562C148.483 15.6616 148.278 15.5818 148.101 15.3431C147.186 14.1119 146.258 12.8923 145.336 11.6669C145.285 11.5987 145.252 11.5152 145.204 11.4274C145.337 11.2762 145.499 11.321 145.644 11.3203C146.685 11.3157 147.727 11.3177 148.768 11.3176C150.752 11.3176 152.736 11.3176 154.721 11.3177C154.819 11.3177 154.918 11.3164 155.016 11.3189C155.459 11.3302 155.494 11.3597 155.495 11.839C155.498 14.5001 155.494 17.1613 155.5 19.8224C155.501 20.0988 155.408 20.2978 155.231 20.4948C153.312 22.6404 150.98 23.9615 148.225 24.3899C145.571 24.8025 143.007 24.4515 140.574 23.2102C140.258 23.0488 139.961 22.845 139.629 22.6448Z" fill="white"/>
<path d="M167.151 6.58652C167.474 5.71931 167.768 4.87739 168.099 4.05103C168.228 3.72885 168.179 3.50054 167.973 3.24074C167.414 2.538 166.876 1.81781 166.334 1.10169C166.231 0.966396 166.145 0.817986 166.007 0.609417C166.211 0.584556 166.333 0.556857 166.454 0.556756C169.342 0.554395 172.23 0.553807 175.118 0.556305C175.559 0.556687 175.562 0.563478 175.734 1.02324C176.761 3.76258 177.785 6.50297 178.812 9.24192C180.345 13.3296 181.881 17.4164 183.416 21.5036C183.724 22.3239 184.032 23.1439 184.336 23.9658C184.396 24.1274 184.436 24.2968 184.5 24.5124C184.305 24.5295 184.165 24.5522 184.025 24.5524C182.48 24.5549 180.935 24.5557 179.39 24.5529C178.911 24.5521 178.907 24.548 178.737 24.0804C178.36 23.048 177.99 22.0129 177.612 20.981C177.448 20.5335 177.44 20.5272 176.986 20.5268C173.997 20.5245 171.008 20.5245 168.019 20.5268C167.562 20.5271 167.553 20.5354 167.392 20.9771C167.027 21.982 166.667 22.9891 166.304 23.9952C166.274 24.079 166.239 24.161 166.21 24.2452C166.139 24.4504 166.01 24.5662 165.788 24.5519C165.702 24.5463 165.615 24.5542 165.528 24.5542C164.055 24.5544 162.583 24.556 161.11 24.5522C160.93 24.5517 160.75 24.5223 160.5 24.5001C160.901 23.2351 161.385 22.0757 161.817 20.8968C162.256 19.6973 162.711 18.504 163.157 17.307C163.597 16.1239 164.033 14.9388 164.474 13.756C164.92 12.5594 165.372 11.3651 165.819 10.1685C166.26 8.9858 166.698 7.80159 167.151 6.58652ZM171.869 7.30052C171.618 8.0156 171.368 8.73104 171.116 9.44565C170.864 10.1603 170.609 10.8735 170.357 11.5884C170.106 12.3033 169.85 13.0164 169.612 13.736C169.377 14.4473 169.054 15.1306 168.902 15.8721C169.333 15.9887 175.483 15.9858 175.892 15.8691C175.849 15.7025 175.816 15.5304 175.76 15.3674C175.346 14.1742 174.928 12.9824 174.51 11.791C173.864 9.95467 173.218 8.11872 172.568 6.28403C172.534 6.18666 172.465 6.10236 172.364 5.92993C172.184 6.43003 172.038 6.8327 171.869 7.30052Z" fill="white"/>
</svg>
