<svg width="221" height="66" viewBox="0 0 221 66" fill="none" xmlns="http://www.w3.org/2000/svg">
<g clip-path="url(#clip0_1_1833)">
<path d="M63.8504 38.0705C61.6241 50.0419 55.0134 58.442 43.803 62.7955C25.4663 69.9166 5.09523 57.9929 1.88972 38.4594C-0.91792 21.3503 10.2629 5.25187 27.1513 2.08706C44.3272 -1.13162 60.8885 10.5733 63.7751 27.9594C64.3307 31.3062 64.3362 34.6502 63.8504 38.0705ZM46.3713 36.9487C46.5255 37.129 46.6687 37.3204 46.8355 37.4878C48.2518 38.909 50.4788 39.1109 52.2005 37.9795C53.8436 36.8998 54.5226 34.7542 53.8192 32.8644C53.1188 30.9828 51.2012 29.8388 49.2452 30.1359C46.0341 30.6235 44.5577 33.9953 46.3713 36.9487ZM17.7836 30.6136C17.6174 30.5348 17.4555 30.4445 17.2842 30.3791C15.5752 29.7261 13.6018 30.219 12.4781 31.5752C11.2902 33.009 11.106 34.9693 12.0112 36.5438C12.9423 38.1634 14.733 38.9757 16.5806 38.6167C18.1945 38.3032 19.5564 36.9686 19.8934 35.3705C20.2939 33.4714 19.5981 31.8421 17.7836 30.6136ZM42.131 43.0013C41.8018 41.9614 41.1791 41.6591 40.2212 42.0789C39.596 42.3528 38.9863 42.6681 38.3476 42.9044C33.8985 44.551 29.5478 44.7792 25.4035 41.9784C24.8289 41.5901 24.2406 41.6952 23.7873 42.2454C23.3596 42.7645 23.3965 43.522 23.986 43.9253C24.8264 44.5002 25.7057 45.0627 26.644 45.4393C31.7685 47.4958 36.6789 46.5865 41.4347 44.1798C41.7603 44.015 41.9044 43.486 42.131 43.0013ZM41.4231 25.8607C40.2083 25.9963 39.6241 26.6127 39.6177 27.8205C39.606 30.0164 39.6075 32.2124 39.6171 34.4082C39.6223 35.5926 40.3593 36.387 41.4161 36.3847C42.4743 36.3825 43.2106 35.592 43.2172 34.404C43.2294 32.2082 43.2304 30.0122 43.2168 27.8164C43.2099 26.6927 42.6716 26.0838 41.4231 25.8607ZM24.5961 25.4632C23.1353 25.3215 22.3319 26.0104 22.318 27.4779C22.2976 29.6472 22.2973 31.8169 22.3185 33.9861C22.3303 35.1895 23.067 35.9443 24.1433 35.9351C25.2196 35.9259 25.9065 35.1635 25.9101 33.9483C25.9165 31.7789 25.8968 29.6093 25.9193 27.4401C25.929 26.5108 25.5665 25.8649 24.5961 25.4632ZM53.876 21.2712C53.5026 19.9621 53.1292 18.6529 52.7558 17.3438C52.2505 18.5039 51.8647 19.6471 51.6072 20.819C51.4322 21.6152 51.0409 22.0343 50.2691 22.2413C49.4091 22.472 48.5785 22.8139 47.5437 23.1739C48.7445 23.6052 49.725 23.9106 50.6613 24.3188C50.9904 24.4623 51.3339 24.8115 51.4593 25.1471C51.8872 26.2918 52.2208 27.4723 52.5904 28.6391C53.1179 27.4608 53.4566 26.2723 53.8802 25.1153C53.9956 24.8 54.3197 24.47 54.6288 24.3362C55.578 23.9253 56.5664 23.6062 57.7591 23.1715C56.5546 22.7472 55.5635 22.4287 54.6006 22.0394C54.3304 21.9301 54.1432 21.6125 53.876 21.2712ZM38.9066 21.3198C38.5401 21.3197 38.1736 21.318 37.8071 21.3197C36.9047 21.324 36.425 21.6176 36.4877 22.1807C36.574 22.9554 37.1513 23.0064 37.7706 23.0031C39.8649 22.9921 41.9593 22.9958 44.0536 23.0009C44.6605 23.0024 45.2891 22.9879 45.3064 22.175C45.3237 21.3547 44.7009 21.3169 44.0891 21.3183C42.4136 21.3221 40.7382 21.3198 38.9066 21.3198ZM20.6498 22.8846C20.6974 22.9064 20.7448 22.9472 20.7926 22.9475C23.2796 22.9647 25.7671 23.0041 28.253 22.9559C28.5224 22.9507 28.9589 22.4654 29.0079 22.1533C29.0966 21.5881 28.6401 21.3253 28.0997 21.3236C25.7942 21.3164 23.4884 21.3018 21.1836 21.3426C20.8787 21.348 20.4336 21.5902 20.3193 21.8442C20.2113 22.0844 20.4531 22.4846 20.6498 22.8846Z" fill="white"/>
<path d="M157.959 41.902C160.298 42.7303 162.544 42.7565 164.665 41.4573C165.832 40.7429 166.651 39.1389 165.931 37.6072C165.414 36.506 164.408 35.9351 163.315 35.6015C161.564 35.0667 159.775 34.6559 158.016 34.1467C155.895 33.5331 153.899 32.6709 152.528 30.8102C150.454 27.9946 151.285 23.3142 154.552 21.1178C158.21 18.6579 164.243 18.4993 167.885 21.3209C169.536 22.6003 170.355 24.3544 170.655 26.3894C170.718 26.8189 170.555 27.0187 170.093 27.0104C168.937 26.9896 167.779 27.034 166.626 26.979C166.385 26.9675 166.013 26.6829 165.948 26.453C165.434 24.6492 164.183 23.8169 162.434 23.4944C161.078 23.2447 159.778 23.3551 158.497 23.8156C157.252 24.2632 156.503 25.152 156.321 26.4754C156.12 27.9324 156.929 28.9426 158.099 29.4441C159.652 30.1101 161.32 30.5167 162.955 30.974C165.012 31.5492 167.013 32.1951 168.695 33.6187C170.108 34.8143 170.852 36.3191 170.973 38.1347C171.256 42.3941 168.77 45.2337 164.627 46.1951C161.453 46.9315 158.279 46.7959 155.221 45.5166C152.801 44.5038 150.747 41.4374 150.781 38.9774C150.788 38.4691 150.927 38.2687 151.452 38.283C152.581 38.3136 153.713 38.2616 154.84 38.3179C155.076 38.3297 155.45 38.6282 155.499 38.8527C155.811 40.2752 156.574 41.2947 157.959 41.902Z" fill="white"/>
<path d="M79.8219 45.415C79.8218 37.1279 79.8316 28.9172 79.8058 20.7066C79.8034 19.9366 79.9494 19.6553 80.7905 19.6694C84.0487 19.7242 87.3086 19.6628 90.5673 19.6992C95.3364 19.7524 98.9216 23.1071 98.9321 28.0872C98.9371 30.449 98.4721 32.5903 96.8991 34.4042C95.5984 35.9043 93.9249 36.8023 92.0021 36.9843C89.8408 37.1889 87.6548 37.1575 85.4793 37.1644C84.7789 37.1666 84.5241 37.3237 84.5392 38.083C84.5879 40.5452 84.5415 43.0092 84.5689 45.4721C84.5754 46.0547 84.4173 46.2725 83.8158 46.2483C82.74 46.2051 81.6601 46.2085 80.5839 46.2473C80.0084 46.268 79.7304 46.0984 79.8219 45.415ZM93.5312 26.0133C92.957 24.7484 91.8946 24.0123 90.614 23.8748C88.7481 23.6746 86.8555 23.7137 84.9739 23.7038C84.8363 23.7031 84.578 24.1303 84.5756 24.3606C84.5476 27.0824 84.5675 29.8046 84.5488 32.5265C84.5453 33.0382 84.703 33.2252 85.2225 33.2156C86.6906 33.1884 88.1612 33.249 89.6276 33.1919C90.9131 33.1418 92.1573 32.7983 92.9821 31.7307C94.3093 30.0131 94.3493 28.0982 93.5312 26.0133Z" fill="white"/>
<path d="M131.711 21.4482C131.711 19.6916 131.711 19.6916 133.361 19.6917C134.123 19.6918 134.887 19.7273 135.647 19.6807C136.263 19.6428 136.461 19.8433 136.456 20.4819C136.429 24.4545 136.443 28.4273 136.443 32.4001C136.443 33.0009 136.443 33.6017 136.443 34.2026C136.506 34.2362 136.57 34.2699 136.633 34.3035C137.222 33.669 137.824 33.0455 138.398 32.3975C139.496 31.1579 140.574 29.8998 141.67 28.6585C142.28 27.9682 142.903 27.289 143.536 26.621C143.693 26.4566 143.913 26.2463 144.107 26.2428C145.776 26.2129 147.446 26.2257 149.311 26.2257C148.759 26.8924 148.351 27.4202 147.907 27.9155C146.274 29.7376 144.627 31.5474 142.989 33.3656C142.655 33.7365 142.291 34.0946 142.035 34.5164C141.906 34.728 141.866 35.158 141.994 35.3393C144.197 38.4549 146.435 41.546 148.661 44.6454C148.995 45.1102 149.308 45.5897 149.75 46.2363C148.454 46.2363 147.327 46.1158 146.236 46.2645C144.591 46.4889 143.669 45.7603 142.829 44.4196C141.516 42.3248 140.007 40.355 138.579 38.3343C138.458 38.1639 138.317 38.0089 138.055 37.6875C137.536 38.2758 137.058 38.7633 136.652 39.3052C136.497 39.5109 136.454 39.8412 136.451 40.1157C136.434 41.9165 136.425 43.7178 136.453 45.5183C136.462 46.0714 136.29 46.2661 135.734 46.2468C134.684 46.2102 133.63 46.1939 132.582 46.2513C131.884 46.2894 131.693 46.0672 131.696 45.3634C131.722 38.9011 131.711 32.4388 131.711 25.9764C131.711 24.4933 131.711 23.0101 131.711 21.4482Z" fill="white"/>
<path d="M208.531 42.1098C210.08 42.9851 211.633 43.1701 213.276 42.602C214.196 42.284 214.859 41.6733 215.341 40.8647C215.581 40.4621 215.798 40.3309 216.283 40.4265C217.048 40.5773 217.84 40.588 218.617 40.6785C219.024 40.7258 219.425 40.8168 219.899 40.9005C219.615 42.3588 219.001 43.5602 217.924 44.4001C214.484 47.0838 210.649 47.2871 206.797 45.6283C203.788 44.3325 202.37 41.6666 201.886 38.4652C201.59 36.5042 201.651 34.561 202.225 32.6705C203.434 28.6809 206.334 26.1895 210.619 26.0453C212.517 25.9814 214.308 26.284 215.98 27.2594C218.182 28.5444 219.323 30.5636 219.84 32.9583C220.098 34.1564 220.056 35.4181 220.193 36.6463C220.275 37.3875 219.952 37.5156 219.293 37.5111C215.353 37.4836 211.413 37.4972 207.473 37.4976C206.426 37.4977 206.297 37.6407 206.486 38.7008C206.731 40.0739 207.311 41.2577 208.531 42.1098ZM207.663 34.319C210.023 34.3189 212.384 34.3202 214.745 34.3182C215.63 34.3174 215.747 34.1676 215.562 33.2949C215.115 31.1883 213.455 29.7393 211.452 29.7082C209.046 29.6709 207.153 31.0303 206.624 33.1769C206.343 34.315 206.343 34.315 207.663 34.319Z" fill="white"/>
<path d="M185.141 44.2791C182.398 47.0915 178.205 47.4368 175.099 45.1296C173.976 44.2954 173.412 43.0663 173.244 41.7517C172.983 39.7175 173.28 37.7681 175.021 36.3727C176.181 35.4434 177.56 35.0175 178.999 34.7999C180.572 34.562 182.153 34.3768 183.73 34.1657C184.573 34.0528 185.36 33.8118 185.611 32.8693C185.835 32.0289 185.196 30.6787 184.398 30.1942C182.731 29.1819 179.613 29.421 178.481 31.6159C178.229 32.1053 177.88 32.1323 177.438 32.062C176.484 31.9106 175.534 31.712 174.575 31.6352C173.927 31.5833 173.831 31.2653 174.074 30.8172C174.535 29.968 174.938 29.0202 175.608 28.3665C177.187 26.8259 179.17 26.1213 181.378 26.0454C183.369 25.977 185.307 26.1401 187.105 27.1048C189.086 28.1673 190.149 29.8911 190.194 32.0869C190.285 36.5583 190.215 41.0329 190.232 45.5061C190.234 46.0413 190.098 46.2699 189.526 46.2473C188.53 46.2078 187.529 46.2027 186.533 46.2486C185.917 46.2771 185.756 46.0305 185.794 45.4607C185.834 44.8628 185.803 44.2601 185.636 43.5934C185.484 43.8079 185.331 44.0224 185.141 44.2791ZM185.208 40.7525C185.753 39.5085 185.707 38.222 185.573 36.8776C184.844 37.0488 184.216 37.2122 183.582 37.3417C182.255 37.6126 180.907 37.799 179.601 38.1482C178.653 38.4016 177.925 39.0244 177.766 40.0983C177.608 41.1625 177.913 42.0413 178.88 42.5849C180.862 43.698 183.941 43.1613 185.208 40.7525Z" fill="white"/>
<path d="M126.864 29.0468C127.618 30.3641 127.906 31.7575 127.916 33.1931C127.945 37.244 127.912 41.2953 127.941 45.3462C127.946 46.0232 127.798 46.299 127.073 46.2518C126.105 46.1888 125.127 46.1901 124.159 46.2512C123.415 46.2981 123.171 46.0787 123.18 45.2959C123.219 41.5365 123.2 37.7764 123.195 34.0165C123.192 31.8069 121.797 30.166 119.955 30.0128C116.913 29.7596 115.353 31.874 115.315 33.7418C115.236 37.5482 115.204 41.3555 115.158 45.1625C115.146 46.2354 115.156 46.2357 114.091 46.2362C113.198 46.2365 112.302 46.1988 111.412 46.2487C110.761 46.2852 110.559 46.075 110.563 45.4069C110.59 40.8793 110.577 36.3515 110.577 31.8238C110.577 30.1822 110.592 28.5404 110.568 26.8991C110.561 26.39 110.715 26.1882 111.24 26.205C112.238 26.2368 113.238 26.2427 114.235 26.203C114.81 26.18 115.042 26.3493 115.008 26.9591C114.962 27.7866 114.997 28.6185 115.092 29.4915C116.394 27.1891 118.298 26.0707 120.883 26.039C123.386 26.0083 125.477 26.7262 126.864 29.0468Z" fill="white"/>
<path d="M194.008 24.3046C194.008 22.9274 194.023 21.6293 194 20.3319C193.992 19.8525 194.155 19.6727 194.637 19.684C195.714 19.7091 196.795 19.7342 197.869 19.6763C198.572 19.6384 198.755 19.8704 198.752 20.5688C198.726 26.9517 198.737 33.3348 198.737 39.7178C198.737 41.6512 198.72 43.5849 198.747 45.518C198.755 46.0706 198.585 46.266 198.029 46.2466C196.979 46.21 195.924 46.1932 194.876 46.2512C194.175 46.29 193.99 46.0611 193.992 45.3606C194.018 38.3685 194.008 31.3763 194.008 24.3046Z" fill="white"/>
<path d="M102.058 35.1116C102.058 32.357 102.077 29.6817 102.045 27.0069C102.037 26.3724 102.232 26.1747 102.853 26.2016C103.902 26.247 104.955 26.2318 106.006 26.2064C106.486 26.1948 106.646 26.3694 106.645 26.851C106.634 33.1017 106.634 39.3525 106.645 45.6033C106.646 46.0898 106.478 46.2548 106.003 46.2437C104.952 46.2189 103.899 46.2024 102.85 46.2489C102.225 46.2766 102.04 46.0712 102.045 45.4412C102.073 42.0246 102.058 38.6078 102.058 35.1116Z" fill="white"/>
<path d="M103.547 18.4398C104.611 18.2156 105.519 18.3716 106.288 19.1052C107.049 19.831 107.115 20.7634 106.878 21.6734C106.636 22.5991 105.954 23.1784 104.982 23.355C103.312 23.6582 102.04 22.8651 101.669 21.2991C101.427 20.2743 102.073 18.9025 103.547 18.4398Z" fill="white"/>
</g>
<defs>
<clipPath id="clip0_1_1833">
<rect width="220" height="65" fill="white" transform="translate(0.5 0.625)"/>
</clipPath>
</defs>
</svg>
