<svg width="48" height="49" viewBox="0 0 48 49" fill="none" xmlns="http://www.w3.org/2000/svg">
<path d="M44 30.0391V10.5391C44 8.88221 42.6569 7.53906 41 7.53906H7C5.34315 7.53906 4 8.88221 4 10.5391V34.5391C4 36.196 5.34315 37.5391 7 37.5391H31" stroke="white" stroke-width="2"/>
<path fill-rule="evenodd" clip-rule="evenodd" d="M38.2471 27.7793C38.3635 27.7793 38.4732 27.8343 38.5427 27.9278C38.5916 27.9936 38.6923 28.0897 38.8594 28.2105C39.0219 28.328 39.2294 28.4561 39.4738 28.5901C39.9625 28.858 40.58 29.1387 41.24 29.3942C42.5745 29.9109 44.0149 30.2982 44.8786 30.2982C45.0821 30.2982 45.2471 30.4632 45.2471 30.6667V37.5039C45.2471 38.2555 44.7756 39.0252 44.1721 39.7179C43.5552 40.4259 42.7381 41.1232 41.9225 41.7369C41.1047 42.3521 40.2767 42.892 39.6296 43.2842C39.306 43.4803 39.0259 43.6407 38.8131 43.7557C38.707 43.8132 38.6155 43.8605 38.5427 43.8957C38.4827 43.9247 38.4031 43.9618 38.3378 43.9784C38.2782 43.9936 38.2159 43.9936 38.1564 43.9784C38.091 43.9618 38.0114 43.9247 37.9514 43.8957C37.8786 43.8605 37.7872 43.8132 37.681 43.7557C37.4683 43.6407 37.1881 43.4803 36.8645 43.2842C36.2174 42.892 35.3894 42.3521 34.5716 41.7369C33.7561 41.1232 32.939 40.4259 32.3221 39.7179C31.7186 39.0252 31.2471 38.2555 31.2471 37.5039V30.6667C31.2471 30.4632 31.412 30.2982 31.6155 30.2982C32.4792 30.2982 33.9196 29.9109 35.2542 29.3942C35.9141 29.1387 36.5317 28.858 37.0203 28.5901C37.2648 28.4561 37.4722 28.328 37.6348 28.2105C37.8018 28.0897 37.9025 27.9936 37.9515 27.9278C38.021 27.8343 38.1306 27.7793 38.2471 27.7793Z" stroke="white" stroke-width="2" stroke-linecap="round" stroke-linejoin="round"/>
<path d="M42.1929 33.9198L42.1839 33.9285L42.1755 33.9377L38.4783 37.9327C38.4485 37.9624 38.4133 37.9861 38.3746 38.0024C38.3344 38.0194 38.2912 38.0281 38.2475 38.0281C38.1565 38.028 38.0693 37.9918 38.005 37.9274L37.9962 37.9186L37.987 37.9102L35.7566 35.8895C35.7522 35.8845 35.7487 35.8788 35.7461 35.8727C35.7429 35.865 35.7412 35.8568 35.7412 35.8486C35.7412 35.8403 35.7429 35.8321 35.7461 35.8245C35.7493 35.8168 35.754 35.8099 35.7599 35.8042L35.7628 35.8013C35.7745 35.7897 35.7902 35.7832 35.8066 35.7832C35.823 35.7832 35.8387 35.7897 35.8504 35.8013L35.8596 35.8104L35.8693 35.8191L37.9135 37.6498L38.281 37.9789L38.615 37.6159L42.1046 33.8233C42.1095 33.8192 42.115 33.8158 42.121 33.8133C42.1285 33.8102 42.1366 33.8086 42.1447 33.8086C42.1529 33.8086 42.161 33.8102 42.1685 33.8133C42.1761 33.8165 42.1829 33.821 42.1887 33.8268L42.1929 33.831C42.1988 33.8367 42.2035 33.8437 42.2067 33.8513C42.2099 33.8589 42.2115 33.8671 42.2115 33.8754C42.2115 33.8837 42.2099 33.8918 42.2067 33.8995C42.2035 33.9071 42.1988 33.914 42.1929 33.9198Z" fill="white" stroke="white"/>
<path d="M4 15.0391H44" stroke="white"/>
<path d="M4 21.0391H44" stroke="white"/>
</svg>
