<svg width="19" height="20" viewBox="0 0 19 20" fill="none" xmlns="http://www.w3.org/2000/svg">
<g clip-path="url(#clip0_634_2320)">
<path fill-rule="evenodd" clip-rule="evenodd" d="M13.7414 0.582031H5.95408C2.90206 0.582031 0.865234 2.76722 0.865234 5.89635V13.2336C0.865234 16.3656 2.89662 18.5479 5.95408 18.5479H13.7405C16.7989 18.5479 18.8312 16.3656 18.8312 13.2336V5.89635C18.8312 2.76444 16.799 0.582031 13.7414 0.582031ZM5.95401 1.92957H13.7414C16.0325 1.92957 17.4837 3.48808 17.4837 5.89644V13.2337C17.4837 15.6421 16.0323 17.2006 13.7405 17.2006H5.95401C3.66315 17.2006 2.21262 15.6423 2.21262 13.2337V5.89644C2.21262 3.49114 3.66816 1.92957 5.95401 1.92957ZM13.522 6.9571C13.2589 6.69399 12.8323 6.69399 12.5692 6.9571L8.78145 10.7435L7.12599 9.08865L7.05042 9.02344C6.78663 8.82779 6.41234 8.84962 6.17321 9.08885C5.91016 9.35201 5.91025 9.77859 6.17341 10.0416L8.30596 12.1732L8.38153 12.2385C8.64528 12.4341 9.0195 12.4123 9.25865 12.1731L13.522 7.90988L13.5872 7.83432C13.7829 7.57057 13.7612 7.19628 13.522 6.9571Z" fill="white"/>
</g>
<defs>
<clipPath id="clip0_634_2320">
<rect width="19" height="19" fill="white" transform="translate(0 0.210938)"/>
</clipPath>
</defs>
</svg>
