<svg width="12" height="13" viewBox="0 0 12 13" fill="none" xmlns="http://www.w3.org/2000/svg">
<path d="M11.318 2.13072L11.3178 2.13087L4.97777 11.1297L4.97737 11.1302C4.80442 11.3765 4.53354 11.5275 4.26626 11.5492C4.2206 11.5528 4.20817 11.5537 4.19888 11.5542C4.19267 11.5545 4.18797 11.5546 4.15699 11.5549C3.89176 11.5544 3.63782 11.4487 3.45308 11.2629L3.45214 11.262L0.794029 8.60389L0.793575 8.60344C0.402342 8.21321 0.40212 7.57969 0.79304 7.18877C1.18335 6.79846 1.81686 6.79846 2.20717 7.18877L3.60604 8.58765L4.02615 9.00775L4.36833 8.52207L9.68151 0.98085L9.68213 0.979967C9.99957 0.527332 10.6243 0.418849 11.0764 0.737794L11.0764 0.737826C11.5277 1.0561 11.6358 1.68 11.318 2.13072Z" fill="white" stroke="#1F1F1F"/>
</svg>
