<svg width="30" height="21" viewBox="0 0 30 21" fill="none" xmlns="http://www.w3.org/2000/svg">
<path d="M27.9984 0.115873C27.8444 0.178862 24.5969 3.37734 19.1518 8.82945C14.4206 13.5607 10.5152 17.424 10.4872 17.417C10.4522 17.403 8.42958 15.4224 5.98698 13.0078C1.02479 8.10157 1.26975 8.30453 0.646853 8.61948C0.387895 8.75246 0.275914 8.86444 0.142935 9.1234C-0.179012 9.76729 -0.430971 9.46634 4.98614 14.8975C8.42258 18.3339 9.92033 19.7897 10.1303 19.8946C10.7252 20.1816 10.6342 20.2516 14.2946 16.6052C16.1003 14.8065 20.2016 10.6911 23.4071 7.45767C29.9161 0.885747 29.5661 1.29168 29.2442 0.654784C29.1182 0.402826 28.9922 0.276846 28.7612 0.157866C28.4043 -0.0241045 28.3203 -0.0241045 27.9984 0.115873Z" fill="black"/>
</svg>
