<svg width="170" height="39" viewBox="0 0 170 39" fill="none" xmlns="http://www.w3.org/2000/svg">
<g clip-path="url(#clip0_5156_9573)">
<path fill-rule="evenodd" clip-rule="evenodd" d="M131.185 27.8027C129.647 31.0765 127.067 33.8802 123.76 35.8692C120.453 37.8582 116.564 38.9459 112.57 38.9986C108.576 39.0513 104.652 38.0667 101.28 36.1658C97.9083 34.265 95.235 31.5306 93.5889 28.2988C91.0551 23.3816 91.0507 15.6507 93.5889 10.7295C95.2295 7.49193 97.9004 4.75104 101.273 2.84428C104.645 0.937516 108.571 -0.0518854 112.569 -0.00211692C116.566 0.0476515 120.46 1.13441 123.771 3.12438C127.081 5.11434 129.665 7.92065 131.203 11.1978L131.314 11.428H126.908L126.854 11.3407C125.507 9.08261 123.518 7.17693 121.084 5.81304C118.651 4.44916 115.858 3.67456 112.983 3.56622C110.108 3.45788 107.251 4.01957 104.696 5.19547C102.141 6.37137 99.9775 8.12054 98.4197 10.2692C94.7776 15.2498 94.7776 23.7626 98.4197 28.7274C99.9772 30.8762 102.141 32.6256 104.695 33.8019C107.25 34.9781 110.107 35.5402 112.982 35.4323C115.857 35.3243 118.65 34.5501 121.083 33.1866C123.517 31.8231 125.507 29.9177 126.854 27.6598L126.908 27.5725H131.314L131.185 27.8027ZM82.3544 34.2121V0.518188H86.3763V38.4824H80.8976L53.6381 5.07024V38.4824H49.6162V0.518188H54.8491L82.3544 34.2121ZM150.57 16.7222L164.468 0.514216H169.5L153.086 19.659L169.227 38.4824H164.2L150.57 22.6077L136.945 38.4824H132.029L148.041 19.6551L131.632 0.518188H136.663L150.57 16.7222Z" fill="white"/>
<path fill-rule="evenodd" clip-rule="evenodd" d="M41.9693 39V0H43.3133V39H41.9693ZM41.9693 39L40.558 0H39.2139L40.6207 39H41.9693ZM40.6252 39L37.8026 0H36.4585L39.2811 39H40.6252ZM39.2453 39L34.998 0H33.6539L37.8833 39H39.2453ZM37.8564 39L32.2202 0H30.8761L36.5078 39H37.8564ZM36.4809 39L29.4245 0H28.0581L35.1145 39H36.4809ZM35.101 39L26.5885 0H25.2086L33.7211 39H35.101ZM33.7077 39L23.7077 0H22.3188L32.2785 39H33.7077ZM32.3053 39L20.8762 0H19.4739L30.903 39H32.3053ZM30.8851 39L17.973 0H16.5528L29.4201 39H30.8851ZM0.5 0V39H1.84408V0H0.5ZM1.84408 0L3.34944 39H4.69352L3.18815 0H1.84408ZM3.18815 0L6.21233 39H7.5564L4.53223 0H3.18815ZM4.55463 0L9.00801 39H10.3521L5.87631 0H4.55463ZM5.93455 0L11.9695 39H13.3135L7.27415 0H5.93455ZM7.27863 0L14.7607 39H16.1316L8.64959 0H7.27863ZM8.62271 0L17.7445 39H19.1289L10.0071 0H8.62271ZM10.0026 0L20.8896 39H22.2875L11.4005 0H10.0026ZM11.387 0L23.869 39H25.2848L12.8207 0H11.387ZM12.8117 0L18.4748 14.571L27.8833 38.7839L27.964 39H29.4111L29.2991 38.7146L19.8906 14.4976L14.2633 0H12.8117Z" fill="url(#paint0_linear_5156_9573)"/>
</g>
<defs>
<linearGradient id="paint0_linear_5156_9573" x1="21.8887" y1="39.1835" x2="21.8887" y2="-5.81779" gradientUnits="userSpaceOnUse">
<stop stop-color="#5ED3F0"/>
<stop offset="1" stop-color="#22B4FB"/>
</linearGradient>
<clipPath id="clip0_5156_9573">
<rect width="169" height="39" fill="white" transform="translate(0.5)"/>
</clipPath>
</defs>
</svg>
