<svg width="150" height="49" viewBox="0 0 150 49" fill="none" xmlns="http://www.w3.org/2000/svg">
<g clip-path="url(#clip0_1829_4004)">
<path d="M23.8997 48.7565C37.0992 48.7565 47.7995 38.0562 47.7995 24.8568C47.7995 11.6573 37.0992 0.957031 23.8997 0.957031C10.7003 0.957031 0 11.6573 0 24.8568C0 38.0562 10.7003 48.7565 23.8997 48.7565Z" fill="url(#paint0_linear_1829_4004)"/>
<path d="M38.9914 23.395L32.2409 16.6444L32.2286 16.6322L32.2019 16.6088C32.1582 16.5693 32.1125 16.5321 32.0649 16.4974C32.0315 16.4707 31.9981 16.4451 31.9625 16.4217C31.9469 16.4106 31.9313 16.4016 31.9146 16.3916C31.5298 16.1396 31.0642 16.0414 30.6103 16.1167C30.1565 16.192 29.7476 16.4353 29.4647 16.7981L18.9658 27.2981V17.944C18.9658 17.4522 18.7705 16.9806 18.4228 16.6329C18.0751 16.2852 17.6035 16.0898 17.1117 16.0898C16.62 16.0898 16.1484 16.2852 15.8007 16.6329C15.453 16.9806 15.2576 17.4522 15.2576 17.944V27.2981L11.4247 23.4651C11.0743 23.131 10.6072 22.9472 10.1231 22.953C9.63902 22.9587 9.17639 23.1536 8.83407 23.4959C8.49176 23.8382 8.2969 24.3009 8.29115 24.7849C8.28539 25.269 8.46919 25.7361 8.80327 26.0865L15.801 33.0842C15.845 33.1288 15.8915 33.1708 15.9402 33.2101C15.987 33.2479 16.036 33.2847 16.085 33.3214C16.3378 33.4853 16.6268 33.585 16.9269 33.6121H16.9347C16.9948 33.6177 17.0549 33.621 17.1151 33.621H17.1429C17.1934 33.621 17.2435 33.6188 17.2932 33.6143H17.33C17.3779 33.6087 17.4258 33.6032 17.4725 33.5932H17.4937C17.546 33.582 17.5984 33.5698 17.6496 33.5542H17.6585C17.7144 33.5373 17.7694 33.5176 17.8233 33.4952C17.9001 33.4634 17.9745 33.4262 18.046 33.3838L18.0883 33.3593C18.1584 33.3165 18.2254 33.2689 18.2888 33.2168L18.3077 33.2001C18.3467 33.1667 18.3857 33.1332 18.4191 33.0954L29.0649 22.4428V31.768C29.0649 32.2597 29.2603 32.7313 29.608 33.0791C29.9557 33.4268 30.4273 33.6221 30.9191 33.6221C31.4108 33.6221 31.8824 33.4268 32.2301 33.0791C32.5778 32.7313 32.7732 32.2597 32.7732 31.768V22.4139L36.3701 26.0174C36.7192 26.3583 37.1887 26.5477 37.6766 26.5447C38.1645 26.5417 38.6316 26.3465 38.9765 26.0014C39.3215 25.6563 39.5165 25.1892 39.5193 24.7013C39.5221 24.2133 39.3324 23.744 38.9914 23.395Z" fill="white"/>
<path d="M56.1484 19.2772H61.6496V33.6469H64.9447V19.2772H70.4458V16.1992H56.1484V19.2772Z" fill="white"/>
<path d="M77.6672 20.5317C77.277 20.5588 76.891 20.6279 76.5157 20.7377C76.1543 20.8429 75.8083 20.9953 75.4867 21.191C75.0823 21.4271 74.7281 21.7404 74.4444 22.113C74.3106 22.2899 74.1893 22.476 74.0814 22.6698V20.5618H71.1738V33.6475H74.499V26.9593C74.4902 26.5004 74.5575 26.0432 74.6983 25.6063C74.8258 25.2197 75.033 24.8641 75.3066 24.5626C75.5801 24.261 75.9139 24.0202 76.2863 23.8558C76.6956 23.6642 77.1371 23.5509 77.5881 23.5217C78.0138 23.4795 78.4436 23.5173 78.8554 23.6331V20.5618C78.4612 20.5129 78.0632 20.5028 77.6672 20.5317Z" fill="white"/>
<path d="M91.3593 22.5745C90.9306 21.7311 90.2058 21.0757 89.3237 20.7337C88.4276 20.3774 87.4016 20.1992 86.2457 20.1992C84.6711 20.1992 83.4272 20.5389 82.5141 21.2181C81.6194 21.8702 80.964 22.7983 80.6488 23.8596L83.6288 24.8039C83.8396 24.2055 84.2071 23.7898 84.7312 23.5567C85.2055 23.3335 85.7217 23.2136 86.2457 23.2048C87.1188 23.2048 87.7409 23.3867 88.1121 23.7504C88.4027 24.0344 88.5765 24.4498 88.6388 24.9865C88.082 25.07 87.5531 25.1491 87.0575 25.2215C86.2105 25.347 85.4514 25.4784 84.7802 25.6157C84.192 25.7309 83.6129 25.8887 83.0475 26.0879C82.4306 26.2984 81.8606 26.6271 81.3693 27.0556C80.9666 27.4195 80.6569 27.8747 80.4662 28.3829C80.2756 28.9151 80.1813 29.477 80.1878 30.0422C80.1801 30.739 80.3535 31.4259 80.6911 32.0355C81.0352 32.6494 81.548 33.1518 82.1689 33.4832C82.8192 33.8432 83.6128 34.0229 84.5497 34.0221C85.6811 34.0221 86.6162 33.8262 87.3548 33.4342C87.9893 33.0805 88.5505 32.6093 89.0085 32.0455V33.6591H91.8927V25.6513C91.8953 25.1096 91.8708 24.5681 91.8192 24.0288C91.7632 23.5185 91.6069 23.0243 91.3593 22.5745ZM88.2814 29.6747C88.1455 29.9262 87.9766 30.1584 87.7791 30.3651C87.4955 30.6679 87.1588 30.9162 86.7858 31.0979C86.3076 31.3257 85.7818 31.4357 85.2524 31.4186C84.9175 31.4269 84.5841 31.3694 84.2713 31.2493C84.016 31.1518 83.7949 30.9814 83.6355 30.7593C83.4824 30.5325 83.4045 30.2634 83.4128 29.9899C83.41 29.7835 83.4582 29.5796 83.5531 29.3963C83.6598 29.2022 83.8086 29.0344 83.9885 28.9052C84.2291 28.7328 84.4912 28.5925 84.768 28.4876C85.0889 28.3711 85.4165 28.2741 85.7491 28.197C86.1203 28.1079 86.6091 28.0088 87.2157 27.8997C87.6021 27.8306 88.0742 27.7482 88.6132 27.6569C88.6065 27.8896 88.5965 28.1402 88.5787 28.4364C88.5609 28.8646 88.4599 29.2852 88.2814 29.6747Z" fill="white"/>
<path d="M106.975 23.683C106.815 23.0871 106.555 22.5224 106.207 22.0126C105.819 21.4559 105.301 21.0025 104.698 20.6919C104.052 20.3452 103.216 20.1719 102.19 20.1719C100.906 20.1719 99.8416 20.4503 98.9975 21.0071C98.6104 21.2629 98.2582 21.568 97.9496 21.9146V20.5627H95.0176V33.6485H98.3583V27.0093C98.3583 26.1926 98.4489 25.5382 98.63 25.046C98.8112 24.5538 99.0451 24.1804 99.3316 23.9258C99.5898 23.6849 99.9011 23.5082 100.24 23.4102C100.536 23.325 100.841 23.2801 101.149 23.2765C101.851 23.2765 102.394 23.4343 102.778 23.7498C103.158 24.0578 103.445 24.4642 103.609 24.9246C103.774 25.3749 103.876 25.846 103.912 26.3244C103.944 26.7884 103.96 27.17 103.96 27.4692V33.6485H107.3V26.3055C107.3 26.0828 107.285 25.7409 107.253 25.2632C107.211 24.7288 107.118 24.1997 106.975 23.683Z" fill="white"/>
<path d="M119.317 26.721C118.714 26.3795 117.916 26.0788 116.924 25.819C115.906 25.5606 115.149 25.3505 114.652 25.1887C114.155 25.0269 113.828 24.8695 113.671 24.7165C113.594 24.6433 113.533 24.5548 113.492 24.4566C113.451 24.3584 113.431 24.2527 113.434 24.1464C113.434 23.7666 113.617 23.4782 113.985 23.2744C114.352 23.0707 114.84 22.9927 115.445 23.0328C116.067 23.0811 116.56 23.2466 116.924 23.5295C117.102 23.6676 117.251 23.8411 117.359 24.0393C117.468 24.2374 117.534 24.4559 117.554 24.6809L120.923 24.074C120.823 23.3154 120.51 22.6008 120.019 22.0139C119.502 21.4122 118.841 20.9501 118.098 20.6698C117.228 20.3404 116.303 20.1798 115.372 20.1965C114.315 20.1965 113.396 20.3643 112.616 20.6998C111.887 20.9944 111.258 21.4913 110.802 22.1319C110.367 22.7767 110.142 23.5411 110.161 24.319C110.143 24.9181 110.289 25.5108 110.584 26.0328C110.867 26.5064 111.328 26.9125 111.966 27.2511C112.604 27.5896 113.458 27.8966 114.527 28.172C115.472 28.4229 116.168 28.6248 116.616 28.7778C117.062 28.9314 117.354 29.0862 117.483 29.2444C117.619 29.4228 117.687 29.6438 117.676 29.868C117.684 30.0564 117.643 30.2437 117.559 30.4121C117.474 30.5806 117.348 30.7248 117.192 30.8312C116.867 31.0606 116.407 31.1753 115.813 31.1753C115.086 31.1753 114.486 31.0016 114.014 30.6542C113.538 30.3033 113.212 29.7866 113.1 29.2065L109.727 29.7277C109.945 31.0929 110.561 32.1493 111.574 32.8969C112.587 33.6445 113.918 34.0179 115.566 34.0172C117.279 34.0172 118.62 33.6334 119.588 32.8657C120.557 32.0981 121.044 31.0424 121.047 29.6987C121.065 29.0928 120.923 28.4929 120.635 27.9593C120.358 27.4797 119.919 27.0669 119.317 26.721Z" fill="white"/>
<path d="M134.152 22.5745C133.723 21.7313 132.999 21.076 132.117 20.7337C131.22 20.3774 130.194 20.1992 129.039 20.1992C127.464 20.1992 126.22 20.5389 125.307 21.2181C124.412 21.8704 123.757 22.7984 123.441 23.8596L126.422 24.8039C126.633 24.2055 127 23.7898 127.524 23.5567C127.999 23.3335 128.515 23.2136 129.039 23.2048C129.912 23.2048 130.534 23.3867 130.905 23.7504C131.196 24.0344 131.368 24.4498 131.432 24.9865C130.875 25.07 130.346 25.1491 129.851 25.2215C129.003 25.347 128.244 25.4784 127.573 25.6157C126.985 25.7309 126.406 25.8887 125.841 26.0879C125.138 26.3477 124.579 26.6688 124.162 27.0511C123.76 27.4151 123.45 27.8703 123.259 28.3785C123.068 28.9105 122.974 29.4725 122.981 30.0377C122.973 30.7346 123.147 31.4214 123.484 32.0311C123.828 32.6452 124.341 33.1476 124.962 33.4787C125.612 33.8388 126.406 34.0184 127.343 34.0177C128.474 34.0177 129.409 33.8217 130.148 33.4297C130.782 33.0761 131.344 32.6048 131.802 32.0411V33.6547H134.686V25.6513C134.688 25.1096 134.664 24.5681 134.612 24.0288C134.556 23.5185 134.4 23.0243 134.152 22.5745ZM131.074 29.6747C130.939 29.9262 130.77 30.1584 130.572 30.3651C130.288 30.6679 129.952 30.9162 129.579 31.0979C129.101 31.3257 128.575 31.4357 128.045 31.4186C127.71 31.4269 127.377 31.3694 127.064 31.2493C126.809 31.1518 126.588 30.9814 126.428 30.7593C126.275 30.5325 126.198 30.2634 126.206 29.9899C126.203 29.7835 126.251 29.5796 126.346 29.3963C126.452 29.202 126.601 29.0341 126.781 28.9052C127.022 28.7328 127.284 28.5925 127.561 28.4876C127.882 28.371 128.209 28.2739 128.542 28.197C128.913 28.1079 129.402 28.0088 130.009 27.8997C130.395 27.8306 130.867 27.7482 131.406 27.6569C131.4 27.8896 131.388 28.1402 131.372 28.4364C131.353 28.8644 131.252 29.2848 131.074 29.6747Z" fill="white"/>
<path d="M144.96 27.1034L149.685 20.5611H145.613L141.179 26.8618V16.1992H137.835L137.811 33.6469H141.179V27.3462L145.71 33.6469H150L144.96 27.1034Z" fill="white"/>
</g>
<defs>
<linearGradient id="paint0_linear_1829_4004" x1="3.19821" y1="12.9047" x2="44.6013" y2="36.8077" gradientUnits="userSpaceOnUse">
<stop offset="0.13" stop-color="#348BED"/>
<stop offset="0.31" stop-color="#2B80E8"/>
<stop offset="0.64" stop-color="#1461DB"/>
<stop offset="0.72" stop-color="#0E57D7"/>
</linearGradient>
<clipPath id="clip0_1829_4004">
<rect width="150" height="47.7995" fill="white" transform="translate(0 0.957031)"/>
</clipPath>
</defs>
</svg>
