<svg width="49" height="49" viewBox="0 0 49 49" fill="none" xmlns="http://www.w3.org/2000/svg">
<path fill-rule="evenodd" clip-rule="evenodd" d="M5.59566 30.4142C5.27757 30.7323 5.15261 31.1955 5.26757 31.6304C5.38253 32.0653 5.72007 32.4063 6.1538 32.5257L14.5606 34.8393L14.5689 34.8415L14.5711 34.8498L16.8847 43.2566C17.0041 43.6903 17.3451 44.0279 17.78 44.1428C18.2149 44.2578 18.6781 44.1328 18.9962 43.8147L22.2032 40.6078C22.5245 40.2864 22.6485 39.8173 22.528 39.3792L21.1806 34.4834L39.6843 15.9797C40.1707 15.4933 40.5973 14.9506 40.9551 14.363L43.1516 10.7559C43.9368 9.46647 43.738 7.8073 42.6705 6.73982C41.6031 5.67234 39.9439 5.4736 38.6545 6.25876L35.0474 8.45527C34.4598 8.81305 33.9171 9.23968 33.4307 9.72611L14.927 28.2298L10.0312 26.8825C9.5931 26.7619 9.12396 26.8859 8.80264 27.2072L5.59566 30.4142Z" stroke="white" stroke-width="2" stroke-linejoin="round"/>
<path d="M24.5839 13.8429L10.1283 7.95095C9.75567 7.79907 9.32829 7.88533 9.04375 8.16987L7.07224 10.1414C6.62255 10.591 6.70134 11.3407 7.2347 11.6871L19.0601 19.3667" stroke="white" stroke-linecap="round"/>
<path d="M42.3732 39.894C42.6665 39.6006 42.7483 39.1566 42.5787 38.778L34.6507 21.0801L28.9395 26.7914L38.7599 41.8036C39.1073 42.3347 39.8551 42.412 40.3038 41.9633L42.3732 39.894Z" stroke="white" stroke-width="2"/>
</svg>
