<svg width="100" height="23" viewBox="0 0 100 23" fill="none" xmlns="http://www.w3.org/2000/svg">
<path d="M44.0832 0.353313C38.6424 1.19719 34.8672 5.63863 34.8672 11.2126C34.8672 14.3217 35.8221 16.6312 37.9762 18.7853C40.1747 20.9838 42.5731 21.9387 45.8598 21.9609C48.2137 21.9609 49.9903 21.5168 51.7669 20.4508C56.6525 17.4751 58.3846 11.5235 55.9196 6.19381C54.6538 3.46232 50.9008 0.819664 47.6363 0.353313C45.9042 0.109034 45.6599 0.109034 44.0832 0.353313ZM47.9917 4.48386C51.0118 5.37214 52.855 7.94818 52.855 11.2571C52.855 13.9219 51.2339 16.3647 48.7467 17.4973C47.2366 18.1635 44.5495 18.1857 43.0394 17.5195C37.3322 14.9657 37.6653 6.59354 43.5724 4.55048C45.0381 4.03971 46.4149 4.0175 47.9917 4.48386Z" fill="white"/>
<path d="M86.4759 0.469484C82.5897 1.31336 79.4584 4.24471 78.2593 8.10877C77.7929 9.61886 77.8373 12.8389 78.3481 14.46C79.7693 19.0347 84.0109 21.9883 89.163 21.9883C92.5163 21.9883 94.6038 21.2554 96.7579 19.3678C98.6899 17.6579 99.5782 15.6148 99.8447 12.2393L100 10.3517L94.5816 10.3961L89.163 10.4627L89.0964 12.1727L89.0298 13.9049H92.2498C94.0264 13.9049 95.5143 13.9937 95.5809 14.1047C95.6475 14.1935 95.4032 14.7487 95.0479 15.3261C92.3608 19.5233 84.6771 18.7682 82.5897 14.0825C81.8124 12.3281 81.8568 9.55224 82.6563 8.01994C83.4113 6.59868 84.6549 5.39949 86.054 4.75548C86.9201 4.37795 87.5863 4.26692 89.052 4.26692C91.3171 4.24471 92.7384 4.77769 94.0486 6.13233L94.9147 7.02061L96.3581 6.22115C98.6011 4.99976 98.5789 5.06638 97.2686 3.6007C95.3144 1.49102 91.8501 0.114168 88.6078 0.158583C88.1859 0.158583 87.231 0.314034 86.4759 0.469484Z" fill="white"/>
<path d="M0 7.72889C0 11.9483 0.111036 15.4348 0.244279 16.2787C0.777253 19.2766 3.24225 21.4307 6.72879 21.8971C10.7927 22.4745 14.4347 20.8311 15.7893 17.8554C16.3223 16.7006 16.3223 16.5674 16.3889 8.61718L16.4555 0.578167H14.3459H12.2362L12.1696 8.28407C12.1029 15.6125 12.0807 16.0344 11.6588 16.6118C10.8815 17.6333 10.0377 17.9886 8.32771 17.9886C6.39568 18.0108 5.35194 17.5445 4.70793 16.3675C4.24158 15.5236 4.21937 15.2793 4.21937 8.03979V0.578167H2.10969H0V7.72889Z" fill="white"/>
<path d="M18.7453 0.871523C18.6786 1.04918 18.6564 1.91526 18.7008 2.82576L18.7675 4.46909L21.61 4.53572L24.4303 4.60234V13.1299V21.6797H26.54H28.6497V13.1299V4.58013H31.5366H34.4236V2.58148V0.582829H26.651C20.3442 0.582829 18.8341 0.64945 18.7453 0.871523Z" fill="white"/>
<path d="M60.1816 11.1064V21.6992L62.2469 21.6326L64.29 21.566L64.3566 17.9462L64.401 14.3486H66.0443H67.6655L69.5753 17.6353C72.218 22.1656 71.7072 21.6992 74.2388 21.6326L76.3929 21.566L74.6385 18.6346C73.6614 17.0135 72.6177 15.2591 72.2846 14.7039L71.7072 13.7046L72.329 13.3937C75.3936 11.7948 76.6816 7.50881 75.0605 4.37759C74.4831 3.22281 72.9064 1.80155 71.6184 1.20196C70.5746 0.735603 70.1527 0.691189 65.3559 0.624567L60.1816 0.535738V11.1064ZM69.9306 4.75511C71.1076 5.3325 71.5962 6.17637 71.5962 7.53101C71.5962 8.37489 71.4629 8.88565 71.1076 9.39642C70.3303 10.5068 69.4198 10.7955 66.755 10.7955H64.401V7.57543V4.35538H66.7994C68.6204 4.35538 69.3532 4.44421 69.9306 4.75511Z" fill="white"/>
</svg>
