<svg width="40" height="40" viewBox="0 0 40 40" fill="none" xmlns="http://www.w3.org/2000/svg">
<path d="M19.4569 10.0256C17.4114 10.2255 15.5992 11.2462 14.4619 12.8293C14.1578 13.2542 13.7579 14.0249 13.5621 14.5623C13.3038 15.2747 13.1163 16.5578 13.1705 17.2743C13.2455 18.3158 13.4621 19.1032 13.9454 20.0822C14.2161 20.6362 14.3786 20.8862 14.9743 21.661C15.3409 22.1401 15.995 23.1774 16.2283 23.6399C16.2783 23.7398 16.3824 24.0106 16.4657 24.2439C16.6449 24.7647 16.7199 24.873 16.9573 24.9646C17.4031 25.1313 17.8155 24.7938 17.7572 24.2981C17.7322 24.0565 17.4697 23.3774 17.1865 22.8108C16.8782 22.1901 16.4949 21.5777 16.1033 21.0778C14.8494 19.4823 14.4244 18.4324 14.4203 16.8994C14.4161 16.0329 14.5161 15.4871 14.8244 14.7123C15.1785 13.8041 15.9075 12.8834 16.749 12.271C17.3281 11.8503 18.2071 11.492 19.0195 11.3379C19.4986 11.2462 20.4401 11.2337 20.8941 11.3129C22.6647 11.6211 24.1644 12.7418 24.9976 14.379C25.4059 15.183 25.5767 15.9121 25.5767 16.8785C25.5767 18.3783 25.1226 19.5489 23.9978 20.9403C23.2979 21.8069 22.7105 22.8608 22.3647 23.869C22.1523 24.498 22.1939 24.7605 22.5272 24.9563C22.7355 25.0771 22.7646 25.0813 22.9938 25.0188C23.2187 24.9563 23.3229 24.823 23.4562 24.4314C23.752 23.544 24.3852 22.4401 25.1642 21.4611C25.6266 20.882 25.7641 20.6696 26.0599 20.0697C26.5432 19.0865 26.7598 18.2866 26.8306 17.2327C26.8764 16.5244 26.7306 15.4455 26.4932 14.7331C25.8058 12.6876 24.3102 11.1379 22.3022 10.3963C21.4774 10.0922 20.3067 9.9381 19.4569 10.0256Z" fill="white"/>
<path d="M19.4982 12.5239C18.8192 12.6114 18.0485 12.903 17.5444 13.2613C17.2403 13.4779 16.6695 14.0445 16.4612 14.3361C16.1196 14.8069 15.8322 15.4776 15.7322 16.0233C15.5739 16.9107 15.678 17.3273 16.103 17.4397C16.3696 17.5106 16.682 17.3981 16.7903 17.1898C16.8278 17.119 16.882 16.8607 16.9153 16.6065C17.0695 15.4401 17.561 14.6736 18.4776 14.1778C18.8525 13.9737 19.1899 13.8695 19.6982 13.7987C19.9356 13.7654 20.1856 13.7029 20.2564 13.6654C20.4522 13.5488 20.5772 13.3405 20.5772 13.1155C20.573 12.6114 20.2439 12.4323 19.4982 12.5239Z" fill="white"/>
<path d="M17.2903 26.2923C16.9695 26.409 16.8945 26.6006 16.8945 27.3421C16.8945 28.1045 16.9195 28.1878 17.4069 28.9044C17.8444 29.5542 18.0402 29.7625 18.3526 29.9125C18.5317 29.9958 18.5942 30 19.9773 30C21.5812 30 21.6062 29.9958 21.9645 29.7001C22.1894 29.5209 22.831 28.5919 22.9726 28.2545C23.0601 28.0378 23.0768 27.917 23.0934 27.4255C23.1101 26.8714 23.1059 26.8464 22.9976 26.6256C22.806 26.2257 22.9976 26.2507 20.0398 26.2423C17.886 26.234 17.4278 26.2423 17.2903 26.2923ZM21.8478 27.6546C21.8478 27.7546 21.7562 27.9295 21.5271 28.2711L21.2063 28.7502L20.0107 28.7627L18.815 28.771L18.4776 28.2711C18.2443 27.9212 18.1443 27.7379 18.1443 27.6462V27.5213H19.9982H21.852L21.8478 27.6546Z" fill="white"/>
<rect x="0.5" y="0.5" width="39" height="39" rx="19.5" stroke="white"/>
</svg>
