<svg width="135" height="46" viewBox="0 0 135 46" fill="none" xmlns="http://www.w3.org/2000/svg">
<path fill-rule="evenodd" clip-rule="evenodd" d="M75.4219 38.2925C79.5397 38.8719 82.0472 38.1175 83.9895 36.1771C85.2091 34.9595 86.136 33.5333 86.9544 32.0347C90.268 25.9707 98.2408 11.3203 98.2408 11.3203H92.4971L86.5255 23.3217L84.6619 11.3203H78.5579V11.5994C78.5579 11.5994 80.6242 22.5867 81.6848 28.2173C81.8431 29.0563 82.0065 31.2157 80.4886 32.6122C79.6392 33.3931 78.4125 34.0423 76.2997 33.6967L75.4219 38.2925Z" fill="white"/>
<path fill-rule="evenodd" clip-rule="evenodd" d="M70.8453 11.3203L65.2928 23.9218L65.1423 23.9089L64.3904 11.6323H58.3432L52.4484 23.9231L52.2979 23.8721L52.0454 11.3203H46.2578L47.4095 31.4508H53.6725L59.7404 18.3158L59.8831 18.3403L60.8449 31.4495H67.1486L76.2666 11.3203H70.8453Z" fill="white"/>
<path fill-rule="evenodd" clip-rule="evenodd" d="M104.317 31.4512H98.2402C99.5941 24.6631 100.887 18.103 102.24 11.3201H106.952V15.0239C107.582 13.4936 108.443 12.0687 109.903 11.4434C111.335 10.8298 113.548 10.8621 115.805 11.5552C114.916 13.2766 114.239 14.8081 113.276 16.6716C112.408 16.4998 111.627 16.2802 110.832 16.2014C109.046 16.0238 107.749 16.7362 107.139 18.4299C106.714 19.6126 106.449 20.865 106.192 22.1007C105.547 25.1967 104.948 28.3004 104.317 31.4512Z" fill="white"/>
<path fill-rule="evenodd" clip-rule="evenodd" d="M123.745 16.1083C124.614 15.0522 126.178 14.4683 127.34 14.8319C128.756 15.2757 129.221 16.846 128.215 17.9421C127.873 18.3142 127.397 18.6223 126.922 18.8006C125.46 19.3496 123.947 19.3328 122.356 19.0589C122.625 17.8917 123.051 16.9513 123.745 16.1083ZM131.523 26.4478C131.523 26.4478 131.472 26.4471 131.319 26.4471C128.993 27.3398 126.411 27.5736 124.631 27.0692C122.665 26.5117 121.531 24.8006 121.888 22.868C127.748 23.3609 130.236 22.2453 131.571 21.4469C135.188 19.2837 136.108 13.4936 131.388 11.7793C127.241 10.273 121.464 10.9893 118.735 14.2952C116.248 17.3078 115.519 20.6208 115.9 24.3084C116.186 27.0827 118.088 31.0597 124.305 31.6805C128.064 32.0558 130.47 31.0901 130.645 31.0177L131.523 26.4478Z" fill="white"/>
<path fill-rule="evenodd" clip-rule="evenodd" d="M23.2767 22.5039H37.0958L29.6404 40.7147C28.6082 43.2364 26.1537 44.8842 23.4285 44.8842H9.60938L17.0647 26.6734C18.0969 24.1517 20.5515 22.5039 23.2767 22.5039Z" fill="#94C5FF"/>
<path fill-rule="evenodd" clip-rule="evenodd" d="M37.0948 22.5085L28.7274 33.1489C27.4594 34.838 25.5404 35.9361 23.2835 35.9361H13.2734L17.0741 26.6721C18.1076 24.153 20.5615 22.5072 23.2848 22.5078L37.0948 22.5085Z" fill="#1A32AF"/>
<path fill-rule="evenodd" clip-rule="evenodd" d="M18.6966 11.3125H32.5157L25.0603 29.5233C24.0281 32.045 21.5736 33.6928 18.8484 33.6928H5.0293L12.4847 15.482C13.5169 12.9603 15.9714 11.3125 18.6966 11.3125Z" fill="#0092FF"/>
<path fill-rule="evenodd" clip-rule="evenodd" d="M32.5147 11.3131L24.1473 21.9536C22.8793 23.6427 20.9603 24.7408 18.7034 24.7408H8.69336L12.494 15.4768C13.5275 12.9577 15.9814 11.3119 18.7047 11.3125L32.5147 11.3131Z" fill="#1A32AF"/>
<path fill-rule="evenodd" clip-rule="evenodd" d="M14.1146 0.109375H27.9337L20.4783 18.3202C19.4461 20.8419 16.9915 22.4897 14.2664 22.4897H0.447266L7.90262 4.27887C8.93483 1.75715 11.3894 0.109375 14.1146 0.109375Z" fill="#0055FF"/>
</svg>
