<svg width="155" height="33" viewBox="0 0 155 33" fill="none" xmlns="http://www.w3.org/2000/svg">
<path d="M103.596 7.12107C101.417 7.56508 98.6921 9.58332 97.7233 11.4805C97.1178 12.6712 96.6738 14.5683 96.6738 15.9609C96.6738 19.2708 98.0462 21.9954 100.549 23.6706C102.103 24.6999 103.657 25.1641 105.655 25.1641C107.673 25.1641 109.207 24.6999 110.781 23.6504C113.344 21.9349 114.616 19.3919 114.636 15.9811C114.656 10.0475 109.55 5.9505 103.596 7.12107ZM108.016 10.5117C109.187 11.0163 110.257 12.1061 110.801 13.317C111.407 14.7096 111.407 17.3737 110.781 18.8066C109.409 21.9954 105.009 23.0853 102.163 20.9056C101.114 20.1185 100.367 18.7865 100.085 17.2122C99.8828 16.0215 99.8828 15.638 100.186 14.4674C100.488 13.2363 101.013 12.2272 101.618 11.6621C103.415 9.96678 105.816 9.54295 108.016 10.5117Z" fill="white"/>
<path d="M126.24 7.18386C123.616 7.87006 121.174 9.96902 120.266 12.3505C118.934 15.9026 119.62 19.8987 122.042 22.4821C123.919 24.4801 127.249 25.5902 129.953 25.1058C134.01 24.3792 136.855 21.5335 137.461 17.5778C138.127 13.3798 136.189 9.5452 132.516 7.80951C131.204 7.18386 130.781 7.08295 129.126 7.00222C127.975 6.96186 126.845 7.0224 126.24 7.18386ZM130.357 10.2919C131.164 10.5543 131.79 10.9378 132.536 11.6643C133.848 12.956 134.312 14.3082 134.171 16.5888C134.03 19.0309 132.96 20.6253 130.801 21.6142C129.893 22.0381 129.509 22.0986 128.278 22.0179C126.522 21.8968 125.473 21.3922 124.342 20.1207C123.313 18.9502 123.01 17.9814 123.01 15.9026C123.031 13.1175 124.221 11.2809 126.623 10.3727C127.915 9.86811 128.924 9.84793 130.357 10.2919Z" fill="white"/>
<path d="M41.1113 9.78577C40.6068 11.1582 39.5977 13.8021 38.8711 15.6992C38.1445 17.5762 37.0547 20.4219 36.4492 22.0163L35.3594 24.9023L37.0749 24.8418L38.7904 24.7812L39.4766 22.8639C39.86 21.8144 40.2839 20.8861 40.4251 20.8053C40.849 20.5228 47.3477 20.6035 47.5899 20.8861C47.6908 21.0273 48.0137 21.8144 48.3164 22.6217C49.1641 25.0033 49.0228 24.8822 50.8594 24.8822C52.0098 24.8822 52.474 24.8014 52.474 24.6198C52.474 24.4987 52.1107 23.429 51.6465 22.2585C51.2025 21.0879 50.2943 18.6862 49.6283 16.9101C48.9623 15.1341 48.1146 12.914 47.7513 11.9655C47.388 11.0169 46.8431 9.58395 46.5404 8.77665L45.9753 7.32352H44.0176H42.0397L41.1113 9.78577ZM45.2891 14.3066C45.9147 15.9817 46.4193 17.4752 46.4193 17.5963C46.4193 17.7376 45.6322 17.8183 43.8965 17.8183C42.5039 17.8183 41.3737 17.778 41.3737 17.7174C41.3737 17.2936 43.8763 10.9765 44.0176 11.0976C44.0983 11.1784 44.6836 12.6315 45.2891 14.3066Z" fill="white"/>
<path d="M57.9238 16.1035V24.8828H59.5384H61.153L61.1934 18.5658L61.2539 12.2689L63.0703 15.0338C64.0794 16.5677 65.3106 18.4648 65.8151 19.2721C66.3399 20.0794 67.349 21.6738 68.0957 22.804L69.4278 24.8828H71.1432H72.8587V16.1035V7.32421H71.2442H69.6296V13.0762C69.6296 16.2448 69.5488 18.8281 69.4479 18.8281C69.347 18.8281 67.6517 16.2448 65.6738 13.0762L62.0612 7.32421H60.0026H57.9238V16.1035Z" fill="white"/>
<path d="M79.7207 16.1035V24.8828H81.3353H82.9499L82.9902 21.5124L83.0508 18.1217L85.7754 18.0208C88.2982 17.9199 88.5605 17.8796 89.4687 17.3548C91.265 16.3053 92.1732 14.4082 91.9713 12.1881C91.7897 10.0085 90.6393 8.4746 88.6615 7.72786C87.7129 7.36458 87.1074 7.32421 83.6562 7.32421H79.7207V16.1035ZM87.5312 10.4525C88.7624 11.179 89.166 12.8945 88.3991 14.1458C87.7936 15.1146 86.9056 15.4173 84.8066 15.3568L83.0508 15.2962L82.9902 12.8945C82.97 11.5625 82.9902 10.3516 83.0508 10.1901C83.2122 9.74609 86.6836 9.94791 87.5312 10.4525Z" fill="white"/>
<path d="M143.496 16.1035V24.8828L149.107 24.8424L154.697 24.7819L154.758 23.3288L154.818 21.8555L150.822 21.8151L146.826 21.7546L146.766 14.5293L146.725 7.32421H145.111H143.496V16.1035Z" fill="white"/>
<path fill-rule="evenodd" clip-rule="evenodd" d="M13.0265 1.97656C13.2548 1.97644 13.4794 2.0338 13.6797 2.14334C13.8799 2.25289 14.0494 2.41109 14.1724 2.60336L30.5063 28.131C30.6375 28.3366 30.711 28.5737 30.7193 28.8175C30.7275 29.0612 30.6702 29.3028 30.5534 29.5169C30.4365 29.7309 30.2643 29.9097 30.0548 30.0346C29.8453 30.1595 29.6061 30.2258 29.3622 30.2268H21.4221C21.1904 30.2268 20.9625 30.1676 20.7601 30.0548C20.5577 29.942 20.3875 29.7794 20.2656 29.5823L4.44201 4.05648C4.31454 3.85034 4.24435 3.61394 4.23866 3.37164C4.23296 3.12934 4.29198 2.88991 4.40962 2.678C4.52727 2.4661 4.69928 2.2894 4.90794 2.16611C5.11661 2.04281 5.35437 1.97738 5.59673 1.97656H13.0248H13.0265Z" fill="url(#paint0_radial_1829_3929)"/>
<path fill-rule="evenodd" clip-rule="evenodd" d="M21.9365 1.97657H29.3645C29.6075 1.97594 29.8462 2.04044 30.0557 2.16335C30.2653 2.28625 30.4381 2.46308 30.5562 2.67542C30.6743 2.88777 30.7333 3.12788 30.7271 3.37076C30.7209 3.61365 30.6497 3.85044 30.521 4.05649L14.6974 29.5823C14.5755 29.7794 14.4053 29.9421 14.2029 30.0549C14.0005 30.1676 13.7726 30.2268 13.5409 30.2268H5.60257C5.35791 30.2277 5.11755 30.1625 4.90684 30.0381C4.69613 29.9138 4.52288 29.7349 4.40536 29.5203C4.28785 29.3057 4.23042 29.0633 4.23915 28.8188C4.24787 28.5743 4.32241 28.3367 4.45491 28.131L20.7923 2.60337C20.9152 2.41135 21.0844 2.2533 21.2843 2.14377C21.4842 2.03424 21.7085 1.97674 21.9365 1.97657V1.97657Z" fill="url(#paint1_linear_1829_3929)"/>
<defs>
<radialGradient id="paint0_radial_1829_3929" cx="0" cy="0" r="1" gradientUnits="userSpaceOnUse" gradientTransform="translate(-15.131 -7.07302) rotate(151.815) scale(6.97222 11.2423)">
<stop stop-color="#2A39C6"/>
<stop offset="1" stop-color="#6674FC"/>
</radialGradient>
<linearGradient id="paint1_linear_1829_3929" x1="23.9108" y1="1.97656" x2="9.29074" y2="29.4748" gradientUnits="userSpaceOnUse">
<stop stop-color="#347FE0"/>
<stop offset="1" stop-color="#A64CF2"/>
</linearGradient>
</defs>
</svg>
