<svg width="161" height="63" viewBox="0 0 161 63" fill="none" xmlns="http://www.w3.org/2000/svg">
<g clip-path="url(#clip0_1_1666)">
<path d="M161.2 1.28835C160.991 1.60782 160.703 1.82482 160.585 2.11489C157.785 9.00057 154.991 15.8885 152.239 22.7943C151.942 23.5409 151.615 23.8175 150.806 23.8018C147.778 23.7428 144.748 23.7782 141.625 23.7782C141.721 23.4781 141.782 23.2361 141.874 23.0074C144.718 15.9559 147.578 8.91115 150.39 1.84658C150.669 1.14678 151.008 0.958515 151.699 0.968119C154.463 1.00651 157.227 0.979384 159.992 0.989564C160.35 0.990885 160.709 1.06834 161.134 1.02836C161.2 1.03743 161.2 1.12867 161.2 1.28835Z" fill="white"/>
<path d="M66.9247 6.07861C66.9247 8.88126 66.9247 11.5813 66.9247 14.3945C67.0941 14.2902 67.2045 14.2506 67.2769 14.1733C69.7371 11.5477 72.7536 11.027 76.0116 11.9769C79.4671 12.9844 81.014 15.7178 81.5767 19.1565C81.7085 19.962 81.7554 20.7905 81.7579 21.6086C81.7736 26.7737 81.7659 31.9388 81.7659 37.1852C78.8992 37.1852 76.0581 37.1852 73.155 37.1852C73.1422 36.8934 73.1182 36.5965 73.118 36.2996C73.1156 32.2279 73.1217 28.1562 73.1108 24.0845C73.1092 23.471 73.0839 22.8483 72.9796 22.2462C72.7202 20.7489 71.8156 19.8841 70.4596 19.7574C69.0285 19.6236 67.8637 20.2807 67.3833 21.6682C67.122 22.4229 66.996 23.2644 66.9891 24.0683C66.9522 28.4127 66.9716 32.7575 66.9716 37.1845C64.1103 37.1845 61.2697 37.1845 58.3747 37.1845C58.3747 25.1593 58.3747 13.1315 58.3747 1.0437C61.2017 1.0437 64.0153 1.0437 66.9247 1.0437C66.9247 2.71246 66.9247 4.34421 66.9247 6.07861Z" fill="white"/>
<path d="M33.0566 14.5504C35.8741 12.0329 39.0507 11.0821 42.6627 11.819C44.3266 12.1584 45.4721 12.8459 47.0396 14.3535C47.0396 13.6186 47.0396 12.9697 47.0396 12.2514C49.8535 12.2514 52.5694 12.2514 55.3589 12.2514C55.3589 20.5204 55.3589 28.842 55.3589 37.2149C52.6422 37.2149 49.9243 37.2149 47.1414 37.2149C47.1414 36.5419 47.1414 35.8713 47.1414 35.0136C46.8706 35.266 46.7233 35.4013 46.5781 35.5389C43.807 38.1657 40.537 38.4669 37.149 37.3675C32.55 35.8752 30.0111 32.3637 29.1238 27.6387C28.1861 22.6455 29.4066 18.2232 33.0566 14.5504ZM45.3172 20.6217C42.7579 18.8727 39.5814 19.4131 38.0103 21.8648C36.4723 24.265 37.1327 27.5512 39.4597 29.0774C41.684 30.5361 44.7029 30.0085 46.2701 27.8872C47.8886 25.6964 47.5418 22.713 45.3172 20.6217Z" fill="white"/>
<path d="M21.7884 34.1922C20.1061 38.3548 18.4465 42.4423 16.7835 46.538C13.7467 46.538 10.7524 46.538 7.62784 46.538C7.96836 45.6935 8.28416 44.8989 8.60856 44.1081C9.42015 42.1295 10.2628 40.1636 11.0271 38.1661C11.1837 37.7568 11.1963 37.1693 11.0324 36.7687C7.70239 28.6341 4.33691 20.5147 0.980866 12.3913C0.970365 12.3659 0.993813 12.3257 1.02708 12.1798C3.24718 12.1798 5.49475 12.1798 7.74231 12.1798C10.2895 12.1798 10.2878 12.1805 11.2 14.572C12.6527 18.3803 14.1074 22.1878 15.563 25.9949C15.6559 26.2379 15.7644 26.4746 15.914 26.8288C17.7029 22.1823 19.4643 17.6581 21.1741 13.1134C21.4432 12.398 21.7726 12.1448 22.5278 12.1595C25.189 12.2114 27.8518 12.1797 30.6834 12.1797C27.6986 19.56 24.7548 26.8386 21.7884 34.1922Z" fill="white"/>
<path d="M134.267 33.4475C127.563 40.8019 115.581 38.765 112.098 29.7413C109.271 22.4186 112.981 14.4092 120.241 12.1633C127.883 9.79898 135.545 14.2263 137.085 21.9784C137.924 26.1972 137.02 30.0437 134.267 33.4475ZM126.329 29.3485C126.589 29.1987 126.863 29.0693 127.107 28.8958C128.841 27.6628 129.585 25.3269 128.943 23.1694C128.322 21.0856 126.447 19.6759 124.291 19.672C122.168 19.6683 120.29 21.0079 119.667 23.0576C119.065 25.0356 119.389 26.8718 120.838 28.3526C122.36 29.9071 124.207 30.1248 126.329 29.3485Z" fill="white"/>
<path d="M105.224 34.8512C98.3297 40.4141 88.0972 38.1841 84.7402 30.3232C82.6193 25.3569 83.0871 20.4849 86.5118 16.2797C90.117 11.8527 94.9484 10.6932 100.257 12.0753C105.319 13.3931 108.495 16.8601 109.47 22.1489C110.383 27.1063 109.025 31.4059 105.224 34.8512ZM92.4701 27.4208C92.6485 27.6664 92.8105 27.9269 93.0078 28.1552C94.3402 29.6977 96.5843 30.224 98.4869 29.4499C100.378 28.6805 101.602 26.7383 101.537 24.6126C101.469 22.4063 100.135 20.5025 98.1578 19.918C96.169 19.3302 94.3589 19.7339 92.991 21.3698C91.4939 23.1602 91.396 25.1853 92.4701 27.4208Z" fill="white"/>
<path d="M108.169 47.2029C108.169 51.7721 108.169 56.2442 108.169 60.7675C106.471 60.7675 104.856 60.7675 103.201 60.7675C103.182 60.3337 103.166 59.9439 103.144 59.4409C100.933 61.5735 98.5558 61.8015 96.0423 60.3503C93.6178 58.9504 92.2671 55.7939 92.6718 52.6635C93.1336 49.0915 95.2942 46.6676 98.4085 46.2278C100.137 45.9837 101.474 46.4437 103.133 47.8999C103.133 47.4545 103.133 47.0717 103.133 46.5611C104.733 46.5611 106.252 46.5471 107.769 46.5848C107.906 46.5882 108.036 46.9243 108.169 47.2029ZM99.109 56.2219C101.349 57.1259 103.476 55.7134 103.286 53.4482C103.177 52.1516 102.223 51.0869 100.968 50.8608C99.63 50.6196 98.3079 51.3484 97.8021 52.606C97.2755 53.9152 97.6838 55.1567 99.109 56.2219Z" fill="white"/>
<path d="M110.245 50.6284C110.245 49.2365 110.245 47.9473 110.245 46.6122C111.985 46.6122 113.631 46.6122 115.328 46.6122C115.328 47.0655 115.328 47.4665 115.328 47.7614C116.228 47.2728 117.076 46.5764 118.033 46.3358C120.949 45.6024 123.485 47.35 123.784 50.407C124.026 52.879 123.915 55.3879 123.951 57.8805C123.965 58.8274 123.953 59.7747 123.953 60.7654C122.214 60.7654 120.568 60.7654 118.843 60.7654C118.843 58.3613 118.843 56.0115 118.843 53.6617C118.842 51.7513 118.353 50.9348 117.191 50.8981C115.966 50.8595 115.357 51.7989 115.355 53.7355C115.353 56.0545 115.355 58.3735 115.355 60.7563C113.652 60.7563 112.005 60.7563 110.245 60.7563C110.245 57.4026 110.245 54.0668 110.245 50.6284Z" fill="white"/>
<path d="M91.2322 56.1713C91.2322 57.7415 91.2322 59.2091 91.2322 60.7469C89.5424 60.7469 87.9016 60.7469 86.1693 60.7469C86.1693 58.3409 86.1748 55.9566 86.1643 53.5724C86.1624 53.1318 86.1354 52.6833 86.0505 52.2529C85.8843 51.4105 85.3384 50.9402 84.5132 50.9071C83.6939 50.8742 83.0883 51.3003 82.8378 52.0978C82.688 52.5745 82.6482 53.1035 82.6441 53.6097C82.625 55.9657 82.6356 58.3219 82.6356 60.7476C80.944 60.7476 79.3027 60.7476 77.6156 60.7476C77.6156 56.0515 77.6156 51.3788 77.6156 46.6333C79.2534 46.6333 80.8962 46.6333 82.5966 46.6333C82.6167 47.0562 82.6368 47.4776 82.6659 48.0875C83.607 46.9001 84.7005 46.2967 86.0457 46.1775C88.8318 45.9307 90.9928 47.8749 91.1839 50.9431C91.29 52.6457 91.2218 54.3598 91.2322 56.1713Z" fill="white"/>
<path d="M144.222 61.2656C140.5 61.0197 138.02 59.1032 137.243 55.9434C136.383 52.4436 137.612 48.995 140.452 47.2894C143.084 45.7092 145.823 45.6923 148.402 47.3641C151.061 49.0882 151.675 51.8262 151.539 54.9586C148.328 54.9586 145.184 54.9586 141.992 54.9586C142.027 56.0488 142.587 56.6453 143.405 56.9573C144.697 57.4509 145.825 57.1102 146.757 56.0008C148.173 56.5624 149.584 57.122 151.064 57.7088C149.451 60.3119 147.085 61.1932 144.222 61.2656ZM143.715 52.0485C144.666 52.0485 145.618 52.0485 146.586 52.0485C146.33 50.7143 145.505 50.0584 144.241 50.0988C143.002 50.1384 142.226 50.8024 142.038 52.0485C142.539 52.0485 143.03 52.0485 143.715 52.0485Z" fill="white"/>
<path d="M65.2248 51.8795C65.2243 54.8184 65.224 57.6562 65.221 60.494C65.2209 60.56 65.1898 60.626 65.1573 60.7553C63.5582 60.7553 61.9423 60.7553 60.2227 60.7553C60.2227 57.4735 60.2227 54.1808 60.2227 50.8023C59.5743 50.8023 59.0258 50.8023 58.4018 50.8023C58.4018 49.3734 58.4018 48.0289 58.4018 46.6054C58.9397 46.6054 59.4937 46.6054 60.0779 46.6054C60.1888 45.7338 60.2301 44.9195 60.403 44.1357C61.1697 40.6609 65.1198 38.58 68.3444 39.9476C68.554 40.0365 68.7983 40.3562 68.8063 40.577C68.8511 41.802 68.8278 43.0296 68.8278 44.2628C66.0297 43.9381 65.1997 44.4647 65.2821 46.561C65.8365 46.561 66.396 46.561 66.9554 46.561C67.4805 46.561 68.0057 46.561 68.5808 46.561C68.5808 47.9928 68.5808 49.3388 68.5808 50.7483C67.4792 50.7483 66.422 50.7483 65.2248 50.7483C65.2248 51.1328 65.2248 51.4557 65.2248 51.8795Z" fill="white"/>
<path d="M135.257 51.2116C134.234 51.1373 133.258 50.9116 132.359 51.0906C131.129 51.3352 130.414 52.5171 130.443 53.7519C130.471 54.9934 131.248 56.0055 132.457 56.3774C133.461 56.6861 134.054 56.5973 136.045 55.8279C136.045 57.2096 136.071 58.573 136.021 59.9333C136.012 60.1822 135.74 60.5458 135.506 60.6419C132.651 61.8148 129.967 61.3659 127.674 59.3376C125.277 57.2174 124.844 54.3656 125.661 51.3778C126.465 48.4384 128.525 46.7033 131.455 46.3411C132.762 46.1795 134.136 46.5174 135.47 46.7004C135.686 46.7301 136.009 47.1281 136.019 47.3668C136.072 48.7252 136.044 50.0868 136.044 51.5356C135.753 51.4135 135.546 51.327 135.257 51.2116Z" fill="white"/>
<path d="M149.191 34.569C147.702 36.9818 145.486 38.1044 143.086 37.6335C140.745 37.174 139.208 35.7344 138.612 33.3592C137.973 30.8126 139.079 28.1771 141.259 26.8282C143.394 25.507 146.232 25.768 148.043 27.4517C149.92 29.1974 150.37 31.8934 149.191 34.569Z" fill="white"/>
<path d="M71.4317 46.561C72.7616 46.5648 73.9946 46.5682 75.2276 46.5745C75.2558 46.5746 75.2838 46.6064 75.3811 46.6653C75.3811 51.3207 75.3811 56.018 75.3811 60.7672C73.7533 60.7672 72.1341 60.7672 70.4495 60.7672C70.4495 56.0569 70.4495 51.3606 70.4495 46.6034C70.7529 46.5889 71.0438 46.5749 71.4317 46.561Z" fill="white"/>
<path d="M75.3332 40.8839C76.0064 42.1316 75.915 43.2652 75.0514 44.2708C74.2858 45.1624 73.2951 45.4927 72.1602 45.1545C70.996 44.8077 70.3023 43.9925 70.1048 42.7647C69.9107 41.5586 70.6218 40.294 71.7562 39.7703C73.0104 39.1913 74.2413 39.5569 75.3332 40.8839Z" fill="white"/>
</g>
<defs>
<clipPath id="clip0_1_1666">
<rect width="161" height="62" fill="white" transform="translate(0 0.125)"/>
</clipPath>
</defs>
</svg>
