<svg width="19" height="19" viewBox="0 0 19 19" fill="none" xmlns="http://www.w3.org/2000/svg">
<path d="M9.82422 0.625C4.85442 0.625 0.824219 4.6552 0.824219 9.616C0.824219 14.5849 4.85442 18.625 9.82422 18.625C14.794 18.625 18.8242 14.5858 18.8242 9.616C18.8242 4.6543 14.794 0.625 9.82422 0.625ZM14.2567 6.277C14.1991 7.1113 12.6547 13.3474 12.6547 13.3474C12.6547 13.3474 12.5584 13.7128 12.2227 13.7218C12.1412 13.7257 12.0598 13.7123 11.9838 13.6825C11.9078 13.6527 11.8389 13.6072 11.7817 13.549C11.4262 13.252 10.6207 12.676 9.86292 12.1486C9.83304 12.1798 9.80085 12.2087 9.76662 12.235C9.59382 12.388 9.33462 12.6094 9.05652 12.8776C8.9421 12.9805 8.83017 13.0861 8.72082 13.1944L8.71182 13.2034C8.65696 13.258 8.59896 13.3094 8.53812 13.3573C8.16462 13.6642 8.12592 13.405 8.12592 13.2709L8.32752 11.074V11.0551L8.33652 11.0353C8.34642 11.0065 8.36622 10.9966 8.36622 10.9966C8.36622 10.9966 12.2902 7.5046 12.3955 7.1302C12.4045 7.1113 12.3766 7.0924 12.3289 7.1113C12.0697 7.1977 7.54992 10.057 7.05132 10.3738C7.02252 10.3918 6.93612 10.3828 6.93612 10.3828L4.73922 9.6628C4.73922 9.6628 4.48002 9.5575 4.56642 9.3181C4.58532 9.2704 4.61412 9.2218 4.71942 9.1552C5.20902 8.8096 13.7194 5.7487 13.7194 5.7487C13.7194 5.7487 13.9597 5.6722 14.1037 5.7199C14.1703 5.7487 14.209 5.7775 14.2477 5.8729C14.2567 5.9116 14.2666 5.9881 14.2666 6.0745C14.2666 6.1231 14.2576 6.1807 14.2576 6.2761L14.2567 6.277Z" fill="white"/>
</svg>
